<svg width="57" height="51" fill="none" xmlns="http://www.w3.org/2000/svg"><path d="M56.537 19.318l-2.24-2.254a1.576 1.576 0 00-2.24 0l-1.118 1.127-2.86-2.879c.557-2.123.035-4.473-1.618-6.137l-4.478-4.507c-6.183-6.224-16.208-6.224-22.392 0l8.956 4.507v1.868c0 1.69.667 3.312 1.856 4.507l4.863 4.895c1.653 1.664 3.988 2.19 6.096 1.628l2.86 2.88-1.119 1.126a1.601 1.601 0 000 2.254l2.24 2.254a1.576 1.576 0 002.239 0l8.957-9.016a1.602 1.602 0 00-.002-2.253zm-28.374-1.514a9.663 9.663 0 01-.974-1.19L1.944 40.338c-2.53 2.379-2.598 6.394-.151 8.858a6.091 6.091 0 008.8-.152l23.565-25.408c-.392-.29-.781-.584-1.132-.937l-4.863-4.895z" fill="#F7654A"/></svg>