<svg width="83" height="67" fill="none" xmlns="http://www.w3.org/2000/svg"><path d="M35.275 37.688h-8.3c-.55 0-1.078-.221-1.467-.614a2.103 2.103 0 01-.608-1.48v-8.375c0-.556.219-1.088.608-1.48.389-.393.917-.614 1.467-.614h8.3c.55 0 1.078.22 1.467.613.39.393.608.925.608 1.48v4.858c1.44-1.685 3.502-2.764 5.81-2.764h17.76l.862-.985c.28-.353.445-.787.468-1.24a2.143 2.143 0 00-.616-1.387l-7.684-6.856V6.28c0-.555-.219-1.088-.608-1.48a2.066 2.066 0 00-1.467-.614h-4.15c-.55 0-1.078.221-1.467.614-.39.392-.608.925-.608 1.48v5.143L34.173 1.167C33.459.523 32.09 0 31.13 0s-2.325.523-3.043 1.167L.62 25.703c-.37.368-.59.862-.62 1.385.022.448.183.878.46 1.229l2.437 2.788c.368.375.86.598 1.383.626a2.13 2.13 0 001.211-.456L8.3 28.773V50.25c0 1.11.437 2.176 1.216 2.961a4.131 4.131 0 002.934 1.227h22.825v-16.75zm46.341 20.937h-4.841V37.687c0-2.312-1.672-4.187-3.735-4.187H43.16c-2.063 0-3.735 1.875-3.735 4.188v20.937h-4.841c-.367 0-.72.147-.979.409-.26.262-.405.617-.405.987v1.395a5.629 5.629 0 001.623 3.94A5.529 5.529 0 0038.725 67h38.75a5.529 5.529 0 003.902-1.644A5.629 5.629 0 0083 61.416v-1.395c0-.37-.146-.725-.405-.987a1.377 1.377 0 00-.979-.409zm-11.066 0h-24.9V39.781h24.9v18.844z" fill="#F7654A"/></svg>