<svg width="55" height="60" fill="none" xmlns="http://www.w3.org/2000/svg"><path d="M53.527 56.25H51.07V2.812C51.071 1.26 49.752 0 48.125 0H6.875C5.248 0 3.929 1.26 3.929 2.813V56.25H1.473C.66 56.25 0 56.88 0 57.656V60h55v-2.344c0-.776-.66-1.406-1.473-1.406zM15.714 8.906c0-.776.66-1.406 1.473-1.406h4.911c.814 0 1.473.63 1.473 1.406v4.688c0 .776-.66 1.406-1.473 1.406h-4.91c-.814 0-1.474-.63-1.474-1.406V8.906zm0 11.25c0-.776.66-1.406 1.473-1.406h4.911c.814 0 1.473.63 1.473 1.406v4.688c0 .776-.66 1.406-1.473 1.406h-4.91c-.814 0-1.474-.63-1.474-1.406v-4.688zM22.098 37.5h-4.91c-.814 0-1.474-.63-1.474-1.406v-4.688c0-.776.66-1.406 1.473-1.406h4.911c.814 0 1.473.63 1.473 1.406v4.688c0 .776-.66 1.406-1.473 1.406zm9.33 18.75h-7.857v-9.844c0-.776.66-1.406 1.474-1.406h4.91c.814 0 1.474.63 1.474 1.406v9.844zm7.858-20.156c0 .776-.66 1.406-1.474 1.406h-4.91c-.814 0-1.473-.63-1.473-1.406v-4.688c0-.776.66-1.406 1.473-1.406h4.91c.814 0 1.474.63 1.474 1.406v4.688zm0-11.25c0 .776-.66 1.406-1.474 1.406h-4.91c-.814 0-1.473-.63-1.473-1.406v-4.688c0-.776.66-1.406 1.473-1.406h4.91c.814 0 1.474.63 1.474 1.406v4.688zm0-11.25c0 .776-.66 1.406-1.474 1.406h-4.91c-.814 0-1.473-.63-1.473-1.406V8.906c0-.776.66-1.406 1.473-1.406h4.91c.814 0 1.474.63 1.474 1.406v4.688z" fill="#F7654A"/></svg>