<svg width="53" height="53" fill="none" xmlns="http://www.w3.org/2000/svg"><g clip-path="url(#clip0)"><path d="M11.33 25.26l13.931-13.929-4.567-4.567-6.385 6.385a.82.82 0 01-1.16 0l-1.16-1.16a.82.82 0 010-1.16l6.384-6.385L14.891.96a3.283 3.283 0 00-4.644 0L.961 10.247a3.284 3.284 0 000 4.643l10.37 10.37zm40.213-12.09a4.973 4.973 0 000-7.032l-4.684-4.684a4.974 4.974 0 00-7.034 0L35.06 6.217 46.78 17.935l4.764-4.765zM32.718 8.56L1.974 39.3.032 50.422a2.198 2.198 0 002.546 2.542l11.123-1.95 30.736-30.737L32.719 8.56zm19.32 29.547l-3.483-3.482-6.385 6.384a.82.82 0 01-1.16 0l-1.16-1.16a.822.822 0 010-1.16l6.385-6.385-4.57-4.57-13.93 13.93 10.373 10.372a3.283 3.283 0 004.643 0l9.287-9.285a3.283 3.283 0 000-4.644z" fill="#F7654A"/></g><defs><clipPath id="clip0"><path fill="#fff" d="M0 0h53v53H0z"/></clipPath></defs></svg>