<svg width="53" height="71" fill="none" xmlns="http://www.w3.org/2000/svg"><g clip-path="url(#clip0)"><path d="M51.054 13.577L39.474 1.942a6.61 6.61 0 00-4.679-1.955H6.625C2.967 0 0 2.982 0 6.657v57.688C0 68.019 2.967 71 6.625 71h39.75C50.033 71 53 68.019 53 64.345V18.292a6.705 6.705 0 00-1.946-4.715zm-5.217 4.174H35.333V7.198L45.837 17.75zM6.625 64.345V6.657h22.083V21.08a3.312 3.312 0 003.313 3.328h14.354v39.938H6.625zM37.003 35.5c-.786 0-1.463.555-1.614 1.317-2.844 13.548-2.816 13.23-2.899 14.353-.028-.167-.055-.36-.096-.597-.11-.707.04.028-3.258-13.797a1.657 1.657 0 00-1.615-1.276h-1.835c-.76 0-1.422.527-1.615 1.262-3.368 13.728-3.313 13.34-3.423 14.38-.014-.153-.028-.347-.07-.582-.096-.721-1.945-10.165-2.635-13.729a1.66 1.66 0 00-1.629-1.345h-2.319a1.665 1.665 0 00-1.614 2.052c1.104 4.521 3.685 15.185 4.582 18.86.18.748.842 1.262 1.615 1.262h3.478a1.64 1.64 0 001.6-1.262l2.471-9.901c.207-.86.345-1.665.414-2.4l.4 2.4c.015.055 1.74 7.002 2.471 9.9.18.736.842 1.263 1.601 1.263h3.41a1.64 1.64 0 001.6-1.262c2.871-11.358 4.169-16.502 4.762-18.86a1.656 1.656 0 00-1.6-2.066h-2.182v.028z" fill="#F7654A"/></g><defs><clipPath id="clip0"><path fill="#fff" d="M0 0h53v71H0z"/></clipPath></defs></svg>