<svg width="20" height="20" viewBox="0 0 20 20" fill="none" xmlns="http://www.w3.org/2000/svg">
<path fill-rule="evenodd" clip-rule="evenodd" d="M10 0C7.33187 0 5.16832 2.25743 5.16832 5.04132C5.16832 7.94092 7.39725 10.9091 10 10.9091C12.6027 10.9091 14.8317 7.94092 14.8317 5.04132C14.8317 2.25743 12.6681 0 10 0ZM6.91089 5.04132C6.91089 7.02058 8.4656 9.09091 10 9.09091C11.5344 9.09091 13.0891 7.02058 13.0891 5.04132C13.0891 3.26158 11.7057 1.81818 10 1.81818C8.29427 1.81818 6.91089 3.26158 6.91089 5.04132ZM18 17.438C18 14.1971 15.4824 11.5702 12.3762 11.5702H7.62376C4.51761 11.5702 2 14.1971 2 17.438V18.2645C2 18.6598 2.24487 19.0098 2.60574 19.1303C2.95497 19.2469 3.60579 19.4124 4.54879 19.5747C6.09577 19.8409 7.91606 20 10 20C12.0839 20 13.9042 19.8409 15.4512 19.5747C16.3942 19.4124 17.045 19.2469 17.3943 19.1303C17.7551 19.0098 18 18.6598 18 18.2645V17.438ZM12.3762 13.3884C14.52 13.3884 16.2574 15.2013 16.2574 17.438V17.5608C15.942 17.6355 15.5786 17.71 15.1676 17.7807C13.7133 18.031 11.9878 18.1818 10 18.1818C8.01216 18.1818 6.28666 18.031 4.8324 17.7807C4.42145 17.71 4.05797 17.6355 3.74257 17.5608V17.438C3.74257 15.2013 5.48001 13.3884 7.62376 13.3884H12.3762Z" fill="#111111"/>
<mask id="mask0" mask-type="alpha" maskUnits="userSpaceOnUse" x="2" y="0" width="16" height="20">
<path fill-rule="evenodd" clip-rule="evenodd" d="M10 0C7.33187 0 5.16832 2.25743 5.16832 5.04132C5.16832 7.94092 7.39725 10.9091 10 10.9091C12.6027 10.9091 14.8317 7.94092 14.8317 5.04132C14.8317 2.25743 12.6681 0 10 0ZM6.91089 5.04132C6.91089 7.02058 8.4656 9.09091 10 9.09091C11.5344 9.09091 13.0891 7.02058 13.0891 5.04132C13.0891 3.26158 11.7057 1.81818 10 1.81818C8.29427 1.81818 6.91089 3.26158 6.91089 5.04132ZM18 17.438C18 14.1971 15.4824 11.5702 12.3762 11.5702H7.62376C4.51761 11.5702 2 14.1971 2 17.438V18.2645C2 18.6598 2.24487 19.0098 2.60574 19.1303C2.95497 19.2469 3.60579 19.4124 4.54879 19.5747C6.09577 19.8409 7.91606 20 10 20C12.0839 20 13.9042 19.8409 15.4512 19.5747C16.3942 19.4124 17.045 19.2469 17.3943 19.1303C17.7551 19.0098 18 18.6598 18 18.2645V17.438ZM12.3762 13.3884C14.52 13.3884 16.2574 15.2013 16.2574 17.438V17.5608C15.942 17.6355 15.5786 17.71 15.1676 17.7807C13.7133 18.031 11.9878 18.1818 10 18.1818C8.01216 18.1818 6.28666 18.031 4.8324 17.7807C4.42145 17.71 4.05797 17.6355 3.74257 17.5608V17.438C3.74257 15.2013 5.48001 13.3884 7.62376 13.3884H12.3762Z" fill="white"/>
</mask>
<g mask="url(#mask0)">
<rect width="20" height="20" fill="black"/>
</g>
</svg>
