<svg width="39" height="15" viewBox="0 0 39 15" fill="none" xmlns="http://www.w3.org/2000/svg">
<path fill-rule="evenodd" clip-rule="evenodd" d="M38.424 10.0661H36.4808C36.2868 10.0661 36.1579 10.0734 36.0493 10.1465C35.9369 10.2185 35.8935 10.3254 35.8935 10.4665C35.8935 10.6343 35.9885 10.7485 36.1267 10.7978C36.2392 10.8369 36.36 10.8483 36.5376 10.8483L37.1154 10.8637C37.6985 10.878 38.0878 10.978 38.3251 11.2217C38.3683 11.2556 38.3942 11.2937 38.424 11.3318V10.0661ZM38.424 12.9987C38.165 13.3763 37.6603 13.5677 36.9771 13.5677H34.9181V12.6139H36.9688C37.1722 12.6139 37.3146 12.5872 37.4003 12.5038C37.4745 12.435 37.5263 12.335 37.5263 12.2136C37.5263 12.0841 37.4745 11.9812 37.3961 11.9195C37.3187 11.8516 37.2061 11.8207 37.0205 11.8207C36.0193 11.7868 34.7704 11.8516 34.7704 10.444C34.7704 9.79878 35.1813 9.11965 36.3001 9.11965H38.4238V8.23462H36.4507C35.8552 8.23462 35.4226 8.3768 35.1163 8.59786V8.23462H32.1977C31.731 8.23462 31.1831 8.34998 30.924 8.59786V8.23462H25.7122V8.59786C25.2974 8.29954 24.5975 8.23462 24.2745 8.23462H20.8367V8.59786C20.5085 8.28103 19.7788 8.23462 19.334 8.23462H15.4865L14.6061 9.18457L13.7815 8.23462H8.03418V14.4414H13.6733L14.5805 13.4764L15.4351 14.4414L18.9111 14.4445V12.9844H19.2529C19.7141 12.9915 20.258 12.973 20.7379 12.7661V14.4412H23.605V12.8236H23.7433C23.9198 12.8236 23.9372 12.8308 23.9372 13.0066V14.4411H32.6468C33.1998 14.4411 33.7778 14.3 34.0978 14.0439V14.4411H36.8605C37.4354 14.4411 37.9968 14.3608 38.424 14.155V12.9987ZM34.171 11.2217C34.3786 11.4359 34.4899 11.7063 34.4899 12.1641C34.4899 13.1211 33.8902 13.5677 32.815 13.5677H30.7383V12.6139H32.8066C33.0089 12.6139 33.1523 12.5872 33.2421 12.5038C33.3155 12.435 33.3681 12.335 33.3681 12.2136C33.3681 12.0841 33.3112 11.9812 33.238 11.9195C33.1564 11.8516 33.044 11.8207 32.8583 11.8207C31.8612 11.7868 30.6125 11.8516 30.6125 10.444C30.6125 9.79878 31.0191 9.11965 32.1369 9.11965H34.2743V10.0664H32.3185C32.1246 10.0664 31.9986 10.0736 31.8914 10.1467C31.7746 10.2188 31.7313 10.3257 31.7313 10.4668C31.7313 10.6346 31.8304 10.7487 31.9645 10.7981C32.077 10.8371 32.1978 10.8485 32.3795 10.8485L32.9534 10.864C33.5322 10.878 33.9295 10.9778 34.171 11.2217ZM24.5503 10.947C24.4077 11.0314 24.2313 11.0386 24.0238 11.0386H22.7286V10.0396H24.0414C24.2313 10.0396 24.4212 10.0436 24.5503 10.1199C24.6884 10.1919 24.7711 10.3297 24.7711 10.52C24.7711 10.7104 24.6884 10.8637 24.5503 10.947ZM25.1942 11.5006C25.4315 11.5879 25.6255 11.7444 25.7165 11.874C25.867 12.0912 25.8888 12.2938 25.8931 12.6859V13.5677H24.8227V13.0112C24.8227 12.7436 24.8485 12.3474 24.6504 12.1405C24.4946 11.9812 24.2571 11.9431 23.8681 11.9431H22.7287V13.5677H21.6574V9.11952H24.1189C24.6587 9.11952 25.0518 9.14326 25.4018 9.32944C25.7383 9.53212 25.9499 9.80978 25.9499 10.3172C25.9498 11.0272 25.4748 11.3895 25.1942 11.5006ZM26.5411 9.11952H30.0995V10.0394H27.6029V10.8481H30.0386V11.7557H27.6029V12.6407L30.0995 12.6447V13.5677H26.5411V9.11952ZM19.3476 11.1723H17.9697V10.0396H19.36C19.7449 10.0396 20.0121 10.196 20.0121 10.585C20.0121 10.9697 19.7573 11.1723 19.3476 11.1723ZM16.9078 13.1632L15.2709 11.3513L16.9078 9.59691V13.1632ZM12.6804 12.6407H10.059V11.7557H12.3998V10.8481H10.059V10.0394H12.7321L13.8983 11.3357L12.6804 12.6407ZM21.1567 10.585C21.1567 11.8206 20.2321 12.0757 19.3001 12.0757H17.9697V13.5677H15.8974L14.5846 12.0952L13.2202 13.5677H8.99695V9.11952H13.2852L14.5969 10.5776L15.9531 9.11952H19.36C20.2061 9.11952 21.1567 9.35305 21.1567 10.585Z" fill="#0072CE"/>
<path fill-rule="evenodd" clip-rule="evenodd" d="M3.91008 3.99326L3.18033 2.22038L2.45475 3.99326H3.91008ZM19.9864 3.2873C19.8398 3.37597 19.6666 3.37892 19.459 3.37892H18.1637V2.39114H19.4766C19.6624 2.39114 19.8563 2.39946 19.9822 2.47135C20.1205 2.53614 20.2061 2.67403 20.2061 2.86451C20.2061 3.05887 20.1247 3.21527 19.9864 3.2873ZM29.2263 3.99326L28.4885 2.22038L27.7547 3.99326H29.2263ZM12.0024 5.91221H10.9094L10.9054 2.42923L9.35938 5.91221H8.42325L6.8732 2.42615V5.91221H4.70467L4.295 4.92028H2.07507L1.66123 5.91221H0.503235L2.4125 1.46506H3.99659L5.80993 5.6756V1.46506H7.55008L8.9454 4.48192L10.2272 1.46506H12.0023V5.91221H12.0024ZM16.3587 5.91221H12.797V1.46506H16.3587V2.39114H13.8633V3.19274H16.2989V4.10433H13.8633V4.99244H16.3587V5.91221ZM21.3806 2.66276C21.3806 3.37181 20.9059 3.73813 20.6293 3.84813C20.8626 3.93666 21.0619 4.09306 21.1567 4.22263C21.3073 4.44382 21.3332 4.64141 21.3332 5.03858V5.91221H20.2579L20.2538 5.35139C20.2538 5.08379 20.2795 4.69895 20.0855 4.485C19.9297 4.3286 19.6922 4.29466 19.3084 4.29466H18.1639V5.91221H17.0978V1.46506H19.55C20.0949 1.46506 20.4964 1.47942 20.8411 1.67807C21.1784 1.87673 21.3806 2.16673 21.3806 2.66276ZM23.0868 5.91221H21.999V1.46506H23.0868V5.91221ZM35.7078 5.91221H34.197L32.176 2.57437V5.91221H30.0047L29.5897 4.92028H27.3749L26.9724 5.91221H25.7248C25.2065 5.91221 24.5504 5.79793 24.1788 5.42034C23.8041 5.04274 23.6091 4.53128 23.6091 3.72257C23.6091 3.06303 23.7256 2.46008 24.1839 1.98363C24.5286 1.62871 25.0684 1.46506 25.8031 1.46506H26.8353V2.41797H25.8248C25.4357 2.41797 25.216 2.47564 25.0043 2.68141C24.8226 2.86866 24.6978 3.22265 24.6978 3.68877C24.6978 4.16522 24.7928 4.50875 24.991 4.73316C25.1551 4.90914 25.4534 4.96253 25.7341 4.96253H26.2129L27.7156 1.4652H29.3131L31.1183 5.67157V1.4652H32.7416L34.6158 4.5624V1.4652H35.7078V5.91221ZM0.490857 6.78571H2.31254L2.72329 5.79793H3.64288L4.05256 6.78571H7.63686V6.03052L7.95679 6.78893H9.81749L10.1374 6.01925V6.78571H19.0451L19.0409 5.16427H19.2133C19.334 5.16843 19.3692 5.17956 19.3692 5.37822V6.78571H23.9763V6.40825C24.3479 6.60677 24.9259 6.78571 25.6864 6.78571H27.6246L28.0394 5.79793H28.959L29.3647 6.78571H33.0996V5.84742L33.6652 6.78571H36.6582V0.583252H33.6962V1.31577L33.2814 0.583252H30.242V1.31577L29.8611 0.583252H25.7556C25.0684 0.583252 24.4643 0.678891 23.9763 0.94542V0.583252H21.1431V0.94542C20.8326 0.670709 20.4095 0.583252 19.939 0.583252H9.58837L8.89387 2.18524L8.18067 0.583252H4.92048V1.31577L4.56233 0.583252H1.78191L0.490723 3.53224V6.78571H0.490857Z" fill="#0072CE"/>
</svg>
