<svg width="39" height="23" viewBox="0 0 39 23" fill="none" xmlns="http://www.w3.org/2000/svg">
<path fill-rule="evenodd" clip-rule="evenodd" d="M22.6082 11.5002C22.6082 17.5071 17.7066 22.3763 11.6603 22.3763C5.61429 22.3763 0.712891 17.5071 0.712891 11.5002C0.712891 5.49407 5.61429 0.624512 11.6603 0.624512C17.7066 0.624512 22.6082 5.49407 22.6082 11.5002Z" fill="#333399"/>
<path fill-rule="evenodd" clip-rule="evenodd" d="M26.3579 0.624512C23.5294 0.624512 20.9518 1.69065 19.0088 3.43965C18.6133 3.79578 18.2438 4.18112 17.9037 4.5907H20.115C20.4178 4.95593 20.6961 5.3399 20.9497 5.74243H17.0689C16.8366 6.11231 16.6253 6.49645 16.4383 6.89417H21.5803C21.7558 7.26714 21.911 7.65111 22.0438 8.04521H15.9743C15.8478 8.42093 15.7418 8.8049 15.6565 9.19712H22.3615C22.5227 9.93962 22.6082 10.71 22.6082 11.5002C22.6082 12.708 22.4097 13.8699 22.0438 14.9553H15.9743C16.1075 15.3496 16.2625 15.734 16.438 16.107H21.5803C21.3928 16.5044 21.1821 16.8889 20.9492 17.2587H17.0689C17.3224 17.6606 17.6012 18.0452 17.9037 18.4098H20.1147C19.775 18.8201 19.4052 19.2054 19.0092 19.5615C20.952 21.3105 23.5294 22.3763 26.3579 22.3763C32.404 22.3763 37.3054 17.5071 37.3054 11.5002C37.3054 5.49407 32.404 0.624512 26.3579 0.624512Z" fill="#0066CC"/>
<path fill-rule="evenodd" clip-rule="evenodd" d="M35.8462 17.5625C35.8462 17.3686 36.0047 17.2117 36.1996 17.2117C36.3951 17.2117 36.5531 17.3686 36.5531 17.5625C36.5531 17.7565 36.3951 17.914 36.1996 17.914C36.0047 17.914 35.8462 17.7565 35.8462 17.5625ZM36.1996 17.8297C36.3484 17.8297 36.4685 17.7103 36.4685 17.5625C36.4685 17.4152 36.3484 17.2961 36.1996 17.2961C36.0515 17.2961 35.9313 17.4152 35.9313 17.5625C35.9313 17.7103 36.0515 17.8297 36.1996 17.8297ZM36.1521 17.7166H36.0797V17.4085H36.2109C36.2382 17.4085 36.2659 17.4085 36.2901 17.4239C36.3152 17.441 36.3294 17.4705 36.3294 17.5008C36.3294 17.536 36.3092 17.5687 36.2759 17.581L36.3327 17.7166H36.2522L36.2052 17.5948H36.1521V17.7166ZM36.1521 17.542H36.192C36.2069 17.542 36.223 17.543 36.2361 17.536C36.2481 17.5283 36.2543 17.5142 36.2543 17.5004C36.2543 17.4887 36.247 17.4753 36.2368 17.469C36.224 17.4616 36.204 17.4635 36.1906 17.4635H36.1521V17.542Z" fill="#0066CC"/>
<path fill-rule="evenodd" clip-rule="evenodd" d="M11.0292 9.01033C10.9315 9.43693 10.8802 9.67858 10.7477 10.198C9.92457 9.85115 8.8208 9.67016 7.97394 10.1956C7.17483 10.7009 6.90477 11.4893 6.96308 12.3626C7.0219 12.7828 7.33936 13.1933 7.7864 13.3713C8.56147 13.6556 9.30106 13.5516 10.1244 13.1336C10.0073 13.6594 9.91903 14.0722 9.81679 14.4481C8.82928 14.7221 7.89194 14.8121 6.90477 14.4861C6.02297 14.1814 5.30569 13.3925 5.24739 12.5412C5.04739 11.1741 5.70585 9.77535 7.0456 9.1334C8.29141 8.57652 9.71264 8.67329 11.0292 9.01033Z" fill="#000066"/>
<path fill-rule="evenodd" clip-rule="evenodd" d="M24.9793 13.8692C24.7189 14.128 24.2767 14.695 23.0748 14.695C21.9802 14.695 21.2119 13.8931 21.601 12.0923C21.601 12.092 22.0536 9.97241 22.0536 9.97241H23.7239C23.7239 9.97241 23.2703 12.0944 23.2712 12.0923C23.1169 12.8135 23.1534 13.3623 23.8907 13.3623C24.7597 13.3623 25.0197 12.8403 25.1839 12.0923C25.1827 12.0933 25.6375 9.97241 25.6375 9.97241H27.3802L26.6304 13.3802C26.5451 13.78 26.4636 14.2033 26.4166 14.6208H24.8481C24.8481 14.6208 24.9471 14.0531 24.9793 13.8692Z" fill="#000066"/>
<path fill-rule="evenodd" clip-rule="evenodd" d="M27.9346 11.4423C27.9346 12.0319 28.3242 12.4347 29.2096 12.7357C29.8932 12.9731 30.0005 13.0427 30.0005 13.2491C30.0005 13.5432 29.6953 13.6679 29.0365 13.6679C28.5349 13.6679 28.0692 13.6183 27.5301 13.489C27.5301 13.489 27.318 14.4532 27.2964 14.5632C27.7651 14.6463 28.5766 14.6949 29.0481 14.6949C30.8169 14.6949 31.6371 14.2037 31.6371 13.1439C31.6371 12.5099 31.2931 12.1365 30.4541 11.8505C29.7467 11.6195 29.6683 11.5663 29.6683 11.3457C29.6683 11.0989 29.9477 10.968 30.4913 10.968C30.8184 10.968 31.2765 10.9955 31.7023 11.0398L31.9372 9.96129C31.5026 9.9099 30.8406 9.86865 30.4586 9.86865C28.5813 9.86865 27.9287 10.5866 27.9346 11.4423Z" fill="#000066"/>
<path fill-rule="evenodd" clip-rule="evenodd" d="M11.6663 9.97241H13.4142L12.4184 14.6208H10.6702L11.6663 9.97241Z" fill="#000066"/>
<path fill-rule="evenodd" clip-rule="evenodd" d="M21.6504 9.95267C20.4179 9.79094 20.0662 10.3925 19.7352 10.6916C19.7747 10.4496 19.8475 10.2136 19.833 9.97244H18.2275C18.0068 11.4119 17.6147 12.8685 17.308 14.308L17.2275 14.6205H19.0451C19.2527 13.6765 19.4937 12.2515 19.7717 11.8201C20.0494 11.3894 20.5115 11.0451 21.1182 11.2522L21.6504 9.95267Z" fill="#000066"/>
<path fill-rule="evenodd" clip-rule="evenodd" d="M17.8395 9.95267C16.6072 9.79094 16.2557 10.3925 15.9245 10.6916C15.9641 10.4496 16.0366 10.2136 16.0223 9.97244H14.417C14.1962 11.4119 13.804 12.8685 13.4974 14.308L13.417 14.6205H15.2344C15.4422 13.6765 15.6832 12.2515 15.961 11.8201C16.2389 11.3894 16.7008 11.0451 17.3075 11.2522L17.8395 9.95267Z" fill="#000066"/>
<path fill-rule="evenodd" clip-rule="evenodd" d="M32.1729 13.9289C32.1729 13.7348 32.3312 13.5774 32.5265 13.5774C32.7216 13.5774 32.8801 13.7348 32.8801 13.9289C32.8801 14.1229 32.7216 14.28 32.5265 14.28C32.3312 14.28 32.1729 14.1229 32.1729 13.9289ZM32.5265 14.1958C32.6747 14.1958 32.7953 14.0762 32.7953 13.9289C32.7953 13.7814 32.6747 13.662 32.5265 13.662C32.3782 13.662 32.2575 13.7814 32.2575 13.9289C32.2575 14.0762 32.3782 14.1958 32.5265 14.1958ZM32.4787 14.0829H32.4062V13.774H32.5374C32.5645 13.774 32.5927 13.7747 32.6166 13.7902C32.6422 13.807 32.6562 13.8369 32.6562 13.867C32.6562 13.9021 32.6358 13.9345 32.6024 13.9469L32.6595 14.0829H32.5794L32.532 13.9607H32.4787V14.0829ZM32.4787 13.9077H32.5189C32.5337 13.9077 32.5502 13.9091 32.563 13.9021C32.5749 13.8947 32.581 13.8802 32.581 13.8668C32.581 13.855 32.5735 13.8412 32.5638 13.8349C32.5512 13.8278 32.5306 13.8295 32.517 13.8295H32.4787V13.9077Z" fill="white"/>
<path fill-rule="evenodd" clip-rule="evenodd" d="M11.3713 8.67016C11.2736 9.09727 11.2222 9.33893 11.09 9.85782C10.2667 9.51149 9.16292 9.33051 8.31606 9.85558C7.51712 10.3607 7.24724 11.1493 7.30519 12.0224C7.36436 12.443 7.68148 12.8533 8.1287 13.0315C8.90358 13.3156 9.64318 13.2114 10.4667 12.7934C10.3496 13.3196 10.2612 13.7324 10.1589 14.1085C9.17174 14.3821 8.23406 14.4723 7.24724 14.1463C6.36509 13.8415 5.64815 13.0526 5.58968 12.201C5.38969 10.8341 6.04797 9.43518 7.38789 8.7934C8.63352 8.23652 10.0546 8.33312 11.3713 8.67016Z" fill="white"/>
<path fill-rule="evenodd" clip-rule="evenodd" d="M25.3215 13.5296C25.0609 13.7884 24.6185 14.3549 23.4168 14.3549C22.3222 14.3549 21.6268 13.5533 22.0157 11.7524L22.4688 9.63281H24.1393C24.1393 9.63281 23.6854 11.7543 23.6859 11.7524C23.5317 12.4737 23.5684 13.0225 24.3059 13.0225C25.1742 13.0225 25.4348 12.5005 25.5986 11.7524C25.5976 11.7537 26.0524 9.63281 26.0524 9.63281H27.7224L26.9723 13.0404C26.8871 13.4398 26.806 13.8632 26.7588 14.2812H25.1905C25.1905 14.2812 25.2894 13.7131 25.3215 13.5296Z" fill="white"/>
<path fill-rule="evenodd" clip-rule="evenodd" d="M28.2766 11.1026C28.2766 11.6921 28.6662 12.095 29.5518 12.3958C30.2355 12.6331 30.3426 12.7029 30.3426 12.909C30.3426 13.2034 30.0371 13.3284 29.3786 13.3284C28.8771 13.3284 28.4113 13.2784 27.8721 13.1495C27.8721 13.1495 27.66 14.1132 27.6382 14.2237C28.1072 14.3065 28.9186 14.3548 29.3902 14.3548C31.1588 14.3548 31.9792 13.8641 31.9792 12.804C31.9792 12.1698 31.6355 11.797 30.796 11.511C30.0884 11.28 30.0101 11.2262 30.0101 11.006C30.0101 10.7592 30.2898 10.6284 30.8336 10.6284C31.1604 10.6284 31.6187 10.6559 32.0446 10.6999L32.279 9.62121C31.8446 9.56981 31.1825 9.52856 30.8007 9.52856C28.9234 9.52856 28.2705 10.2467 28.2766 11.1026Z" fill="white"/>
<path fill-rule="evenodd" clip-rule="evenodd" d="M12.0808 9.63281H13.7566L12.7604 14.2812H11.0852L12.0808 9.63281Z" fill="white"/>
<path fill-rule="evenodd" clip-rule="evenodd" d="M21.9924 9.61288C20.7601 9.45098 20.4086 10.0525 20.0773 10.3516C20.1169 10.1096 20.1896 9.87327 20.175 9.63265H18.6424C18.4218 11.0718 18.0294 12.5282 17.723 13.968L17.6426 14.2803H19.3872C19.5951 13.3364 19.8359 11.9114 20.114 11.4803C20.3916 11.0492 20.8537 10.7051 21.4601 10.9123L21.9924 9.61288Z" fill="white"/>
<path fill-rule="evenodd" clip-rule="evenodd" d="M18.1821 9.61288C16.9496 9.45098 16.598 10.0525 16.2667 10.3516C16.3063 10.1096 16.3792 9.87327 16.3645 9.63265H14.8318C14.6112 11.0718 14.2192 12.5282 13.9123 13.968L13.832 14.2803H15.5764C15.7846 13.3364 16.0252 11.9114 16.3036 11.4803C16.5811 11.0492 17.0432 10.7051 17.6497 10.9123L18.1821 9.61288Z" fill="white"/>
</svg>
