<svg width="21" height="20" viewBox="0 0 21 20" fill="none" xmlns="http://www.w3.org/2000/svg">
<path fill-rule="evenodd" clip-rule="evenodd" d="M18.2831 11.119C20.5746 8.68979 20.5746 4.75103 18.2831 2.3218C15.9973 -0.10135 12.2946 -0.107405 10.0017 2.30364C7.70883 -0.107405 4.00616 -0.10135 1.72035 2.3218C-0.571173 4.75103 -0.571173 8.68979 1.72035 11.119L9.35795 19.2173C9.71298 19.5937 10.2887 19.5938 10.6437 19.2174L18.2831 11.119ZM16.9973 9.75603L10.001 17.1728L3.00615 9.7561C1.42464 8.07956 1.42464 5.36126 3.00608 3.68479C4.58752 2.00832 7.15175 2.00832 8.73319 3.68479C8.92331 3.88634 9.09414 4.10872 9.24419 4.3484C9.60382 4.9229 10.3996 4.9229 10.7592 4.3484C10.9095 4.10829 11.0796 3.88687 11.2702 3.68479C12.8517 2.00832 15.4159 2.00832 16.9973 3.68479C18.5788 5.36126 18.5788 8.07956 16.9973 9.75603Z" fill="#111111"/>
<mask id="mask0" mask-type="alpha" maskUnits="userSpaceOnUse" x="0" y="0" width="21" height="20">
<path fill-rule="evenodd" clip-rule="evenodd" d="M18.2831 11.119C20.5746 8.68979 20.5746 4.75103 18.2831 2.3218C15.9973 -0.10135 12.2946 -0.107405 10.0017 2.30364C7.70883 -0.107405 4.00616 -0.10135 1.72035 2.3218C-0.571173 4.75103 -0.571173 8.68979 1.72035 11.119L9.35795 19.2173C9.71298 19.5937 10.2887 19.5938 10.6437 19.2174L18.2831 11.119ZM16.9973 9.75603L10.001 17.1728L3.00615 9.7561C1.42464 8.07956 1.42464 5.36126 3.00608 3.68479C4.58752 2.00832 7.15175 2.00832 8.73319 3.68479C8.92331 3.88634 9.09414 4.10872 9.24419 4.3484C9.60382 4.9229 10.3996 4.9229 10.7592 4.3484C10.9095 4.10829 11.0796 3.88687 11.2702 3.68479C12.8517 2.00832 15.4159 2.00832 16.9973 3.68479C18.5788 5.36126 18.5788 8.07956 16.9973 9.75603Z" fill="white"/>
</mask>
<g mask="url(#mask0)">
<rect width="20" height="20" fill="black"/>
</g>
</svg>
