<svg width="39" height="23" viewBox="0 0 39 23" fill="none" xmlns="http://www.w3.org/2000/svg">
<path fill-rule="evenodd" clip-rule="evenodd" d="M37.5112 11.491C37.5112 17.5714 32.6019 22.4999 26.5446 22.4999C20.4885 22.4999 15.5786 17.5714 15.5786 11.491C15.5786 5.41038 20.4885 0.481689 26.5446 0.481689C32.6019 0.481689 37.5112 5.41038 37.5112 11.491Z" fill="#CC0000"/>
<path fill-rule="evenodd" clip-rule="evenodd" d="M18.0732 18.4822C17.7704 18.1135 17.4915 17.724 17.238 17.3162H21.1246C21.3579 16.9425 21.5685 16.5531 21.7565 16.1503H16.6064C16.4308 15.7732 16.2748 15.3841 16.142 14.9849H22.22C22.586 13.887 22.7838 12.7127 22.7838 11.491C22.7838 10.691 22.6989 9.9109 22.5377 9.15965H15.8252C15.9101 8.76245 16.0172 8.37378 16.1434 7.99381H22.2193C22.086 7.59452 21.9309 7.20568 21.7555 6.82849H16.6074C16.7955 6.42572 17.0066 6.03705 17.2392 5.66247H21.1234C20.87 5.25571 20.5904 4.86686 20.2881 4.49767H18.0746C18.4152 4.08273 18.7852 3.69319 19.1814 3.33253C17.235 1.56089 14.6516 0.481689 11.818 0.481689C5.76099 0.481689 0.851074 5.41038 0.851074 11.491C0.851074 17.5714 5.76099 22.4999 11.818 22.4999C14.6518 22.4999 17.2354 21.4207 19.1814 19.6498C19.5782 19.2884 19.9487 18.898 20.2893 18.4822H18.0732Z" fill="#0066CC"/>
<path fill-rule="evenodd" clip-rule="evenodd" d="M19.0252 14.4661C18.5565 14.5907 18.1032 14.6516 17.6242 14.6505C16.0956 14.6491 15.2996 13.9502 15.2996 12.6137C15.2996 11.0523 16.313 9.90381 17.6887 9.90381C18.8139 9.90381 19.5321 10.5477 19.5321 11.5566C19.5321 11.8914 19.4836 12.2176 19.3645 12.6786H16.6463C16.5496 13.3314 17.0243 13.6179 17.8325 13.6179C18.3166 13.6179 18.7542 13.5306 19.2392 13.3349L19.0252 14.4661ZM18.2942 11.7577C18.2942 11.6593 18.4454 10.9585 17.6587 10.9433C17.2243 10.9433 16.9129 11.2332 16.7869 11.7577H18.2942Z" fill="#000066"/>
<path fill-rule="evenodd" clip-rule="evenodd" d="M19.946 11.4516C19.946 12.0283 20.2695 12.4269 21.0049 12.7235C21.567 12.9546 21.6553 13.0216 21.6553 13.2281C21.6553 13.5143 21.4071 13.6455 20.8556 13.642C20.4416 13.639 20.0635 13.5884 19.6176 13.4644L19.4202 14.5164C19.8167 14.6088 20.3726 14.6391 20.8653 14.6505C22.3332 14.6505 23.0109 14.1681 23.0109 13.1253C23.0109 12.4982 22.7282 12.1296 22.0311 11.8547C21.4484 11.6209 21.3801 11.5706 21.3801 11.3588C21.3801 11.1104 21.611 10.9848 22.0611 10.9848C22.3341 10.9848 22.7076 11.0098 23.0622 11.053L23.261 9.99518C22.8998 9.9449 22.3519 9.90454 22.0346 9.90454C20.4795 9.90454 19.9414 10.6072 19.946 11.4516Z" fill="#000066"/>
<path fill-rule="evenodd" clip-rule="evenodd" d="M14.5543 14.5752H13.414L13.4412 14.0957C13.0935 14.4739 12.6302 14.6502 12.0018 14.6502C11.2579 14.6502 10.7483 14.1395 10.7483 13.4052C10.7483 12.2889 11.6341 11.645 13.1573 11.645C13.3138 11.645 13.513 11.6568 13.7175 11.68C13.7598 11.5305 13.7712 11.4662 13.7712 11.3851C13.7712 11.0796 13.5315 10.967 12.8906 10.967C12.2586 10.9694 11.8323 11.0636 11.4366 11.1702L11.6314 10.1462C12.3157 9.97149 12.7635 9.90381 13.2705 9.90381C14.45 9.90381 15.0729 10.3683 15.0729 11.2407C15.0828 11.4736 15.0022 11.9409 14.9614 12.1455C14.9153 12.4429 14.5885 14.1681 14.5543 14.5752ZM13.5534 12.5386C13.409 12.5243 13.3461 12.5199 13.2471 12.5199C12.4694 12.5199 12.0751 12.7524 12.0751 13.2112C12.0751 13.4993 12.2675 13.6794 12.5675 13.6794C13.1263 13.6794 13.5298 13.2101 13.5534 12.5386Z" fill="#000066"/>
<path fill-rule="evenodd" clip-rule="evenodd" d="M25.4135 14.5027C25.0395 14.6056 24.7478 14.6504 24.4325 14.6504C23.734 14.6504 23.3525 14.292 23.3525 13.6539C23.3305 13.4785 23.5012 12.6685 23.5401 12.4428C23.5786 12.2165 24.1836 8.91675 24.1836 8.91675H25.5407L25.3355 10.0086H26.0316L25.8425 11.1226H25.1433C25.1433 11.1226 24.7598 13.0568 24.7598 13.2047C24.7598 13.439 24.9012 13.541 25.2262 13.541C25.3815 13.541 25.5016 13.5264 25.5943 13.4985L25.4135 14.5027Z" fill="#000066"/>
<path fill-rule="evenodd" clip-rule="evenodd" d="M31.4776 9.90374C30.4829 9.90374 29.7057 10.3152 29.2542 11.0014L29.6461 9.98325C28.924 9.71724 28.4585 10.097 28.0378 10.6367C28.0378 10.6367 27.9673 10.7263 27.8969 10.8083V10.0081H26.6226C26.45 11.4203 26.1448 12.8525 25.9061 14.2679L25.8484 14.5756H27.2192C27.3494 13.8574 27.4561 13.2746 27.5626 12.8097C27.8537 11.5345 28.3439 11.1447 29.0797 11.3173C28.9098 11.6836 28.8167 12.1081 28.8167 12.5776C28.8167 13.7177 29.4331 14.6504 30.9644 14.6504C32.5094 14.6504 33.6282 13.822 33.6282 11.9327C33.6282 10.7933 32.8826 9.90374 31.4776 9.90374ZM31.0786 13.5424C30.5945 13.5498 30.3009 13.142 30.3009 12.5317C30.3009 11.8087 30.7292 10.9915 31.4175 10.9915C31.9728 10.9915 32.1629 11.4336 32.1629 11.9045C32.1629 12.9331 31.743 13.5424 31.0786 13.5424Z" fill="#000066"/>
<path fill-rule="evenodd" clip-rule="evenodd" d="M10.1095 14.5758H8.74428L9.5556 10.2847L7.68769 14.5758H6.44323L6.21583 10.31L5.4019 14.5758H4.16333L5.21818 8.99414H7.35162L7.52928 12.1058L8.88085 8.99414H11.1855L10.1095 14.5758Z" fill="#000066"/>
<path fill-rule="evenodd" clip-rule="evenodd" d="M19.3676 14.1222C18.8993 14.2469 18.4458 14.3078 17.967 14.3068C16.4384 14.3054 15.6423 13.6063 15.6423 12.27C15.6423 10.7085 16.6556 9.56006 18.0311 9.56006C19.1565 9.56006 19.8749 10.204 19.8749 11.2127C19.8749 11.5474 19.8262 11.873 19.7073 12.3349H16.9892C16.8923 12.9869 17.3667 13.274 18.1749 13.274C18.659 13.274 19.097 13.1867 19.5818 12.9906L19.3676 14.1222ZM18.6367 11.414C18.6367 11.3153 18.7878 10.6147 18.0014 10.5994C17.5671 10.5994 17.2556 10.8893 17.1293 11.414H18.6367Z" fill="white"/>
<path fill-rule="evenodd" clip-rule="evenodd" d="M20.2887 11.1074C20.2887 11.6843 20.6119 12.0826 21.3471 12.3795C21.9096 12.6108 21.9978 12.6776 21.9978 12.8836C21.9978 13.1703 21.7494 13.3015 21.1984 13.2982C20.7838 13.295 20.4058 13.2444 19.9602 13.1204L19.7625 14.1721C20.1592 14.2648 20.7154 14.2951 21.2076 14.3067C22.6755 14.3067 23.3535 13.8241 23.3535 12.7809C23.3535 12.1542 23.0707 11.7852 22.3736 11.5107C21.7909 11.277 21.7224 11.2261 21.7224 11.015C21.7224 10.7666 21.9536 10.6404 22.4036 10.6404C22.6765 10.6404 23.0499 10.666 23.4047 10.7092L23.6035 9.65136C23.2423 9.60039 22.6944 9.56055 22.3774 9.56055C20.822 9.56055 20.2838 10.2629 20.2887 11.1074Z" fill="white"/>
<path fill-rule="evenodd" clip-rule="evenodd" d="M14.8972 14.2313H13.7565L13.7841 13.7518C13.4362 14.1296 12.9733 14.3057 12.3446 14.3057C11.6009 14.3057 11.0908 13.7953 11.0908 13.0609C11.0908 11.945 11.9769 11.3011 13.5 11.3011C13.6565 11.3011 13.8555 11.3131 14.0604 11.3354C14.1027 11.1863 14.1139 11.1224 14.1139 11.0412C14.1139 10.7349 13.8744 10.6229 13.2336 10.6229C12.6015 10.6255 12.1751 10.7196 11.7796 10.8265L11.9739 9.80224C12.6584 9.62756 13.1061 9.56006 13.6134 9.56006C14.7928 9.56006 15.4156 10.0241 15.4156 10.8967C15.4258 11.1299 15.3447 11.5963 15.3045 11.8016C15.2579 12.099 14.9312 13.8241 14.8972 14.2313ZM13.8961 12.1948C13.7519 12.1799 13.6888 12.176 13.5896 12.176C12.8123 12.176 12.4178 12.4081 12.4178 12.8666C12.4178 13.1552 12.6105 13.3356 12.91 13.3356C13.4692 13.3356 13.8727 12.8659 13.8961 12.1948Z" fill="white"/>
<path fill-rule="evenodd" clip-rule="evenodd" d="M25.7562 14.159C25.382 14.262 25.0904 14.3069 24.775 14.3069C24.0765 14.3069 23.6953 13.9483 23.6953 13.3101C23.6732 13.1348 23.8439 12.3247 23.8825 12.0991C23.9214 11.8727 24.5264 8.573 24.5264 8.573H25.8834L25.6783 9.66455H26.3744L26.1851 10.7789H25.4861C25.4861 10.7789 25.1022 12.713 25.1022 12.8602C25.1022 13.0954 25.2438 13.1967 25.5688 13.1967C25.7241 13.1967 25.844 13.1828 25.9373 13.1546L25.7562 14.159Z" fill="white"/>
<path fill-rule="evenodd" clip-rule="evenodd" d="M32.5057 11.56C32.5057 12.5894 32.0852 13.1987 31.4209 13.1987C30.9368 13.2056 30.6434 12.7984 30.6434 12.188C30.6434 11.465 31.0716 10.6476 31.7597 10.6476C32.3152 10.6476 32.5057 11.0897 32.5057 11.56ZM33.9706 11.5888C33.9706 10.4496 33.2248 9.56006 31.8202 9.56006C30.2043 9.56006 29.1592 10.6412 29.1592 12.234C29.1592 13.3739 29.7755 14.3068 31.307 14.3068C32.852 14.3068 33.9706 13.4783 33.9706 11.5888Z" fill="white"/>
<path fill-rule="evenodd" clip-rule="evenodd" d="M26.9651 9.66387C26.7926 11.0764 26.4872 12.5084 26.2487 13.9236L26.1912 14.2319H27.5618C28.0558 11.4985 28.2216 10.7199 29.2569 10.994L29.7549 9.70076C29.0326 9.43474 28.568 9.81471 28.1473 10.3547C28.1853 10.1117 28.2567 9.877 28.2395 9.66387H26.9651Z" fill="white"/>
<path fill-rule="evenodd" clip-rule="evenodd" d="M10.4523 14.232H9.0874L9.89855 9.94091L8.03047 14.232H6.786L6.55843 9.96596L5.7445 14.232H4.5061L5.56078 8.65015H7.69439L7.80705 12.1057L9.3089 8.65015H11.5283L10.4523 14.232Z" fill="white"/>
</svg>
