<svg width="38" height="22" viewBox="0 0 38 22" fill="none" xmlns="http://www.w3.org/2000/svg">
<path fill-rule="evenodd" clip-rule="evenodd" d="M22.6209 10.7671C22.6209 16.6951 17.8157 21.5001 11.8878 21.5001C5.95979 21.5001 1.1543 16.6951 1.1543 10.7671C1.1543 4.83919 5.95979 0.0336914 11.8878 0.0336914C17.8157 0.0336914 22.6209 4.83919 22.6209 10.7671Z" fill="#CC0000"/>
<path fill-rule="evenodd" clip-rule="evenodd" d="M26.2978 0.0336914C23.5238 0.0336914 20.9971 1.08584 19.092 2.81189C18.7044 3.16368 18.3426 3.54363 18.0086 3.94818H20.1772C20.4734 4.30879 20.7463 4.68789 20.9954 5.08497H17.1902C16.9626 5.44982 16.7556 5.82892 16.5718 6.22176H21.6135C21.7859 6.58966 21.9375 6.9686 22.0681 7.35804H16.1172C15.9934 7.72815 15.8889 8.10742 15.8054 8.49415H22.3795C22.5369 9.22691 22.6207 9.98715 22.6207 10.7671C22.6207 11.9586 22.4265 13.1056 22.0681 14.1768H16.1172C16.2478 14.5659 16.3994 14.9453 16.5714 15.3137H21.6135C21.4293 15.7055 21.2234 16.085 20.9944 16.4503H17.1902C17.4383 16.8462 17.7118 17.2258 18.0086 17.5859H20.1765C19.8432 17.9908 19.4811 18.3708 19.0923 18.7226C20.9973 20.4486 23.5238 21.5001 26.2978 21.5001C32.2255 21.5001 37.0308 16.6951 37.0308 10.7671C37.0308 4.8397 32.2255 0.0336914 26.2978 0.0336914Z" fill="#FF9900"/>
<path fill-rule="evenodd" clip-rule="evenodd" d="M9.38114 11.9421C9.25885 11.9281 9.20491 11.9237 9.12095 11.9237C8.46045 11.9237 8.12647 12.1503 8.12647 12.598C8.12647 12.8736 8.28947 13.0488 8.5439 13.0488C9.01867 13.0488 9.36079 12.597 9.38114 11.9421ZM10.2287 13.9149C10.0734 13.9149 9.26292 13.9149 9.26292 13.9149L9.28514 13.4561C8.99068 13.8184 8.59767 13.9914 8.06388 13.9914C7.43255 13.9914 6.99951 13.4985 6.99951 12.7822C6.99951 11.7039 7.75245 11.0751 9.04513 11.0751C9.1776 11.0751 9.34688 11.0873 9.52023 11.1092C9.55619 10.963 9.56569 10.9009 9.56569 10.8221C9.56569 10.529 9.36282 10.419 8.81851 10.419C8.24842 10.4133 7.77824 10.5552 7.58504 10.6187C7.59725 10.5451 7.74669 9.62284 7.74669 9.62284C8.32713 9.4522 8.71013 9.38843 9.14113 9.38843C10.1419 9.38843 10.6719 9.83758 10.6708 10.6867C10.6728 10.9145 10.635 11.1945 10.5765 11.564C10.4754 12.2051 10.2582 13.5802 10.2287 13.9149Z" fill="#000066"/>
<path fill-rule="evenodd" clip-rule="evenodd" d="M6.51204 13.915H5.34658L6.01455 9.73013L4.52376 13.915H3.72977L3.63156 9.75354L2.93001 13.915H1.83936L2.75038 8.4707H4.42606L4.52732 11.5181L5.54962 8.4707H7.41323L6.51204 13.915Z" fill="#000066"/>
<path fill-rule="evenodd" clip-rule="evenodd" d="M27.7374 11.9421C27.6151 11.9281 27.5618 11.9237 27.478 11.9237C26.817 11.9237 26.4834 12.1503 26.4834 12.598C26.4834 12.8736 26.6457 13.0488 26.9008 13.0488C27.3753 13.0488 27.7176 12.597 27.7374 11.9421ZM28.5855 13.9149C28.4298 13.9149 27.62 13.9149 27.62 13.9149L27.6419 13.4561C27.3474 13.8184 26.9546 13.9914 26.4211 13.9914C25.789 13.9914 25.3564 13.4985 25.3564 12.7822C25.3564 11.7039 26.1097 11.0751 27.4021 11.0751C27.5344 11.0751 27.7033 11.0873 27.8768 11.1092C27.913 10.963 27.9223 10.9009 27.9223 10.8221C27.9223 10.529 27.7194 10.419 27.1751 10.419C26.605 10.4133 26.135 10.5552 25.9411 10.6187C25.954 10.5451 26.1038 9.62284 26.1038 9.62284C26.6839 9.4522 27.0672 9.38843 27.4976 9.38843C28.499 9.38843 29.0284 9.83758 29.0274 10.6867C29.0294 10.9145 28.9919 11.1945 28.933 11.564C28.8323 12.2051 28.6147 13.5802 28.5855 13.9149Z" fill="#000066"/>
<path fill-rule="evenodd" clip-rule="evenodd" d="M15.4074 13.8476C15.0883 13.948 14.8398 13.9914 14.5701 13.9914C13.9746 13.9914 13.6494 13.6491 13.6494 13.0186C13.6411 12.8229 13.7351 12.3081 13.8091 11.8386C13.8766 11.4249 14.3145 8.81714 14.3145 8.81714H15.4725L15.3373 9.48731H16.037L15.8791 10.5515H15.177C15.0425 11.3933 14.8507 12.4423 14.8485 12.5813C14.8485 12.8096 14.9703 12.9094 15.2476 12.9094C15.3804 12.9094 15.4832 12.8958 15.5617 12.8677L15.4074 13.8476Z" fill="#000066"/>
<path fill-rule="evenodd" clip-rule="evenodd" d="M18.9584 13.8118C18.5605 13.9334 18.177 13.9928 17.77 13.9914C16.4733 13.9897 15.7974 13.3129 15.7974 12.0162C15.7974 10.5028 16.6572 9.38843 17.8247 9.38843C18.7794 9.38843 19.3896 10.0123 19.3896 10.9903C19.3896 11.3155 19.3478 11.6323 19.2466 12.0794H16.9401C16.8622 12.7218 17.2731 12.9893 17.9473 12.9893C18.3613 12.9893 18.7355 12.9038 19.1513 12.7109L18.9584 13.8118ZM18.3074 11.1871C18.314 11.0946 18.43 10.3966 17.768 10.3966C17.3996 10.3966 17.1355 10.6779 17.0285 11.1871H18.3074Z" fill="#000066"/>
<path fill-rule="evenodd" clip-rule="evenodd" d="M10.9278 10.8872C10.9278 11.4468 11.1991 11.833 11.8149 12.1232C12.2866 12.3452 12.36 12.4109 12.36 12.6119C12.36 12.8875 12.1517 13.0127 11.6909 13.0127C11.343 13.0127 11.0197 12.9581 10.6467 12.8375C10.6467 12.8375 10.4939 13.8138 10.4866 13.8605C10.7513 13.9178 10.9875 13.9712 11.6992 13.9914C12.9286 13.9914 13.4965 13.5232 13.4965 12.5115C13.4965 11.9032 13.259 11.5462 12.6752 11.2775C12.1868 11.0534 12.1304 11.0032 12.1304 10.7966C12.1304 10.5573 12.3242 10.435 12.7006 10.435C12.9294 10.435 13.2417 10.4594 13.538 10.5013L13.7038 9.47442C13.4022 9.42642 12.9445 9.38843 12.6782 9.38843C11.3749 9.38843 10.9235 10.0691 10.9278 10.8872Z" fill="#000066"/>
<path fill-rule="evenodd" clip-rule="evenodd" d="M24.6257 9.50546C24.9493 9.50546 25.2516 9.58959 25.667 9.79941L25.8578 8.61784C25.6865 8.55067 25.0859 8.15698 24.577 8.15698C23.7975 8.15698 23.1376 8.54439 22.6744 9.18233C21.998 8.95844 21.7196 9.41098 21.379 9.86217L21.0762 9.93273C21.0991 9.78431 21.12 9.63691 21.1134 9.48748H20.0427C19.8969 10.8582 19.6379 12.246 19.4352 13.6172L19.3821 13.9151H20.5479C20.7424 12.6507 20.8488 11.8415 20.9136 11.2933L21.3526 11.05C21.4185 10.8056 21.6233 10.7235 22.0351 10.7335C21.9813 11.0222 21.9522 11.3263 21.9522 11.641C21.9522 13.0897 22.7348 13.9916 23.9886 13.9916C24.3117 13.9916 24.5892 13.9492 25.0189 13.8321L25.2231 12.5915C24.8367 12.7813 24.5204 12.8707 24.2335 12.8707C23.5561 12.8707 23.1461 12.3705 23.1461 11.5443C23.1461 10.3452 23.7554 9.50546 24.6257 9.50546Z" fill="#000066"/>
<path fill-rule="evenodd" clip-rule="evenodd" d="M34.4911 8.4707L34.2321 10.0436C33.9141 9.62446 33.5718 9.32084 33.1199 9.32084C32.532 9.32084 31.9968 9.7666 31.6464 10.423C31.1584 10.3218 30.6541 10.1496 30.6541 10.1496L30.6538 10.1538C30.6926 9.78695 30.7091 9.56373 30.7052 9.4874H29.6347C29.4894 10.8581 29.23 12.2459 29.0275 13.6171L28.9739 13.915H30.14C30.2974 12.8932 30.4177 12.0437 30.5064 11.371C30.905 11.0108 31.1045 10.6975 31.5063 10.7178C31.328 11.149 31.2241 11.6453 31.2241 12.1545C31.2241 13.2609 31.7835 13.9915 32.6309 13.9915C33.058 13.9915 33.3857 13.8441 33.7053 13.5028L33.6503 13.9146H34.7528L35.6404 8.4707H34.4911ZM33.0339 12.8922C32.6373 12.8922 32.4365 12.5981 32.4365 12.0193C32.4365 11.149 32.8119 10.5321 33.3402 10.5321C33.7407 10.5321 33.9578 10.8367 33.9578 11.3992C33.9578 12.277 33.5762 12.8922 33.0339 12.8922Z" fill="#000066"/>
<path fill-rule="evenodd" clip-rule="evenodd" d="M6.84708 13.5917H5.68196L6.34975 9.40687L4.8593 13.5917H4.06497L3.96693 9.43112L3.26522 13.5917H2.17456L3.08559 8.14795H4.76126L4.80808 11.518L5.93876 8.14795H7.74844L6.84708 13.5917Z" fill="white"/>
<path fill-rule="evenodd" clip-rule="evenodd" d="M9.71667 11.6197C9.59454 11.6055 9.5406 11.6016 9.45664 11.6016C8.79614 11.6016 8.46199 11.8279 8.46199 12.2751C8.46199 12.5504 8.62516 12.7267 8.87976 12.7267C9.35436 12.7267 9.69648 12.2748 9.71667 11.6197ZM10.5641 13.5919C10.4089 13.5919 9.59878 13.5919 9.59878 13.5919L9.62083 13.1334C9.32637 13.4956 8.93336 13.6687 8.39957 13.6687C7.76807 13.6687 7.33521 13.1751 7.33521 12.459C7.33521 11.3806 8.08832 10.7526 9.38099 10.7526C9.51312 10.7526 9.6824 10.7647 9.85592 10.7871C9.89188 10.6405 9.90138 10.5783 9.90138 10.4991C9.90138 10.2061 9.69852 10.0971 9.15421 10.0971C8.58395 10.0903 8.11393 10.2322 7.92056 10.2955C7.93295 10.2222 8.08221 9.30001 8.08221 9.30001C8.66282 9.12972 9.04582 9.06543 9.47682 9.06543C10.4774 9.06543 11.0073 9.51509 11.0065 10.3639C11.0083 10.5913 10.9708 10.8727 10.9121 11.2411C10.8109 11.8818 10.5938 13.2578 10.5641 13.5919Z" fill="white"/>
<path fill-rule="evenodd" clip-rule="evenodd" d="M26.193 8.29447L26.0022 9.47588C25.5861 9.26674 25.2847 9.1821 24.9614 9.1821C24.0914 9.1821 23.4811 10.0229 23.4811 11.2221C23.4811 12.0483 23.8913 12.5475 24.5687 12.5475C24.8557 12.5475 25.1727 12.4588 25.5583 12.2683L25.3535 13.5089C24.9246 13.6258 24.6469 13.6685 24.324 13.6685C23.0693 13.6685 22.2878 12.7665 22.2878 11.3181C22.2878 9.3719 23.3681 8.01172 24.9124 8.01172C25.4212 8.01172 26.0222 8.22731 26.193 8.29447Z" fill="white"/>
<path fill-rule="evenodd" clip-rule="evenodd" d="M28.0728 11.6197C27.9513 11.6055 27.8972 11.6016 27.8134 11.6016C27.1532 11.6016 26.8189 11.8279 26.8189 12.2751C26.8189 12.5504 26.9819 12.7267 27.2364 12.7267C27.7108 12.7267 28.0532 12.2748 28.0728 11.6197ZM28.9209 13.5919C28.7658 13.5919 27.9555 13.5919 27.9555 13.5919L27.9774 13.1334C27.683 13.4956 27.29 13.6687 26.7567 13.6687C26.1245 13.6687 25.6921 13.1751 25.6921 12.459C25.6921 11.3806 26.4446 10.7526 27.7376 10.7526C27.8697 10.7526 28.0387 10.7647 28.212 10.7871C28.2481 10.6405 28.2576 10.5783 28.2576 10.4991C28.2576 10.2061 28.0553 10.0971 27.5106 10.0971C26.9409 10.0903 26.471 10.2322 26.2773 10.2955C26.2895 10.2222 26.439 9.30001 26.439 9.30001C27.0196 9.12972 27.4022 9.06543 27.8332 9.06543C28.8338 9.06543 29.3642 9.51509 29.3629 10.3639C29.3653 10.5913 29.3274 10.8727 29.2687 11.2411C29.1678 11.8818 28.9507 13.2578 28.9209 13.5919Z" fill="white"/>
<path fill-rule="evenodd" clip-rule="evenodd" d="M15.7426 13.5247C15.4238 13.6251 15.175 13.6687 14.9057 13.6687C14.31 13.6687 13.9846 13.3262 13.9846 12.6964C13.9765 12.5 14.0706 11.9861 14.1447 11.5161C14.2117 11.102 14.6499 8.49463 14.6499 8.49463H15.8082L15.6727 9.16463H16.2674L16.1089 10.2285H15.5124C15.3779 11.0712 15.186 12.1194 15.1837 12.2585C15.1837 12.4875 15.306 12.5865 15.583 12.5865C15.7158 12.5865 15.8184 12.5735 15.8973 12.5446L15.7426 13.5247Z" fill="white"/>
<path fill-rule="evenodd" clip-rule="evenodd" d="M19.2943 13.4896C18.8962 13.6116 18.5118 13.6691 18.1054 13.6687C16.8085 13.6679 16.1331 12.9903 16.1331 11.6937C16.1331 10.1798 16.9927 9.06543 18.1593 9.06543C19.1151 9.06543 19.7249 9.68929 19.7249 10.6685C19.7249 10.993 19.6825 11.3097 19.5824 11.757H17.2756C17.1974 12.3993 17.6087 12.6673 18.2823 12.6673C18.6967 12.6673 19.0707 12.5815 19.4869 12.3881L19.2943 13.4896ZM18.6431 10.8641C18.6494 10.7715 18.7659 10.0738 18.104 10.0738C17.7353 10.0738 17.4712 10.3556 17.3638 10.8641H18.6431Z" fill="white"/>
<path fill-rule="evenodd" clip-rule="evenodd" d="M11.2629 10.5642C11.2629 11.1248 11.5346 11.5102 12.1505 11.8007C12.6222 12.0226 12.6953 12.0882 12.6953 12.2894C12.6953 12.5654 12.4872 12.6899 12.026 12.6899C11.6784 12.6899 11.355 12.6359 10.9818 12.5157C10.9818 12.5157 10.8291 13.4913 10.822 13.5373C11.0866 13.5953 11.3229 13.6482 12.0343 13.6687C13.264 13.6687 13.8319 13.2008 13.8319 12.189C13.8319 11.5804 13.5941 11.2235 13.0105 10.9555C12.522 10.7308 12.4658 10.6811 12.4658 10.4741C12.4658 10.2348 12.6595 10.1116 13.0362 10.1116C13.2645 10.1116 13.5772 10.1371 13.8733 10.1788L14.0392 9.15211C13.7374 9.10444 13.2802 9.06543 13.0137 9.06543C11.71 9.06543 11.259 9.74628 11.2629 10.5642Z" fill="white"/>
<path fill-rule="evenodd" clip-rule="evenodd" d="M35.088 13.5917H33.9858L34.0404 13.1797C33.7207 13.5212 33.3932 13.6686 32.9661 13.6686C32.1193 13.6686 31.5591 12.9389 31.5591 11.8312C31.5591 10.3586 32.4277 9.11733 33.4551 9.11733C33.907 9.11733 34.2491 9.30187 34.5678 9.72117L34.8263 8.14795H35.9755L35.088 13.5917ZM33.3689 12.5687C33.9119 12.5687 34.2928 11.9539 34.2928 11.0769C34.2928 10.5143 34.0759 10.2087 33.6754 10.2087C33.1469 10.2087 32.7717 10.8257 32.7717 11.6964C32.7717 12.2758 32.9727 12.5687 33.3689 12.5687Z" fill="white"/>
<path fill-rule="evenodd" clip-rule="evenodd" d="M29.9705 9.16448C29.8248 10.5348 29.5656 11.9227 29.3629 13.294L29.3098 13.5917H30.4753C30.8922 10.8843 30.9924 10.3559 31.6465 10.4219C31.7505 9.86772 31.9443 9.38244 32.0887 9.13785C31.6007 9.03607 31.3281 9.31187 30.9709 9.836C30.9994 9.60922 31.0508 9.38922 31.0411 9.16448H29.9705Z" fill="white"/>
<path fill-rule="evenodd" clip-rule="evenodd" d="M20.3785 9.16448C20.2321 10.5348 19.9726 11.9227 19.7702 13.294L19.7173 13.5917H20.8831C21.3002 10.8843 21.4001 10.3559 22.0531 10.4219C22.1578 9.86772 22.352 9.38244 22.496 9.13785C22.0085 9.03607 21.7354 9.31187 21.3789 9.836C21.407 9.60922 21.4588 9.38922 21.4486 9.16448H20.3785Z" fill="white"/>
</svg>
