<svg width="34" height="11" viewBox="0 0 34 11" fill="none" xmlns="http://www.w3.org/2000/svg">
<path fill-rule="evenodd" clip-rule="evenodd" d="M11.8196 10.7508L13.5107 0.26001H16.2139L14.5229 10.7508H11.8196Z" fill="#26337A"/>
<path fill-rule="evenodd" clip-rule="evenodd" d="M24.328 0.517548C23.7935 0.306998 22.9529 0.0773926 21.9058 0.0773926C19.2332 0.0773926 17.3519 1.50104 17.3363 3.5396C17.3193 5.04753 18.6788 5.88849 19.7037 6.38969C20.757 6.90343 21.1109 7.2322 21.1067 7.69156C21.0995 8.39417 20.266 8.71611 19.4888 8.71611C18.4065 8.71611 17.8315 8.55762 16.9425 8.16596L16.5948 7.99894L16.2168 10.3472C16.8471 10.6394 18.0157 10.893 19.2284 10.9064C22.0687 10.9064 23.9143 9.4999 23.9359 7.32298C23.9457 6.12724 23.2253 5.2209 21.6653 4.47259C20.7207 3.98611 20.1409 3.66386 20.1476 3.17149C20.1482 2.73552 20.6374 2.26872 21.6961 2.26872C22.5803 2.25446 23.2204 2.45866 23.7192 2.67184L23.9619 2.79176L24.328 0.517548Z" fill="#26337A"/>
<path fill-rule="evenodd" clip-rule="evenodd" d="M27.9276 7.03141C28.1516 6.42843 29.0044 4.09906 29.0044 4.09906C28.9887 4.12679 29.2272 3.49143 29.3637 3.09822L29.5462 4.00301C29.5462 4.00301 30.0649 6.50698 30.1717 7.03141C29.7509 7.03141 28.4554 7.03141 27.9276 7.03141ZM31.2625 0.270752H29.1734C28.5255 0.270752 28.0405 0.456358 27.7566 1.14037L23.7422 10.7545H26.5814C26.5814 10.7545 27.0446 9.46117 27.1498 9.17734C27.4594 9.17734 30.2183 9.18277 30.6121 9.18277C30.6931 9.54886 30.9412 10.7545 30.9412 10.7545H33.4502L31.2625 0.270752Z" fill="#26337A"/>
<path fill-rule="evenodd" clip-rule="evenodd" d="M9.55175 0.268799L6.90594 7.42097L6.62254 5.96711C6.1295 4.29201 4.5947 2.47639 2.87793 1.56664L5.29848 10.7416L8.15935 10.7399L12.4163 0.268799H9.55175Z" fill="#26337A"/>
<path fill-rule="evenodd" clip-rule="evenodd" d="M4.44974 0.261719H0.0905566L0.0546875 0.479085C3.44664 1.34808 5.69093 3.44568 6.62245 5.96716L5.67516 1.14683C5.51174 0.482029 5.03679 0.284958 4.44974 0.261719Z" fill="#EC982D"/>
</svg>
