<svg width="52" height="77" fill="none" xmlns="http://www.w3.org/2000/svg"><path d="M11.549 0H1.283A1.283 1.283 0 000 1.283v15.399a3.85 3.85 0 003.85 3.85h5.133a3.842 3.842 0 003.8-3.367l1.709 1.707a1.283 1.283 0 001.814 0l8.075-8.075 17.434 17.434-18.34 18.341c-.242.24-.377.567-.377.907v16.81a6.417 6.417 0 106.383 10.138h10.332a6.406 6.406 0 105.1-10.266v-6.416a3.85 3.85 0 00-3.85-3.85h-7.7v-4.63l12.833-13.902v4.417h2.567v-7.253a6.713 6.713 0 00-.376-9.053L26.572 1.66a3.978 3.978 0 00-6.801 2.47c-.051.028-.1.06-.147.097l-6.792 6.792V1.283A1.283 1.283 0 0011.55 0zm-1.283 16.682a1.283 1.283 0 01-1.283 1.283H3.85a1.283 1.283 0 01-1.284-1.283v-1.283h7.7v1.283zm0-3.85h-7.7V7.7h7.7v5.133zm0-7.7h-7.7V2.567h7.7v2.567zm15.399 44.914h5.133v4.34l-5.133 2.566v-6.906zM24.38 74.427a3.85 3.85 0 110-7.698 3.85 3.85 0 010 7.698zm14.116-3.85c0 .431.042.861.128 1.284H30.67a6.316 6.316 0 00-1.187-5.133h10.333a6.35 6.35 0 00-1.318 3.85zm6.416-3.85a3.85 3.85 0 110 7.7 3.85 3.85 0 010-7.7zM39.78 56.463h1.283a1.283 1.283 0 011.283 1.283v6.416H39.78v-7.699zm-2.566 0v2.566h-2.567v2.567h2.567v2.566h-11.55v-4.34l6.72-3.359h4.83zm-5.695-8.983h-5.323L43.63 30.046l2.07 2.07L31.52 47.48zM26.572 7.323c.346-.35.625-.762.821-1.214l19.18 19.18a4.17 4.17 0 01.77 4.835L25.357 8.144a3.997 3.997 0 001.214-.82zm-3.85-3.85a1.439 1.439 0 112.034 2.036 1.439 1.439 0 01-2.034-2.035zm-2.19 3.474l2.035 2.036-7.168 7.168-2.035-2.035 7.168-7.169z" fill="#fff"/><path d="M23.098 69.294h2.567v2.567h-2.567v-2.567zM43.63 69.294h2.566v2.567h-2.567v-2.567z" fill="#fff"/></svg>