<svg width="16" height="17" fill="none" xmlns="http://www.w3.org/2000/svg"><path fill-rule="evenodd" clip-rule="evenodd" d="M7.994 10a5 5 0 100-10 5 5 0 000 10zm7.987 5.502a7.72 7.72 0 00-.386-1.61 7.902 7.902 0 00-2.493-3.497l-.009-.007a9.01 9.01 0 00-.124-.097.837.837 0 00-.48-.179c-.51-.017-.77.102-.97.328-.36.406-.164 1.048.232 1.428a1.306 1.306 0 00.089.079 6.147 6.147 0 01.6.553 5.888 5.888 0 011.247 2H2.3a5.888 5.888 0 011.849-2.554 1.307 1.307 0 00.088-.078c.396-.38.592-1.023.233-1.429-.2-.225-.46-.345-.97-.327a.837.837 0 00-.481.178 8.559 8.559 0 00-.124.098l-.009.007a7.902 7.902 0 00-2.494 3.497 7.725 7.725 0 00-.385 1.61c-.07.548.384.998.937.998h14.1c.553 0 1.007-.45.937-.998z" fill="#F7BF06"/></svg>