<svg width="32" height="25" fill="none" xmlns="http://www.w3.org/2000/svg"><path fill-rule="evenodd" clip-rule="evenodd" d="M.902 1.724a1 1 0 011-1h5.596a1 1 0 01.96.72l4.452 15.233H27.23l2.3-9.26H16.824a1 1 0 110-2H30.81a1 1 0 01.97 1.24L28.984 17.92a1 1 0 01-.971.758H12.16a1 1 0 01-.96-.719L6.748 2.724H1.902a1 1 0 01-1-1zM17 21.516c0 1.39-1.12 2.516-2.5 2.516S12 22.905 12 21.516C12 20.126 13.12 19 14.5 19s2.5 1.126 2.5 2.516zm9.5 2.516c1.38 0 2.5-1.127 2.5-2.516C29 20.126 27.88 19 26.5 19S24 20.126 24 21.516c0 1.39 1.12 2.516 2.5 2.516z" fill="#fff"/></svg>