<svg width="92" height="76" fill="none" xmlns="http://www.w3.org/2000/svg"><path d="M75.067 37h6.866c.14 0 .279.026.408.076.13.05.247.124.346.217.1.093.178.203.232.324a.945.945 0 010 .766.998.998 0 01-.232.324c-.099.093-.216.167-.346.217-.13.05-.268.076-.408.076h-6.866c-.283 0-.554-.105-.754-.293A.97.97 0 0174 38a.97.97 0 01.313-.707c.2-.188.471-.293.754-.293zM75.067 41h6.866c.283 0 .554.105.754.293A.97.97 0 0183 42a.97.97 0 01-.313.707c-.2.188-.471.293-.754.293h-6.866c-.283 0-.554-.105-.754-.293A.97.97 0 0174 42a.97.97 0 01.313-.707c.2-.188.471-.293.754-.293zM75.067 44h6.866c.283 0 .554.158.754.44.2.28.313.662.313 1.06s-.112.78-.313 1.06c-.2.282-.471.44-.754.44h-6.866c-.283 0-.554-.158-.754-.44-.2-.28-.313-.662-.313-1.06s.112-.78.313-1.06c.2-.282.471-.44.754-.44zM69.478 58h.014a4.489 4.489 0 013.181 1.308 4.504 4.504 0 01.021 6.363A4.49 4.49 0 0169.521 67h-.013a4.49 4.49 0 01-3.181-1.308 4.504 4.504 0 01-.021-6.363A4.49 4.49 0 0169.478 58zm.03 6.802h.007a2.26 2.26 0 001.615-.679 2.306 2.306 0 00.668-1.64 2.27 2.27 0 00-.678-1.616 2.3 2.3 0 00-1.629-.67h-.007a2.297 2.297 0 00-2.286 2.315 2.304 2.304 0 002.31 2.29zM64 27.025c.005 1.168-.372 2.2-1.061 2.908-.69.707-1.641 1.067-2.826 1.067H57.89c-.285 0-.557-.115-.758-.32a1.107 1.107 0 010-1.55c.2-.205.473-.32.758-.32h2.222c.593 0 1.032-.142 1.305-.422.28-.287.439-.78.436-1.355-.01-4.022-.018-7.199 0-11.509.003-.099-.001-.198-.013-.296a1.086 1.086 0 00-.322-.037h-11.99c-.17.015-1.053.222-1.388.872-.654 1.515-1.195 2.75-1.718 3.943a331.615 331.615 0 00-3.744 8.803h11.756c.284 0 .557.116.758.321a1.107 1.107 0 010 1.549c-.2.205-.474.32-.758.32H41.073c-.177 0-.35-.044-.506-.129a1.082 1.082 0 01-.386-.357 1.11 1.11 0 01-.1-1.027c2.01-4.96 3.11-7.47 4.384-10.375a646.034 646.034 0 001.749-4.01C46.995 13.51 48.77 13 49.513 13H61.52c.794 0 1.42.229 1.86.681.628.647.622 1.497.62 1.855-.018 4.3-.01 7.474 0 11.49z" fill="#fff"/><path d="M3.982 45.924c.7-.002 1.52-.002 2.405-.002a20.044 20.044 0 015.876-6.287v-1.073h-1.325c-.485 0-.95-.194-1.293-.538a1.843 1.843 0 01-.537-1.299v-3.3c0-.486.194-.953.537-1.298a1.828 1.828 0 011.293-.538h1.325v-.109c0-1.024.677-2.548 2.54-2.548h4.447V14.757c0-.292.116-.572.322-.78.206-.206.485-.322.776-.322h.183V8.88c0-.293.116-.573.322-.78.205-.206.485-.323.776-.323h.882v-3.6a3.01 3.01 0 00-.256-1.068c-.293-.624-.765-.903-1.529-.903h-2.858a1.105 1.105 0 010-2.205h2.859c2.92 0 3.98 2.497 3.98 4.176v3.6h.9a1.104 1.104 0 011.098 1.102v4.777h.184a1.096 1.096 0 011.098 1.102v14.175h4.838c1.262-2.811 2.781-5.848 4.258-8.794 1.504-3.003 3.06-6.11 4.308-8.912 1.292-2.91 6.054-3.993 8.752-3.993h12.969c3.65.006 6.469 2.602 6.822 6.154h2.888a1.096 1.096 0 011.098 1.102v9.35a1.104 1.104 0 01-1.098 1.103h-2.857l-.002 2.243v-.762l17.992 6.921a1.098 1.098 0 01.705 1.03v15.225h1.51c.485 0 .95.194 1.293.539.344.344.537.811.537 1.298v4.771c0 .487-.194.954-.537 1.298a1.829 1.829 0 01-1.293.54h-1.51v2.411a1.105 1.105 0 01-.544.952l-5.358 3.143a13.365 13.365 0 01-4.443 8.178 13.269 13.269 0 01-8.687 3.27h-.042a13.283 13.283 0 01-8.236-2.82 13.372 13.372 0 01-4.742-7.326h-5.025a1.096 1.096 0 01-1.099-1.102v-3.236H42.46a19.885 19.885 0 01-7.148 10.291 19.757 19.757 0 01-11.863 3.946 19.414 19.414 0 01-12.241-4.32 20.37 20.37 0 01-6.726-9.917h-.497c-1.852 0-3.978-.414-3.984-3.643v-1.7C0 54.11 0 51.608.004 49.917c.004-2.645 1.343-3.989 3.978-3.993zm8.281-12.13h-.959v2.564h.96v-2.565zm59.46-11.056V15.59h-1.75l-.005 7.147h1.756zM88.66 55.84h1.144v-4.036H88.66v4.036zM24.51 9.98h-1.783v3.675h1.782V9.981zm1.28 5.88h-4.344v13.072h4.345V15.86zM14.804 31.137c-.153 0-.326 0-.344.359v6.832a19.768 19.768 0 0120.86 1.796V31.48c0-.343-.23-.343-.342-.343H14.803zm48.305-21.7H50.142a12.644 12.644 0 00-4.056.745c-1.407.517-2.362 1.206-2.69 1.942-1.268 2.85-2.836 5.98-4.351 9.005-1.31 2.613-2.654 5.298-3.812 7.817 1.667.133 2.282 1.559 2.282 2.535v2.033h28.048l.114-.125a8.093 8.093 0 002.09-5.44l.01-13.824c-.01-2.712-1.973-4.683-4.669-4.688zm-10.076 33.96a7.539 7.539 0 004.038-1.146H37.72c.352.366.692.75 1.018 1.147h14.295zm-12.719 2.205a19.812 19.812 0 011.606 3.213l2.047.002v-3.215h-3.653zm19.245-5.555c.298-.314.631-.668.999-1.062H37.515v1.062h22.043zm3.034-3.267c.308-.336.633-.69.97-1.061H37.515v1.061h25.077zm-4.057 27.504a1.098 1.098 0 01.1.568 11.172 11.172 0 003.881 6.44 11.095 11.095 0 007.071 2.504h.035a11.088 11.088 0 007.433-2.892 11.17 11.17 0 003.59-7.144c.043-.405.064-.811.063-1.218-.017-6.143-5.03-11.129-11.182-11.129h-.03c-1.462 0-2.908.294-4.256.861a11.006 11.006 0 00-3.593 2.446 11.23 11.23 0 00-2.682 4.412 11.263 11.263 0 00-.429 5.152h-.001zm-45.96 5.424a17.246 17.246 0 0010.873 3.84 17.566 17.566 0 0010.284-3.315 17.677 17.677 0 006.422-8.718H6.79a18.165 18.165 0 005.785 8.193zM2.195 56.173v1.698c0 .43.052.984.285 1.174.217.177.723.266 1.504.266h47.599a1.096 1.096 0 011.098 1.103v3.237h3.574a13.442 13.442 0 01.948-6.106 13.399 13.399 0 012.87-4.361 13.342 13.342 0 014.313-2.927 13.3 13.3 0 015.102-1.047h.036c7.156 0 13.022 5.643 13.361 12.715l3.58-2.1V35.132L69.927 28.77a10.287 10.287 0 01-2.625 6.1l-7.097 7.674a10.092 10.092 0 01-5.696 2.952v9.84a1.104 1.104 0 01-1.097 1.103h-27.3a2.815 2.815 0 01-1.349 1.324 2.799 2.799 0 01-3.441-.894 2.828 2.828 0 01.186-3.563 2.806 2.806 0 013.515-.53c.557.333.982.848 1.204 1.459h26.087v-8.637c-1.303-.007-2.791-.003-4.356 0l-1.798.003v4.317a1.096 1.096 0 01-1.098 1.102l-11.814-.012c-.291 0-.57-.116-.777-.322a1.104 1.104 0 01.777-1.882l6.283.007a17.69 17.69 0 00-2.185-3.633 17.626 17.626 0 00-10.907-6.552 17.582 17.582 0 00-12.462 2.509 17.815 17.815 0 00-4.98 4.786l4.338.002c1.844-.075 2.67.164 3.903 1.703.435.543 1.142 1.19 2.038 1.19h.006c3.343-.013 7.814-.014 10.182-.014a1.104 1.104 0 010 2.204c-2.365 0-6.834 0-10.174.015-1.41.008-2.706-.692-3.763-2.014-.736-.917-.85-.934-2.123-.881H3.984c-1.416.003-1.784.372-1.786 1.796-.004 1.691-.003 4.19-.002 6.25zm22.01-.972a.616.616 0 00-.6-.617.612.612 0 00-.625.59.617.617 0 00.577.64.612.612 0 00.649-.613z" fill="#fff"/></svg>