<svg width="82" height="75" fill="none" xmlns="http://www.w3.org/2000/svg"><path d="M66.692 40.311v-8.88h7.82a1.099 1.099 0 001.093-1.217L73.773 13.22a2.922 2.922 0 00-2.912-2.618H55.358a2.933 2.933 0 00-2.929 2.93v4.686a1.098 1.098 0 102.197 0v-4.686a.732.732 0 01.732-.732h9.136v20.223h-9.868V21.652a1.098 1.098 0 10-2.197 0v18.66a1.098 1.098 0 001.099 1.098h12.064a1.098 1.098 0 001.099-1.099zm0-27.51h4.169a.73.73 0 01.727.653l1.702 15.78h-6.598V12.8zm-2.197 26.412h-9.868V35.22h9.868v3.993zM34.7 32.679h-5.109a1.098 1.098 0 100 2.197h5.11a1.098 1.098 0 100-2.197zM34.7 35.974h-5.109a1.098 1.098 0 100 2.197h5.11a1.098 1.098 0 100-2.197zM34.7 39.27h-5.109a1.098 1.098 0 100 2.196h5.11a1.098 1.098 0 100-2.197z" fill="#fff"/><path d="M80.937 64.302a8.59 8.59 0 00-.597-2.251 1.097 1.097 0 00-1.094-1.896 8.727 8.727 0 00-1.646-1.65 1.097 1.097 0 00-1.89-1.102 8.577 8.577 0 00-2.26-.605 1.098 1.098 0 00-2.178-.072h-1.853a1.097 1.097 0 00-2.17 0h-1.853a1.096 1.096 0 00-2.169 0h-1.85a1.098 1.098 0 00-2.047-.366v-2.09h4.074a1.098 1.098 0 001.098-1.098v-2.84h9.714a6.494 6.494 0 006.487-6.486V33.41c-.001-.503-.044-1.006-.129-1.502l-2.561-20.16a5.675 5.675 0 00-5.61-4.76H52.262a3.671 3.671 0 00-3.662 3.631l-.116 14.772L30.869 13.7a3.106 3.106 0 00-3.523-.034L9.146.725V.724a3.68 3.68 0 00-5.448 4.672v20.776h-.734a1.833 1.833 0 00-1.83 1.83v4.666a1.833 1.833 0 001.83 1.83h.97v2.175a.176.176 0 01-.12.172 5.036 5.036 0 001.224 9.92 5.003 5.003 0 004.423-2.636 1.098 1.098 0 00-1.932-1.046 2.808 2.808 0 01-2.607 1.483 2.838 2.838 0 01-.575-5.59 2.365 2.365 0 001.785-2.303v-2.175h.972a1.833 1.833 0 001.83-1.83v-4.665a1.833 1.833 0 00-1.83-1.83H5.895V7.314L23.496 43.99v5.244a1.099 1.099 0 001.099 1.099h11.032v2.84a1.098 1.098 0 001.099 1.098h4.397v2.058a1.097 1.097 0 00-2.027.397h-1.853a1.097 1.097 0 00-2.17 0H32.95a1.097 1.097 0 00-2.179.068 8.554 8.554 0 00-2.263.601 1.098 1.098 0 00-1.891 1.099 8.66 8.66 0 00-1.656 1.654 1.098 1.098 0 00-1.098 1.891 8.55 8.55 0 00-.602 2.264 1.098 1.098 0 00.004 2.187 8.59 8.59 0 00.608 2.257 1.096 1.096 0 001.104 1.889 8.735 8.735 0 001.651 1.643 1.097 1.097 0 001.897 1.092 8.585 8.585 0 002.245.594 1.098 1.098 0 002.186.069h2.113a1.098 1.098 0 002.18 0h1.842a1.098 1.098 0 002.18 0h1.842a1.098 1.098 0 002.18 0h1.843a1.098 1.098 0 002.18 0h1.842a1.099 1.099 0 002.18 0h1.842a1.098 1.098 0 002.18 0h1.842a1.098 1.098 0 002.18 0h1.84a1.098 1.098 0 002.18 0h1.843a1.098 1.098 0 002.18 0h1.842a1.097 1.097 0 002.185-.072 8.539 8.539 0 002.242-.6 1.096 1.096 0 001.892-1.101 8.689 8.689 0 001.639-1.636 1.097 1.097 0 001.104-1.89 8.543 8.543 0 00.604-2.243 1.097 1.097 0 00.004-2.19zM28.335 15.717a.915.915 0 011.306-.196l17.623 11.697h-5.355L28.581 17.016a.917.917 0 01-.246-1.3zM6.738 28.369v3.932H3.33V28.37h3.407zm.221-23.192a1.488 1.488 0 11.884-2.684l.007.005a1.476 1.476 0 01.57 1.473 1.486 1.486 0 01-1.46 1.206zm16.537 33.735L8.248 7.14c.484-.18.924-.461 1.293-.822L23.496 28.63v10.281zM11.261 4.925l14.814 10.532a3.115 3.115 0 001.185 3.313l11.035 8.447H25.203L11.261 4.925zm26.563 47.149v-1.741h17.649a1.098 1.098 0 100-2.197h-29.78V29.414H49.56a1.098 1.098 0 001.099-1.09l.139-17.688a1.468 1.468 0 011.465-1.453h20.14a3.483 3.483 0 013.434 2.867l2.561 20.157.007.05c.067.38.1.765.102 1.152v10.437a4.294 4.294 0 01-4.29 4.29H59.229a1.098 1.098 0 100 2.196h3.076v1.741H37.824zm19.31 2.197v1.943a1.096 1.096 0 00-1.95.513h-1.852a1.097 1.097 0 00-2.17 0H49.31a1.097 1.097 0 00-2.17 0h-1.852a1.097 1.097 0 00-1.967-.488v-1.968h13.812zm19.778 15.667a6.403 6.403 0 01-4.558 1.899h-40.51a6.457 6.457 0 010-12.914h40.51a6.448 6.448 0 014.558 11.015z" fill="#fff"/><path d="M36.621 64.381a4.786 4.786 0 00-.117-.44 1.1 1.1 0 00-1.018-1.757 4.764 4.764 0 00-.319-.32 1.099 1.099 0 00-1.758-1.017 4.733 4.733 0 00-.439-.117 1.098 1.098 0 00-2.03 0c-.15.032-.296.072-.44.118a1.098 1.098 0 00-1.757 1.017 4.837 4.837 0 00-.32.32 1.1 1.1 0 00-1.017 1.757c-.046.144-.085.29-.118.44a1.098 1.098 0 000 2.03c.033.149.072.295.118.439a1.099 1.099 0 001.017 1.757c.102.112.208.218.32.32a1.098 1.098 0 001.757 1.017c.144.046.291.086.44.118a1.098 1.098 0 002.03 0c.15-.032.296-.072.44-.118a1.099 1.099 0 001.757-1.017c.111-.101.218-.208.32-.32a1.083 1.083 0 00.725-.155 1.1 1.1 0 00.292-1.602c.046-.144.085-.29.117-.44a1.098 1.098 0 000-2.03zm-4.666 3.595a2.58 2.58 0 110-5.16 2.58 2.58 0 010 5.16zM76.036 62.184a4.75 4.75 0 00-.32-.32 1.098 1.098 0 00-1.757-1.017 4.717 4.717 0 00-.44-.118 1.1 1.1 0 00-2.03 0c-.149.033-.295.072-.439.118a1.098 1.098 0 00-1.757 1.017 4.82 4.82 0 00-.32.32 1.098 1.098 0 00-1.017 1.758c-.047.143-.086.29-.118.439a1.1 1.1 0 000 2.03c.032.15.072.296.118.44a1.099 1.099 0 001.017 1.757c.101.111.208.218.32.32a1.099 1.099 0 001.757 1.017c.144.046.29.085.44.118a1.098 1.098 0 002.03 0c.15-.033.296-.072.44-.118a1.098 1.098 0 001.757-1.017c.111-.102.218-.208.32-.32a1.084 1.084 0 00.725-.155 1.098 1.098 0 00.292-1.603c.046-.143.085-.29.117-.439a1.098 1.098 0 000-2.03 4.795 4.795 0 00-.117-.44 1.098 1.098 0 00-1.018-1.757zm-3.532 5.792a2.58 2.58 0 110-5.16 2.58 2.58 0 010 5.16zM50.138 64.381a4.819 4.819 0 00-.117-.44 1.1 1.1 0 00-1.018-1.757 4.742 4.742 0 00-.32-.32 1.098 1.098 0 00-1.757-1.017 4.733 4.733 0 00-.44-.117 1.098 1.098 0 00-2.03 0c-.149.032-.295.072-.44.118a1.098 1.098 0 00-1.757 1.017 4.813 4.813 0 00-.32.32 1.1 1.1 0 00-1.016 1.757c-.046.144-.086.29-.118.44a1.098 1.098 0 000 2.03c.032.149.072.295.118.439a1.099 1.099 0 001.017 1.757c.101.112.208.218.32.32a1.098 1.098 0 001.757 1.017c.144.046.29.086.44.118a1.098 1.098 0 002.03 0c.149-.032.295-.072.439-.118a1.099 1.099 0 001.758-1.017c.111-.101.218-.208.32-.32a1.083 1.083 0 00.725-.155 1.1 1.1 0 00.292-1.602c.045-.144.085-.29.117-.44a1.098 1.098 0 000-2.03zm-4.667 3.595a2.58 2.58 0 110-5.16 2.58 2.58 0 010 5.16zM63.655 64.381a4.827 4.827 0 00-.118-.44 1.1 1.1 0 00-1.017-1.757 4.75 4.75 0 00-.32-.32 1.099 1.099 0 00-1.758-1.017 4.712 4.712 0 00-.439-.117 1.1 1.1 0 00-2.03 0c-.15.032-.296.071-.44.117a1.098 1.098 0 00-1.757 1.017 4.778 4.778 0 00-.32.32 1.098 1.098 0 00-1.017 1.758c-.046.144-.086.29-.118.44a1.099 1.099 0 000 2.03c.032.148.072.295.118.438a1.098 1.098 0 001.017 1.758c.101.111.208.218.32.32a1.098 1.098 0 001.757 1.017c.144.046.29.085.44.118a1.099 1.099 0 002.03 0c.15-.033.296-.072.44-.118a1.098 1.098 0 001.757-1.017c.111-.102.218-.208.32-.32a1.087 1.087 0 00.725-.155 1.098 1.098 0 00.292-1.603c.046-.143.085-.29.118-.439a1.099 1.099 0 000-2.03zm-4.667 3.595a2.58 2.58 0 110-5.16 2.58 2.58 0 010 5.16z" fill="#fff"/></svg>