<svg width="90" height="58" fill="none" xmlns="http://www.w3.org/2000/svg"><path d="M2.22 31.985l4.001-1.272V18.807a3.435 3.435 0 013.432-3.432h8.78a1.318 1.318 0 110 2.637h-8.78a.796.796 0 00-.795.795v1.86h9.755a4.844 4.844 0 014.84 4.84v2.65a4.845 4.845 0 01-4.84 4.839H7.744L3.02 34.498a.547.547 0 00-.383.523v2.062h1.265a1.318 1.318 0 110 2.636H2.636v1.693c0 .303.247.55.55.55h4.579a10.761 10.761 0 019.788-6.314c4.257 0 8.057 2.51 9.788 6.313h3.816V24.606a6.602 6.602 0 00-6.594-6.594h-.859a1.318 1.318 0 110-2.637h.86c5.09 0 9.23 4.141 9.23 9.231V26.9h2.875a2.696 2.696 0 012.692 2.693v7.49h8.82v-2.137H46.08c-.442 0-.853-.22-1.098-.587L30.73 12.962h-1.472c-1.058 0-2.065-.4-2.834-1.128l-3.944-3.726-5.965-1.81a1.318 1.318 0 01-.935-1.262V1.318c0-.728.59-1.318 1.318-1.318h7.38c1.058 0 2.065.4 2.834 1.127l3.788 3.58h17.706a1.318 1.318 0 110 2.636h-18.23c-.337 0-.662-.129-.906-.36l-4.17-3.94a1.484 1.484 0 00-1.023-.406h-6.06v1.421l5.326 1.617c.195.06.374.163.522.303l4.17 3.94c.277.262.64.407 1.023.407h48.42c.373 0 .728.158.978.436l6.112 6.781a1.49 1.49 0 102.215-1.996l-6.948-7.71a1.493 1.493 0 00-1.108-.493h-25.05a1.318 1.318 0 110-2.637h25.05c1.168 0 2.285.497 3.066 1.365l6.949 7.71a4.133 4.133 0 01-.303 5.83 4.129 4.129 0 01-5.83-.304l-.14-.156-1.675 2.033v15.899h.709a7.393 7.393 0 016.561 3.964l.85 1.62a1.318 1.318 0 01-1.166 1.931h-7.811c.1.586.154 1.187.154 1.8 0 5.923-4.826 10.75-10.75 10.75s-10.751-4.825-10.751-10.75c0-.613.054-1.214.153-1.8h-4.017v1.96a2.876 2.876 0 01-2.872 2.872H49.5a1.318 1.318 0 110-2.637h2.553c.13 0 .236-.106.236-.236v-1.959h-14.98v1.96c0 .129.107.235.236.235h6.684a1.318 1.318 0 110 2.637h-6.684a2.876 2.876 0 01-2.872-2.873v-1.959H28.15c.1.586.154 1.187.154 1.8 0 5.923-4.826 10.75-10.75 10.75S6.802 52.324 6.802 46.399c0-.613.054-1.214.154-1.8h-3.77A3.19 3.19 0 010 41.412v-6.39c0-1.395.893-2.615 2.22-3.037zm18.595-3.828v-2.65a2.205 2.205 0 00-2.202-2.203H8.858v7.055h9.755a2.205 2.205 0 002.203-2.202zm15.91 1.434a.056.056 0 00-.057-.056h-2.874v7.548h2.93V29.59zm14.093 7.492h13.366c.268-.155.542-.299.824-.43v-1.708h-14.19v2.138zm10.835 10.634h-.119a8.071 8.071 0 001.416 3.407l.08-.081a1.319 1.319 0 011.865 1.864l-.08.081a8.068 8.068 0 003.406 1.415v-.118a1.318 1.318 0 112.637 0v.118a8.068 8.068 0 003.406-1.415l-.08-.08a1.319 1.319 0 011.864-1.865l.081.08a8.071 8.071 0 001.415-3.406h-.118a1.318 1.318 0 110-2.637h.118a8.067 8.067 0 00-1.415-3.407l-.08.081a1.319 1.319 0 01-1.865-1.864l.08-.081a8.068 8.068 0 00-3.406-1.415v.118a1.318 1.318 0 11-2.637 0v-.118a8.067 8.067 0 00-3.407 1.415l.08.08a1.318 1.318 0 11-1.864 1.865l-.08-.08a8.066 8.066 0 00-1.416 3.406h.119a1.318 1.318 0 110 2.637zM58.695 12.96l10.868 17.956 4.955-6.017-7.167-11.939h-8.656zm-11.774 0l11.614 19.347h8.788L55.613 12.96H46.92zm23.137 21.503c-.25.304-.624.48-1.018.48h-1.396v.874a10.684 10.684 0 016.22.741V29.84l-3.806 4.624zm-23.274-2.156h8.675L43.845 12.961h-9.948l12.887 19.347zM77.09 12.961h-6.663l5.87 9.779 4.586-5.57-3.793-4.209zm1.267 11.425l-1.854 2.253v10.444h1.854V24.386zm7.394 17.575a4.762 4.762 0 00-4.048-2.242h-3.748a10.774 10.774 0 011.374 2.242h6.422zm-25.999 0c.367-.805.83-1.557 1.374-2.242H33.794v2.242h25.957zM9.666 47.717h-.118a8.07 8.07 0 001.415 3.407l.081-.081a1.319 1.319 0 011.865 1.864l-.081.081a8.068 8.068 0 003.407 1.415v-.118a1.318 1.318 0 112.637 0v.118a8.071 8.071 0 003.406-1.415l-.08-.08a1.318 1.318 0 011.864-1.865l.08.08a8.07 8.07 0 001.416-3.406h-.118a1.318 1.318 0 110-2.637h.118a8.067 8.067 0 00-1.415-3.407l-.081.081a1.315 1.315 0 01-1.865 0 1.318 1.318 0 010-1.865l.081-.08a8.067 8.067 0 00-3.407-1.415v.118a1.318 1.318 0 11-2.636 0v-.118a8.067 8.067 0 00-3.407 1.415l.08.08a1.319 1.319 0 01-1.864 1.865l-.081-.08a8.067 8.067 0 00-1.415 3.406h.118a1.318 1.318 0 110 2.637z" fill="#fff"/><path d="M17.553 42.068a4.335 4.335 0 014.33 4.33 4.335 4.335 0 01-4.33 4.33 4.335 4.335 0 01-4.33-4.33 4.335 4.335 0 014.33-4.33zm0 6.024c.934 0 1.694-.76 1.694-1.694 0-.934-.76-1.693-1.694-1.693-.934 0-1.694.76-1.694 1.693 0 .934.76 1.694 1.694 1.694zM69.54 42.068a4.335 4.335 0 014.33 4.33 4.335 4.335 0 01-4.33 4.33 4.335 4.335 0 01-4.33-4.33 4.335 4.335 0 014.33-4.33zm0 6.024c.933 0 1.693-.76 1.693-1.694 0-.934-.76-1.693-1.693-1.693-.934 0-1.694.76-1.694 1.693 0 .934.76 1.694 1.694 1.694z" fill="#fff"/></svg>