<svg width="43" height="42" fill="none" xmlns="http://www.w3.org/2000/svg"><path d="M2.808 36.922c0 1.082.88 1.963 1.962 1.963 1.082 0 1.963-.88 1.963-1.963a1.962 1.962 0 00-3.924 0zm2.672 0a.71.71 0 11-1.42-.001.71.71 0 011.42.001zM10.114 38.885c1.082 0 1.963-.88 1.963-1.963a1.963 1.963 0 10-1.962 1.962zm0-2.672a.707.707 0 01.71.71.71.71 0 11-.71-.71zM15.458 38.885c1.082 0 1.963-.88 1.963-1.963a1.962 1.962 0 10-1.962 1.962zm0-2.672a.707.707 0 01.71.71.71.71 0 11-.71-.71zM20.802 38.885c1.082 0 1.962-.88 1.962-1.963a1.962 1.962 0 10-1.962 1.962zm0-2.672a.707.707 0 01.71.71.71.71 0 11-.71-.71zM5.439 26.193h.668a.626.626 0 000-1.253h-.668a.626.626 0 000 1.253zM5.439 28.197h.668a.626.626 0 000-1.253h-.668a.626.626 0 000 1.253z" fill="#fff"/><path d="M41.87 21.91L31.223 1.79a2.629 2.629 0 00-4.568-.425c-.002 0-.003.002-.004.003L16.46 14.95a3.319 3.319 0 00-.428-.029H11.45a3.302 3.302 0 00-3.298 3.299v4.05h-4.05c-1.081 0-1.962.88-1.962 1.962v4.675c0 1.082.88 1.963 1.962 1.963h5.386v1.42H4.77a4.64 4.64 0 00-4.634 4.633 4.64 4.64 0 004.634 4.635h16.032a4.64 4.64 0 004.634-4.635 4.64 4.64 0 00-4.634-4.634h-4.717v-1.42h5.385c.346 0 .627-.28.627-.625v-2.046h.71l.024-.002c.013 0 .027 0 .04-.002l.019-.002.042-.007c.012-.002.023-.006.034-.009l.026-.006.02-.008.038-.013.004-.002a.626.626 0 00.102-.056l.024-.017c.008-.007.017-.012.025-.02l.024-.021.02-.018.017-.019.024-.026.007-.01a.611.611 0 00.029-.038l.01-.019a.623.623 0 00.096-.332v-2.39a5.951 5.951 0 00-1.002-3.311l-.993-1.489 6.88-11.55L38.48 23.88c.237.407.616.72 1.069.874v1.034l-.183-.455a.626.626 0 00-.814-.348l-8.559 3.439-1.474-1.216a.626.626 0 00-.797.966l4.622 3.811a4.632 4.632 0 004.676.725l2.131-.857a2.632 2.632 0 001.63-2.12.627.627 0 00.02-.159v-4.82a1.965 1.965 0 001.336-1.86c0-.358-.097-.694-.265-.983zM8.153 29.617h-4.05a.71.71 0 01-.71-.71v-4.675a.71.71 0 01.71-.71h4.05v6.095zm30.531 1.075l-2.131.856a3.38 3.38 0 01-3.412-.528l-2.047-1.688 7.343-2.95 1.012 2.518a1.38 1.38 0 01-.765 1.792zM28.818 1.477c.516 0 .965.285 1.201.705.01.025.02.05.033.074l.04.076a1.368 1.368 0 01-.096 1.234l-.012.018-.026.044a1.377 1.377 0 11-1.14-2.15zm-8.016 32.064a3.385 3.385 0 013.382 3.381 3.385 3.385 0 01-3.382 3.382H4.77a3.386 3.386 0 01-3.381-3.382 3.386 3.386 0 013.381-3.381h16.032zm-10.061-1.253v-1.42h4.091v1.42h-4.091zm10.103-2.672H9.404v-6.718-.003V18.219c0-.91.598-1.683 1.42-1.948v8.996c0 .745.44 1.422 1.121 1.724 1.8.8 3.71 1.206 5.68 1.206h3.219v1.42zm1.336-4.436v1.764h-4.555c-.747 0-1.484-.065-2.208-.192V18.22a.626.626 0 00-1.253 0v8.246c-.58-.164-1.151-.37-1.71-.618a.636.636 0 01-.377-.58v-9.094h3.955c.686 0 1.322.34 1.703.91l3.653 5.48c.518.778.792 1.683.792 2.617zm-1.513-5.955l-1.89-2.836a3.295 3.295 0 00-1.072-1.012l8.668-11.554a2.634 2.634 0 002.445 1.662h.034l-8.185 13.74zm17.9 2.547L29.025 7.64l2.002-3.362.051-.081 8.864 16.75a1.963 1.963 0 00-1.377.825zm1.607 1.832a.71.71 0 11.002-1.42.71.71 0 01-.002 1.42z" fill="#fff"/></svg>