<svg width="88" height="62" fill="none" xmlns="http://www.w3.org/2000/svg"><path d="M56.353 39.447a8.453 8.453 0 108.453 8.453 8.461 8.461 0 00-8.453-8.453zm0 14.088a5.635 5.635 0 110-11.27 5.635 5.635 0 010 11.27zM39.447 33.812h-5.635v2.817h5.635v-2.817zM39.447 39.447h-5.635v2.818h5.635v-2.818zM32.404 52.126h-2.819v2.819h2.819v-2.819z" fill="#fff"/><path d="M85.938 14.088h-5.635c-.778 0-1.41.631-1.41 1.409v1.409h-7.208l-1.244-9.95V1.41C70.44.63 69.81 0 69.032 0H43.673c-.778 0-1.408.63-1.408 1.409v5.548l-2.653 21.22h-2.983V16.905a5.635 5.635 0 00-5.635-5.635v2.817a2.817 2.817 0 012.818 2.818v11.27H16.647a4.217 4.217 0 10-5.376 5.376v8.13l-4.64-4.64a1.408 1.408 0 00-.996-.413H0v2.818h2.818V59.17H0v2.818h9.862c.373 0 .732-.149.996-.413l2.817-2.817c.265-.265.413-.623.413-.996v-2.235l13.263-13.262h.825v3.31a8.453 8.453 0 1011.27 7.96h4.003c3.113 7.126 11.413 10.38 18.539 7.268 7.126-3.112 10.38-11.412 7.268-18.538h2.594c.778 0 1.409-.631 1.409-1.41v-9.861h2.817v9.862c0 .373.149.732.413.996l4.64 4.639-13.093 13.092a1.409 1.409 0 00.996 2.405h11.27c.374 0 .732-.149.997-.413l5.635-5.635c.264-.264.413-.622.413-.996V15.497c0-.778-.631-1.409-1.41-1.409zM11.27 57.178L9.278 59.17H5.635V40.03l5.636 5.635v11.513zm58.28-34.637h-8.97V8.453h7.208L69.55 22.54zM45.081 2.818h22.541v2.817h-22.54V2.818zm12.68 5.635V22.54h-2.818V8.453h2.818zm-12.845 0h7.21V22.54h-8.97l1.76-14.088zm-2.113 16.906h27.097l.353 2.817H42.452l.352-2.817zm-26.157 5.635H28.96a5.578 5.578 0 00-.784 2.818H23.95c-.374 0-.732.148-.996.412l-8.866 8.866v-9.538a4.226 4.226 0 002.559-2.558zm-3.968 0a1.409 1.409 0 110-2.818 1.409 1.409 0 010 2.818zm14.089 8.453c-.374 0-.732.148-.997.413L14.088 51.543v-4.469L24.533 36.63h3.643v2.818h-1.408zm4.226 19.723a5.635 5.635 0 110-11.27 5.635 5.635 0 010 11.27zm25.359 0c-6.225 0-11.27-5.046-11.27-11.27 0-6.225 5.045-11.27 11.27-11.27 6.224 0 11.27 5.045 11.27 11.27-.007 6.221-5.049 11.263-11.27 11.27zM70.44 39.447h-2.844c-4.667-6.218-13.491-7.476-19.71-2.81a14.077 14.077 0 00-5.34 14.08h-3.593a8.453 8.453 0 00-7.96-5.635v-11.27a2.817 2.817 0 012.818-2.818H70.44v8.453zm5.635-11.27h-2.985l-.352-2.818h3.337v2.817zM72.39 22.54l-.352-2.817h6.857v2.817h-6.505zm12.14 31.82l-4.81 4.81h-7.286L83.12 48.482l1.41 1.409v4.469zm0-8.453l-5.635-5.636v-.825h5.635v6.46zm0-9.279h-5.635v-2.817h5.635v2.817zm0-5.635h-5.635v-5.635h5.635v5.635zm0-8.453h-2.817v-5.635h2.817v5.635z" fill="#fff"/></svg>