<svg width="27" height="26" fill="none" xmlns="http://www.w3.org/2000/svg"><path d="M26.443 12.943C26.443 5.794 20.649 0 13.5 0S.557 5.794.557 12.943c0 6.461 4.732 11.815 10.92 12.786v-9.045H8.192v-3.741h3.287V10.09c0-3.243 1.931-5.035 4.889-5.035 1.415 0 2.897.253 2.897.253v3.185H17.63c-1.608 0-2.109.998-2.109 2.022v2.427h3.59l-.574 3.741h-3.016v9.045c6.189-.97 10.92-6.325 10.92-12.786z" fill="#373737"/><path d="M18.538 16.684l.574-3.741h-3.59v-2.427c0-1.024.5-2.022 2.109-2.022h1.633V5.308s-1.482-.252-2.897-.252c-2.958 0-4.89 1.792-4.89 5.035v2.852H8.192v3.741h3.287v9.045a13.025 13.025 0 004.044 0v-9.045h3.016z" fill="#7C7C7C"/></svg>