<svg width="88" height="68" fill="none" xmlns="http://www.w3.org/2000/svg"><path d="M36.904 54.136h.051c1.219-.003 2.39.44 3.258 1.234a4.212 4.212 0 011.283 2.187c.186.831.101 1.694-.242 2.48a4.37 4.37 0 01-1.685 1.939 4.878 4.878 0 01-2.562.742h-.03c-1.22.001-2.392-.446-3.259-1.244-.867-.797-1.359-1.88-1.368-3.013-.01-1.133.463-2.223 1.317-3.033.853-.81 2.017-1.275 3.237-1.292zm-1.701 5.942c.233.216.51.387.814.503.305.116.631.176.96.175h.016c.328-.002.653-.064.955-.182a2.49 2.49 0 00.805-.51c.234-.219.419-.48.543-.765a2.187 2.187 0 00-.564-2.528 2.611 2.611 0 00-1.777-.673 2.608 2.608 0 00-1.77.69 2.244 2.244 0 00-.725 1.648c.003.617.27 1.208.743 1.642zM68.06 61.397a5.258 5.258 0 01-3.769-1.515 5.289 5.289 0 01-.062-7.469 5.258 5.258 0 013.71-1.578h.064a5.254 5.254 0 013.706 1.516 5.287 5.287 0 011.188 5.745 5.278 5.278 0 01-1.919 2.386 5.255 5.255 0 01-2.917.915zm2.213-7.576a3.22 3.22 0 00-2.271-.929h-.04a3.21 3.21 0 00-2.24.968 3.23 3.23 0 00.033 4.542 3.214 3.214 0 002.273.937h.02a3.169 3.169 0 002.254-.958 3.23 3.23 0 00.677-3.53 3.179 3.179 0 00-.706-1.03z" fill="#fff"/><path d="M2.971 56.431h14.78V27a2.97 2.97 0 012.971-2.97A2.972 2.972 0 0123.694 27v2.707h4.84V14.533a1.028 1.028 0 011.029-1.028h4.587a1.029 1.029 0 011.029 1.028v25.966l1.933.003V23.76c0-.27.106-.528.295-.72l14.675-14.92h-2.829a4.073 4.073 0 01-4.06-4.058A4.063 4.063 0 0149.253 0h27.054a4.073 4.073 0 014.06 4.06 4.063 4.063 0 01-3.758 4.047v24.437h1.205a5.883 5.883 0 015.874 5.871v4.702h.986a2.475 2.475 0 012.471 2.47v5.344a2.473 2.473 0 01-2.471 2.471h-.986v1.479a1.028 1.028 0 01-.682.968l-3.509 1.256C79.093 63.158 74.05 67.982 67.927 68h-.035a11.682 11.682 0 01-7.873-3.046 11.671 11.671 0 01-3.762-7.555h-9.749c.026.284.043.57.044.856A9.714 9.714 0 0136.902 68h-.03a9.705 9.705 0 01-6.855-2.815 9.695 9.695 0 01-2.867-6.831c0-.327.017-.653.05-.978h-1.58a1.029 1.029 0 01-1.028-1.028v-11.55a4.313 4.313 0 013.943-4.293V38.42h-4.841v22.872a2.964 2.964 0 01-2.417 2.92 2.968 2.968 0 01-3.315-1.84H2.972A2.972 2.972 0 010 59.402a2.97 2.97 0 012.971-2.97zm80.717-5.085h.986a.42.42 0 00.414-.415v-5.343a.42.42 0 00-.414-.415h-.986v6.173zM33.122 15.561h-2.53v24.93l2.53.005V15.56zM78.31 4.06a2.014 2.014 0 00-2.004-2.005H49.254a2.007 2.007 0 00-2.004 2.005 2.013 2.013 0 002.004 2.003h27.053A2.006 2.006 0 0078.31 4.06zM54.56 55.343h1.695c.522-5.943 5.501-10.632 11.549-10.648h.034a11.657 11.657 0 019.137 4.376 1.028 1.028 0 11-1.605 1.287 9.605 9.605 0 00-7.531-3.607h-.03c-5.262.014-9.543 4.33-9.545 9.62v.03a9.606 9.606 0 009.628 9.543h.028c5.24-.015 9.523-4.312 9.548-9.572v-.078a9.473 9.473 0 00-.617-3.352 1.028 1.028 0 011.923-.73c.334.88.558 1.796.667 2.73l2.189-.785V38.415a3.82 3.82 0 00-3.817-3.815H62.093l-7.532 7.377v13.366zM70.52 22.058a1.18 1.18 0 00-2.062.527l-1.397 7.12a1.028 1.028 0 01-1.01.83h-7.516a1.006 1.006 0 000 2.01h10.489l1.75-9.521a1.175 1.175 0 00-.254-.966zM59.155 34.6h-.62a3.063 3.063 0 01-3.062-3.061 3.06 3.06 0 013.062-3.061h6.67l1.234-6.288a3.234 3.234 0 015.844-1.208c.483.704.668 1.572.513 2.412l-1.68 9.15h3.436V8.12H54.966l-15.3 15.555 3.923 3.192 1.297-1.526-2.142-1.723a1.031 1.031 0 01-.343-1.09 1.029 1.029 0 011.632-.512l5.833 4.69a1.029 1.029 0 11-1.289 1.601l-2.086-1.677-1.306 1.535 1.44 1.172a1.028 1.028 0 01.38.798v10.383h6.107l6.043-5.918zm-19.986-8.678v14.584l5.779.01v-9.893l-5.779-4.701zm-7.703 37.805a7.64 7.64 0 005.406 2.218h.023a7.654 7.654 0 007.412-9.346 7.7 7.7 0 00-7.478-5.935h-.023a7.599 7.599 0 00-7.4 5.916 7.746 7.746 0 00-.2 1.767 7.543 7.543 0 002.26 5.38zm-4.817-18.929V55.32h.973a9.634 9.634 0 019.18-6.711h9.912a1.029 1.029 0 110 2.056h-3.922a9.679 9.679 0 013.3 4.678h6.412v-4.679H50.43a1.029 1.029 0 010-2.056h2.074v-6.034l-23.6-.03a2.257 2.257 0 00-2.255 2.254zm-2.955-8.433h4.84v-4.603h-4.84v4.603zm-3.886 24.92l.001.032a.914.914 0 001.828-.024V26.999a.914.914 0 00-1.83 0v34.287zM2.327 60.048a.905.905 0 00.644.27h14.78v-1.83H2.97a.913.913 0 00-.644 1.56z" fill="#fff"/></svg>