<svg width="69" height="74" fill="none" xmlns="http://www.w3.org/2000/svg"><path d="M60.871 59.677h-3.58v-2.606c1.385-.494 2.386-1.807 2.386-3.361V39.387a3.585 3.585 0 00-3.58-3.58h-3.772a1.2 1.2 0 01-1.189-1.095l-.828-9.945a3.602 3.602 0 00-3.569-3.283H33.914l-13.89-13.89L14.961 0H8.537L2.592 35.667A5.965 5.965 0 000 40.58c0 2.88 2.054 5.292 4.774 5.847v2.508H2.387v9.548h2.387v4.423L1.795 64.61l1.184 2.072 1.795-1.025v3.219l-2.979 1.702 1.184 2.072 1.795-1.025V74h2.387v-3.74l4.173-2.385-1.184-2.072L7.16 67.51v-3.22l4.173-2.384-1.184-2.072-2.989 1.708v-3.06h2.387v-9.547H7.161v-2.508c2.601-.53 4.566-2.763 4.738-5.476l6.915-12.843 7.444 23.4v2.2c0 1.555 1.002 2.868 2.387 3.362v2.606h-3.58a7.169 7.169 0 00-7.162 7.162A7.169 7.169 0 0025.065 74H60.87a7.169 7.169 0 007.161-7.161 7.169 7.169 0 00-7.161-7.162zm-3.58-5.967c0 .657-.535 1.193-1.194 1.193h-3.58v-2.387h4.773v1.194zm-2.388 3.58v2.387h-23.87V57.29h23.87zm2.387-7.161h-4.774v-2.387h4.774v2.387zm0-4.774h-4.774V44.16c0-.657.535-1.193 1.194-1.193h3.58v2.387zM33.14 23.87h13.6a1.2 1.2 0 011.188 1.095l.829 9.944a3.602 3.602 0 003.568 3.284h3.772c.659 0 1.193.535 1.193 1.193v1.194h-3.58a3.585 3.585 0 00-3.581 3.58v10.742h-20.29a1.195 1.195 0 01-1.194-1.193v-2.238c0-.048.003-.095.01-.148l3.301-26.407a1.194 1.194 0 011.184-1.046zM20.29 11.236L31.154 22.1a3.568 3.568 0 00-1.567 2.52l-.497 3.976-5.02-5.02a5.93 5.93 0 00.994-3.286c0-2.88-2.054-5.292-4.774-5.847v-3.207zM7.123 23.003l2.244.561-2.04 11.22a5.862 5.862 0 00-1.36-.171c-.27 0-.53.045-.792.08l1.948-11.69zm.038 33.094H4.774v-4.774h2.387v4.774zM5.968 44.16a3.585 3.585 0 01-3.58-3.58A3.585 3.585 0 015.967 37a3.585 3.585 0 013.58 3.58 3.585 3.585 0 01-3.58 3.581zm5.08-6.668a5.997 5.997 0 00-1.488-1.646l2.557-14.055-4.599-1.15L10.56 2.386h3.125l4.22 6.33v5.726a5.978 5.978 0 00-4.775 5.847c0 2.649 1.746 4.874 4.14 5.652l-6.22 11.55zm4.468-17.203a3.585 3.585 0 013.58-3.58 3.585 3.585 0 013.581 3.58 3.585 3.585 0 01-3.58 3.581 3.585 3.585 0 01-3.58-3.58zm11.426 25.493l-6.286-19.758a5.923 5.923 0 001.727-.761l6.333 6.333-1.774 14.186zm33.929 25.83H25.065a4.779 4.779 0 01-4.775-4.774 4.779 4.779 0 014.774-4.774h35.807a4.779 4.779 0 014.774 4.774 4.779 4.779 0 01-4.774 4.774z" fill="#fff"/><path d="M34.393 65.645c-.494-1.386-1.807-2.387-3.36-2.387a3.585 3.585 0 00-3.581 3.58 3.585 3.585 0 003.58 3.581c1.554 0 2.867-1.001 3.361-2.387H57.29v-2.387H34.393zm-3.36 2.387a1.195 1.195 0 111.194-1.194c-.001.658-.536 1.194-1.195 1.194zM45.824 28.447a2.402 2.402 0 00-2.38-2.189H36.3a2.39 2.39 0 00-2.368 2.091L30.91 52.516h16.938l-2.024-24.069zm-9.524.198h7.144l.902 10.742h-9.388L36.3 28.645zM33.615 50.13l1.044-8.355h9.887l.702 8.355H33.615zM20.29 19.097h-2.387v2.387h2.387v-2.387zM7.161 39.387H4.774v2.387H7.16v-2.387z" fill="#fff"/></svg>