<svg width="28" height="28" fill="none" xmlns="http://www.w3.org/2000/svg"><path d="M9.404 2.904a12.01 12.01 0 019.192 0v0a12.01 12.01 0 016.5 6.5v0a12.01 12.01 0 010 9.192v0a12.01 12.01 0 01-6.5 6.5v0a12.01 12.01 0 01-9.192 0v0a12.01 12.01 0 01-6.5-6.5v0a12.01 12.01 0 010-9.192v0a12.01 12.01 0 016.5-6.5v0z" stroke="#fff" stroke-opacity=".8" stroke-width="2"/><path d="M18.14 20.742l.924.383-.924-.383zm0-13.482l-.923.383.924-.383zm-3.365 18.727l.065.998a1 1 0 00.668-.318l-.733-.68zm-1.55 0l-.733.68a1 1 0 00.668.318l.065-.998zm-3.367-5.246l.924-.383-.924.383zm0-13.482l-.923-.383.923.383zm3.364-5.243l-.064-.998a1 1 0 00-.669.318l.733.68zm1.554 0l.732-.68a1 1 0 00-.668-.318l-.064.998zm4.288 19.11a18.616 18.616 0 000-14.248l-1.847.765a16.615 16.615 0 010 12.717l1.847.765zm-3.556 5.541a18.61 18.61 0 003.556-5.542l-1.847-.765a16.61 16.61 0 01-3.175 4.947l1.466 1.36zm-2.347.318c.559.036 1.12.036 1.679 0l-.13-1.996c-.473.03-.947.03-1.42 0l-.13 1.996zm-4.226-5.861a18.61 18.61 0 003.557 5.543l1.466-1.36a16.61 16.61 0 01-3.176-4.948l-1.847.765zm0-14.248a18.615 18.615 0 000 14.248l1.847-.765a16.616 16.616 0 010-12.717l-1.847-.766zm3.554-5.54a18.61 18.61 0 00-3.554 5.54l1.847.766a16.61 16.61 0 013.173-4.945L12.49 1.336zm2.351-.318a13.016 13.016 0 00-1.682 0l.129 1.996c.474-.03.95-.03 1.424 0l.13-1.996zm4.224 5.86a18.611 18.611 0 00-3.556-5.542l-1.465 1.36a16.612 16.612 0 013.174 4.947l1.847-.765z" fill="#fff" fill-opacity=".8"/><path d="M2.64 18.9h22.719v-2H2.639v2zm.158-8.233H25.2v-2H2.798v2z" fill="#fff" fill-opacity=".8"/></svg>