<svg width="34" height="29" fill="none" xmlns="http://www.w3.org/2000/svg"><path d="M33.137 21.494a2.195 2.195 0 00-1.74-2.144v-3.216A14.764 14.764 0 0019.337 1.622 1.958 1.958 0 0017.464.225H15.81c-.884 0-1.632.59-1.873 1.397A14.764 14.764 0 001.877 16.134v3.216a2.195 2.195 0 00-1.74 2.144c0 1.067.766 1.958 1.778 2.152a5.034 5.034 0 004.99 4.422h19.464a5.034 5.034 0 004.99-4.422 2.195 2.195 0 001.778-2.152zM30.05 14.9h-.48a7.012 7.012 0 01-7.005-7.005v-3.85C26.694 6.092 29.61 10.2 30.05 14.9zM10.708 4.045v3.85a7.012 7.012 0 01-7.004 7.003h-.48C3.663 10.2 6.58 6.091 10.708 4.045zM26.37 26.779H6.904a3.745 3.745 0 01-3.682-3.093h26.83a3.744 3.744 0 01-3.683 3.093zm4.576-4.383H2.328a.903.903 0 010-1.804h11.408a.645.645 0 000-1.29H3.166v-3.114h.538c4.573 0 8.293-3.72 8.293-8.294V3.488c.6-.222 1.22-.402 1.857-.536v5.394a.644.644 0 101.29 0V2.18c0-.368.298-.666.665-.666h1.655c.367 0 .666.298.666.666v6.166a.644.644 0 101.29 0V2.952c.637.134 1.257.314 1.856.536v4.406c0 4.573 3.72 8.293 8.294 8.293h.538v3.116h-10.57a.645.645 0 000 1.289h11.407a.903.903 0 010 1.805z" fill="#fff"/><path d="M16.637 19.303a.65.65 0 00-.645.644.65.65 0 00.645.645.65.65 0 00.644-.645.65.65 0 00-.645-.645z" fill="#fff"/></svg>