<svg width="32" height="21" fill="none" xmlns="http://www.w3.org/2000/svg"><rect x="1" y="1" width="29.556" height="19" rx="4" stroke="#fff" stroke-opacity=".8" stroke-width="2" stroke-linecap="round" stroke-linejoin="round"/><path d="M31.153 3.688a1 1 0 00-1.194-1.605l1.194 1.605zM20.555 10.33l-.598-.802.598.802zm-9.554 0l-.597.802.597-.802zM1.597 2.083A1 1 0 00.403 3.688l1.194-1.605zm28.362 0L19.956 9.528l1.195 1.604 10-7.444-1.194-1.605zm-18.36 7.445L1.596 2.083.403 3.688l10 7.444 1.195-1.604zm8.358 0a7 7 0 01-8.359 0l-1.194 1.604a9 9 0 0010.748 0l-1.195-1.604z" fill="#fff" fill-opacity=".8"/></svg>