<svg width="27" height="26" fill="none" xmlns="http://www.w3.org/2000/svg"><path d="M.836 12.943C.836 5.795 6.63 0 13.779 0 20.927 0 26.72 5.795 26.72 12.943S20.927 25.886 13.78 25.886C6.63 25.886.836 20.09.836 12.943z" fill="#373737"/><path fill-rule="evenodd" clip-rule="evenodd" d="M10.175 7.994c0 .846-.636 1.523-1.66 1.523h-.018c-.985 0-1.621-.677-1.621-1.523 0-.864.656-1.522 1.66-1.522 1.003 0 1.62.658 1.64 1.522zm-.193 2.726v8.813H7.05V10.72h2.933zm10.578 8.813V14.48c0-2.707-1.447-3.967-3.377-3.967-1.557 0-2.254.855-2.644 1.456V10.72h-2.933c.039.827 0 8.813 0 8.813h2.933v-4.922c0-.263.02-.526.097-.714.212-.527.695-1.071 1.505-1.071 1.062 0 1.486.808 1.486 1.992v4.715h2.933z" fill="#7C7C7C"/></svg>