<svg width="89" height="69" fill="none" xmlns="http://www.w3.org/2000/svg"><path d="M87.036 17.387C85.15 14.33 75.704 0 64.596 0 53.674 0 44.359 13.861 42.259 17.226h-.629v-5.742a2.874 2.874 0 00-2.87-2.871h-12.92a2.874 2.874 0 00-2.871 2.87v2.872h-12a2.883 2.883 0 00-2.608 1.668L.264 33.565A2.848 2.848 0 000 34.767V57.42a4.312 4.312 0 004.306 4.307h9.037c1.239 4.144 5.083 7.177 9.625 7.177s8.386-3.033 9.625-7.177h10.895c1.239 4.144 5.083 7.177 9.625 7.177 3.657 0 6.854-1.97 8.613-4.9 1.758 2.93 4.955 4.9 8.613 4.9 4.542 0 8.386-3.033 9.625-7.177h6.165A2.874 2.874 0 0089 58.855V20.097a2.865 2.865 0 00-1.964-2.71zM64.596 2.87c8.18 0 15.846 9.879 18.9 14.355H45.7C48.752 12.75 56.417 2.87 64.597 2.87zM12.92 58.855H4.306a1.436 1.436 0 01-1.435-1.436v-1.435h10.472a9.987 9.987 0 00-.424 2.87zm10.049 7.177c-3.958 0-7.178-3.22-7.178-7.177 0-3.958 3.22-7.178 7.178-7.178 3.957 0 7.177 3.22 7.177 7.178 0 3.958-3.22 7.177-7.177 7.177zm20.097-7.177H33.016c0-.998-.15-1.961-.423-2.871h10.895a9.983 9.983 0 00-.423 2.87zm10.048 7.177c-3.958 0-7.178-3.22-7.178-7.177 0-3.958 3.22-7.178 7.178-7.178 3.958 0 7.177 3.22 7.177 7.178 0 3.958-3.22 7.177-7.177 7.177zm17.226 0c-3.958 0-7.178-3.22-7.178-7.177 0-3.958 3.22-7.178 7.178-7.178 3.957 0 7.177 3.22 7.177 7.178 0 3.958-3.22 7.177-7.177 7.177zm15.79-7.177h-5.742c0-.998-.15-1.961-.423-2.871h6.165v2.87zm0-5.742h-7.556c-1.82-2.6-4.83-4.307-8.234-4.307-3.658 0-6.855 1.971-8.613 4.9-1.759-2.929-4.956-4.9-8.613-4.9-3.405 0-6.415 1.707-8.234 4.307H31.202c-1.82-2.6-4.83-4.307-8.234-4.307-3.405 0-6.415 1.707-8.234 4.307H2.87v-2.871h4.306V47.37H2.871V34.767l8.096-17.541H28.71v28.71h57.419v7.177zm0-10.048h-5.742V25.839h-2.87v17.226h-7.178V25.839h-2.871v17.226H60.29V25.839h-2.87v17.226h-7.178V25.839H47.37v17.226h-7.178V25.839h-2.87v17.226H31.58v-25.84a2.874 2.874 0 00-2.871-2.87h-2.871v-2.871h12.92v8.613h47.37v22.968z" fill="#fff"/><path d="M22.968 20.097h-8.329a2.885 2.885 0 00-2.606 1.668l-6.29 13.631v6.233a2.874 2.874 0 002.87 2.871h14.355a2.874 2.874 0 002.871-2.87V22.967a2.874 2.874 0 00-2.871-2.871zm0 14.355h-2.871v2.87h2.871v4.307H8.613v-4.306h8.613v-2.871H9.341l5.298-11.484h8.329v11.484zM22.968 54.548a4.312 4.312 0 00-4.306 4.307 4.312 4.312 0 004.306 4.306 4.312 4.312 0 004.306-4.306 4.312 4.312 0 00-4.306-4.307zm0 5.742a1.436 1.436 0 11.001-2.872 1.436 1.436 0 010 2.872zM70.339 54.548a4.312 4.312 0 00-4.307 4.307 4.312 4.312 0 004.307 4.306 4.312 4.312 0 004.306-4.306 4.312 4.312 0 00-4.306-4.307zm0 5.742a1.436 1.436 0 110-2.872 1.436 1.436 0 010 2.872zM53.113 54.548a4.312 4.312 0 00-4.306 4.307 4.312 4.312 0 004.306 4.306 4.312 4.312 0 004.306-4.306 4.312 4.312 0 00-4.306-4.307zm0 5.742a1.436 1.436 0 11.001-2.872 1.436 1.436 0 010 2.872zM71.774 5.742h-2.87v2.87h2.87v-2.87zM78.951 12.92h-2.87v2.87h2.87v-2.87zM68.903 11.484h-2.87v2.87h2.87v-2.87zM63.161 8.613h-2.87v2.87h2.87v-2.87zM55.984 11.484h-2.871v2.87h2.87v-2.87z" fill="#fff"/></svg>