<svg width="25" height="34" fill="none" xmlns="http://www.w3.org/2000/svg"><path d="M2 13.127v-.688H0v.688h2zm11.22 19.27L4.07 19.59 2.444 20.75l9.15 12.809 1.627-1.163zm7.566-12.808l-9.149 12.808 1.628 1.163 9.149-12.809-1.628-1.163zm2.071-7.15v.688h2v-.688h-2zm-11.265 21.12c.41.575 1.263.575 1.673 0l-1.628-1.162a.972.972 0 011.583 0l-1.628 1.163zM0 13.128c0 2.734.854 5.4 2.443 7.624l1.628-1.163A11.117 11.117 0 012 13.127H0zm22.414 7.624a13.117 13.117 0 002.443-7.624h-2c0 2.317-.724 4.576-2.07 6.461l1.627 1.163zM12.429 2.01c5.76 0 10.428 4.669 10.428 10.429h2C24.857 5.574 19.293.01 12.43.01v2zm0-2C5.564.01 0 5.574 0 12.439h2C2 6.679 6.669 2.01 12.429 2.01v-2z" fill="#fff" fill-opacity=".8"/></svg>