<svg width="40" height="35" fill="none" xmlns="http://www.w3.org/2000/svg"><path d="M23.07 13.742l-.142.99.142-.99zm1.283.492l.557-.83-.557.83zm-2.477-1.453a1 1 0 10.37 1.965l-.37-1.965zm3.834 3.765l-.996.082.996-.082zm-1.052.762a1 1 0 101.94.487l-1.94-.487zm.637-2.072l-.862.506.863-.507zm-1.608-4.06l.142-.99-.142.99zm2.246.863l.557-.83-.557.83zm-3.69-1.881a1 1 0 10.211 1.989l-.211-1.99zm6.065 5.927l.996-.082-.996.082zm-1.043 1.171a1 1 0 101.973.331l-1.973-.33zm.317-3.465l.862-.506-.862.506zm-3.28-5.18l.143-.99-.142.99zm3.209 1.233l-.557.83.557-.83zm-4.95-2.287a1 1 0 10.148 1.995l-.148-1.995zm8.343 8.066l.996-.082-.996.082zm-1.035 1.536a1 1 0 001.982.268l-1.982-.268zm-.002-4.812l.862-.507-.862.507zm-6.94 2.384c.312.045.608.159.869.334l1.114-1.66a4.089 4.089 0 00-1.698-.653l-.284 1.98zm-.681.015c.224-.042.455-.047.682-.015l.284-1.98a4.088 4.088 0 00-1.336.03l.37 1.965zm2.468 1.882c.018.229 0 .459-.056.68l1.94.487a4.09 4.09 0 00.109-1.33l-1.993.163zm-.28-.886c.158.27.254.573.28.886l1.993-.164a4.09 4.09 0 00-.55-1.735l-1.724 1.013zm1.724-1.013a4.09 4.09 0 00-1.248-1.325l-1.114 1.66c.26.176.478.407.637.678l1.725-1.013zm-2.613-2.563c.655.094 1.28.335 1.83.704l1.115-1.661a6.406 6.406 0 00-2.661-1.022l-.284 1.98zm-1.09-.02a4.407 4.407 0 011.09.02l.284-1.98a6.408 6.408 0 00-1.586-.028l.211 1.989zm4.856 4.02c.03.366.014.732-.046 1.09l1.973.331c.087-.522.11-1.054.066-1.584l-1.993.164zm-.591-1.869c.335.571.537 1.21.591 1.87l1.993-.164a6.407 6.407 0 00-.86-2.718l-1.724 1.012zm1.724-1.012a6.407 6.407 0 00-1.954-2.076l-1.114 1.66c.55.37 1.008.857 1.344 1.428l1.724-1.012zM24.161 9.6c1 .144 1.954.51 2.793 1.073l1.114-1.66a8.722 8.722 0 00-3.623-1.392l-.284 1.98zm-1.452-.05c.483-.035.97-.019 1.452.05l.284-1.98a8.723 8.723 0 00-1.884-.064l.148 1.995zm7.198 6.154c.04.486.027.973-.038 1.454l1.982.268a8.723 8.723 0 00.05-1.886l-1.994.164zm-.902-2.852c.51.87.82 1.846.902 2.852l1.993-.164a8.723 8.723 0 00-1.17-3.7l-1.726 1.012zm1.724-1.013a8.722 8.722 0 00-2.66-2.826l-1.115 1.66a6.724 6.724 0 012.05 2.179l1.725-1.013zM13.143 12.193l.904-.428-.904.428zm10.308 10.37l-.433.902.433-.901zm.291.14l.433-.901-.433.901zm-9.987-9.311l.876-.482-.876.482zm12.807 15.727l-.89-.457.89.457zm-3.4 1.022a20.867 20.867 0 01-11.473-5.89l-1.418 1.41a22.867 22.867 0 0012.573 6.455l.318-1.975zm-11.473-5.89a20.867 20.867 0 01-5.82-11.508l-1.976.307a22.867 22.867 0 006.378 12.612l1.418-1.41zM6.42 8.483l-.078.04.902 1.785.08-.04-.903-1.785zm5.681 3.846l.139.292 1.808-.854-.139-.293-1.808.855zm.139.292c.2.426.414.844.64 1.254l1.752-.964a20.986 20.986 0 01-.584-1.145l-1.809.855zm.418 2.062c-2.019.91-2.507 3.558-.946 5.129l1.419-1.41a1.173 1.173 0 01.35-1.896l-.822-1.823zm-.946 5.129l4.421 4.447 1.419-1.41-4.421-4.447-1.419 1.41zm4.421 4.447c1.562 1.571 4.212 1.099 5.135-.915l-1.819-.833c-.34.744-1.32.919-1.897.338l-1.419 1.41zm6.1-1.19c.26.138.521.27.786.397l.866-1.803c-.242-.116-.481-.237-.718-.361l-.934 1.768zm.786.397l.292.14.865-1.803-.291-.14-.866 1.803zm.292.14l.217.103.845-1.813c-.066-.03-.131-.062-.197-.093l-.865 1.803zm4.082 6.087l.06-.116-1.78-.914-.06.117 1.78.913zm-6.125-6.349c.14-.306.57-.483.965-.274l.934-1.768c-1.312-.694-3.053-.241-3.718 1.209l1.819.833zm-8.388-9.469c.184.334.03.694-.221.808l.822 1.823c1.41-.636 1.846-2.332 1.151-3.595l-1.752.964zm-7.01-1.13c-.149-.959.393-1.941 1.374-2.437l-.902-1.785c-1.635.827-2.75 2.589-2.448 4.528l1.976-.307zm17.658 10.964c2.03.947 3.02 3.25 2.145 4.954l1.78.914c1.535-2.992-.328-6.397-3.08-7.68l-.845 1.812zM7.322 10.267c1.646-.833 3.856.11 4.778 2.06l1.808-.854C12.645 8.8 9.34 7.006 6.42 8.482l.902 1.785zm15.522 21.849c1.94.313 3.71-.792 4.548-2.424l-1.78-.913c-.503.98-1.49 1.517-2.45 1.362l-.318 1.975z" fill="#fff" fill-opacity=".8"/></svg>