<svg width="34" height="34" fill="none" xmlns="http://www.w3.org/2000/svg"><path fill-rule="evenodd" clip-rule="evenodd" d="M2.137 14.592c0 6.83 5.537 12.367 12.367 12.367 6.83 0 12.367-5.537 12.367-12.367 0-6.83-5.537-12.367-12.367-12.367-6.83 0-12.367 5.537-12.367 12.367zm-2 0c0 7.935 6.432 14.367 14.367 14.367 3.607 0 6.904-1.33 9.428-3.525l7.497 7.498a1 1 0 001.415-1.415l-7.498-7.497a14.312 14.312 0 003.525-9.428C28.871 6.657 22.44.225 14.504.225 6.569.225.137 6.657.137 14.592z" fill="#fff"/></svg>