<svg width="13" height="12" fill="none" xmlns="http://www.w3.org/2000/svg"><path d="M6.555 3.52l.027.448-.452-.055c-1.648-.21-3.087-.923-4.31-2.12l-.597-.594-.154.438c-.326.978-.118 2.011.561 2.706.362.383.28.438-.344.21-.217-.073-.407-.128-.425-.1-.064.063.154.895.326 1.224.235.457.715.905 1.24 1.17l.444.21-.526.01c-.507 0-.525.008-.47.2.18.594.896 1.225 1.693 1.5l.56.191-.488.293a5.097 5.097 0 01-2.426.676C.806 9.937.47 9.973.47 10c0 .092 1.105.603 1.748.805 1.928.594 4.219.338 5.939-.677 1.222-.722 2.444-2.157 3.014-3.546.308-.74.616-2.093.616-2.742 0-.42.027-.475.534-.978.299-.293.58-.612.634-.704.09-.173.081-.173-.38-.018-.77.274-.879.238-.498-.174.28-.292.615-.822.615-.978 0-.027-.136.019-.29.1a5.048 5.048 0 01-.796.312l-.489.155-.444-.302c-.244-.164-.588-.347-.77-.402-.46-.128-1.167-.11-1.583.037-1.132.411-1.847 1.471-1.766 2.632z" fill="#15110E"/></svg>