<svg width="87" height="72" fill="none" xmlns="http://www.w3.org/2000/svg"><path d="M28.364 61.266h26.5a1.531 1.531 0 100-3.063h-26.5a1.531 1.531 0 100 3.063zM7.457 46.973a1.53 1.53 0 001.523-1.387l.844-8.85c9.718-7.742 37.454-5.306 37.739-5.28.052.006.104.004.157.006l27.243-.31c3.399.006 6.628 1.896 8.213 4.902l-4.653 4.161a1.533 1.533 0 002.043 2.282l5.492-4.91c.475-.425.637-1.101.406-1.695-1.817-4.683-6.385-7.803-11.4-7.803h-.137l-27.166.31c-2.072-.183-30.314-2.505-40.418 6.421a1.524 1.524 0 00-.51 1.003l-.902 9.474a1.531 1.531 0 001.526 1.676z" fill="#fff"/><path d="M67.61 70.752c.509 0 .989-.252 1.276-.684.582-.877 1.984-.931 2.633-.067.353.472.945.692 1.529.584a16.462 16.462 0 006.838-3.139 1.53 1.53 0 00.595-1.31c-.03-.474.131-.915.455-1.242.307-.31.677-.479 1.18-.469h.03c.5 0 .97-.243 1.257-.654a16.668 16.668 0 002.805-7.113 1.528 1.528 0 00-.417-1.288 1.601 1.601 0 010-2.249c.332-.34.486-.816.417-1.287a16.676 16.676 0 00-2.805-7.113 1.573 1.573 0 00-1.286-.655c-.506-.004-.874-.158-1.18-.469a1.592 1.592 0 01-.456-1.242c.032-.508-.19-.999-.595-1.31a16.499 16.499 0 00-6.838-3.138 1.537 1.537 0 00-1.53.583c-.645.865-2.048.812-2.633-.067a1.536 1.536 0 00-1.487-.667 16.446 16.446 0 00-6.843 2.577 1.525 1.525 0 00-.629 1.688c.16.575.012 1.164-.399 1.576a1.595 1.595 0 01-1.634.386 1.537 1.537 0 00-1.71.569 16.468 16.468 0 00-2.824 6.576c-.13.684.218 1.368.846 1.668a1.6 1.6 0 01-.002 2.904 1.53 1.53 0 00-.845 1.667c.45 2.375 1.4 4.586 2.824 6.574.386.541 1.077.766 1.71.568a1.602 1.602 0 011.634.386c.41.412.559 1 .4 1.578-.18.64.075 1.322.63 1.688a16.433 16.433 0 006.841 2.577c.071.01.143.014.213.014zm2.62-4.47c-1.213 0-2.359.466-3.218 1.284a13.35 13.35 0 01-3.964-1.47 4.672 4.672 0 00-1.35-3.361 4.615 4.615 0 00-3.55-1.364 13.43 13.43 0 01-1.56-3.61 4.694 4.694 0 001.608-3.515c0-1.357-.607-2.64-1.608-3.517.339-1.27.861-2.479 1.56-3.609a4.64 4.64 0 003.55-1.363 4.67 4.67 0 001.35-3.361 13.303 13.303 0 013.965-1.47c1.659 1.574 4.496 1.658 6.234.172a13.41 13.41 0 014.204 1.96 4.645 4.645 0 003.825 4.005 13.657 13.657 0 011.79 4.57 4.628 4.628 0 00-.8 2.613c0 .943.278 1.846.8 2.613a13.656 13.656 0 01-1.79 4.569 4.629 4.629 0 00-2.515 1.307 4.667 4.667 0 00-1.31 2.7 13.395 13.395 0 01-4.204 1.958 4.622 4.622 0 00-3.016-1.112z" fill="#fff"/><path d="M69.727 61.966c4.258 0 7.72-3.462 7.72-7.72 0-4.257-3.462-7.719-7.72-7.719-4.256 0-7.72 3.462-7.72 7.72 0 4.257 3.465 7.719 7.72 7.719zm0-12.376a4.66 4.66 0 014.657 4.657 4.661 4.661 0 01-4.657 4.656 4.66 4.66 0 01-4.655-4.656 4.66 4.66 0 014.655-4.657zM12.732 72c.507 0 .987-.253 1.275-.683.447-.671 1.513-.715 2.013-.05.355.47.945.69 1.528.582a14.665 14.665 0 006.085-2.792c.403-.311.625-.802.594-1.31-.015-.21.013-.615.347-.95.234-.235.575-.36.9-.356.526 0 .996-.236 1.288-.655a14.883 14.883 0 002.497-6.33 1.529 1.529 0 00-.418-1.288 1.225 1.225 0 010-1.716c.333-.34.486-.816.418-1.288a14.866 14.866 0 00-2.497-6.33c-.292-.42-.758-.684-1.288-.655a1.228 1.228 0 01-.904-.36 1.219 1.219 0 01-.343-.948c.031-.508-.192-.999-.594-1.308a14.684 14.684 0 00-6.085-2.792 1.534 1.534 0 00-1.528.583c-.5.66-1.568.62-2.013-.05a1.533 1.533 0 00-1.487-.667 14.628 14.628 0 00-6.087 2.292 1.526 1.526 0 00-.631 1.69c.122.44.01.889-.304 1.202a1.231 1.231 0 01-1.247.296c-.629-.2-1.322.027-1.709.565a14.675 14.675 0 00-2.514 5.853c-.13.684.218 1.37.847 1.67.436.207.709.63.709 1.106 0 .474-.273.9-.711 1.108-.629.3-.976.984-.846 1.669a14.68 14.68 0 002.514 5.85 1.54 1.54 0 001.708.568c.45-.143.929-.03 1.25.294.31.313.425.764.302 1.203-.18.64.076 1.324.63 1.689a14.666 14.666 0 006.087 2.294c.072.009.144.014.214.014zm2.304-4.3c-1.08 0-2.103.403-2.885 1.112a11.58 11.58 0 01-3.24-1.198 4.292 4.292 0 00-1.24-2.976 4.317 4.317 0 00-3.149-1.257 11.595 11.595 0 01-1.265-2.92 4.306 4.306 0 001.39-3.15 4.31 4.31 0 00-1.39-3.152 11.606 11.606 0 011.264-2.92 4.18 4.18 0 003.15-1.257 4.279 4.279 0 001.24-2.976c1.01-.559 2.095-.96 3.24-1.199 1.504 1.366 4.007 1.439 5.58.156 1.234.34 2.4.883 3.475 1.623a4.267 4.267 0 003.422 3.58 11.788 11.788 0 011.49 3.809 4.263 4.263 0 00-.692 2.336c0 .84.242 1.645.693 2.335-.271 1.36-.77 2.635-1.49 3.807-.84.16-1.61.566-2.227 1.185a4.284 4.284 0 00-1.196 2.398 11.538 11.538 0 01-3.475 1.622 4.235 4.235 0 00-2.695-.959z" fill="#fff"/><path d="M14.595 64.279a6.977 6.977 0 006.97-6.97 6.977 6.977 0 00-6.97-6.97 6.977 6.977 0 00-6.97 6.97 6.977 6.977 0 006.97 6.97zm0-10.876a3.912 3.912 0 013.907 3.907 3.911 3.911 0 01-3.907 3.907 3.91 3.91 0 01-3.906-3.907 3.91 3.91 0 013.906-3.907zM34.49 35.228c.847 0 1.532-.685 1.532-1.532V12.253c0-.846-.685-1.531-1.532-1.531h-6.126a1.531 1.531 0 100 3.063h4.595v19.911a1.53 1.53 0 001.531 1.532zM48.275 7.658h29.102c.846 0 1.532-.685 1.532-1.531V1.532C78.909.685 78.223 0 77.377 0H48.275c-.845 0-1.532.685-1.532 1.532v4.595c0 .847.687 1.531 1.532 1.531zm27.57-3.063H49.807V3.064h26.038v1.531z" fill="#fff"/><path d="M40.617 42.886l.052-.001 9.19-.314c.121-.003.242-.023.36-.055l3.755-1.048c.254-.071.485-.206.67-.391a20.609 20.609 0 0114.65-6.058c1.585 0 3.23.204 4.885.605.254.06.52.055.772-.014l2.536-.709a1.529 1.529 0 001.101-1.711l-4.292-27.3a1.533 1.533 0 00-1.514-1.294h-24.89c-.669 0-1.263.436-1.462 1.077l-7.275 23.41c-.046.147-.07.3-.07.454v11.818c0 .417.17.813.467 1.102.288.275.67.43 1.066.43zm8.956-3.37l-7.423.253v-10l6.871-22.11h22.45l3.879 24.66-.843.235c-8.19-1.846-16.055.588-21.735 6.07l-3.2.893z" fill="#fff"/><path d="M60.529 35.228c.846 0 1.531-.685 1.531-1.532V6.127a1.531 1.531 0 10-3.063 0v27.57c0 .847.686 1.531 1.532 1.531zM25.756 49.994c.398 0 .794-.152 1.094-.46 2.593-2.64 7.112-5.94 13.927-6.657a1.532 1.532 0 00-.32-3.045c-7.719.813-12.848 4.557-15.793 7.558a1.531 1.531 0 001.092 2.604z" fill="#fff"/></svg>