<svg width="24" height="24" fill="none" xmlns="http://www.w3.org/2000/svg"><path d="M12 24c6.627 0 12-5.373 12-12S18.627 0 12 0 0 5.373 0 12s5.373 12 12 12z" fill="#FF0302"/><path d="M19.667 8.123a2.009 2.009 0 00-1.416-1.425c-1.247-.335-6.25-.335-6.25-.335s-5.005 0-6.252.335a2.013 2.013 0 00-1.415 1.425C4 9.38 4 12 4 12s0 2.62.335 3.877a2.013 2.013 0 001.416 1.425c1.247.335 6.25.335 6.25.335s5.004 0 6.251-.335a2.013 2.013 0 001.416-1.425c.335-1.257.335-3.877.335-3.877S20 9.38 19.667 8.123zm-9.303 6.256V9.62L14.545 12l-4.18 2.379z" fill="#fff"/></svg>