<svg width="72" height="58" fill="none" xmlns="http://www.w3.org/2000/svg"><g clip-path="url(#clip0)" fill="#fff"><path d="M4.55 24.397c-.583 0-1.055.38-1.055.85V29c0 .47.472.85 1.054.85.583 0 1.055-.38 1.055-.85v-3.753c0-.47-.472-.85-1.055-.85zM8.044 24.397c-.583 0-1.055.38-1.055.85V29c0 .47.472.85 1.055.85.582 0 1.055-.38 1.055-.85v-3.753c0-.47-.473-.85-1.055-.85zM11.539 24.397c-.583 0-1.055.38-1.055.85V29c0 .47.472.85 1.055.85.582 0 1.054-.38 1.054-.85v-3.753c0-.47-.472-.85-1.054-.85zM10.374 41.756c-.583 0-1.055.38-1.055.85v.938c0 .47.472.85 1.055.85.582 0 1.054-.38 1.054-.85v-.938c0-.47-.472-.85-1.054-.85z"/><path d="M45.319 39.41c-1.166 0-2.23.356-3.035.939H35.89v-.089c0-.47-.472-.85-1.054-.85-.583 0-1.055.38-1.055.85v.089H28.9v-.089c0-.47-.472-.85-1.055-.85-.582 0-1.054.38-1.054.85v.089h-4.88v-.089c0-.47-.473-.85-1.055-.85-.583 0-1.055.38-1.055.85v.089H13.41c-.806-.583-1.87-.938-3.035-.938-2.509 0-4.55 1.644-4.55 3.664 0 2.02 2.041 3.665 4.55 3.665 1.165 0 2.23-.356 3.036-.939h6.392v.089c0 .47.472.85 1.055.85.582 0 1.055-.38 1.055-.85v-.089h4.88v.089c0 .47.472.85 1.054.85.583 0 1.055-.38 1.055-.85v-.089h4.88v.089c0 .47.472.85 1.054.85.583 0 1.055-.38 1.055-.85v-.089h6.392c.806.583 1.87.939 3.037.939 2.508 0 4.549-1.644 4.549-3.665 0-2.02-2.04-3.664-4.55-3.664zm-34.946 5.63c-1.345 0-2.44-.881-2.44-1.965 0-1.083 1.095-1.965 2.44-1.965 1.346 0 2.44.882 2.44 1.965 0 1.084-1.094 1.966-2.44 1.966zm30.58-.938H14.74c.118-.326.182-.67.182-1.027 0-.356-.064-.7-.183-1.027h26.214c-.119.326-.183.67-.183 1.027 0 .357.064.7.183 1.027zm4.366.939c-1.345 0-2.44-.882-2.44-1.966 0-1.083 1.095-1.965 2.44-1.965s2.44.882 2.44 1.965c0 1.084-1.095 1.966-2.44 1.966z"/><path d="M45.319 41.756c-.583 0-1.055.38-1.055.85v.938c0 .47.472.85 1.055.85.582 0 1.055-.38 1.055-.85v-.938c0-.47-.473-.85-1.055-.85z"/><path d="M71.963 48.481l-6.989-20.643c-.125-.37-.542-.626-1.018-.626h-2.33c-.279 0-.547.09-.745.249a.776.776 0 00-.309.6v10.41h-2.55v-4.775-.005-3.754c0-3.572-3.61-6.479-8.044-6.479h-1.275v-6.657c0-.47-.472-.85-1.055-.85h-1.275v-4.78c0-.47-.472-.85-1.055-.85-.582 0-1.054.38-1.054.85v4.78h-1.275c-.582 0-1.055.381-1.055.85v6.657h-4.879v-8.533c0-3.573-3.608-6.48-8.043-6.48h-3.91c-.582 0-1.054.38-1.054.85 0 .469.472.85 1.054.85h3.91c3.272 0 5.934 2.144 5.934 4.78v14.163h-2.55V14.925c0-1.503-1.518-2.726-3.384-2.726H18.417v-2.054h2.44c.582 0 1.055-.38 1.055-.85 0-.469-.473-.85-1.055-.85h-8.154c-.582 0-1.055.381-1.055.85v12.288h-1.385v-1.966c0-.469-.472-.85-1.054-.85h-4.66c-.583 0-1.055.381-1.055.85v1.966h-.11C1.519 21.582 0 22.805 0 24.308v5.63c0 .226.111.442.309.601l1.713 1.38c-.488.074-.857.42-.857.834v8.445c0 .47.472.85 1.054.85h.213a5.262 5.262 0 00-.102 1.027c0 3.573 3.608 6.48 8.044 6.48h34.945c2.203 0 4.201-.718 5.655-1.877h11.987c1.454 1.16 3.452 1.877 5.655 1.877h2.33c.328 0 .638-.124.837-.334.2-.21.266-.484.18-.74zm-27.92-30.83h2.55v5.807h-2.55v-5.807zm-4.438 13.137v2.054H22.78l-.85-2.054h17.674zm-21.188-16.89H29.01c.703 0 1.275.46 1.275 1.027v14.163h-9.058l-2.812-6.794v-8.396zm-4.66-3.754h2.55v11.438h-2.55V10.144zM5.605 20.466h2.55v1.116h-2.55v-1.116zm-3.495 9.12v-5.278c0-.566.572-1.027 1.276-1.027h13.217l2.858 6.91.001.001 1.097 2.65H6.15L2.11 29.586zm1.165 4.017h.838l.857.69c.197.159.466.248.745.248H40.66c.583 0 1.055-.38 1.055-.85v-3.753c0-.47-.472-.85-1.055-.85h-3.604v-3.93h12.923c2.912 0 5.339 1.698 5.838 3.93h-5.839c-.582 0-1.054.38-1.054.85v3.753c0 .47.472.85 1.054.85h5.935v3.93h-4.939c-1.454-1.158-3.452-1.876-5.654-1.876H10.374c-3.072 0-5.745 1.395-7.1 3.438v-6.43zm52.638-2.815v2.054h-4.88v-2.054h4.88zM45.319 47.856H10.374c-3.273 0-5.935-2.145-5.935-4.78 0-2.637 2.662-4.781 5.935-4.781h34.945c3.272 0 5.934 2.144 5.934 4.78s-2.662 4.78-5.934 4.78zm7.188-1.878c.546-.874.856-1.86.856-2.903 0-1.044-.31-2.03-.857-2.904h8.066v2.904c0 1.043.31 2.03.856 2.903h-8.921zm16.109 1.877c-3.272 0-5.934-2.144-5.934-4.78V28.91h.469l6.413 18.944h-.948z"/><path d="M58.131 41.287h-2.33c-.582 0-1.054.38-1.054.85s.472.85 1.055.85h.11v1.027c0 .469.472.85 1.055.85.582 0 1.054-.381 1.054-.85v-1.027h.11c.583 0 1.055-.38 1.055-.85s-.472-.85-1.055-.85z"/></g><defs><clipPath id="clip0"><path fill="#fff" d="M0 0h72v58H0z"/></clipPath></defs></svg>