<svg width="113" height="113" fill="none" xmlns="http://www.w3.org/2000/svg"><path d="M2.648 70.625H16.208a12.142 12.142 0 00-1.2 5.297H2.648v-5.297z" fill="#545C66"/><path d="M51.203 30.016H37.961v19.422h22.953l-9.71-19.422zm-18.539-5.297h22.953l12.36 24.718V56.5l-.018 7.063c-4.909 0-9.164 2.877-11.143 7.044h-18.29a12.289 12.289 0 00-6.129-5.968l.265-.564V24.718h.002z" fill="#FFCE54"/><path d="M39.727 75.922c0-1.907-.424-3.71-1.201-5.315h18.292c-.795 1.605-1.218 3.408-1.218 5.315 0 1.89.423 3.69 1.216 5.297h-18.29a12.142 12.142 0 001.2-5.297z" fill="#F6BB42"/><path d="M51.203 30.016l9.711 19.422H43.258V30.015h7.945z" fill="#5D9CEC"/><path d="M85.633 63.563v7.062l-9.129-3.639-.017.02c-2.207-2.156-5.226-3.444-8.528-3.444l.017-7.062 17.657 7.063z" fill="#CCD1D9"/><path d="M37.96 30.016h5.298v19.422H37.96V30.015z" fill="#5D9CEC"/><path d="M80.318 75.922c0 6.815-5.526 12.36-12.36 12.36a12.316 12.316 0 01-11.142-7.063 11.933 11.933 0 01-1.217-5.297c0-1.907.424-3.71 1.217-5.315 1.98-4.166 6.234-7.044 11.143-7.044 3.302 0 6.32 1.287 8.528 3.442a12.172 12.172 0 013.831 8.917zm-5.297 0a7.06 7.06 0 00-7.062-7.063c-3.885 0-7.063 3.16-7.063 7.063 0 3.902 3.178 7.062 7.063 7.062a7.06 7.06 0 007.062-7.062z" fill="#656D78"/><path d="M32.664 49.438v14.636l-.265.566a12.245 12.245 0 00-5.032-1.078 12.307 12.307 0 00-11.159 7.063H2.648V56.518c0-3.92 3.16-7.08 7.063-7.08h22.953z" fill="#F6BB42"/><path d="M96.209 63.563l14.143 22.953H90.93l-5.297-5.297V63.562h10.576z" fill="#656D78"/><path d="M75.021 75.922a7.06 7.06 0 01-7.062 7.062c-3.885 0-7.063-3.16-7.063-7.062s3.178-7.063 7.063-7.063a7.06 7.06 0 017.062 7.063z" fill="#E6E9ED"/><path d="M34.43 75.922a7.06 7.06 0 00-7.063-7.063 7.06 7.06 0 00-7.062 7.063c0 3.884 3.16 7.062 7.062 7.062s7.063-3.178 7.063-7.062zm4.096-5.315a12.18 12.18 0 011.2 5.315c0 1.89-.423 3.69-1.2 5.297-1.978 4.167-6.233 7.062-11.159 7.062-6.833 0-12.36-5.544-12.36-12.36 0-1.888.425-3.69 1.201-5.296a12.31 12.31 0 0111.16-7.063c1.8 0 3.495.389 5.031 1.078a12.292 12.292 0 016.127 5.967z" fill="#656D78"/><path d="M34.43 75.922c0 3.884-3.16 7.062-7.063 7.062-3.902 0-7.062-3.178-7.062-7.062a7.06 7.06 0 017.062-7.063 7.06 7.06 0 017.063 7.063z" fill="#E6E9ED"/><path d="M26.484 90.05c-7.788 0-14.125-6.336-14.125-14.124S18.696 61.8 26.484 61.8 40.61 68.138 40.61 75.926 34.272 90.05 26.484 90.05zm0-24.718c-5.842 0-10.593 4.751-10.593 10.594 0 5.842 4.75 10.593 10.593 10.593s10.594-4.75 10.594-10.593-4.751-10.594-10.594-10.594z" fill="#000"/><path d="M26.484 84.754c-4.868 0-8.828-3.96-8.828-8.828 0-4.868 3.96-8.828 8.828-8.828 4.868 0 8.828 3.96 8.828 8.828 0 4.868-3.96 8.828-8.828 8.828zm0-14.125a5.303 5.303 0 00-5.297 5.297 5.303 5.303 0 005.297 5.297 5.303 5.303 0 005.297-5.297 5.303 5.303 0 00-5.297-5.297zM67.083 90.05c-7.788 0-14.125-6.336-14.125-14.124S59.295 61.8 67.083 61.8s14.125 6.337 14.125 14.125S74.871 90.05 67.083 90.05zm0-24.718c-5.842 0-10.594 4.751-10.594 10.594 0 5.842 4.752 10.593 10.594 10.593 5.843 0 10.594-4.75 10.594-10.593s-4.751-10.594-10.594-10.594z" fill="#000"/><path d="M67.083 84.754c-4.868 0-8.828-3.96-8.828-8.828 0-4.868 3.96-8.828 8.828-8.828 4.868 0 8.828 3.96 8.828 8.828 0 4.868-3.96 8.828-8.828 8.828zm0-14.125a5.303 5.303 0 00-5.297 5.297 5.303 5.303 0 005.297 5.297 5.303 5.303 0 005.297-5.297 5.303 5.303 0 00-5.297-5.297zM95.328 65.332h-10.58c-.976 0-1.765-.79-1.765-1.766s.789-1.765 1.765-1.765h10.58c.976 0 1.766.789 1.766 1.765 0 .977-.79 1.766-1.766 1.766z" fill="#000"/><path d="M109.469 88.285a1.766 1.766 0 01-1.506-.84L93.823 64.49a1.766 1.766 0 013.007-1.852l14.139 22.953a1.765 1.765 0 01-1.5 2.693z" fill="#000"/><path d="M111.234 88.285H90.049c-.977 0-1.766-.79-1.766-1.766s.79-1.765 1.766-1.765h21.185c.977 0 1.766.79 1.766 1.765 0 .977-.789 1.766-1.766 1.766z" fill="#000"/><path d="M90.049 88.285a1.76 1.76 0 01-1.249-.517l-5.296-5.297a1.764 1.764 0 010-2.497c.69-.69 1.806-.69 2.496 0l5.297 5.297a1.764 1.764 0 01-1.248 3.014z" fill="#000"/><path d="M84.752 82.988c-.975 0-1.766-.789-1.766-1.764l-.01-17.656c0-.976.789-1.767 1.763-1.767h.002c.975 0 1.766.789 1.766 1.764l.01 17.656c0 .976-.789 1.767-1.765 1.767z" fill="#000"/><path d="M84.748 65.332c-.219 0-.44-.039-.655-.125L66.44 58.153a1.766 1.766 0 111.31-3.28l17.653 7.053a1.766 1.766 0 01-.655 3.406zM84.748 72.401c-.219 0-.44-.039-.655-.125l-9.123-3.644a1.766 1.766 0 111.31-3.28l9.123 3.643a1.766 1.766 0 01-.655 3.406z" fill="#000"/><path d="M67.083 65.332a1.765 1.765 0 01-1.766-1.767l.013-14.127c0-.975.79-1.764 1.766-1.764h.001c.975 0 1.764.793 1.764 1.767l-.012 14.127c0 .975-.791 1.764-1.766 1.764z" fill="#000"/><path d="M67.097 51.203a1.768 1.768 0 01-1.582-.977l-12.36-24.722a1.766 1.766 0 013.16-1.58l12.359 24.722a1.766 1.766 0 01-1.577 2.557zM60.033 51.203a1.768 1.768 0 01-1.582-.976l-9.715-19.434a1.766 1.766 0 013.16-1.58l9.714 19.434a1.766 1.766 0 01-1.577 2.556zM55.92 82.988H37.647c-.976 0-1.765-.789-1.765-1.765 0-.977.789-1.766 1.765-1.766H55.92c.977 0 1.766.79 1.766 1.766s-.79 1.765-1.766 1.765zM55.92 72.387H37.647c-.976 0-1.765-.79-1.765-1.766s.789-1.765 1.765-1.765H55.92c.977 0 1.766.789 1.766 1.765 0 .977-.79 1.766-1.766 1.766z" fill="#000"/><path d="M54.736 26.482H31.781a1.765 1.765 0 110-3.53h22.955a1.765 1.765 0 110 3.53z" fill="#000"/><path d="M31.781 65.846c-.976 0-1.765-.79-1.765-1.766V24.719a1.765 1.765 0 113.53 0v39.36c0 .977-.788 1.767-1.765 1.767zM60.026 51.203H37.083a1.765 1.765 0 110-3.531h22.943a1.765 1.765 0 110 3.531z" fill="#000"/><path d="M37.083 51.203a1.765 1.765 0 01-1.765-1.766V30.014a1.765 1.765 0 113.531 0v19.423c0 .977-.79 1.766-1.766 1.766z" fill="#000"/><path d="M50.317 31.78H37.083a1.765 1.765 0 110-3.532h13.234a1.765 1.765 0 110 3.531z" fill="#000"/><path d="M42.375 51.203a1.765 1.765 0 01-1.766-1.766V30.014a1.765 1.765 0 113.532 0v19.423c0 .977-.79 1.766-1.766 1.766zM31.781 51.21H8.835a1.765 1.765 0 110-3.531h22.946a1.765 1.765 0 110 3.531zM1.766 77.701c-.977 0-1.766-.79-1.766-1.765V56.514a1.765 1.765 0 113.531 0v19.422c0 .976-.789 1.765-1.765 1.765z" fill="#000"/><path d="M15.313 72.401H1.766C.789 72.401 0 71.612 0 70.636c0-.977.79-1.766 1.766-1.766h13.547c.977 0 1.766.79 1.766 1.766s-.79 1.765-1.766 1.765zM14.125 77.691H1.765C.79 77.691 0 76.902 0 75.926c0-.977.79-1.766 1.766-1.766h12.359c.976 0 1.766.79 1.766 1.766s-.79 1.765-1.766 1.765zM1.766 58.28C.789 58.28 0 57.49 0 56.514c0-4.872 3.964-8.835 8.835-8.835a1.765 1.765 0 110 3.531 5.31 5.31 0 00-5.304 5.304c0 .976-.789 1.765-1.765 1.765z" fill="#000"/><path d="M8.835 54.738a1.765 1.765 0 01-1.765-1.766v-3.528a1.765 1.765 0 113.53 0v3.528c0 .977-.788 1.766-1.765 1.766zM14.125 54.738a1.765 1.765 0 01-1.766-1.766v-3.528a1.765 1.765 0 113.532 0v3.528c0 .977-.79 1.766-1.766 1.766zM19.415 54.738a1.765 1.765 0 01-1.766-1.766v-3.528a1.765 1.765 0 113.531 0v3.528c0 .977-.789 1.766-1.765 1.766zM24.705 54.738a1.765 1.765 0 01-1.766-1.766v-3.528a1.765 1.765 0 113.531 0v3.528c0 .977-.789 1.766-1.765 1.766zM38.816 56.502H37.05a1.765 1.765 0 110-3.531h1.766a1.765 1.765 0 110 3.531z" fill="#000"/></svg>