<svg width="22" height="22" fill="none" xmlns="http://www.w3.org/2000/svg"><path d="M19.637 2.578H18.09v-.644A1.936 1.936 0 0016.156 0a1.936 1.936 0 00-1.933 1.934v.644H7.777v-.644A1.936 1.936 0 005.844 0 1.936 1.936 0 003.91 1.934v.644H2.363A2.366 2.366 0 000 4.941v14.696A2.366 2.366 0 002.363 22h17.274A2.366 2.366 0 0022 19.637V4.94a2.366 2.366 0 00-2.363-2.363zm-4.125-.644a.645.645 0 011.289 0v2.578a.645.645 0 01-1.29 0V1.934zm-10.313 0a.645.645 0 011.29 0v2.578a.645.645 0 01-1.29 0V1.934zM1.29 4.94c0-.592.482-1.074 1.074-1.074H3.91v.645c0 1.066.868 1.933 1.934 1.933a1.936 1.936 0 001.933-1.933v-.645h6.446v.645c0 1.066.867 1.933 1.933 1.933a1.936 1.936 0 001.934-1.933v-.645h1.547c.592 0 1.074.482 1.074 1.074v2.88H1.289V4.94zm19.422 14.696c0 .592-.482 1.074-1.074 1.074H2.363a1.075 1.075 0 01-1.074-1.074V9.109h19.422v10.528z" fill="#7C7C7C"/><path d="M13.181 11.688h1.009v7.09a.645.645 0 101.289 0v-7.735a.645.645 0 00-.645-.645h-1.653a.645.645 0 000 1.29zM9.1 18.133a1.293 1.293 0 01-1.29-1.29.645.645 0 10-1.289 0A2.588 2.588 0 009.1 19.422a2.581 2.581 0 002.578-2.577c0-.77-.339-1.461-.875-1.934a2.572 2.572 0 00.875-1.933A2.581 2.581 0 009.1 10.398c-1.229 0-2.293.875-2.53 2.08a.644.644 0 101.265.248 1.29 1.29 0 012.554.25 1.29 1.29 0 01-1.289 1.29.645.645 0 000 1.289c.711 0 1.29.578 1.29 1.289a1.29 1.29 0 01-1.29 1.289z" fill="#7C7C7C"/></svg>