<svg width="49" height="62" fill="none" xmlns="http://www.w3.org/2000/svg"><path d="M31.032 26.141l1.564-1.247-1.564 1.247zm1.506 3.127l-1.95.445 1.95-.445zm-2.32-6.517a2 2 0 00-2.157 3.369l2.157-3.37zm.814 13.116l1.564 1.247-1.564-1.247zm-2.97.02a2 2 0 002.157 3.369l-2.157-3.368zm4.476-3.148l-1.95-.445 1.95.446zm4.067-10.245l1.564-1.247-1.564 1.247zm2.636 5.473l1.95-.445-1.95.445zm-3.844-9.427a2 2 0 10-2.419 3.186l2.419-3.186zm1.208 20.974l-1.563-1.247 1.563 1.247zm-3.626.767a2 2 0 002.419 3.186l-2.42-3.186zm6.262-6.24l1.95.445-1.95-.445zm2.935-15.197l1.564-1.247-1.564 1.247zm3.765 7.818l1.95-.445-1.95.445zM40.468 14.3a2 2 0 00-2.518 3.108l2.518-3.108zm1.708 28.86l-1.564-1.248 1.564 1.247zm-4.229 1.438a2 2 0 002.519 3.108l-2.519-3.108zm7.994-9.257l-1.95-.445 1.95.445zm-16.473-7.952a5.798 5.798 0 011.12 2.325l3.9-.89a9.8 9.8 0 00-1.892-3.929l-3.128 2.494zm-1.407-1.268c.534.342 1.01.77 1.407 1.268l3.128-2.494a9.8 9.8 0 00-2.378-2.143L28.06 26.12zm1.407 8.5a5.799 5.799 0 01-1.406 1.268l2.157 3.368a9.8 9.8 0 002.377-2.142l-3.128-2.494zm1.12-2.326a5.8 5.8 0 01-1.12 2.326l3.128 2.494a9.8 9.8 0 001.892-3.93l-3.9-.89zm3.9.89a9.799 9.799 0 000-4.36l-3.9.89c.194.849.194 1.731 0 2.58l3.9.89zm.554-9.443a11.649 11.649 0 012.249 4.67l3.9-.89a15.65 15.65 0 00-3.022-6.274l-3.127 2.494zm-2.064-2.015a11.65 11.65 0 012.064 2.015l3.127-2.494a15.653 15.653 0 00-2.772-2.707l-2.419 3.186zm2.064 16.54a11.647 11.647 0 01-2.063 2.015l2.419 3.186a15.65 15.65 0 002.77-2.706l-3.126-2.494zm2.249-4.67a11.649 11.649 0 01-2.25 4.67l3.128 2.495a15.65 15.65 0 003.022-6.275l-3.9-.89zm3.9.89a15.65 15.65 0 000-6.964l-3.9.89c.39 1.706.39 3.478 0 5.184l3.9.89zm-.579-14.395a17.499 17.499 0 013.38 7.016l3.9-.89a21.499 21.499 0 00-4.152-8.62l-3.128 2.494zm-2.662-2.684a17.496 17.496 0 012.662 2.684l3.128-2.494a21.5 21.5 0 00-3.272-3.298l-2.518 3.108zm2.662 24.504a17.496 17.496 0 01-2.665 2.686l2.519 3.108a21.498 21.498 0 003.274-3.3l-3.128-2.494zm3.38-7.016a17.499 17.499 0 01-3.38 7.016l3.128 2.494a21.498 21.498 0 004.151-8.62l-3.9-.89zm3.9.89a21.501 21.501 0 000-9.568l-3.9.89a17.5 17.5 0 010 7.788l3.9.89z" fill="#252525"/><path fill-rule="evenodd" clip-rule="evenodd" d="M16.167 58.79c-1.495.486-3.15.062-4.134-1.163a41.847 41.847 0 010-52.418c.983-1.226 2.638-1.65 4.133-1.164l6.542 2.125c2.532.823 3.565 3.85 2.367 6.227a41.357 41.357 0 00-2.695 6.781c-.55 1.843-2.52 2.941-4.321 2.266-2.615-.98-5.405.952-5.405 3.745v12.456c0 2.793 2.79 4.726 5.405 3.746 1.9-.713 3.982.424 4.607 2.354a41.355 41.355 0 002.736 6.496c1.255 2.386.234 5.473-2.33 6.306l-6.905 2.244z" fill="#000"/><path d="M10.8 56.014l.809-.588-.809.588zm0-49.193l-.809-.588.809.588zM23.147 16.86l.94.342-.94-.342zm0 28.282l.94-.342-.94.342zm-.767-25.964l.958.286-.958-.286zM16.166 4.045l-.31.95.31-.95zm9.237 46.196l-.886.465.886-.465zm-13.37 7.386l-.78.626.78-.626zm4.134 1.164l.309.95-.31-.95zM12.812 57a40.831 40.831 0 01-1.203-1.575l-1.618 1.176c.408.561.829 1.112 1.262 1.651l1.56-1.252zm-1.203-1.575a40.847 40.847 0 01-7.801-24.009h-2a42.847 42.847 0 008.183 25.185l1.618-1.176zM3.808 31.417c0-8.626 2.73-17.03 7.801-24.009L9.991 6.233a42.847 42.847 0 00-8.183 25.184h2zm7.801-24.009c.389-.535.79-1.06 1.203-1.573l-1.56-1.253a42.93 42.93 0 00-1.261 1.65l1.618 1.176zM23.017 5.22l-6.542-2.125-.618 1.902 6.542 2.126.618-1.903zm1.165 6.728a42.34 42.34 0 00-1.975 4.57l1.88.685a40.325 40.325 0 011.881-4.355l-1.786-.9zm-1.975 4.57a42.379 42.379 0 00-.785 2.375l1.916.572c.227-.76.476-1.514.749-2.262l-1.88-.684zm-3.797 3.99c-3.269-1.225-6.755 1.191-6.755 4.682h2c0-2.094 2.092-3.544 4.053-2.809l.702-1.872zm-6.755 4.682v.228h2v-.228h-2zm0 .228v12h2v-12h-2zm0 12v.228h2v-.228h-2zm0 .228c0 3.491 3.486 5.908 6.755 4.682l-.702-1.873c-1.961.736-4.053-.714-4.053-2.809h-2zm10.06 6.408c.155.48.32.956.492 1.431l1.88-.684a40.181 40.181 0 01-.47-1.363l-1.902.616zm.492 1.431a42.34 42.34 0 002.31 5.222l1.77-.93c-.84-1.6-1.576-3.261-2.2-4.976l-1.88.684zm-5.731 14.258l6.906-2.244-.618-1.902-6.906 2.244.618 1.902zm4.946-40.85c-.402 1.345-1.808 2.067-3.012 1.616l-.702 1.872c2.397.9 4.932-.575 5.63-2.916l-1.916-.572zM18.41 42.327c1.31-.491 2.836.28 3.305 1.726l1.903-.616c-.782-2.414-3.42-3.916-5.91-2.983l.702 1.873zM12.812 5.835c.702-.874 1.91-1.208 3.045-.84l.618-1.901c-1.856-.603-3.956-.088-5.223 1.488l1.56 1.253zm11.705 44.871c1.01 1.919.137 4.276-1.753 4.89l.618 1.902c3.237-1.052 4.406-4.87 2.906-7.723l-1.77.931zM22.4 7.122c1.867.606 2.745 2.915 1.783 4.825l1.786.9c1.434-2.845.246-6.589-2.95-7.628l-.619 1.903zM11.253 58.253c1.267 1.577 3.367 2.092 5.223 1.489l-.618-1.902c-1.135.368-2.344.035-3.046-.84l-1.559 1.253z" fill="#000"/></svg>