<svg width="16" height="16" fill="none" xmlns="http://www.w3.org/2000/svg"><path d="M5.172 1.172a7.391 7.391 0 015.656 0v0a7.39 7.39 0 014 4v0a7.39 7.39 0 010 5.657v0a7.391 7.391 0 01-4 4v0a7.391 7.391 0 01-5.656 0v0a7.391 7.391 0 01-4-4v0a7.391 7.391 0 010-5.657v0a7.391 7.391 0 014-4v0z" stroke="#EDB50A" stroke-linecap="round" stroke-linejoin="round"/><path d="M2.744 4.94l-.432-.25a.5.5 0 00.182.684l.25-.433zm0 0l.25-.433a.5.5 0 00-.681.181l.432.252zm1.733 1l.432.252a.5.5 0 00-.182-.686l-.25.433zm0 .001l-.251.433a.5.5 0 00.682-.18l-.432-.253zm-2.558 2l-.5-.006a.5.5 0 00.5.505v-.5zm0-.002v-.5a.5.5 0 00-.5.495l.5.005zm2 0l.5.007a.5.5 0 00-.5-.507v.5zm0 .002v.5a.5.5 0 00.5-.493l-.5-.007zM2.693 10.97l-.436.244a.5.5 0 00.686.189l-.25-.433zm0-.001l-.25-.433a.5.5 0 00-.187.676l.436-.243zm1.731-1.001l.439-.241a.5.5 0 00-.689-.192l.25.433zm.002.002l.25.433a.5.5 0 00.187-.674l-.437.24zm.463 3.255l-.256.43a.5.5 0 00.689-.18l-.433-.25zm-.001 0l-.433-.25a.5.5 0 00.177.68l.256-.43zm1-1.733l.258-.428a.5.5 0 00-.692.178l.434.25zm.001.001l.433.25a.5.5 0 00-.174-.678l-.259.428zm2.051 2.588l-.005.5a.5.5 0 00.505-.5h-.5zm0 0h-.5a.5.5 0 00.494.5l.005-.5zm-.001-2l.007-.5a.5.5 0 00-.507.5h.5zm.002 0h.5a.5.5 0 00-.493-.5l-.007.5zm3.081 1.196l.248.434a.5.5 0 00.185-.684l-.433.25zm0 .001l-.434.25a.5.5 0 00.681.184l-.248-.434zm-1.001-1.732l-.248-.434a.5.5 0 00-.185.684l.433-.25zm.002 0l.433-.25a.5.5 0 00-.681-.185l.248.434zm3.255-.525l.434.248a.5.5 0 00-.184-.68l-.25.432zm0 .001l-.25.433a.5.5 0 00.683-.185l-.434-.248zm-1.733-1l-.434-.247a.5.5 0 00.184.68l.25-.432zm.001-.001l.25-.433a.5.5 0 00-.684.185l.434.248zm2.535-2.082l.5-.005a.5.5 0 00-.5-.495v.5zm0 .001v.5a.5.5 0 00.5-.505l-.5.005zm-2 0l-.5.008a.5.5 0 00.5.493v-.5zm0-.001v-.5a.5.5 0 00-.5.507l.5-.007zm1.144-3.051l.43-.256a.5.5 0 00-.68-.177l.25.433zm0 0l.25.434a.5.5 0 00.18-.689l-.43.256zM11.493 5.89l-.428.259a.5.5 0 00.678.174l-.25-.433zm0-.001l-.25-.434a.5.5 0 00-.179.692l.428-.258zm-.524-3.196l.243-.436a.5.5 0 00-.676.186l.433.25zm0 .001l.434.25a.5.5 0 00-.189-.686l-.244.436zm-1 1.733l-.24.437a.5.5 0 00.674-.188l-.433-.25zm-.001-.001l-.433-.25a.5.5 0 00.192.688l.241-.438zM7.939 1.919l-.005-.5a.5.5 0 00-.495.5h.5zm.001 0h.5a.5.5 0 00-.505-.5l.005.5zm-.001 2h-.5a.5.5 0 00.507.5l-.007-.5zm.002 0l.007.5a.5.5 0 00.493-.5h-.5zm-3-1.175l.433-.25a.5.5 0 00-.685-.182l.252.432zm1 1.732l.252.432a.5.5 0 00.181-.682l-.433.25zM4.94 2.745l-.252-.432a.5.5 0 00-.181.682l.433-.25zm1 1.732l-.434.25a.5.5 0 00.686.182l-.253-.432zm-2.764.715h.001l-.864-.504v.001l.863.503zm-.681.18l1.732 1 .5-.866-1.732-1-.5.867zm1.55.315v.002l.863.505v-.002l-.862-.505zm.681-.179l-1.732-1-.5.866 1.732 1 .5-.866zM2.42 7.945l-1-.01 1 .01zm-.5.494h2v-1h-2v1zm1.5-.508v.003l1 .014v-.002l-1-.015zm.5-.49h-2v1h2v-1zm-.79 3.284l-.873.487v.002l.873-.489zm-.186.677L4.675 10.4l-.5-.866-1.733 1 .5.867zm1.043-1.193l.002.002.875-.482v-.002l-.877.482zm.19-.672l-1.733 1 .5.866 1.732-1-.5-.866zm.969 3.259h-.001l-.512.858h.001l.512-.858zm.176.679l1-1.733-.867-.5-1 1.733.867.5zm.308-1.555l.002.001.517-.856h-.002l-.517.855zm-.173-.677l-1 1.732.866.5 1-1.732-.866-.5zm2.49 2.338h-.001l-.011 1h.001l.01-1zm.493.5v-2h-1v2h1zm-.508-1.5h.002l.015-1h-.001l-.016 1zm-.49-.5v2h1v-2h-1zm3.333.762h-.001l.496.869h.001l-.496-.869zm.68.185l-1-1.732-.866.5 1 1.732.866-.5zm-1.186-1.048h.002l-.495-.87-.002.002.495.868zm-.679-.185l1 1.732.866-.5-1-1.732-.866.5zm3.255-1.022l.867.497h.001l-.868-.497zm.683-.184l-1.732-1-.5.867 1.732 1 .5-.867zm-1.548-.319l.002-.002-.87-.495v.002l.868.495zm-.683.184l1.732 1 .5-.866-1.732-1-.5.866zm2.285-2.51v.002l1-.011v-.001l-1 .01zm.5-.504h-2v1h2v-1zm-1.5.493v-.001l-1 .014v.002l1-.015zm-.5.506h2v-1h-2v1zm.714-3.295l.86-.511v-.001l-.86.512zm.18-.688l-1.732 1 .5.866 1.732-1-.5-.866zM11.921 5.63l-.001-.002-.856.517.001.002.856-.517zm-.179.69l1.733-1-.5-.866-1.733 1 .5.866zm-1.017-3.192l.489-.872-.002-.001-.487.873zm-.188-.686l-1 1.733.866.5 1-1.733-.867-.5zm-.326 1.545l-.002-.002-.482.877h.002l.482-.875zm.19.687l1-1.732-.865-.5-1.001 1.731.866.5zM7.944 2.419h.001l-.01-1 .01 1zm.495 1.5v-2h-1v2h1zm-.505-.5H7.93l.015 1h.002l-.014-1zm-.494-1.5v2h1v-2h-1zM4.508 2.994l1 1.732.866-.5-1-1.732-.866.5zm.683.183h.001l-.503-.865.502.865zm1.181 1.05l-1-1.732-.865.5 1 1.732.865-.5zm-.683-.183l-.002.002.505.863.001-.001-.504-.864z" fill="#EDB50A"/><path d="M11.244 5.617a.5.5 0 10-.751-.66l.75.66zM8.513 7.21a.5.5 0 00.75.66l-.75-.66zm3.876 3.861a.5.5 0 10.494-.87l-.494.87zM9.117 8.06a.5.5 0 10-.494.869l.494-.87zM7.5 8a.5.5 0 01.5-.5v-1A1.5 1.5 0 006.5 8h1zm.5.5a.5.5 0 01-.5-.5h-1A1.5 1.5 0 008 9.5v-1zm.5-.5a.5.5 0 01-.5.5v1A1.5 1.5 0 009.5 8h-1zM8 7.5a.5.5 0 01.5.5h1A1.5 1.5 0 008 6.5v1zm2.493-2.543L8.513 7.21l.75.66 1.98-2.253-.75-.66zm2.39 5.245L9.117 8.06l-.494.869 3.766 2.142.494-.87z" fill="#EDB50A"/></svg>