<svg width="14" height="14" fill="none" xmlns="http://www.w3.org/2000/svg"><path d="M.82 2l.865 1.367v8.732L.848 14h5.669l-.837-1.901v-8.66l.864-1.445V0H.82v2zm4.04 9.775h-.768V3.658h.768v8.117zM2.504 3.658h.767v8.117h-.767V3.658zm-.184-.82l-.346-.547h3.436l-.328.547H2.321zM2.105 13.18l.257-.585h2.64l.257.585H2.105zM5.724.82v.65H1.64V.82h4.083zM13.202 14l-.837-1.901V8.392L8.37 5.649v6.45L7.533 14h5.669zm-4.412-.82l.258-.585h2.64l.256.585H8.79zm2.755-1.405h-.767V8.297l.767.526v2.952zM9.19 7.207l.767.527v4.041H9.19V7.207z" fill="#7C7C7C"/></svg>