<svg width="68" height="55" fill="none" xmlns="http://www.w3.org/2000/svg"><path d="M63.983 40.41c.013 7.23-5.684 13.182-12.908 13.483-7.224.301-13.398-5.154-13.987-12.36-.034-.37-.045-.74-.045-1.122 0-7.44 6.03-13.47 13.47-13.47s13.47 6.03 13.47 13.47z" fill="#607D8B"/><path d="M62.86 35.011a13.365 13.365 0 00-14.018-7.958 13.46 13.46 0 01-.013 26.716A13.47 13.47 0 0062.861 35.01z" fill="#37474F"/><path d="M28.063 40.41c0 .382-.011.753-.045 1.123-.608 7.268-6.89 12.732-14.172 12.327C6.564 53.455.927 47.328 1.13 40.037c.202-7.29 6.17-13.096 13.463-13.097a11.58 11.58 0 011.774.124A13.47 13.47 0 0128.063 40.41z" fill="#607D8B"/><path d="M47.55 8.98l-.606 1.123-6.736 12.348-3.648 6.69a2.257 2.257 0 01-1.975 1.167h-2.403a2.23 2.23 0 01-1.358-.46l-3.648-2.772-5.556-4.221-1.067-.82-5.287-4.007L3.367 8.98H47.55z" fill="#FEC108"/><path d="M66.228 2.245v3.368H49.391L47.55 8.98H3.367V5.613c0-.62.503-1.123 1.123-1.123h39.804c.38 0 .733-.19.943-.505l1.572-2.357c.21-.315.564-.505.943-.505h17.354c.62 0 1.122.502 1.122 1.122z" fill="#FFDC00"/><path d="M65.106 1.123h-3.368c.62 0 1.123.502 1.123 1.122v3.368h3.367V2.245c0-.62-.502-1.122-1.122-1.122z" fill="#FEC108"/><path d="M62.86 29.186v5.825a13.47 13.47 0 00-25.817 5.4c0 .381.011.752.045 1.122h-9.07a13.47 13.47 0 00-11.652-14.47l4.187-5.028 1.066.82 5.557 4.22 3.648 2.773c.39.299.867.46 1.358.46h2.403c.822 0 1.578-.448 1.975-1.167l3.648-6.69h17.04l5.613 6.735z" fill="#FF9801"/><path d="M66.228 21.328v1.122H50.513V10.102h9.71a2.245 2.245 0 012.077 1.415l3.928 9.81z" fill="#02A9F4"/><path d="M62.3 11.517a2.245 2.245 0 00-2.077-1.415h-3.368a2.245 2.245 0 012.077 1.415l3.929 9.81v1.123h3.367v-1.122L62.3 11.517z" fill="#0377BC"/><path d="M66.228 22.45v2.245l-3.367 4.49-5.613-6.735h8.98zM14.592 47.146a6.735 6.735 0 100-13.47 6.735 6.735 0 000 13.47z" fill="#FFDC00"/><path d="M14.592 33.676a6.718 6.718 0 00-1.683.224 6.726 6.726 0 010 13.028 6.735 6.735 0 101.683-13.252z" fill="#FEC108"/><path d="M50.89 46.78a6.735 6.735 0 100-13.47 6.735 6.735 0 000 13.47z" fill="#FFDC00"/><path d="M65.106 0h-17.36c-.75 0-1.452.375-1.868 1L44.3 3.368H4.49a2.245 2.245 0 00-2.245 2.245V8.98c.002.163.04.323.112.47.024.038.05.076.077.112.058.096.13.183.214.257.017.014.024.038.042.051L18.94 22.218l-3.049 3.66c-.43-.032-.86-.06-1.298-.06-2.536 0-5.027.666-7.225 1.93-.023.012-.048.012-.07.025-.023.014-.045.044-.072.062a14.675 14.675 0 00-5.208 5.209c-.018.027-.046.042-.062.07-.016.028-.012.049-.023.071a14.48 14.48 0 000 14.451c.01.023.01.049.023.071.027.04.057.077.09.112a14.68 14.68 0 005.18 5.164c.027.018.043.046.071.062a.927.927 0 00.098.04 14.489 14.489 0 0014.397 0 .934.934 0 00.098-.04c.028-.016.044-.044.07-.062a14.68 14.68 0 005.181-5.164.905.905 0 00.09-.112c.013-.022.012-.048.023-.07.88-1.54 1.471-3.228 1.741-4.981h7.117a14.48 14.48 0 001.741 4.98c.011.023.01.049.024.071.027.04.057.077.09.112a14.68 14.68 0 005.18 5.164c.027.018.043.046.07.062a.934.934 0 00.098.04 14.489 14.489 0 0014.398 0 .925.925 0 00.097-.04c.029-.016.044-.044.071-.062a14.68 14.68 0 005.18-5.164.905.905 0 00.09-.112c.014-.022.013-.048.024-.07a14.509 14.509 0 00.81-12.83V29.56l3.142-4.19c.146-.194.225-.43.225-.674v-3.367c0-.143-.027-.285-.08-.418l-3.929-9.813a3.353 3.353 0 00-3.124-2.117H48.83l1.225-2.245h16.174c.62 0 1.123-.502 1.123-1.122V2.245A2.245 2.245 0 0065.106 0zM23.068 22.542l6.784-12.44h5.3l-8.336 15.29-3.748-2.85zM21.26 21.17l-4.544-3.454 4.156-7.612h6.423L21.26 21.169zm-6.352-4.827L6.7 10.102h11.614l-3.406 6.24zm6.798 34.146l-.529-.916a1.123 1.123 0 00-1.944 1.122l.529.916a12.238 12.238 0 01-4.047 1.091v-1.065a1.122 1.122 0 10-2.245 0V52.7c-1.4-.13-2.767-.498-4.041-1.092l.529-.916a1.123 1.123 0 00-1.945-1.122l-.528.915a12.458 12.458 0 01-2.963-2.962l.916-.529a1.122 1.122 0 10-1.122-1.944l-.916.529a12.236 12.236 0 01-1.098-4.047h1.065a1.122 1.122 0 100-2.245H2.302c.13-1.4.499-2.767 1.092-4.04l.916.528a1.123 1.123 0 101.123-1.944l-.916-.53a12.46 12.46 0 012.962-2.961l.529.916a1.123 1.123 0 001.944-1.123l-.523-.922a12.237 12.237 0 014.041-1.092v1.066a1.122 1.122 0 102.245 0V28.12c1.402.129 2.77.498 4.047 1.092l-.529.916a1.123 1.123 0 101.944 1.123l.529-.916a12.455 12.455 0 012.962 2.962l-.916.529a1.122 1.122 0 101.123 1.944l.916-.529a12.237 12.237 0 011.092 4.042h-1.065a1.122 1.122 0 100 2.245h1.065c-.13 1.4-.499 2.766-1.092 4.04l-.916-.528a1.123 1.123 0 00-1.123 1.944l.916.529a12.46 12.46 0 01-2.962 2.973v.002zm7.48-10.077a14.48 14.48 0 00-1.933-7.226c-.01-.022-.01-.048-.023-.07-.014-.023-.044-.044-.062-.07a14.668 14.668 0 00-5.208-5.21c-.027-.018-.043-.046-.071-.062-.028-.015-.048-.013-.07-.024a14.528 14.528 0 00-3.394-1.403l2.3-2.764 9.423 7.162a3.384 3.384 0 002.039.686h2.4a3.367 3.367 0 002.956-1.754l3.33-6.103h15.85l5.015 6.019v1.507a14.689 14.689 0 00-3.858-3.26c-.027-.018-.042-.046-.07-.062-.029-.016-.049-.013-.071-.024a14.48 14.48 0 00-14.451 0c-.023.012-.049.011-.071.025-.023.013-.044.044-.071.062a14.675 14.675 0 00-5.209 5.208c-.017.027-.045.043-.061.07-.016.029-.013.05-.024.072a14.48 14.48 0 00-1.932 7.22h-6.735zm28.44 10.075l-.528-.915a1.122 1.122 0 10-1.944 1.122l.528.916a12.237 12.237 0 01-4.04 1.092v-1.065a1.122 1.122 0 10-2.246 0V52.7c-1.4-.13-2.767-.498-4.04-1.092l.528-.916a1.122 1.122 0 10-1.944-1.122l-.53.915a12.46 12.46 0 01-2.961-2.962l.916-.529a1.123 1.123 0 00-1.123-1.944l-.916.529a12.235 12.235 0 01-1.092-4.041h1.054a1.122 1.122 0 100-2.245h-1.065c.129-1.4.498-2.767 1.092-4.041l.916.528a1.122 1.122 0 101.122-1.944l-.916-.529a12.463 12.463 0 012.963-2.962l.528.916a1.123 1.123 0 001.945-1.122l-.53-.916a12.235 12.235 0 014.042-1.093v1.055a1.122 1.122 0 102.245 0V28.12c1.4.13 2.767.499 4.041 1.092l-.529.916a1.123 1.123 0 101.945 1.123l.528-.916a12.455 12.455 0 012.963 2.962l-.916.529a1.123 1.123 0 101.122 1.944l.916-.529a12.237 12.237 0 011.092 4.042h-1.054a1.122 1.122 0 100 2.245h1.066c-.13 1.4-.5 2.766-1.093 4.04l-.916-.528a1.122 1.122 0 10-1.122 1.944l.916.529a12.46 12.46 0 01-2.962 2.973zm5.189-23.109l-3.17-3.804h5.46v.749l-2.29 3.055zM61.26 11.931l3.76 9.397H51.635V11.225h8.582c.46-.001.873.279 1.042.706zm-11.87-.706v10.103h-7.296l5.51-10.103h1.787zM65.107 4.49H49.39c-.411 0-.79.224-.986.585L35.572 28.6c-.196.36-.574.584-.984.585h-2.401a1.13 1.13 0 01-.68-.225l-2.883-2.196 9.086-16.662h2.7a1.123 1.123 0 100-2.245H4.49V5.613H44.3c.75 0 1.452-.376 1.868-1l1.578-2.368h17.36V4.49z" fill="#000"/></svg>