<svg width="60" height="60" fill="none" xmlns="http://www.w3.org/2000/svg"><path d="M47.02 16.2l-.953 2.657-1.218 3.39-3.027-1.085-2.934-1.054-3.026-1.087 1.218-3.39.954-2.658 3.026 1.087 2.934 1.054L47.02 16.2z" fill="#B3B3B3"/><path d="M47.02 16.2l-.953 2.657-1.553-.557-4.29-1.54-3.144-1.13.954-2.657 3.026 1.087 2.934 1.054L47.02 16.2zM43.519 11.33l-.008.022-3.467.461-2.067-2.509.01-.023C38.866 4.512 42.718.697 47.681 0l-4.163 11.33z" fill="#92949B"/><path d="M38.888 20.108l2.934 1.053 3.026 1.087L47.02 16.2l-3.026-1.087-2.934-1.054-3.026-1.086-2.172 6.047 3.026 1.088zm12.993 2.22l-.01.003-10.827 4.555c-.87.364-1.66.896-2.328 1.564L29.4 37.767l-8.592-8.593 9.815-9.815a7.882 7.882 0 002.177-4.141l1.354-7.329 2.945 1.09.88.326 5.533 2.047 9.348 3.462 4.092-11.023c3.99 4.514 3.827 11.412-.491 15.73-.645.645-1.332 1.225-2.094 1.657-.556.314-2.485 1.15-2.485 1.15z" fill="#484B54"/><path d="M20.806 29.174L1.78 48.202a6.075 6.075 0 004.297 10.372c1.555 0 3.11-.593 4.296-1.78L29.4 37.767l-8.593-8.593zM7.217 54.061a1.727 1.727 0 11-2.443-2.442 1.727 1.727 0 012.443 2.442z" fill="#E8B33F"/><path d="M39.725 20.497l-1.727-.632.027-.073 2.144-5.971 1.73.62-2.174 6.056zM42.713 21.4l-1.73-.622 2.172-6.047 1.73.62-.025.072-2.147 5.976z" fill="#484B54"/><path d="M1.78 56.794a6.075 6.075 0 010-8.592l19.026-19.028 1.521 1.521S.341 50.981 1.78 56.794z" fill="#D39F37"/><path d="M44.848 23.167a.92.92 0 01-.31-.054l-8.987-3.228a.92.92 0 01-.555-1.176l2.173-6.047a.919.919 0 011.175-.554l8.986 3.226a.919.919 0 01.555 1.176l-2.171 6.048a.92.92 0 01-.866.609zm-7.81-4.701l7.256 2.606 1.55-4.318-2.16-.776-5.096-1.83-1.55 4.318z" fill="#66686D"/><path d="M6.096 3.539l6.592 3.287.577 4.09 25.032 25.032-3.097 3.097-25.032-25.032-4.09-.577-3.287-6.592 3.305-3.305z" fill="#B5B6BA"/><path d="M35.2 39.045L10.168 14.013l1.005-1.005 25.562 25.563" fill="#92949B"/><path d="M39.422 34.823l3.35 3.35-5.347 5.346-3.35-3.35 1.125-1.124 3.097-3.097 1.125-1.125z" fill="#484B54"/><path d="M59.252 55.093a4.907 4.907 0 01-8.376 3.47L41.17 48.86a2.309 2.309 0 10-3.264-3.266l-1.958-1.958.797-.796 2.314-2.313 3.032-3.034.797-.796 1.957 1.957a2.309 2.309 0 103.266 3.264l9.703 9.705a4.893 4.893 0 011.437 3.47z" fill="#EA3D3D"/><path d="M57.815 58.563a4.907 4.907 0 01-6.94 0l-9.704-9.703a2.309 2.309 0 10-3.264-3.265l-1.958-1.958.797-.796 2.314-2.314c.154.196 11.307 14.413 18.755 18.036z" fill="#D33333"/><path d="M11.172 13.008l-4.381-.46-3.096-6.609-.904.904 3.287 6.592 4.09.577 1.852-.157" fill="#92949B"/></svg>