<svg width="66" height="66" fill="none" xmlns="http://www.w3.org/2000/svg"><path d="M33 66c18.225 0 33-14.775 33-33S51.225 0 33 0 0 14.775 0 33s14.775 33 33 33z" fill="#00D65B"/><path d="M23.676 52.52l13.25 13.249C53.3 63.828 66 49.897 66 32.999a33.11 33.11 0 00-.834-7.405L52.095 12.523 23.676 52.519z" fill="#09AF4C"/><path d="M43.17 49.207L33 58.12l-10.17-8.913a20.51 20.51 0 01-6.991-15.425V13.96L33 8.776l17.161 5.183v19.824a20.51 20.51 0 01-6.991 15.424z" fill="#FFCE00"/><path d="M33 8.776V58.12l10.17-8.913a20.51 20.51 0 006.991-15.425V13.96L33 8.776z" fill="#FFB600"/><path d="M50.161 15.14L15.84 32.17v1.613c0 2.557.478 5.059 1.379 7.39L50.16 24.829V15.14z" fill="#FA0"/><path d="M50.161 15.14L33 23.654v9.689l17.161-8.515V15.14z" fill="#FF9500"/><path d="M22.83 49.206l1.602 1.404 25.275-12.54c.3-1.398.454-2.834.454-4.288v-5.626L18.492 43.87a20.499 20.499 0 004.338 5.337z" fill="#FA0"/><path d="M33 36.67v9.689l16.707-8.29c.3-1.397.454-2.833.454-4.287v-5.626L33 36.671z" fill="#FF9500"/><path d="M33 60.691l-11.444-10.03a22.445 22.445 0 01-7.65-16.879V12.523L33 6.756l19.095 5.767v21.26a22.445 22.445 0 01-7.65 16.878L33 60.69zM17.773 15.395v18.387a18.578 18.578 0 006.332 13.97L33 55.55l8.895-7.797a18.577 18.577 0 006.333-13.97V15.395L33 10.796l-15.227 4.6z" fill="#FFF4C5"/><path d="M33 6.756v4.04l15.228 4.6v18.386a18.578 18.578 0 01-6.333 13.97L33 55.55v5.142l11.444-10.03a22.445 22.445 0 007.65-16.879V12.523L33 6.756z" fill="#FFE89C"/></svg>