<svg width="91" height="91" fill="none" xmlns="http://www.w3.org/2000/svg"><path d="M61.427 17.595l-2.374-5.124a1.999 1.999 0 00-1.129-1.04 2 2 0 00-1.534.063L34.552 21.611c-.483.224-.857.63-1.04 1.13L17.754 65.703a2.005 2.005 0 001.193 2.573l15.977 5.86 15.978 5.861c.52.19 1.068.153 1.534-.063a2 2 0 001.04-1.13l15.757-42.961c.183-.5.161-1.05-.063-1.534l-5.987-12.923.086-2.678-1.842-1.113zm-4.406 13.768c-1.138 3.11-4.608 4.721-7.72 3.577a6.022 6.022 0 01-3.577-7.72c1.024-2.798 4.466-4.655 7.673-3.446.355.134.71.276 1.056.49 2.384 1.469 3.569 4.37 2.568 7.1z" fill="#F66"/><path d="M69.233 35.843c.183-.5.161-1.05-.063-1.534l-5.987-12.923.086-2.678-1.842-1.112-2.374-5.125a1.999 1.999 0 00-1.129-1.04l-4.527 12.344c.355.134.71.276 1.056.49 2.384 1.468 3.569 4.37 2.568 7.099-1.138 3.11-4.608 4.72-7.72 3.577L34.924 74.137l15.978 5.86a2 2 0 001.534-.063c.465-.215.849-.609 1.04-1.129l15.757-42.962z" fill="#E64551"/><path d="M47.844 38.913h-.002a2.005 2.005 0 00-2.573 1.192l-.8 2.18c-2.795-.01-4.861 1.699-5.668 3.903-1.138 3.104.454 6.548 3.548 7.705.012.005.019.014.03.019a2.001 2.001 0 011.192 2.571c-.348.948-1.433 1.613-2.6 1.167-.79-.303-1.462-1.093-1.895-2.294a2.005 2.005 0 00-2.566-1.206c-1.094.395-1.584 1.529-1.206 2.569.568 1.571 1.44 2.824 2.517 3.697l-.838 2.284a2.005 2.005 0 103.766 1.38l.838-2.286c.03 0 .056.015.086.015a6.034 6.034 0 005.663-3.944 6.012 6.012 0 00-3.576-7.72c-.011-.005-.018-.014-.03-.018a2.002 2.002 0 01-1.163-2.558 1.987 1.987 0 012.54-1.195c.674.237 1.275.834 1.711 1.734a2.008 2.008 0 002.65.946l.027-.013a2.005 2.005 0 00.935-2.68 7.735 7.735 0 00-2.189-2.712l.794-2.163a2.005 2.005 0 00-1.191-2.573z" fill="#FFD34D"/><path d="M40.749 64.08l.838-2.286c.03 0 .056.015.086.015a6.033 6.033 0 005.663-3.945 6.012 6.012 0 00-3.576-7.72c-.011-.004-.019-.013-.03-.017l-1.38 3.766c.01.004.018.014.03.018a2.001 2.001 0 011.19 2.572c-.347.948-1.432 1.613-2.599 1.167l-2.796 7.623a2.005 2.005 0 002.574-1.192zM46.818 48.107a2.008 2.008 0 002.65.947l.028-.014a2.005 2.005 0 00.934-2.68 7.735 7.735 0 00-2.188-2.712l.793-2.163a2.004 2.004 0 00-1.191-2.573l-2.736 7.46c.674.238 1.274.835 1.71 1.735z" fill="#FB3"/><path d="M60.685 3.904a9.997 9.997 0 00-7.667.311c-4.522 2.095-6.649 7.103-5.469 11.689l3.297 10.237c.195.611.669 1.033 1.229 1.238.405.148.852.198 1.295.055 1.008-.303 1.643-1.434 1.293-2.522l-.788-2.442-2.476-7.677c-.6-2.35.462-5.621 3.305-6.938a5.998 5.998 0 014.6-.187 5.998 5.998 0 013.389 3.117c1.098 2.37.498 5.078-1.266 6.81l1.756 3.791c3.758-2.767 5.185-7.893 3.15-12.287a9.997 9.997 0 00-5.648-5.195z" fill="#ECF2FF"/><path d="M54.663 24.911l-.788-2.442-1.8 4.909c.406.149.852.198 1.295.055 1.008-.303 1.643-1.434 1.293-2.522zM62.693 10.785c1.097 2.37.498 5.078-1.266 6.81l1.756 3.791c3.758-2.767 5.185-7.893 3.15-12.287a9.997 9.997 0 00-5.648-5.195l-1.38 3.764a5.998 5.998 0 013.388 3.117z" fill="#D9E5FF"/></svg>