<svg width="33" height="28" fill="none" xmlns="http://www.w3.org/2000/svg"><path d="M30.888 19.473l.242 1.48.993-.161.227-.981-1.462-.338zM23.875 3.792l.738-1.306-.738 1.306zm-14.75 0l-.738-1.306.738 1.306zM2.126 19.533l-1.46.344.23.975.989.161.241-1.48zm2.214 1.88l1.48.242.483-2.96-1.48-.242-.483 2.96zm23.837-3.017l-1.48.241.483 2.96 1.48-.24-.483-2.961zm4.173 1.415c.264-1.142.4-2.321.4-3.52h-3c0 .97-.11 1.922-.323 2.845l2.923.675zm.4-3.52c0-5.708-3.112-10.966-8.137-13.805l-1.475 2.612c4.102 2.317 6.613 6.589 6.613 11.194h3zM24.614 2.487a16.531 16.531 0 00-16.226 0l1.476 2.612a13.531 13.531 0 0113.275 0l1.475-2.612zm-16.226 0C3.362 5.325.25 10.583.25 16.292h3c0-4.605 2.51-8.877 6.613-11.194L8.387 2.486zM.25 16.292c0 1.22.143 2.423.416 3.585l2.92-.688c-.22-.939-.336-1.91-.336-2.897h-3zm1.635 4.721l2.455.4.483-2.96-2.455-.4-.483 2.96zm26.775.343l2.47-.402-.483-2.961-2.47.403.483 2.96z" fill="#EFB409"/><path d="M21.29 25.423h1.5-1.5zm-9.58.513h1.5v.005l-1.5-.005zm0-11.721l1.5-.005v.005h-1.5zm-3.64.764l.739 1.306-.738-1.306zm-1.521.86l-.738-1.306.738 1.306zm0 8.473l.738-1.306-.738 1.306zm19.902 0l.738 1.306-.738-1.306zm-4.77-8.987a1.11 1.11 0 001.11-1.109h-3a1.89 1.89 0 011.89-1.89v3zm1.206 0h-1.206v-3h1.206v3zm1.206 0h-1.206v-3h1.206v3zm-1.11-1.109c0 .613.498 1.11 1.11 1.11v-3a1.89 1.89 0 011.89 1.89h-3zm2.73 2.93l-1.522-.86 1.476-2.613 1.522.86-1.476 2.612zm1.206 3.795v-1.73h3v1.73h-3zm-2.728 2.925l1.522-.86 1.476 2.612-1.522.86-1.476-2.612zm-.098.96a1.11 1.11 0 00-1.11 1.109h3a1.89 1.89 0 01-1.89 1.89v-3zm-1.206 0h1.206v3h-1.206v-3zm-1.206 0h1.206v3h-1.206v-3zm1.11 1.109a1.11 1.11 0 00-1.11-1.11v3a1.89 1.89 0 01-1.89-1.89h3zm0-.512v.512h-3v-.512h3zm-3 0V14.728h3v10.695h-3zm3-11.207v.512h-3v-.512h3zm-11.472 10.61a1.11 1.11 0 00-1.11 1.105l3 .01a1.89 1.89 0 01-1.89 1.885v-3zm-1.206 0h1.206v3h-1.206v-3zm-1.206 0h1.206v3H8.907v-3zm1.11 1.109a1.11 1.11 0 00-1.11-1.11v3a1.89 1.89 0 01-1.89-1.89h3zm-2.73-2.929l1.522.86-1.476 2.612-1.522-.86 1.476-2.612zM6.082 19.21v1.731h-3v-1.73h3zm2.727-2.925l-1.522.86-1.476-2.612 1.522-.86 1.476 2.612zm.098-.96a1.11 1.11 0 001.11-1.109h-3a1.89 1.89 0 011.89-1.89v3zm1.206 0H8.907v-3h1.206v3zm1.206 0h-1.206v-3h1.206v3zm-1.11-1.105a1.11 1.11 0 001.11 1.105v-3a1.89 1.89 0 011.89 1.885l-3 .01zm0-.004v-.001h3v-.003.004h-3zm0 .512v-.512h3v.512h-3zm3 0v10.695h-3V14.728h3zm-3 11.207v-.512h3v.512h-3zm0 .001v-.003-.001.003h3v.001h-3zM7.334 13.673a.624.624 0 00-.317.543h3c0 .857-.461 1.648-1.207 2.07l-1.476-2.613zM3.082 19.21a5.372 5.372 0 012.729-4.677l1.476 2.612a2.372 2.372 0 00-1.205 2.065h-3zm2.729 6.408a5.372 5.372 0 01-2.73-4.677h3c0 .855.461 1.644 1.206 2.065L5.81 25.618zm19.856.86a.623.623 0 00.317-.543h-3c0-.857.461-1.648 1.207-2.07l1.476 2.613zm4.252-5.537a5.372 5.372 0 01-2.73 4.677l-1.476-2.612a2.372 2.372 0 001.206-2.065h3zM7.016 25.935c0 .225.121.432.317.543l1.476-2.612a2.376 2.376 0 011.207 2.069h-3zM27.19 14.533a5.372 5.372 0 012.73 4.677h-3c0-.855-.461-1.644-1.206-2.065l1.476-2.612zm-1.205-.317a.624.624 0 00-.317-.543l-1.476 2.612a2.376 2.376 0 01-1.207-2.069h3z" fill="#EFB409"/></svg>