<svg width="31" height="26" fill="none" xmlns="http://www.w3.org/2000/svg"><path d="M28.698 4.415h-8.585v-.49a.49.49 0 00-.49-.491h-.863l.61-.61a.49.49 0 000-.693L17.982.743a.49.49 0 00-.693 0l-.61.61V.49A.49.49 0 0016.19 0h-1.963a.49.49 0 00-.49.49v.863l-.61-.61a.49.49 0 00-.693 0l-1.388 1.388a.49.49 0 000 .693l.61.61h-.862a.49.49 0 00-.491.49v.491H1.717A1.719 1.719 0 000 6.132v18.151A1.72 1.72 0 001.717 26h26.981a1.719 1.719 0 001.717-1.717V6.133a1.719 1.719 0 00-1.717-1.718zm-17.415 0h1.15a.49.49 0 00.462-.327c.028-.081.062-.161.099-.24a.492.492 0 00-.096-.558l-.812-.813.693-.693.813.812a.492.492 0 00.558.096c.078-.037.158-.07.24-.099a.49.49 0 00.327-.463V.981h.981v1.15a.491.491 0 00.328.462c.081.029.16.062.239.099a.492.492 0 00.558-.096l.813-.812.693.693-.812.813a.491.491 0 00-.096.558c.038.079.07.159.1.24a.49.49 0 00.462.327h1.15v.981h-1.15a.49.49 0 00-.462.327 2.444 2.444 0 01-.1.24.492.492 0 00.096.558l.812.813-.693.694-.813-.813a.492.492 0 00-.558-.096c-.078.038-.159.07-.24.1a.49.49 0 00-.327.462v1.15h-.981V7.68a.49.49 0 00-.327-.462 2.511 2.511 0 01-.24-.1.492.492 0 00-.558.096l-.813.813-.693-.694.812-.813a.491.491 0 00.096-.558 2.444 2.444 0 01-.1-.24.49.49 0 00-.462-.327h-1.149v-.98zM1.717 25.02a.737.737 0 01-.736-.736V8.225l8.861 5.316L2.19 25.02h-.473zm1.653 0l7.314-10.972 4.27 2.562a.49.49 0 00.506 0l4.27-2.562 7.258 10.972H3.37zm26.064-.736a.737.737 0 01-.736.736h-.533l-7.592-11.477 8.861-5.317v16.058zm0-17.202l-14.227 8.536L.981 7.08v-.949a.736.736 0 01.736-.736h8.585v.49a.49.49 0 00.49.491h.863l-.61.61a.49.49 0 000 .693l1.388 1.388a.49.49 0 00.693 0l.61-.61v.863a.49.49 0 00.49.49h1.963a.49.49 0 00.49-.49v-.862l.61.61a.49.49 0 00.693 0L19.37 7.68a.49.49 0 000-.693l-.61-.61h.863a.49.49 0 00.49-.49v-.49h8.585a.737.737 0 01.736.735v.949z" fill="#fff"/><path d="M15.207 6.377a1.472 1.472 0 100-2.944 1.472 1.472 0 000 2.944zm0-1.962a.49.49 0 110 .981.49.49 0 010-.981z" fill="#fff"/></svg>