<svg width="279" height="8" fill="none" xmlns="http://www.w3.org/2000/svg"><path transform="matrix(.75258 .6585 -.98818 .1533 0 1)" stroke="#fff" d="M0-.5h10.63"/><path transform="matrix(.75258 .6585 -.98818 .1533 10 1)" stroke="#fff" d="M0-.5h10.63"/><path transform="matrix(.75258 .6585 -.98818 .1533 20 1)" stroke="#fff" d="M0-.5h10.63"/><path transform="matrix(.75258 .6585 -.98818 .1533 30 1)" stroke="#fff" d="M0-.5h10.63"/><path transform="matrix(.75258 .6585 -.98818 .1533 40 1)" stroke="#fff" d="M0-.5h10.63"/><path transform="matrix(.75258 .6585 -.98818 .1533 50 1)" stroke="#fff" d="M0-.5h10.63"/><path transform="matrix(.75258 .6585 -.98818 .1533 60 1)" stroke="#fff" d="M0-.5h10.63"/><path transform="matrix(.75258 .6585 -.98818 .1533 70 1)" stroke="#fff" d="M0-.5h10.63"/><path transform="matrix(.75258 .6585 -.98818 .1533 80 1)" stroke="#fff" d="M0-.5h10.63"/><path transform="matrix(.75258 .6585 -.98818 .1533 90 1)" stroke="#fff" d="M0-.5h10.63"/><path transform="matrix(.75258 .6585 -.98818 .1533 100 1)" stroke="#fff" d="M0-.5h10.63"/><path transform="matrix(.75258 .6585 -.98818 .1533 110 1)" stroke="#fff" d="M0-.5h10.63"/><path transform="matrix(.75258 .6585 -.98818 .1533 120 1)" stroke="#fff" d="M0-.5h10.63"/><path transform="matrix(.75258 .6585 -.98818 .1533 130 1)" stroke="#fff" d="M0-.5h10.63"/><path transform="matrix(.75258 .6585 -.98818 .1533 140 1)" stroke="#fff" d="M0-.5h10.63"/><path transform="matrix(.75258 .6585 -.98818 .1533 150 1)" stroke="#fff" d="M0-.5h10.63"/><path transform="matrix(.75258 .6585 -.98818 .1533 160 1)" stroke="#fff" d="M0-.5h10.63"/><path transform="matrix(.75258 .6585 -.98818 .1533 170 1)" stroke="#fff" d="M0-.5h10.63"/><path transform="matrix(.75258 .6585 -.98818 .1533 180 1)" stroke="#fff" d="M0-.5h10.63"/><path transform="matrix(.75258 .6585 -.98818 .1533 190 1)" stroke="#fff" d="M0-.5h10.63"/><path transform="matrix(.75258 .6585 -.98818 .1533 200 1)" stroke="#fff" d="M0-.5h10.63"/><path transform="matrix(.75258 .6585 -.98818 .1533 210 1)" stroke="#fff" d="M0-.5h10.63"/><path transform="matrix(.75258 .6585 -.98818 .1533 220 1)" stroke="#fff" d="M0-.5h10.63"/><path transform="matrix(.75258 .6585 -.98818 .1533 230 1)" stroke="#fff" d="M0-.5h10.63"/><path transform="matrix(.75258 .6585 -.98818 .1533 240 1)" stroke="#fff" d="M0-.5h10.63"/><path transform="matrix(.75258 .6585 -.98818 .1533 250 1)" stroke="#fff" d="M0-.5h10.63"/><path transform="matrix(.75258 .6585 -.98818 .1533 260 1)" stroke="#fff" d="M0-.5h10.63"/><path transform="matrix(.75258 .6585 -.98818 .1533 270 1)" stroke="#fff" d="M0-.5h10.63"/></svg>