<svg width="24" height="342" fill="none" xmlns="http://www.w3.org/2000/svg"><path stroke="#fff" d="M.784 11.549l23-11M.784 22.549l23-11M.784 33.549l23-11M.784 44.549l23-11M.784 55.549l23-11M.784 66.549l23-11M.784 77.549l23-11M.784 88.549l23-11M.784 99.549l23-11M.784 110.549l23-11M.784 121.549l23-11M.784 132.549l23-11M.784 143.549l23-11M.784 154.549l23-11M.784 165.549l23-11M.784 176.549l23-11M.784 187.549l23-11M.784 198.549l23-11M.784 209.549l23-11M.784 220.549l23-11M.784 231.549l23-11M.784 242.549l23-11M.784 253.549l23-11M.784 264.549l23-11M.784 275.549l23-11M.784 286.549l23-11M.784 297.549l23-11M.784 308.549l23-11M.784 319.549l23-11M.784 330.549l23-11M.784 341.549l23-11"/></svg>