<svg width="158" height="59" fill="none" xmlns="http://www.w3.org/2000/svg"><path d="M4.04 32.019a22.996 22.996 0 01-.542-16.903C5.47 9.624 9.45 5.17 14.56 2.733a20.34 20.34 0 0116.186-.61c5.254 2.045 9.508 6.19 11.828 11.52L35.5 15.115c-2-3.116-3.923-4.445-7.346-5.778a13.253 13.253 0 00-10.546.398c-3.33 1.587-5.922 4.49-7.208 8.068-1.285 3.579-1.9 5.696-1.224 9.477L4.039 32.02z" fill="#EAB809"/><path d="M21.612 10.857l2.959 4.826L6.493 56.697H.623l20.99-45.84z" fill="#EAB809"/><path d="M18.148 19.078L24.33 15.3l8.622 16.067-7.396.015-7.408-12.304zM11.4 33.234c.061 2.968 1.198 5.829 3.23 8.13 2.032 2.3 4.844 3.91 7.99 4.573 3.145.664 6.446.344 9.38-.909 2.934-1.253 9.108-6.228 10.594-8.87l-9.677.073c-.806 1.432-2.107 2.58-3.699 3.259a8.525 8.525 0 01-5.087.493c-1.706-.36-3.231-1.233-4.333-2.48C18.696 36.253 17.034 34.11 17 32.5l-5.6.734z" fill="#EAB809"/><path d="M28.761 47.653h7.185l4.19 9.049h-7.783l-3.592-9.049zM68.204 45c-.227 0-.374-.113-.442-.34l-1.02-3.332c-.045-.09-.102-.136-.17-.136h-8.364c-.068 0-.125.045-.17.136l-.986 3.332c-.068.227-.215.34-.442.34h-4.318c-.136 0-.238-.034-.306-.102-.068-.09-.08-.215-.034-.374l7.344-22.984c.068-.227.215-.34.442-.34h5.338c.227 0 .374.113.442.34l7.344 22.984a.378.378 0 01.034.17c0 .204-.125.306-.374.306h-4.318zm-8.942-7.718c-.023.136.023.204.136.204h5.984c.136 0 .181-.068.136-.204l-3.06-10.098c-.023-.09-.057-.125-.102-.102-.045 0-.08.034-.102.102l-2.992 10.098zm30.29-15.674c0-.113.034-.204.102-.272a.423.423 0 01.306-.136h3.979c.113 0 .204.045.272.136.09.068.136.159.136.272v22.984a.423.423 0 01-.136.306.368.368 0 01-.272.102h-3.842c-.227 0-.386-.09-.476-.272l-8.806-14.552c-.046-.068-.091-.09-.136-.068-.046 0-.069.045-.069.136l.069 14.348a.423.423 0 01-.136.306.368.368 0 01-.273.102h-3.977a.497.497 0 01-.306-.102.497.497 0 01-.102-.306V21.608c0-.113.033-.204.102-.272a.423.423 0 01.306-.136h3.841c.227 0 .386.09.477.272l8.771 14.484c.046.068.091.102.136.102.046-.023.069-.08.069-.17l-.035-14.28zm25.366-.408c.113 0 .204.045.272.136a.322.322 0 01.136.272v3.332a.422.422 0 01-.136.306.368.368 0 01-.272.102h-6.086c-.113 0-.17.057-.17.17v19.074a.422.422 0 01-.136.306.368.368 0 01-.272.102h-3.978a.499.499 0 01-.306-.102.497.497 0 01-.102-.306V25.518c0-.113-.057-.17-.17-.17h-5.916a.497.497 0 01-.306-.102.497.497 0 01-.102-.306v-3.332c0-.113.034-.204.102-.272a.422.422 0 01.306-.136h17.136zm19.991 3.706a.426.426 0 01-.136.306.368.368 0 01-.272.102h-11.152c-.114 0-.17.057-.17.17v5.27c0 .113.056.17.17.17h7.31c.113 0 .204.045.272.136.09.068.136.159.136.272v3.298a.426.426 0 01-.136.306.368.368 0 01-.272.102h-7.31c-.114 0-.17.057-.17.17v5.508c0 .113.056.17.17.17h11.152c.113 0 .204.045.272.136.09.068.136.159.136.272v3.298a.426.426 0 01-.136.306.368.368 0 01-.272.102h-15.708a.495.495 0 01-.306-.102.497.497 0 01-.102-.306V21.608c0-.113.034-.204.102-.272a.42.42 0 01.306-.136h15.708c.113 0 .204.045.272.136.09.068.136.159.136.272v3.298zM138.648 45a.499.499 0 01-.306-.102.497.497 0 01-.102-.306V21.608c0-.113.034-.204.102-.272a.424.424 0 01.306-.136h3.978c.113 0 .204.045.272.136a.322.322 0 01.136.272v9.52c0 .068.023.113.068.136.045 0 .091-.023.136-.068l7.854-9.758a.644.644 0 01.51-.238h4.488c.181 0 .295.057.34.17.045.09.023.204-.068.34l-7.582 9.69c-.068.09-.079.17-.034.238l8.024 12.886c.045.136.068.215.068.238 0 .159-.113.238-.34.238h-4.488c-.227 0-.385-.09-.476-.272l-6.052-9.792c-.023-.045-.057-.068-.102-.068-.045 0-.091.023-.136.068l-2.142 2.686a.528.528 0 00-.068.204v6.766a.422.422 0 01-.136.306.368.368 0 01-.272.102h-3.978z" fill="#fff"/></svg>