<svg width="152" height="59" fill="none" xmlns="http://www.w3.org/2000/svg"><path d="M4.04 32.019a22.996 22.996 0 01-.542-16.903C5.47 9.624 9.45 5.17 14.56 2.733a20.34 20.34 0 0116.186-.61c5.254 2.045 9.508 6.19 11.828 11.52L35.5 15.115c-2-3.116-3.923-4.445-7.346-5.778a13.253 13.253 0 00-10.546.398c-3.33 1.587-5.922 4.49-7.208 8.068-1.285 3.579-1.9 5.696-1.224 9.477L4.039 32.02z" fill="#EAB809"/><path d="M21.612 10.858l2.959 4.825L6.493 56.698H.623l20.99-45.84z" fill="#EAB809"/><path d="M18.148 19.078L24.33 15.3l8.622 16.067-7.396.015-7.408-12.304zM11.4 33.234c.061 2.968 1.198 5.829 3.23 8.13 2.032 2.3 4.844 3.91 7.99 4.573 3.145.663 6.446.344 9.38-.91 2.934-1.252 9.108-6.228 10.594-8.87l-9.677.074c-.806 1.432-2.107 2.579-3.699 3.258a8.525 8.525 0 01-5.087.493c-1.706-.36-3.231-1.233-4.333-2.48C18.696 36.254 17.034 34.11 17 32.5l-5.6.734z" fill="#EAB809"/><path d="M28.761 47.654h7.185l4.19 9.048h-7.783l-3.592-9.048zM56.52 21.656h4.16L67.944 43h-4.256l-1.312-4.448h-7.52L53.512 43H49.32l7.2-21.344zm4.832 13.408L58.6 26.36l-2.72 8.704h5.472zm9.458-13.408h4.384l8.64 15.04v-15.04h3.904V43H83.61l-8.896-15.04V43H70.81V21.656zm19.886 0h15.361v3.488h-5.632V43h-4.096V25.144h-5.632v-3.488zm22.366 8.544h8.48v3.488h-8.48v5.824h9.664V43h-13.76V21.656h13.408v3.488h-9.312V30.2zm25.06-8.544h4.736l-7.968 9.888L143.37 43h-5.216l-7.84-11.328 7.808-10.016zm-11.968 0h4.096V43h-4.096V21.656z" fill="#000"/></svg>