<svg width="16" height="22" fill="none" xmlns="http://www.w3.org/2000/svg"><path d="M2 9.071v-.15H0v.15h2zM8.791 20.31L3.2 12.72l-1.61 1.187 5.592 7.59 1.61-1.187zm4.01-7.59L7.21 20.31l1.61 1.186 5.592-7.589-1.61-1.186zM14 8.922v.15h2v-.15h-2zM7.181 21.496a1.017 1.017 0 001.638 0l-1.61-1.187a.983.983 0 011.582 0l-1.61 1.186zM0 9.07a8.15 8.15 0 001.589 4.835l1.61-1.186A6.15 6.15 0 012 9.07H0zm14.411 4.835A8.15 8.15 0 0016 9.071h-2a6.15 6.15 0 01-1.199 3.649l1.61 1.186zM8 2.921a6 6 0 016 6h2a8 8 0 00-8-8v2zm0-2a8 8 0 00-8 8h2a6 6 0 016-6v-2z" fill="#7C7C7C"/><path d="M6.658 5.981a3.173 3.173 0 012.684 0l.073.034a3.009 3.009 0 011.656 2.037v0a3.01 3.01 0 01-.605 2.601l-.023.028a3.081 3.081 0 01-2.38 1.123h-.127a3.081 3.081 0 01-2.379-1.123l-.023-.028a3.01 3.01 0 01-.605-2.601v0a3.01 3.01 0 011.656-2.037l.073-.034z" stroke="#7C7C7C" stroke-width="2" stroke-linecap="round" stroke-linejoin="round"/></svg>