<svg width="32" height="32" fill="none" xmlns="http://www.w3.org/2000/svg"><path d="M17.663 22.25a.939.939 0 01-1.118.156c-4.184-2.325-5.502-4.232-6.996-6.995a.945.945 0 01.157-1.12l3.641-3.64-7.956-7.958-3.46 3.335C-.008 7.965-.547 10.916.59 13.37c2.624 5.676 7.933 13.524 18.021 18.082a6.217 6.217 0 002.562.548 6.614 6.614 0 004.66-1.943l3.43-3.492-7.956-7.958-3.643 3.641zM27.11 4.891c4.021 4.022 4.021 10.566 0 14.589l1.325 1.326c4.753-4.753 4.753-12.488 0-17.241s-12.488-4.753-17.24 0L12.52 4.89c4.023-4.022 10.567-4.022 14.59 0z" fill="#fff"/><path d="M20.191 10.12c.367-.49.562-1.073.562-1.686a2.817 2.817 0 00-2.814-2.814 2.817 2.817 0 00-2.813 2.814H17a.938.938 0 111.694.553l-3.57 4.51v1.5h5.628v-1.875h-2.938l2.376-3.002z" fill="#fff"/><path d="M28.192 11.246v1.876h-1.875v1.876H24.44v-1.876h-3.688v-1.75l2.835-6.143 1.706.78-2.394 5.237h1.54V9.371h1.877v1.875h1.875z" fill="#fff"/></svg>