<svg width="16" height="16" fill="none" xmlns="http://www.w3.org/2000/svg"><path fill-rule="evenodd" clip-rule="evenodd" d="M2.933 7.8a5.667 5.667 0 113.716 5.322c.384-1.03.757-2.066 1.119-3.105.383.273.877.45 1.499.45 1.29 0 2.65-.85 2.986-2.536C12.678 5.814 10.983 3.8 8.6 3.8c-1.002 0-1.987.403-2.725 1.041C5.137 5.482 4.6 6.405 4.6 7.467c0 .516.156 1.092.527 1.47a.673.673 0 00.944.001.667.667 0 00.015-.928c-.524-.653.167-1.73.663-2.16.515-.447 1.196-.717 1.851-.717 1.618 0 2.59 1.32 2.347 2.536-.203 1.01-.971 1.464-1.68 1.464-.546 0-.839-.23-1.027-.528.103-.322.19-.616.253-.854.128-.492.205-1.084-.237-1.453-.329-.273-.717-.213-.954-.094-.442.22-.702.736-.702 1.263 0 .294.046.75.211 1.221-.43 1.283-.883 2.558-1.358 3.825A5.661 5.661 0 012.933 7.8zM8.6.8a7 7 0 100 14 7 7 0 000-14z" fill="#676767"/></svg>