<svg width="56" height="56" fill="none" xmlns="http://www.w3.org/2000/svg"><g clip-path="url(#clip0)" fill="#fff"><path d="M51.333 37.334a.933.933 0 00-.933.933v15.866h-6.533a.933.933 0 100 1.867h7.466a.933.933 0 00.934-.933v-16.8a.933.933 0 00-.934-.934z"/><path d="M48.533 45.733v-7.466a.933.933 0 00-.933-.934H42a.933.933 0 00-.933.934v7.466c0 .516.417.934.933.934h5.6a.933.933 0 00.933-.934zm-1.866-.933h-3.734v-5.6h3.734v5.6zM36.4 15.867a.933.933 0 00.933-.933v-4.667a.933.933 0 00-.933-.933h-28a.933.933 0 00-.933.933v32.666a.933.933 0 101.866 0v-1.866h.934a.933.933 0 100-1.867h-.934v-5.6h3.734v3.733a.933.933 0 101.866 0V33.6h3.733a.933.933 0 00.934-.933.933.933 0 00.933-.933v-5.6h3.733a.933.933 0 101.867 0 .933.933 0 100-1.867v-5.6h3.733v1.867a.933.933 0 101.867 0v-1.867h1.866a.933.933 0 100-1.867h-1.866v-5.6h3.733v3.734c0 .515.418.933.934.933zM13.067 31.734H9.333v-5.6h3.734v5.6zm0-7.467H9.333v-5.6h3.734v5.6zm0-7.467H9.333v-5.6h3.734v5.6zm5.6 14.934h-3.734v-5.6h3.734v5.6zm0-7.467h-3.734v-5.6h3.734v5.6zm0-7.467h-3.734v-5.6h3.734v5.6zm5.6 7.467h-3.734v-5.6h3.734v5.6zm0-7.467h-3.734v-5.6h3.734v5.6zm5.6 0h-3.734v-5.6h3.734v5.6z"/><path d="M4.667 47.6a.933.933 0 00.933-.933v-39.2h6.534a.933.933 0 00.933-.933v-2.8H19.6a.933.933 0 00.933-.934v-.933h3.734V2.8c0 .516.417.934.933.934h6.533V5.6H15.867a.933.933 0 100 1.867H39.2V11.2a.933.933 0 101.866 0V6.534a.933.933 0 00-.933-.934H33.6V2.8a.933.933 0 00-.933-.933h-6.534V.934A.933.933 0 0025.2 0h-5.6a.933.933 0 00-.933.934v.933h-6.533a.933.933 0 00-.934.933v2.8H4.667a.933.933 0 00-.933.934v40.133c0 .515.417.933.933.933zM55.066 20.534h-6.533V19.6a.933.933 0 00-.933-.933h-3.733a.933.933 0 00-.934.933v1.867a.933.933 0 101.867 0v-.933h1.867v.933c0 .515.417.933.933.933h6.533v12.68L39.86 20.807a.932.932 0 10-1.32 1.32l15.867 15.866a.933.933 0 001.593-.66V21.467a.933.933 0 00-.934-.933zM40.133 52.267H30.8a.933.933 0 00-.933.933v.933h-9.334V41.067a.933.933 0 10-1.866 0v14c0 .515.417.933.933.933h11.2a.933.933 0 00.933-.933v-.934H39.2v.934a.933.933 0 101.867 0V53.2a.933.933 0 00-.934-.933zM55.726.275a.932.932 0 00-1.32 0L.275 54.408a.932.932 0 101.32 1.32L55.725 1.593a.932.932 0 000-1.32z"/><path d="M38.267 50.4a.933.933 0 00.933-.933v-11.2a.933.933 0 00-.933-.934h-5.6a.933.933 0 00-.934.934v11.2a.933.933 0 101.867 0V39.2h3.733v3.733H36.4a.933.933 0 100 1.867h.933v4.667c0 .515.418.933.934.933zM23.333 37.334a.933.933 0 00-.933.933v7.466c0 .516.417.934.933.934h5.6a.933.933 0 00.934-.934v-7.466a.933.933 0 00-.934-.934h-5.6zM28 44.8h-3.733v-5.6H28v5.6z"/></g><defs><clipPath id="clip0"><path fill="#fff" d="M0 0h56v56H0z"/></clipPath></defs></svg>