<svg width="68" height="96" fill="none" xmlns="http://www.w3.org/2000/svg"><path d="M65.992 56.832c.453 0 .816.181 1.088.544.363.272.544.635.544 1.088v10.88c0 .453-.181.861-.544 1.224-.272.272-.635.408-1.088.408H60.28c-.453 0-.68.227-.68.68v22.712c0 .453-.181.861-.544 1.224-.272.272-.635.408-1.088.408H45.456a1.99 1.99 0 01-1.224-.408 1.99 1.99 0 01-.408-1.224V71.656c0-.453-.227-.68-.68-.68H1.8a1.99 1.99 0 01-1.224-.408 1.99 1.99 0 01-.408-1.224V60.64c0-.544.136-1.224.408-2.04L26.28 2.024C26.643 1.208 27.277.8 28.184.8h13.328c.635 0 1.043.181 1.224.544.272.272.272.725 0 1.36L18.528 56.016a.578.578 0 000 .544c.09.181.227.272.408.272h24.208c.453 0 .68-.227.68-.68V37.656c0-.453.136-.816.408-1.088.363-.363.77-.544 1.224-.544h12.512c.453 0 .816.181 1.088.544.363.272.544.635.544 1.088v18.496c0 .453.227.68.68.68h5.712z" fill="#F6F6F6"/></svg>