<svg width="63" height="97" fill="none" xmlns="http://www.w3.org/2000/svg"><path d="M21.88 82.584c-.181.181-.272.363-.272.544.09.181.272.272.544.272h38.76c.453 0 .816.181 1.088.544.363.272.544.635.544 1.088v10.336c0 .453-.181.861-.544 1.224-.272.272-.635.408-1.088.408H2.432a1.99 1.99 0 01-1.224-.408A1.99 1.99 0 01.8 95.368v-9.792c0-.816.272-1.496.816-2.04 6.89-7.344 14.87-16.365 23.936-27.064l6.392-7.48c8.341-9.701 12.512-17.045 12.512-22.032 0-3.717-1.315-6.755-3.944-9.112-2.63-2.357-6.03-3.536-10.2-3.536-4.17 0-7.57 1.179-10.2 3.536-2.539 2.357-3.808 5.485-3.808 9.384v3.536c0 .453-.181.861-.544 1.224-.272.272-.635.408-1.088.408H2.024A1.99 1.99 0 01.8 31.992a1.99 1.99 0 01-.408-1.224V24.92c.181-4.896 1.587-9.157 4.216-12.784 2.63-3.627 6.165-6.437 10.608-8.432C19.749 1.709 24.781.712 30.312.712c6.075 0 11.379 1.133 15.912 3.4 4.533 2.267 8.024 5.395 10.472 9.384 2.448 3.899 3.672 8.296 3.672 13.192 0 7.435-3.944 16.003-11.832 25.704-4.352 5.44-11.515 13.6-21.488 24.48l-5.168 5.712z" fill="#F6F6F6"/></svg>