<svg width="1054" height="23" fill="none" xmlns="http://www.w3.org/2000/svg"><circle cx="57.137" cy="11.225" r="11" fill="#F2B10B"/><circle cx="365.137" cy="11.225" r="11" fill="#F2B10B"/><circle cx="673.137" cy="11.225" r="11" fill="#F2B10B"/><circle cx="981.137" cy="11.225" r="11" fill="#F2B10B"/><path stroke="#000" d="M17.137 10.725h19M78.137 10.725h19M107.137 10.725h19M136.137 10.725h19M165.137 10.725h19M194.137 10.725h19M223.137 10.725h19M252.137 10.725h19M281.137 10.725h19M310.137 10.725h19M339.137 10.725h13M378.137 10.725h13M401.137 10.725h19M430.137 10.725h19M459.137 10.725h19M488.137 10.725h19M517.137 10.725h19M546.137 10.725h19M575.137 10.725h19M604.137 10.725h19M633.137 10.725h19M694.137 10.725h19M723.137 10.725h19M752.137 10.725h19M781.137 10.725h19M810.137 10.725h19M839.137 10.725h19M868.137 10.725h19M897.137 10.725h19M926.137 10.725h19M955.137 10.725h10M997.137 10.725h10.003M1017.14 10.725h19"/><circle cx="3.637" cy="10.725" r="3.5" fill="#000"/><circle cx="1049.64" cy="10.725" r="3.5" fill="#000"/></svg>