<svg width="34" height="96" fill="none" xmlns="http://www.w3.org/2000/svg"><path d="M16.76 1.208C17.485.936 18.165.8 18.8.8h13.056c.453 0 .816.181 1.088.544.363.272.544.635.544 1.088v91.936c0 .453-.181.861-.544 1.224-.272.272-.635.408-1.088.408H19.344a1.99 1.99 0 01-1.224-.408 1.99 1.99 0 01-.408-1.224V17.12c0-.181-.09-.317-.272-.408-.181-.181-.363-.227-.544-.136l-13.6 4.216c-.181.09-.408.136-.68.136-.363 0-.68-.136-.952-.408-.181-.272-.272-.635-.272-1.088l-.408-8.976c0-.907.363-1.541 1.088-1.904L16.76 1.208z" fill="#F6F6F6"/></svg>