<svg width="258" height="256" fill="none" xmlns="http://www.w3.org/2000/svg"><path d="M181.216 179.218c.991 8.98-7.922 15.793-16.327 12.481l-107.58-42.397c-8.69-3.425-10.308-15.026-2.887-20.698l94.894-72.538c7.421-5.672 18.191-1.066 19.216 8.218l12.684 114.934z" fill="url(#paint0_linear)"/><path d="M181.216 179.218c.991 8.98-7.922 15.793-16.327 12.481l-107.58-42.397c-8.69-3.425-10.308-15.026-2.887-20.698l94.894-72.538c7.421-5.672 18.191-1.066 19.216 8.218l12.684 114.934z" fill="url(#paint1_linear)"/><path d="M187.999 84.515c9.024.445 14.337 10.326 9.734 18.1l-58.917 99.497c-4.759 8.036-16.47 7.795-20.894-.431L61.347 96.486c-4.424-8.226 1.832-18.13 11.16-17.67L188 84.517z" fill="url(#paint2_linear)"/><path d="M146.084 129.668a5.42 5.42 0 001.052-3.232c0-1.362-.543-2.545-1.632-3.551-1.088-1.005-2.378-1.507-3.867-1.507h-3.782c.688-1.309 1.032-2.578 1.032-3.807 0-1.547-.251-2.777-.752-3.689a4.566 4.566 0 00-2.192-2.013c-.96-.43-2.041-.644-3.244-.644-.731 0-1.375.244-1.934.734-.616.555-1.06 1.269-1.332 2.141-.272.873-.49 1.709-.655 2.509-.165.8-.419 1.365-.763 1.696-.702.7-1.468 1.547-2.299 2.538-1.446 1.732-2.428 2.757-2.943 3.074h-5.887c-.759 0-1.407.248-1.944.744-.537.495-.806 1.094-.806 1.794v12.692c0 .701.269 1.299.806 1.795s1.185.744 1.944.744h6.188c.315 0 1.303.264 2.964.793 1.762.569 3.313 1.002 4.652 1.299 1.339.298 2.696.447 4.071.447H137.533c2.019 0 3.645-.533 4.877-1.597 1.231-1.065 1.84-2.516 1.826-4.353a5.313 5.313 0 001.289-3.53 5.57 5.57 0 00-.064-.853 5.357 5.357 0 00.816-2.855c0-.476-.064-.933-.193-1.369zm-26.856 9.103a1.378 1.378 0 01-.967.377c-.372 0-.694-.126-.966-.377-.273-.251-.409-.549-.409-.893 0-.343.136-.641.409-.892.272-.251.594-.377.966-.377.373 0 .695.126.967.377s.409.548.409.892-.137.642-.409.893zm24.697-10.708c-.308.608-.691.919-1.149.932.215.224.394.539.537.942.143.403.214.77.214 1.1 0 .912-.379 1.699-1.138 2.36.258.423.387.879.387 1.368 0 .489-.125.975-.376 1.458-.25.482-.591.829-1.02 1.04.071.397.107.767.107 1.111 0 2.207-1.375 3.311-4.126 3.311h-2.599c-1.876 0-4.325-.482-7.348-1.447a120.157 120.157 0 00-1.386-.456 33.97 33.97 0 00-.752-.228 9.55 9.55 0 00-1.525-.347 4.652 4.652 0 00-.677-.06h-.687v-12.691h.687c.229 0 .484-.06.763-.178a3.66 3.66 0 00.859-.536c.294-.238.57-.473.828-.704.257-.231.544-.522.859-.872a42.475 42.475 0 001.418-1.656c.272-.331.437-.529.494-.595.788-.899 1.339-1.501 1.654-1.805.588-.568 1.014-1.292 1.279-2.171.265-.88.483-1.709.655-2.489.171-.78.444-1.342.817-1.686 1.374 0 2.291.31 2.749.932.459.621.688 1.58.688 2.875 0 .78-.344 1.841-1.032 3.183-.687 1.342-1.031 2.396-1.031 3.163h7.563c.717 0 1.354.255 1.912.764.559.509.839 1.1.839 1.775-.001.462-.155.998-.463 1.607z" fill="#fff"/><defs><linearGradient id="paint0_linear" x1="34.046" y1="35.888" x2="193.546" y2="173.388" gradientUnits="userSpaceOnUse"><stop offset=".128" stop-color="#FC4343"/><stop offset="1" stop-color="#D6E791" stop-opacity="0"/></linearGradient><linearGradient id="paint1_linear" x1="281.046" y1="255.388" x2="102.046" y2="85.888" gradientUnits="userSpaceOnUse"><stop offset=".257" stop-color="#FFB800"/><stop offset="1" stop-color="#FFD600" stop-opacity="0"/></linearGradient><linearGradient id="paint2_linear" x1="80.046" y1="72.888" x2="252.136" y2="221.225" gradientUnits="userSpaceOnUse"><stop stop-color="#FFB800"/><stop offset="1" stop-color="#FF2E00" stop-opacity="0"/></linearGradient></defs></svg>