<svg width="258" height="257" fill="none" xmlns="http://www.w3.org/2000/svg"><path d="M181.08 179.83c.991 8.98-7.922 15.793-16.328 12.481l-107.58-42.397c-8.689-3.424-10.307-15.026-2.887-20.698l94.895-72.538c7.42-5.672 18.19-1.066 19.215 8.218L181.08 179.83z" fill="url(#paint0_linear)"/><path d="M181.08 179.83c.991 8.98-7.922 15.793-16.328 12.481l-107.58-42.397c-8.689-3.424-10.307-15.026-2.887-20.698l94.895-72.538c7.42-5.672 18.19-1.066 19.215 8.218L181.08 179.83z" fill="url(#paint1_linear)"/><path d="M187.862 85.127c9.024.446 14.338 10.326 9.734 18.1l-58.916 99.497c-4.759 8.037-16.471 7.795-20.895-.43L61.211 97.098c-4.424-8.225 1.83-18.13 11.16-17.669l115.491 5.698z" fill="url(#paint2_linear)"/><path d="M113.808 140.922c0 1.082.88 1.963 1.962 1.963a1.966 1.966 0 001.963-1.963 1.969 1.969 0 00-1.963-1.962c-1.082 0-1.962.88-1.962 1.962zm2.672 0a.71.71 0 11-1.42 0 .71.71 0 011.42 0zM121.114 142.885a1.966 1.966 0 001.963-1.963 1.969 1.969 0 00-1.963-1.962c-1.082 0-1.962.88-1.962 1.962 0 1.082.88 1.963 1.962 1.963zm0-2.672a.709.709 0 110 1.419.71.71 0 010-1.419zM126.458 142.885a1.965 1.965 0 001.962-1.963 1.968 1.968 0 00-1.962-1.962c-1.082 0-1.962.88-1.962 1.962 0 1.082.88 1.963 1.962 1.963zm0-2.672a.709.709 0 110 1.419.71.71 0 010-1.419zM131.802 142.885a1.965 1.965 0 001.962-1.963 1.967 1.967 0 00-1.962-1.962c-1.082 0-1.962.88-1.962 1.962 0 1.082.88 1.963 1.962 1.963zm0-2.672a.709.709 0 110 1.419.71.71 0 010-1.419zM116.439 130.193h.668a.627.627 0 000-1.253h-.668a.627.627 0 000 1.253zM116.439 132.197h.668a.627.627 0 000-1.253h-.668a.627.627 0 000 1.253z" fill="#fff"/><path d="M152.871 125.911l-10.649-20.122a2.629 2.629 0 00-4.572-.422l-10.19 13.582a3.194 3.194 0 00-.428-.029h-4.582a3.303 3.303 0 00-3.298 3.299v4.049h-4.05a1.965 1.965 0 00-1.962 1.963v4.676c0 1.081.88 1.962 1.962 1.962h5.386v1.419h-4.718a4.64 4.64 0 00-4.634 4.634 4.64 4.64 0 004.634 4.635h16.032a4.64 4.64 0 004.634-4.635 4.639 4.639 0 00-4.634-4.634h-4.717v-1.419h5.385a.627.627 0 00.627-.626v-2.046h.709l.025-.001.039-.002c.007-.001.013-.003.02-.003l.042-.007c.012-.002.023-.006.034-.009l.026-.006.02-.008a.424.424 0 00.042-.015.63.63 0 00.126-.073l.025-.019.024-.022.02-.019.017-.018a.285.285 0 00.031-.036c.01-.013.02-.025.028-.038l.012-.019c.007-.011.014-.021.02-.033a.63.63 0 00.075-.298v-2.39a5.95 5.95 0 00-1.002-3.312l-.993-1.489 6.88-11.55 10.162 15.051c.237.406.616.72 1.069.873v1.034l-.183-.455a.624.624 0 00-.814-.348l-8.559 3.439-1.474-1.216a.627.627 0 00-.797.966l4.622 3.811a4.635 4.635 0 004.676.725l2.131-.857a2.63 2.63 0 001.629-2.121.583.583 0 00.021-.157v-4.821a1.965 1.965 0 001.071-2.843zm-33.719 7.705h-4.05a.71.71 0 01-.709-.709v-4.676a.71.71 0 01.709-.71h4.05v6.095zm30.531 1.075l-2.131.856a3.381 3.381 0 01-3.412-.528l-2.047-1.688 7.343-2.95 1.012 2.518a1.38 1.38 0 01-.765 1.792zm-9.865-29.214c.516 0 .965.285 1.201.705.01.025.02.05.033.074l.04.076a1.36 1.36 0 01-.108 1.252l-.026.044a1.379 1.379 0 01-2.518-.773c0-.76.618-1.378 1.378-1.378zm-8.016 32.064a3.385 3.385 0 013.382 3.381 3.386 3.386 0 01-3.382 3.382H115.77a3.385 3.385 0 01-3.381-3.382 3.385 3.385 0 013.381-3.381h16.032zm-10.061-1.253v-1.419h4.091v1.419h-4.091zm10.103-2.672h-11.439v-6.718-.003V122.219c0-.91.597-1.683 1.419-1.948v8.996c0 .745.44 1.422 1.121 1.724 1.8.8 3.71 1.206 5.68 1.206h3.219v1.419zm1.336-4.436v1.764h-4.555c-.747 0-1.484-.065-2.208-.192v-8.533a.627.627 0 00-1.253 0v8.246a12.81 12.81 0 01-1.71-.618.636.636 0 01-.377-.58v-9.094h3.955c.686 0 1.322.341 1.703.911l3.653 5.48c.518.777.792 1.682.792 2.616zm-1.513-5.955l-1.89-2.836a3.296 3.296 0 00-1.072-1.012l8.668-11.554a2.636 2.636 0 002.445 1.662l.034-.001-8.185 13.741zm17.899 2.547l-9.54-14.132 2.002-3.362.051-.081 8.864 16.749a1.963 1.963 0 00-1.377.826zm1.608 1.832a.71.71 0 11.001-1.421.71.71 0 01-.001 1.421z" fill="#fff"/><defs><linearGradient id="paint0_linear" x1="33.909" y1="36.5" x2="193.409" y2="174" gradientUnits="userSpaceOnUse"><stop offset=".128" stop-color="#FC4343"/><stop offset="1" stop-color="#D6E791" stop-opacity="0"/></linearGradient><linearGradient id="paint1_linear" x1="280.909" y1="256" x2="101.909" y2="86.5" gradientUnits="userSpaceOnUse"><stop offset=".257" stop-color="#FFB800"/><stop offset="1" stop-color="#FFD600" stop-opacity="0"/></linearGradient><linearGradient id="paint2_linear" x1="79.91" y1="73.5" x2="209.136" y2="21.725" gradientUnits="userSpaceOnUse"><stop stop-color="#F76335"/><stop offset="1" stop-color="#FEB307" stop-opacity=".138"/><stop offset="1" stop-color="#FFC700" stop-opacity="0"/></linearGradient></defs></svg>