<svg width="61" height="98" fill="none" xmlns="http://www.w3.org/2000/svg"><path d="M57.56 50.712c1.813 4.352 2.72 9.339 2.72 14.96 0 5.077-.77 9.565-2.312 13.464-2.085 5.712-5.53 10.155-10.336 13.328-4.805 3.083-10.608 4.624-17.408 4.624-6.71 0-12.557-1.677-17.544-5.032-4.896-3.445-8.387-8.07-10.472-13.872C1.12 75.374.485 71.701.304 67.168c0-1.088.544-1.632 1.632-1.632h12.648c1.088 0 1.632.544 1.632 1.632.181 2.901.635 5.213 1.36 6.936.816 2.901 2.312 5.213 4.488 6.936 2.267 1.632 4.987 2.448 8.16 2.448 5.984 0 10.11-2.72 12.376-8.16 1.179-2.63 1.768-6.03 1.768-10.2 0-4.624-.68-8.432-2.04-11.424-2.357-5.077-6.437-7.616-12.24-7.616-1.541 0-3.627.907-6.256 2.72-.363.181-.68.272-.952.272-.453 0-.907-.272-1.36-.816l-6.256-8.704c-.272-.453-.408-.816-.408-1.088 0-.453.181-.861.544-1.224l22.44-22.032c.181-.181.227-.363.136-.544-.09-.181-.272-.272-.544-.272h-34a1.99 1.99 0 01-1.224-.408 1.99 1.99 0 01-.408-1.224V2.432c0-.453.136-.816.408-1.088C2.571.981 2.978.8 3.432.8h54.264c.453 0 .816.181 1.088.544.363.272.544.635.544 1.088v11.832c0 .816-.272 1.496-.816 2.04L39.064 35.888c-.363.363-.181.635.544.816 8.432 1.179 14.416 5.848 17.952 14.008z" fill="#F6F6F6"/></svg>