<svg width="258" height="257" fill="none" xmlns="http://www.w3.org/2000/svg"><path d="M180.807 180.055c.991 8.98-7.922 15.793-16.327 12.48L56.9 150.139c-8.69-3.425-10.308-15.026-2.887-20.698l94.894-72.538c7.421-5.672 18.191-1.066 19.215 8.217l12.685 114.935z" fill="url(#paint0_linear)"/><path d="M180.807 180.055c.991 8.98-7.922 15.793-16.327 12.48L56.9 150.139c-8.69-3.425-10.308-15.026-2.887-20.698l94.894-72.538c7.421-5.672 18.191-1.066 19.215 8.217l12.685 114.935z" fill="url(#paint1_linear)"/><path d="M187.589 85.352c9.024.445 14.337 10.326 9.734 18.1l-58.917 99.497c-4.759 8.036-16.47 7.795-20.894-.431L60.937 97.323c-4.423-8.226 1.832-18.13 11.16-17.67l115.492 5.7z" fill="url(#paint2_linear)"/><path fill-rule="evenodd" clip-rule="evenodd" d="M117.137 124.592c0 6.83 5.537 12.367 12.367 12.367 6.83 0 12.367-5.537 12.367-12.367 0-6.83-5.537-12.367-12.367-12.367-6.83 0-12.367 5.537-12.367 12.367zm-2 0c0 7.935 6.432 14.367 14.367 14.367a14.31 14.31 0 009.427-3.525l7.498 7.498a1 1 0 001.415-1.414l-7.498-7.498a14.315 14.315 0 003.525-9.428c0-7.935-6.432-14.367-14.367-14.367-7.935 0-14.367 6.432-14.367 14.367z" fill="#fff"/><defs><linearGradient id="paint0_linear" x1="33.636" y1="36.725" x2="193.137" y2="174.225" gradientUnits="userSpaceOnUse"><stop offset=".128" stop-color="#FC4343"/><stop offset="1" stop-color="#D6E791" stop-opacity="0"/></linearGradient><linearGradient id="paint1_linear" x1="280.637" y1="256.225" x2="101.637" y2="86.725" gradientUnits="userSpaceOnUse"><stop offset=".257" stop-color="#FFB800"/><stop offset="1" stop-color="#FFD600" stop-opacity="0"/></linearGradient><linearGradient id="paint2_linear" x1="79.636" y1="73.725" x2="366.137" y2="158.725" gradientUnits="userSpaceOnUse"><stop stop-color="#F75D5B"/><stop offset="1" stop-color="#FFC700" stop-opacity="0"/></linearGradient></defs></svg>