<svg width="258" height="256" fill="none" xmlns="http://www.w3.org/2000/svg"><path d="M180.944 179.442c.991 8.981-7.922 15.794-16.328 12.481L57.037 149.526c-8.69-3.424-10.308-15.025-2.888-20.698l94.895-72.537c7.42-5.672 18.191-1.066 19.215 8.217l12.685 114.934z" fill="url(#paint0_linear)"/><path d="M180.944 179.442c.991 8.981-7.922 15.794-16.328 12.481L57.037 149.526c-8.69-3.424-10.308-15.025-2.888-20.698l94.895-72.537c7.42-5.672 18.191-1.066 19.215 8.217l12.685 114.934z" fill="url(#paint1_linear)"/><path d="M187.726 84.74c9.024.445 14.337 10.326 9.734 18.099l-58.917 99.497c-4.759 8.037-16.47 7.796-20.894-.43L61.074 96.711c-4.424-8.226 1.832-18.13 11.16-17.67l115.492 5.699z" fill="url(#paint2_linear)"/><path d="M146.137 131.494a2.194 2.194 0 00-1.74-2.144v-3.216a14.764 14.764 0 00-12.059-14.512 1.96 1.96 0 00-1.874-1.397h-1.655c-.884 0-1.632.59-1.873 1.397a14.764 14.764 0 00-12.059 14.512v3.216a2.193 2.193 0 00-1.74 2.144c0 1.067.766 1.958 1.778 2.152a5.033 5.033 0 004.989 4.422h19.465a5.034 5.034 0 004.99-4.422 2.195 2.195 0 001.778-2.152zm-3.087-6.596h-.48c-3.862 0-7.005-3.142-7.005-7.004v-3.849c4.129 2.046 7.045 6.155 7.485 10.853zm-19.342-10.853v3.849a7.012 7.012 0 01-7.004 7.004h-.48c.439-4.698 3.356-8.807 7.484-10.853zm15.661 22.734h-19.465a3.743 3.743 0 01-3.682-3.093h26.83a3.745 3.745 0 01-3.683 3.093zm4.576-4.383h-28.617a.903.903 0 010-1.804h11.408a.645.645 0 000-1.289h-10.57v-3.115h.538c4.573 0 8.293-3.721 8.293-8.294v-4.406c.6-.222 1.22-.402 1.857-.536v5.394a.644.644 0 001.289 0v-6.166c0-.368.299-.666.666-.666h1.655c.367 0 .666.298.666.666v6.166a.644.644 0 001.289 0v-5.394c.638.134 1.258.314 1.857.536v4.406c0 4.573 3.721 8.293 8.294 8.293h.537v3.116h-10.57a.644.644 0 100 1.289h11.408a.903.903 0 010 1.804z" fill="#fff"/><path d="M129.637 129.303a.65.65 0 00-.645.644.65.65 0 00.645.645.647.647 0 00.644-.645.647.647 0 00-.644-.644z" fill="#fff"/><defs><linearGradient id="paint0_linear" x1="33.773" y1="36.112" x2="193.273" y2="173.612" gradientUnits="userSpaceOnUse"><stop offset=".128" stop-color="#FC4343"/><stop offset="1" stop-color="#D6E791" stop-opacity="0"/></linearGradient><linearGradient id="paint1_linear" x1="280.773" y1="255.612" x2="129.137" y2="-97.275" gradientUnits="userSpaceOnUse"><stop stop-color="#FFB800"/><stop offset=".092" stop-color="#FFC200" stop-opacity=".664"/><stop offset="1" stop-color="red" stop-opacity="0"/></linearGradient><linearGradient id="paint2_linear" x1="79.773" y1="73.112" x2="366.273" y2="158.112" gradientUnits="userSpaceOnUse"><stop stop-color="#EAB50D"/><stop offset=".045" stop-color="#F3BD07" stop-opacity=".57"/><stop offset="1" stop-color="red" stop-opacity="0"/></linearGradient></defs></svg>