<svg width="33" height="33" fill="none" xmlns="http://www.w3.org/2000/svg"><path d="M31.235 9.057c2.221-1.962 2.366-5.442.255-7.547-2.08-2.102-5.582-1.973-7.547.255A16.428 16.428 0 0016.5 0c-2.629 0-5.164.611-7.443 1.765C7.095-.456 3.615-.6 1.51 1.51c-2.102 2.08-1.973 5.582.255 7.547A16.428 16.428 0 000 16.5c0 4.407 1.716 8.55 4.833 11.667A16.392 16.392 0 0016.5 33c4.407 0 8.55-1.716 11.667-4.833A16.392 16.392 0 0033 16.5c0-2.629-.611-5.164-1.765-7.443zm-1.113-6.18a3.227 3.227 0 01.1 4.453 16.666 16.666 0 00-2.055-2.497 16.668 16.668 0 00-2.497-2.056 3.226 3.226 0 014.452.1zm-27.244 0a3.226 3.226 0 014.452-.1 16.664 16.664 0 00-2.497 2.056c-.773.773-1.46 1.609-2.056 2.497a3.226 3.226 0 01.1-4.452zM26.8 26.8a14.471 14.471 0 01-10.3 4.266c-3.89 0-7.549-1.515-10.3-4.266a14.471 14.471 0 01-4.266-10.3c0-3.89 1.515-7.549 4.266-10.3a14.471 14.471 0 0110.3-4.266c3.89 0 7.549 1.515 10.3 4.266a14.471 14.471 0 014.266 10.3c0 3.89-1.515 7.549-4.266 10.3z" fill="#fff"/><path d="M16.5 4.19C9.712 4.19 4.19 9.711 4.19 16.5S9.711 28.81 16.5 28.81s12.31-5.522 12.31-12.31S23.288 4.19 16.5 4.19zm0 22.687c-5.722 0-10.377-4.655-10.377-10.377S10.778 6.123 16.5 6.123 26.877 10.778 26.877 16.5 22.222 26.877 16.5 26.877z" fill="#fff"/><path d="M17.467 13.596V9.249h-1.934v4.347a3.066 3.066 0 00-2.095 2.904c0 .492.118.957.325 1.37l-3.074 3.074 1.367 1.367 3.074-3.074c.413.207.878.325 1.37.325a3.065 3.065 0 003.061-3.062c0-1.35-.879-2.498-2.094-2.904zm-.967 4.032a1.13 1.13 0 01-1.128-1.128 1.13 1.13 0 011.128-1.128 1.13 1.13 0 011.128 1.128 1.13 1.13 0 01-1.128 1.128z" fill="#fff"/></svg>