<svg width="82" height="89" fill="none" xmlns="http://www.w3.org/2000/svg"><path d="M1.922 51.25h9.84a8.81 8.81 0 00-.871 3.844H1.92V51.25z" fill="#545C66"/><path d="M37.156 21.781h-9.609v14.094h16.656l-7.047-14.094zm-13.453-3.843H40.36l8.97 17.937V41l-.014 5.125a8.954 8.954 0 00-8.086 5.112H27.957a8.917 8.917 0 00-4.447-4.33l.192-.41v-28.56h.001z" fill="#FFCE54"/><path d="M28.828 55.094a8.822 8.822 0 00-.871-3.857H41.23a8.655 8.655 0 00-.885 3.857c0 1.37.308 2.678.883 3.844H27.956a8.81 8.81 0 00.872-3.844z" fill="#F6BB42"/><path d="M37.156 21.781l7.047 14.094H31.391V21.781h5.765z" fill="#5D9CEC"/><path d="M62.14 46.125v5.125l-6.623-2.64-.013.013a8.819 8.819 0 00-6.189-2.498L49.328 41l12.813 5.125z" fill="#CCD1D9"/><path d="M27.547 21.781h3.844v14.094h-3.844V21.781z" fill="#5D9CEC"/><path d="M58.284 55.094c0 4.945-4.01 8.968-8.969 8.968a8.937 8.937 0 01-8.086-5.124 8.66 8.66 0 01-.882-3.844 8.67 8.67 0 01.882-3.857 8.954 8.954 0 018.086-5.112c2.396 0 4.587.934 6.189 2.498a8.833 8.833 0 012.78 6.47zm-3.844 0a5.124 5.124 0 00-5.125-5.125 5.132 5.132 0 00-5.125 5.125 5.132 5.132 0 005.125 5.125 5.124 5.124 0 005.125-5.125z" fill="#656D78"/><path d="M23.703 35.875v10.622l-.192.41a8.886 8.886 0 00-3.652-.782 8.93 8.93 0 00-8.097 5.125h-9.84V41.013a5.126 5.126 0 015.125-5.138h16.656z" fill="#F6BB42"/><path d="M69.815 46.125l10.263 16.656H65.984l-3.843-3.843V46.124h7.674z" fill="#656D78"/><path d="M54.44 55.094a5.124 5.124 0 01-5.125 5.125 5.132 5.132 0 01-5.125-5.125 5.132 5.132 0 015.125-5.125 5.124 5.124 0 015.125 5.125z" fill="#E6E9ED"/><path d="M24.984 55.094a5.124 5.124 0 00-5.125-5.125 5.124 5.124 0 00-5.125 5.125 5.132 5.132 0 005.125 5.125 5.132 5.132 0 005.125-5.125zm2.973-3.857a8.84 8.84 0 01.871 3.857 8.81 8.81 0 01-.871 3.843 8.967 8.967 0 01-8.098 5.126c-4.958 0-8.968-4.024-8.968-8.97a8.81 8.81 0 01.87-3.843 8.932 8.932 0 018.098-5.125c1.307 0 2.537.282 3.652.782a8.92 8.92 0 014.446 4.33z" fill="#656D78"/><path d="M24.984 55.094a5.132 5.132 0 01-5.125 5.125 5.132 5.132 0 01-5.125-5.125 5.124 5.124 0 015.125-5.125 5.124 5.124 0 015.125 5.125z" fill="#E6E9ED"/><path d="M19.219 65.347c-5.652 0-10.25-4.599-10.25-10.25 0-5.652 4.598-10.25 10.25-10.25 5.651 0 10.25 4.598 10.25 10.25 0 5.651-4.599 10.25-10.25 10.25zm0-17.938c-4.24 0-7.688 3.448-7.688 7.688s3.448 7.687 7.688 7.687 7.687-3.448 7.687-7.687c0-4.24-3.448-7.688-7.687-7.688z" fill="#000"/><path d="M19.219 61.503a6.413 6.413 0 01-6.407-6.406 6.414 6.414 0 016.407-6.407 6.414 6.414 0 016.406 6.407 6.413 6.413 0 01-6.406 6.406zm0-10.25a3.849 3.849 0 00-3.844 3.844 3.848 3.848 0 003.844 3.843 3.848 3.848 0 003.843-3.843 3.848 3.848 0 00-3.843-3.844zM48.68 65.347c-5.652 0-10.25-4.599-10.25-10.25 0-5.652 4.598-10.25 10.25-10.25 5.651 0 10.25 4.598 10.25 10.25 0 5.651-4.599 10.25-10.25 10.25zm0-17.938c-4.24 0-7.688 3.448-7.688 7.688s3.448 7.687 7.688 7.687 7.687-3.448 7.687-7.687c0-4.24-3.447-7.688-7.687-7.688z" fill="#000"/><path d="M48.68 61.503a6.413 6.413 0 01-6.406-6.406 6.414 6.414 0 016.406-6.407 6.414 6.414 0 016.406 6.407 6.414 6.414 0 01-6.406 6.406zm0-10.25a3.848 3.848 0 00-3.844 3.844 3.848 3.848 0 003.844 3.843 3.848 3.848 0 003.844-3.843 3.849 3.849 0 00-3.844-3.844zM69.176 47.41h-7.677a1.28 1.28 0 110-2.563h7.677a1.28 1.28 0 110 2.562z" fill="#000"/><path d="M79.438 64.065c-.431 0-.85-.216-1.094-.61L68.084 46.8a1.281 1.281 0 012.182-1.344l10.26 16.656a1.281 1.281 0 01-1.088 1.954z" fill="#000"/><path d="M80.719 64.065H65.345a1.28 1.28 0 110-2.562h15.374a1.28 1.28 0 110 2.562z" fill="#000"/><path d="M65.345 64.066c-.328 0-.656-.126-.906-.376l-3.843-3.843a1.28 1.28 0 010-1.812 1.28 1.28 0 011.811 0l3.844 3.844a1.28 1.28 0 01-.906 2.187z" fill="#000"/><path d="M61.501 60.222a1.28 1.28 0 01-1.28-1.28l-.009-12.813a1.28 1.28 0 011.28-1.282h.002a1.28 1.28 0 011.28 1.28l.009 12.812c0 .709-.573 1.283-1.282 1.283z" fill="#000"/><path d="M61.499 47.41c-.16 0-.32-.03-.476-.092L48.213 42.2a1.282 1.282 0 01.951-2.381l12.81 5.119a1.282 1.282 0 01-.475 2.471zM61.499 52.539c-.16 0-.32-.029-.476-.091l-6.62-2.645a1.282 1.282 0 11.95-2.38l6.621 2.644a1.282 1.282 0 01-.475 2.472z" fill="#000"/><path d="M48.68 47.408a1.281 1.281 0 01-1.281-1.282l.008-10.251c0-.708.575-1.28 1.282-1.28h.001c.707 0 1.28.575 1.28 1.282l-.009 10.252a1.28 1.28 0 01-1.281 1.28z" fill="#000"/><path d="M48.69 37.156c-.47 0-.924-.26-1.148-.708l-8.969-17.94a1.282 1.282 0 012.292-1.147l8.97 17.94a1.282 1.282 0 01-1.145 1.855zM43.564 37.156c-.47 0-.924-.26-1.148-.708l-7.05-14.103a1.282 1.282 0 012.292-1.147l7.05 14.103a1.282 1.282 0 01-1.144 1.855zM40.578 60.222H27.32a1.28 1.28 0 110-2.563h13.258a1.28 1.28 0 110 2.563zM40.578 52.528H27.32a1.28 1.28 0 110-2.562h13.258a1.28 1.28 0 110 2.562z" fill="#000"/><path d="M39.72 19.218H23.063a1.281 1.281 0 110-2.563H39.72a1.28 1.28 0 110 2.563z" fill="#000"/><path d="M23.063 47.782A1.28 1.28 0 0121.78 46.5V17.937a1.281 1.281 0 112.563 0V46.5a1.28 1.28 0 01-1.282 1.282zM43.559 37.156H26.91a1.28 1.28 0 110-2.562h16.649a1.28 1.28 0 110 2.562z" fill="#000"/><path d="M26.91 37.157a1.28 1.28 0 01-1.281-1.282V21.78a1.28 1.28 0 112.562 0v14.095a1.28 1.28 0 01-1.281 1.282z" fill="#000"/><path d="M36.513 23.061H26.91a1.28 1.28 0 110-2.562h9.603a1.281 1.281 0 110 2.563z" fill="#000"/><path d="M30.75 37.157a1.28 1.28 0 01-1.281-1.282V21.78a1.28 1.28 0 112.562 0v14.095a1.28 1.28 0 01-1.281 1.282zM23.063 37.161H6.41a1.28 1.28 0 110-2.562h16.651a1.281 1.281 0 110 2.562zM1.281 56.385A1.28 1.28 0 010 55.103V41.01a1.28 1.28 0 112.563 0v14.093a1.28 1.28 0 01-1.282 1.282z" fill="#000"/><path d="M11.112 52.54h-9.83a1.28 1.28 0 110-2.563h9.83a1.28 1.28 0 110 2.562zM10.25 56.378H1.281a1.28 1.28 0 110-2.563h8.969a1.28 1.28 0 110 2.563zM1.281 42.291A1.28 1.28 0 010 41.01a6.419 6.419 0 016.411-6.411 1.28 1.28 0 110 2.562 3.854 3.854 0 00-3.848 3.849 1.28 1.28 0 01-1.282 1.281z" fill="#000"/><path d="M6.411 39.721a1.28 1.28 0 01-1.28-1.281v-2.56a1.28 1.28 0 112.562 0v2.56A1.28 1.28 0 016.41 39.72zM10.25 39.721a1.28 1.28 0 01-1.281-1.281v-2.56a1.28 1.28 0 112.562 0v2.56a1.28 1.28 0 01-1.281 1.281zM14.089 39.721a1.28 1.28 0 01-1.282-1.281v-2.56a1.28 1.28 0 112.563 0v2.56a1.28 1.28 0 01-1.281 1.281zM17.927 39.721a1.28 1.28 0 01-1.281-1.281v-2.56a1.28 1.28 0 112.563 0v2.56a1.28 1.28 0 01-1.282 1.281zM28.167 41.001h-1.281a1.28 1.28 0 110-2.563h1.281a1.28 1.28 0 110 2.563z" fill="#000"/><path d="M9.912 86.128c-.768 0-1.45-.15-2.048-.448a3.43 3.43 0 01-1.376-1.296c-.32-.565-.48-1.21-.48-1.936v-4.096c0-.736.16-1.381.48-1.936.33-.555.79-.981 1.376-1.28.597-.31 1.28-.464 2.048-.464s1.445.15 2.032.448c.587.299 1.04.715 1.36 1.248.33.523.496 1.115.496 1.776v.176c0 .107-.053.16-.16.16h-1.216c-.107 0-.16-.053-.16-.16v-.144c0-.64-.219-1.157-.656-1.552-.427-.405-.992-.608-1.696-.608-.715 0-1.29.208-1.728.624-.427.416-.64.97-.64 1.664v4.192c0 .693.224 1.248.672 1.664.448.416 1.035.624 1.76.624.704 0 1.259-.181 1.664-.544.416-.373.624-.88.624-1.52v-1.232c0-.043-.021-.064-.064-.064h-2.16c-.107 0-.16-.053-.16-.16v-.992c0-.107.053-.16.16-.16h3.6c.107 0 .16.053.16.16v2.032c0 1.227-.352 2.17-1.056 2.832-.693.661-1.637.992-2.832.992zm9.86.016c-.778 0-1.466-.16-2.063-.48a3.448 3.448 0 01-1.392-1.344c-.331-.587-.497-1.259-.497-2.016v-3.808c0-.757.166-1.424.497-2a3.448 3.448 0 011.392-1.344c.597-.32 1.285-.48 2.064-.48.789 0 1.482.16 2.08.48.597.32 1.06.768 1.391 1.344.331.576.497 1.243.497 2v3.808c0 .757-.166 1.43-.497 2.016a3.448 3.448 0 01-1.392 1.344c-.597.32-1.29.48-2.08.48zm0-1.328c.726 0 1.313-.224 1.76-.672.448-.448.672-1.04.672-1.776V78.48c0-.747-.224-1.344-.672-1.792-.448-.459-1.034-.688-1.76-.688-.725 0-1.311.23-1.76.688-.437.448-.655 1.045-.655 1.792v3.888c0 .736.218 1.328.655 1.776.448.448 1.035.672 1.76.672zM36.401 74.8c.106 0 .16.053.16.16v1.024c0 .107-.054.16-.16.16h-3.072c-.043 0-.064.021-.064.064v9.632c0 .107-.054.16-.16.16h-1.216c-.107 0-.16-.053-.16-.16v-9.632c0-.043-.022-.064-.064-.064h-2.928c-.107 0-.16-.053-.16-.16V74.96c0-.107.053-.16.16-.16H36.4zm5.059 11.344c-.779 0-1.467-.16-2.064-.48a3.448 3.448 0 01-1.392-1.344c-.33-.587-.496-1.259-.496-2.016v-3.808c0-.757.165-1.424.496-2a3.448 3.448 0 011.392-1.344c.597-.32 1.285-.48 2.064-.48.79 0 1.483.16 2.08.48.597.32 1.061.768 1.392 1.344.33.576.496 1.243.496 2v3.808c0 .757-.165 1.43-.496 2.016a3.448 3.448 0 01-1.392 1.344c-.597.32-1.29.48-2.08.48zm0-1.328c.725 0 1.312-.224 1.76-.672.448-.448.672-1.04.672-1.776V78.48c0-.747-.224-1.344-.672-1.792-.448-.459-1.035-.688-1.76-.688-.725 0-1.312.23-1.76.688-.437.448-.656 1.045-.656 1.792v3.888c0 .736.219 1.328.656 1.776.448.448 1.035.672 1.76.672zM58.088 74.8c.107 0 .16.053.16.16v1.024c0 .107-.053.16-.16.16h-3.072c-.042 0-.064.021-.064.064v9.632c0 .107-.053.16-.16.16h-1.216c-.106 0-.16-.053-.16-.16v-9.632c0-.043-.021-.064-.064-.064h-2.928c-.106 0-.16-.053-.16-.16V74.96c0-.107.054-.16.16-.16h7.664zm5.06 11.344c-.78 0-1.467-.16-2.065-.48a3.448 3.448 0 01-1.392-1.344c-.33-.587-.495-1.259-.495-2.016v-3.808c0-.757.165-1.424.495-2a3.448 3.448 0 011.392-1.344c.598-.32 1.286-.48 2.065-.48.789 0 1.482.16 2.08.48.597.32 1.06.768 1.392 1.344.33.576.495 1.243.495 2v3.808c0 .757-.165 1.43-.495 2.016a3.448 3.448 0 01-1.392 1.344c-.598.32-1.291.48-2.08.48zm0-1.328c.725 0 1.312-.224 1.76-.672.448-.448.671-1.04.671-1.776V78.48c0-.747-.223-1.344-.671-1.792-.448-.459-1.035-.688-1.76-.688-.726 0-1.313.23-1.76.688-.438.448-.657 1.045-.657 1.792v3.888c0 .736.22 1.328.657 1.776.448.448 1.034.672 1.76.672zm10.689-10.032c.65 0 1.221.139 1.712.416a2.75 2.75 0 011.152 1.136c.277.49.416 1.056.416 1.696 0 .64-.139 1.2-.416 1.68-.278.48-.672.853-1.184 1.12-.502.267-1.083.4-1.744.4h-2.816c-.043 0-.064.021-.064.064v4.544c0 .107-.054.16-.16.16h-1.216c-.107 0-.16-.053-.16-.16V74.944c0-.107.053-.16.16-.16h4.32zm-.208 5.2c.586 0 1.056-.176 1.408-.528.362-.352.544-.816.544-1.392 0-.587-.182-1.056-.544-1.408-.352-.363-.822-.544-1.408-.544h-2.672c-.043 0-.064.021-.064.064v3.744c0 .043.021.064.064.064h2.672z" fill="#878787"/></svg>