<svg width="57" height="57" fill="none" xmlns="http://www.w3.org/2000/svg"><g clip-path="url(#clip0)" fill="#fff"><path d="M27.413 36.896a.848.848 0 00-1.199 0L24.5 38.611l-3.27-3.27 1.715-1.715a.848.848 0 10-1.199-1.199l-1.784 1.785a1.55 1.55 0 00-1.753.313L8.264 44.47a.848.848 0 101.199 1.2l9.848-9.849 4.709 4.709-13.69 13.69a3.31 3.31 0 01-2.394.973 3.305 3.305 0 01-2.371-1.03c-1.237-1.298-1.187-3.41.111-4.707l1.628-1.628a.848.848 0 10-1.2-1.2l-1.627 1.628c-1.944 1.944-2.006 5.119-.14 7.077a4.988 4.988 0 003.64 1.556c1.344 0 2.603-.52 3.552-1.47l13.787-13.787a1.56 1.56 0 00.313-1.752l1.784-1.784a.848.848 0 000-1.2zM53.962 22.52a.848.848 0 00-1.475.837c1.533 2.704 1.763 5.816.693 8.594-1.957-3.506-5.103-6.86-7.587-8.616l3.704-3.7 1.492 1.492a.845.845 0 001.2 0 .848.848 0 000-1.2l-1.492-1.491.996-.995a.848.848 0 000-1.2l-7.797-7.798a.848.848 0 00-1.193-.006 1.164 1.164 0 01-.296.21c-.69.348-1.721.068-2.453-.664-.728-.727-1.007-1.723-.675-2.427.055-.119.13-.227.222-.32a.848.848 0 00-.006-1.194L35.5.248a.848.848 0 00-1.2 0l-8.27 8.27a.848.848 0 000 1.2l3.794 3.794a.848.848 0 001.19.009c.09-.087.192-.159.307-.215.688-.335 1.714-.053 2.438.67.73.73 1.01 1.76.666 2.45a1.181 1.181 0 01-.21.297.848.848 0 00.01 1.19l1.017 1.016-7.279 7.28a.848.848 0 101.2 1.199l7.278-7.28 3.27 3.27-7.28 7.28a.848.848 0 101.2 1.199l7.28-7.28 1.108 1.11a.849.849 0 001.2 0l1.154-1.154c2.678 1.792 6.365 5.873 8.045 9.657a.848.848 0 001.506.086c2.139-3.642 2.153-8.044.037-11.775zM30.424 11.714L27.83 9.119l7.071-7.072 2.595 2.595-7.072 7.071zm4.535 1.065a4.507 4.507 0 00-2.018-1.184l4.432-4.431c.19.723.59 1.428 1.181 2.02a4.46 4.46 0 002.25 1.228l-4.617 4.617a4.459 4.459 0 00-1.228-2.25zm7.66 11.13l-6.457-6.457 7.072-7.072 6.46 6.461-7.075 7.068z"/><path d="M51.184 48.203l-1.362-1.361a.848.848 0 10-1.199 1.199l1.361 1.361a3.434 3.434 0 011.012 2.445c0 .924-.36 1.792-1.012 2.445a3.435 3.435 0 01-2.445 1.012c-.923 0-1.791-.36-2.444-1.012l-8.003-8.003c.216-.409.331-.867.331-1.343 0-.767-.299-1.489-.842-2.032a2.854 2.854 0 00-2.031-.842c-.476 0-.934.115-1.343.332l-.608-.608 4.89-4.89.608.61a2.879 2.879 0 00.51 3.373 2.855 2.855 0 002.032.842c.475 0 .934-.115 1.342-.332l4.493 4.493a.848.848 0 101.2-1.199L42.67 39.69a.848.848 0 00-1.199 0 1.17 1.17 0 01-.833.345 1.179 1.179 0 01-.833-2.01.848.848 0 000-1.2l-1.717-1.717a.848.848 0 00-1.199 0l-.1.1-1.742-1.743a.848.848 0 00-1.2 0l-.387.387L12.298 12.69l-.466-3.308a.848.848 0 00-.461-.64L5.587 5.858a.848.848 0 00-.978.16l-2.9 2.899a.848.848 0 00-.159.978l2.884 5.783c.125.25.364.423.64.462l3.308.466 2.4 2.4a.848.848 0 101.2-1.199l-2.601-2.6a.848.848 0 00-.481-.24l-3.147-.444-2.412-4.839 2.036-2.036 4.838 2.413.444 3.146c.026.183.11.351.24.481l21.362 21.363-1.518 1.518-17.066-17.066a.848.848 0 10-1.2 1.199l17.067 17.066-.387.387a.848.848 0 000 1.199l1.743 1.743-.1.1a.848.848 0 000 1.199l1.718 1.717a.848.848 0 001.199 0 1.17 1.17 0 01.833-.345c.314 0 .61.122.832.345.223.223.345.518.345.833 0 .314-.122.61-.345.833a.847.847 0 000 1.199l8.514 8.513A5.12 5.12 0 0047.54 57a5.12 5.12 0 003.644-1.51 5.12 5.12 0 001.508-3.644 5.12 5.12 0 00-1.508-3.645zm-19.085-8.305l-1.144-1.144 3.105-3.104.387-.387 1.143 1.144-3.491 3.49z"/></g><defs><clipPath id="clip0"><path fill="#fff" d="M0 0h57v57H0z"/></clipPath></defs></svg>