<svg width="24" height="16" fill="none" xmlns="http://www.w3.org/2000/svg"><path d="M23.648 9.732A.352.352 0 0024 9.38V8.227a.587.587 0 00-.035-.198l-.001-.004a.6.6 0 00-.016-.038v-.002a.567.567 0 00-.02-.039l-.001-.002a.581.581 0 00-.022-.037l-.014-.019-.012-.017-2.805-3.663a.588.588 0 00-.466-.23H17.57V2.945h3.502a.587.587 0 00.586-.586V1.285A.587.587 0 0021.072.7h-4.465a.352.352 0 00-.22.077l-2.365 1.89H9.637a.352.352 0 000 .703h4.508c.08 0 .158-.027.22-.077l2.366-1.89h4.224v.84h-3.87a.351.351 0 00-.22.078L14.5 4.21H.775v-.84h7.221a.352.352 0 000-.704H.658a.587.587 0 00-.586.586v1.075c0 .323.263.586.586.586H.7l1.546 3.856H1.8c-.669 0-1.213.544-1.213 1.212v2.552L.025 13.95a.351.351 0 10.653.259l.456-1.147.986.414A2.566 2.566 0 004.573 15.3a2.565 2.565 0 002.307-1.45h1.113a2.565 2.565 0 002.778 1.406 2.554 2.554 0 001.837-1.406h1.444l.142.359a.352.352 0 00.654-.26l-.04-.099h2.005a2.565 2.565 0 002.307 1.45 2.565 2.565 0 002.307-1.45h1.986a.587.587 0 00.587-.586V11.02a.352.352 0 10-.703 0v2.127h-1.648a2.564 2.564 0 00-2.529-2.97c-.582 0-1.12.195-1.55.524V4.68h2.98l.463.604h-1.885c-.246 0-.446.2-.446.446v2.324c0 .246.2.445.446.445h4.169v.881c0 .195.157.352.351.352zm-6.781-6.513v5.55h-1.995V7.233a.352.352 0 10-.703 0V8.77h-2.684V4.913h2.684v.68a.352.352 0 10.704 0v-.781l1.994-1.593zm-8.769 5.55V4.913h2.684v3.856H8.098zm-3.387 0V4.913h2.684v3.856H4.711zM1.458 4.913h2.55v3.856H3.003L1.458 4.913zm.555 7.756l-.62-.26.606-1.528h.814a2.554 2.554 0 00-.8 1.788zm2.56 1.928a1.86 1.86 0 01-1.858-1.858 1.86 1.86 0 011.853-1.858h.01a1.86 1.86 0 011.853 1.858 1.86 1.86 0 01-1.858 1.858zM7.1 13.149a2.554 2.554 0 00-.768-2.267H8.54a2.554 2.554 0 00-.768 2.267h-.67zm3.542 1.418a1.86 1.86 0 01-2.201-1.827 1.86 1.86 0 011.853-1.858h.01a1.86 1.86 0 011.74 2.499l-.006.016a1.853 1.853 0 01-1.396 1.17zm2.186-1.418a2.554 2.554 0 00-.769-2.267h.813l.9 2.267h-.944zm1.7 0l-1.031-2.6a.583.583 0 00-.545-.37H1.92a.583.583 0 00-.545.37l-.084.212v-.78c0-.28.228-.508.509-.508h15.067v2.05a2.545 2.545 0 00-.275 1.626h-2.063zm4.591-2.267a1.86 1.86 0 011.859 1.858 1.86 1.86 0 01-1.859 1.858 1.86 1.86 0 01-1.858-1.858 1.86 1.86 0 011.858-1.858zm.266-4.893h2.165l1.385 1.808h-3.55V5.988z" fill="#7C7C7C"/><path d="M19.12 13.851a1.114 1.114 0 000-2.224 1.114 1.114 0 000 2.224zm0-1.521a.41.41 0 110 .82.41.41 0 010-.82zM4.573 11.627a1.114 1.114 0 000 2.224 1.114 1.114 0 000-2.224zm0 1.521a.41.41 0 110-.819.41.41 0 010 .82zM10.3 11.627a1.114 1.114 0 000 2.224 1.114 1.114 0 000-2.224zm0 1.521a.41.41 0 110-.82.41.41 0 010 .82z" fill="#7C7C7C"/></svg>