<svg width="16" height="16" fill="none" xmlns="http://www.w3.org/2000/svg"><path fill-rule="evenodd" clip-rule="evenodd" d="M9.9 3.772A2.057 2.057 0 007.88 6.234a.667.667 0 01-.735.792 7.445 7.445 0 01-3.89-1.696c.021.401.16.828.463 1.275l.452.669-.743.317-.143.061c.106.122.234.247.378.37.191.164.394.315.606.45l.008.005 1.032.626-1.08.54c-.053.027-.106.051-.16.072.233.193.488.356.762.484l.926.438-.776.67c-.423.365-.849.638-1.402.782a5.83 5.83 0 002.754.684c3.204 0 5.784-2.556 5.784-5.689v-.347l.284-.199c.442-.31.755-.73.979-1.211h-1.44l-.181-.38A2.057 2.057 0 009.9 3.772zM2.38 8.639a.667.667 0 00-.159.531c.076.534.395.994.748 1.345.096.096.199.187.307.274l-.05.014c-.32.08-.753.096-1.474.026a.667.667 0 00-.542 1.13 7.144 7.144 0 005.123 2.148c3.808 0 6.932-2.958 7.109-6.69.86-.722 1.29-1.7 1.522-2.588a.666.666 0 00-.645-.836H12.75a3.39 3.39 0 00-6.23 1.56 6.143 6.143 0 01-3.147-1.984.667.667 0 00-1.116.154 3.5 3.5 0 00-.03 2.93l-.156.067a.667.667 0 00-.38.795c.124.435.402.819.688 1.124z" fill="#676767"/></svg>