<svg width="20" height="17" fill="none" xmlns="http://www.w3.org/2000/svg"><path d="M11.713 11.472h.5a.5.5 0 00-.505-.5l.005.5zm2.142 2.754l-.353-.354.353.354zm4.307-4.307l.353.354-.353-.354zm0-4.242l.353-.354-.353.354zM13.855 1.37l-.353.354.353-.354zm-2.142 2.755l.004.5a.5.5 0 00.496-.5h-.5zm-3.144.512l-.155-.475.155.475zm-5.24 3.807l-.405-.294.405.294zm-1.961 7.08l-.498.044.498-.044zm1.961.267l-.404-.294.404.294zm5.24-3.807l.154.476-.154-.476zm3.644 1.354v-1.866h-1v1.866h1zm1.289.534a.755.755 0 01-1.29-.534h-1c0 1.564 1.891 2.347 2.997 1.241l-.707-.707zm4.306-4.306l-4.306 4.306.707.707 4.306-4.306-.707-.707zm0-3.536a2.5 2.5 0 010 3.536l.707.707a3.5 3.5 0 000-4.95l-.707.707zm-4.306-4.306l4.306 4.306.707-.707-4.306-4.306-.707.707zm-1.29.534a.755.755 0 011.29-.534l.707-.707c-1.106-1.106-2.996-.323-2.996 1.24h1zm0 1.867V2.258h-1v1.867h1zm-.504-.5c-1.112.01-2.223.189-3.294.537l.31.95a9.98 9.98 0 012.993-.487l-.009-1zm-3.294.537a10.98 10.98 0 00-5.49 3.988l.81.588a9.98 9.98 0 014.99-3.625l-.31-.951zM2.924 8.15a10.98 10.98 0 00-2.096 6.454h1a9.98 9.98 0 011.905-5.866l-.809-.588zM.828 14.604c0 .323.014.645.042.964l.996-.088a9.976 9.976 0 01-.038-.876h-1zm.042.964c.032.36.18.666.42.888.233.217.528.33.821.362a1.794 1.794 0 001.623-.733l-.81-.588a.795.795 0 01-.706.327.427.427 0 01-.248-.101c-.047-.043-.093-.114-.104-.243l-.996.088zm2.864.517a9.98 9.98 0 014.99-3.626l-.31-.95a10.98 10.98 0 00-5.49 3.988l.81.588zm4.99-3.626a9.98 9.98 0 012.993-.487l-.009-1c-1.112.01-2.223.189-3.294.537l.31.95z" fill="#EDB50A"/></svg>