<svg width="62" height="58" fill="none" xmlns="http://www.w3.org/2000/svg"><path d="M51.82 37.36L44 35.733v-2.312c3.022-2.04 5-5.355 5-9.1v-4.986c.207-.192.402-.397.569-.626H54v-1.871h-2v-1.871c0-6.694-5.167-12.474-12.131-13.743C39.587.512 38.859 0 38 0h-2c-.859 0-1.587.512-1.869 1.225C27.167 2.494 22 8.275 22 14.968v1.87h-2v1.872h4.431c.168.229.362.435.569.627v4.986c0 3.744 1.978 7.059 5 9.099v2.312l-7.82 1.625C16.186 38.605 12 43.487 12 49.231V58h50v-8.77c0-5.743-4.186-10.624-10.18-11.87zM22 56.128h-8v-6.898c0-4.66 3.261-8.642 8-9.892v16.79zm22.484-18.378l-3.735 4.66-2.727-2.552 5.108-2.39 1.354.282zM37 38.245l-5-2.34v-1.39a12.609 12.609 0 0010 0v1.39l-5 2.34zM25.894 17.356l-.276-.517H24v-1.871C24 9.33 28.225 4.43 34 3.15v4.334h2V1.87h2v5.613h2V3.15C45.775 4.43 50 9.33 50 14.968v1.87h-1.618l-.276.518c-.447.834-1.344 1.354-2.342 1.354H28.236c-.999 0-1.896-.519-2.342-1.354zM27 20.42c.396.103.81.16 1.236.16h17.527c.426 0 .84-.058 1.236-.16v3.324l-1.336.625a9.56 9.56 0 01-4.023.89H40a.386.386 0 01-.367-.249l-.368-1.033c-.327-.912-1.237-1.525-2.265-1.525s-1.938.613-2.266 1.527l-.366 1.03a.388.388 0 01-.368.25h-1.64a9.564 9.564 0 01-4.024-.89L27 23.744V20.42zm.155 5.49l.286.133a11.683 11.683 0 004.919 1.086H34c1.028 0 1.938-.614 2.266-1.528l.366-1.03c.107-.297.63-.296.735 0l.368 1.032c.327.912 1.237 1.526 2.265 1.526h1.64c1.698 0 3.399-.375 4.919-1.086l.286-.134c-.809 4.404-4.91 7.768-9.845 7.768-4.935 0-9.036-3.364-9.845-7.768zm3.715 11.559l5.108 2.39-2.727 2.55-3.735-4.66 1.354-.28zM36 56.129H24v-1.87h12v1.87zm0-3.742H24v-13.49l3.373-.7L36 48.957v3.43zm-1.537-8.466L37 41.549l2.537 2.373L37 47.086l-2.537-3.165zM50 56.129H38v-1.87h12v1.87zm0-3.742H38v-3.43l8.627-10.761 3.373.701v13.49zm10 3.742h-8v-16.79c4.739 1.25 8 5.232 8 9.892v6.898z" fill="#fff"/><path d="M47 14.968h-6.026c.635-.784 1.026-1.75 1.026-2.807 0-2.579-2.243-4.677-5-4.677s-5 2.098-5 4.677c0 1.057.391 2.023 1.026 2.807H27v1.87h20v-1.87zm-10 0c-1.654 0-3-1.26-3-2.807s1.346-2.806 3-2.806 3 1.259 3 2.806c0 1.548-1.346 2.807-3 2.807zM48 48.645h-8v1.871h8v-1.87zM15 29v-.158c0-.68-.197-1.345-.57-1.925L11 21.567l-3.43 5.348A3.563 3.563 0 007 28.842V29c0 2.064 1.794 3.742 4 3.742s4-1.678 4-3.742zm-6 0v-.158c0-.34.099-.672.285-.963L11 25.205l1.715 2.675c.186.29.285.622.285.962V29c0 1.032-.897 1.87-2 1.87S9 30.033 9 29z" fill="#fff"/><path d="M14 38.355v-2.36a9.35 9.35 0 00.873-.337l1.784 1.668 4.242-3.97-1.783-1.668c.135-.266.256-.54.361-.817H22v-5.613h-2.522a8.453 8.453 0 00-.361-.817l1.783-1.668-4.242-3.97-1.784 1.668a9.35 9.35 0 00-.873-.337v-2.36H8v2.36a9.35 9.35 0 00-.873.337l-1.784-1.668-4.242 3.97 1.783 1.668a8.46 8.46 0 00-.362.817H0v5.613h2.522c.105.278.227.55.361.817L1.1 33.356l4.242 3.97 1.784-1.668c.285.125.576.238.874.337v2.36h6zM7.451 33.7l-.668-.37-1.44 1.347-1.414-1.323 1.44-1.347-.394-.624a6.29 6.29 0 01-.746-1.684l-.193-.7H2v-1.871h2.036l.193-.702a6.29 6.29 0 01.746-1.683l.394-.624-1.44-1.348 1.414-1.323 1.44 1.347.668-.37a7.236 7.236 0 011.799-.696l.75-.18v-1.905h2v1.906l.75.18c.635.154 1.24.388 1.799.696l.668.37 1.44-1.347 1.414 1.323-1.44 1.348.394.623c.331.524.582 1.091.746 1.684l.193.701H20V29h-2.036l-.193.702a6.29 6.29 0 01-.746 1.683l-.394.624 1.44 1.347-1.414 1.324-1.44-1.347-.668.37a7.236 7.236 0 01-1.799.696l-.75.18v1.905h-2v-1.906l-.75-.18a7.27 7.27 0 01-1.799-.697z" fill="#fff"/></svg>