<svg width="16" height="16" fill="none" xmlns="http://www.w3.org/2000/svg"><path fill-rule="evenodd" clip-rule="evenodd" d="M5.23 3.183a20.998 20.998 0 015.54 0c1.57.223 2.787 1.324 3.019 2.511a12.677 12.677 0 010 4.612c-.233 1.187-1.449 2.288-3.019 2.51a21.004 21.004 0 01-5.54 0c-1.57-.222-2.786-1.323-3.019-2.51a12.677 12.677 0 010-4.612c.233-1.187 1.449-2.288 3.019-2.51zm5.727-1.32a22.342 22.342 0 00-5.914 0c-2.01.285-3.776 1.719-4.14 3.575a13.995 13.995 0 000 5.124c.364 1.856 2.13 3.29 4.14 3.575 1.852.262 4.062.262 5.914 0 2.01-.285 3.776-1.719 4.14-3.575a13.997 13.997 0 000-5.124c-.364-1.856-2.13-3.29-4.14-3.575zM7.037 4.78A.667.667 0 006 5.333v5.334a.666.666 0 001.037.554l4-2.666a.667.667 0 000-1.11l-4-2.666zM9.465 8L7.333 9.421V6.58L9.465 8z" fill="#676767"/></svg>