<svg width="93" height="50" xmlns="http://www.w3.org/2000/svg" xmlns:xlink="http://www.w3.org/1999/xlink" xmlns:svgjs="http://svgjs.com/svgjs" viewBox="0 0.233 93 49.533" fill="#a6a6a6"><svg xmlns="http://www.w3.org/2000/svg" width="93" height="50" viewBox="1 1.998 91.997 48.999"><path paint-order="stroke fill markers" fill-rule="evenodd" d="M8.675 19.893l8.09 8.094 5.262-5.265 2.388 2.39 2.39-2.39 5.262 5.265 8.09-8.094-8.09-8.094-5.263 5.264-2.389-2.39-2.388 2.39-5.262-5.264-8.09 8.094zM1 27.57l12.035 12.04 7.827-7.83 3.553 3.554 3.554-3.554 7.828 7.83 12.035-12.04-12.035-12.04-7.828 7.83-3.554-3.554-3.553 3.554-7.827-7.83L1 27.571zm7.675-7.678l8.09 8.094 5.262-5.265 2.388 2.39 2.39-2.39 5.262 5.265 8.09-8.094-8.09-8.094-5.263 5.264-2.389-2.39-2.388 2.39-5.262-5.264-8.09 8.094zM1 27.57l12.035 12.04 7.827-7.83 3.553 3.554 3.554-3.554 7.828 7.83 12.035-12.04-12.035-12.04-7.828 7.83-3.554-3.554-3.553 3.554-7.827-7.83L1 27.571zm23.415 7.198l8.111 8.114-8.11 8.114-8.11-8.114 8.11-8.114zm0-26.916l3.183 3.184 2.927-2.927-6.11-6.112-6.109 6.112 2.927 2.927 3.182-3.184zM55.973 26.42c-.157.587-.502.917-1.162.917-.66 0-.829-.33-.672-.917l3.579-13.362h6.16c1.45 0 2.624 1.028 2.186 2.662l-.339 1.265c-.462 1.726-2.129 2.606-3.596 2.606h-1.686l2.543 5.91c.128.276.292.624.198.974-.138.514-.654.862-1.167.862-.367 0-.546-.22-.669-.514l-3.124-7.232h-.422l-1.829 6.829zm2.32-8.664h4.071c.514 0 1.33-.036 1.527-.77l.34-1.266c.196-.734-.531-.827-1.082-.827H59.06l-.767 2.863zm15.975-3.761c.279-.496.598-.937 1.185-.937.605 0 .702.459.704.937l.21 12.425c.01.44-.612.917-1.125.917-.57 0-.735-.478-.744-.917l-.09-2.203h-3.905l-1.287 2.203c-.247.44-.667.917-1.237.917-.513 0-.88-.478-.634-.917l6.923-12.425zm.039 3.413h-.036l-2.764 4.974h2.88l-.08-4.974zm11.691 9.012c-.158.587-.503.917-1.164.917-.66 0-.828-.33-.67-.917l1.572-5.874-2.354-4.698.501-1.872c.158-.587.503-.918 1.164-.918.66 0 .828.33.67.918l-.333 1.247 1.756 3.506 3.635-3.506.334-1.247c.157-.587.503-.918 1.163-.918s.828.33.67.918l-.5 1.872-4.872 4.698-1.572 5.874zm-30.343 4.028l-2.495 9.318h-.534l2.496-9.318h-3.585l.138-.52h7.705l-.14.52h-3.585zm5.492-.52h6.34l-.138.52h-5.793l-1.03 3.85h4.624l-.14.521h-4.624L59.2 39.247h5.806l-.14.52h-6.354l2.635-9.837zm14.994 7.154c-1.27 1.798-3.267 2.852-5.333 2.852-2.825 0-4.484-1.995-3.648-5.115.839-3.134 3.54-5.088 6.394-5.088 2.278 0 3.483 1.223 3.719 2.6l-.548.155c-.144-.619-.737-2.235-3.295-2.235-2.615 0-4.972 1.715-5.737 4.568-.767 2.866.752 4.595 3.24 4.595 1.757 0 3.573-.899 4.725-2.473l.483.14zm9.332-2.263h-6.227l-1.326 4.947h-.548l2.634-9.837h.549l-1.17 4.37h6.227l1.17-4.37h.549l-2.635 9.837h-.548l1.325-4.947z"/></svg></svg>