<svg width="90" height="44" xmlns="http://www.w3.org/2000/svg" xmlns:xlink="http://www.w3.org/1999/xlink" xmlns:svgjs="http://svgjs.com/svgjs" viewBox="0 0.255 90 43.49" fill="#a6a6a6"><svg xmlns="http://www.w3.org/2000/svg" width="90" height="44" viewBox="1.999 1.987 89.001 43.007"><path paint-order="stroke fill markers" fill-rule="evenodd" d="M54.131 11.824a4.085 4.085 0 013.982-3.43c1.638 0 3.175 1.143 2.77 3.43l-.125.709h-2.013l.125-.71c.17-.965-.382-1.418-1.112-1.418-.73 0-1.443.453-1.613 1.419l-1.309 7.41c-.17.966.382 1.419 1.112 1.419.73 0 1.442-.453 1.613-1.419l.466-2.642h-1.6l.314-1.771h3.614l-.78 4.413a4.088 4.088 0 01-3.982 3.43c-1.639 0-3.174-1.145-2.77-3.43l1.308-7.41zm8.88-3.31h2.014l-1.98 11.212c-.133.75.045.967.803 1.045l-.334 1.893c-1.856 0-2.919-.475-2.508-2.799L63.01 8.514zm2.31 7.39c.142-.808.366-1.518.734-2.03.626-.867 1.655-1.44 2.88-1.44 1.223 0 2.05.573 2.37 1.44.188.512.16 1.222.018 2.03l-.582 3.29c-.143.808-.367 1.517-.733 2.03-.627.867-1.656 1.44-2.88 1.44s-2.051-.573-2.371-1.44c-.187-.513-.16-1.222-.017-2.03l.58-3.29zm1.376 3.606c-.131.749.173 1.143.786 1.143.612 0 1.056-.394 1.188-1.143l.693-3.921c.132-.75-.172-1.143-.784-1.143-.612 0-1.058.393-1.19 1.143l-.693 3.921zm7.414-10.996h2.014l-.873 4.946h.04c.55-.651 1.248-1.025 2.037-1.025.967 0 1.396.374 1.636.907.183.413.143.984-.112 2.423l-.672 3.804c-.194 1.104-.4 1.714-.715 2.148-.47.65-1.116.947-1.925.947-1.007 0-1.322-.455-1.734-1.026l-.16.907h-2.013L74.11 8.514zm2.753 7.113c.112-.63-.01-1.181-.78-1.181-.571 0-1.087.452-1.198 1.083l-.685 3.882c-.13.73.176 1.242.787 1.242.692 0 1.085-.552 1.229-1.36l.647-3.666zm6.446 5.892h-.041c-.661.73-1.17 1.145-2.136 1.145-.93 0-2.093-.455-1.702-2.662.403-2.286 1.251-3.39 3.778-3.39.278 0 .546.04.958.06l.184-1.045c.118-.67-.05-1.181-.799-1.181-.514 0-1.09.354-1.323 1.004h-1.953c.215-.887.663-1.636 1.29-2.168a3.577 3.577 0 012.34-.847c1.68 0 2.835 1.064 2.466 3.154l-1.23 6.956H83.13l.18-1.026zm.578-3.27c-.21-.04-.366-.06-.543-.06-.868 0-1.643.355-1.83 1.42-.136.767.168 1.28.82 1.28.671 0 1.17-.472 1.313-1.28l.24-1.36zm5.098-9.735H91l-1.982 11.212c-.131.75.048.967.803 1.045l-.334 1.893c-1.855 0-2.917-.475-2.505-2.799l2.004-11.351zM54.423 26.052h-2.605l.373-2.116h7.465l-.374 2.116h-2.606l-2.398 13.58h-2.254l2.399-13.58zm7.547-2.116h6.714l-.373 2.116h-4.46l-.814 4.607h3.886l-.374 2.116h-3.886l-.814 4.608h4.46l-.397 2.249h-6.715l2.773-15.696zm14.497 12.191c-.343 1.94-2.212 3.636-4.22 3.636-1.724 0-3.563-.837-3.057-3.703l1.527-8.641a4.352 4.352 0 014.304-3.615c2.076 0 3.346 1.565 2.961 3.748l-.156.881h-2.255l.133-.75c.156-.882-.242-1.63-1.102-1.63-1.125 0-1.529.77-1.716 1.829l-1.416 8.025c-.16.903.068 1.608 1.084 1.608.62 0 1.477-.353 1.694-1.586l.136-.772h2.255l-.172.97zm5.308-12.191h2.252l-1.189 6.723h2.784l1.187-6.723h2.255L86.29 39.632h-2.253l1.235-6.988h-2.784l-1.234 6.988H79l2.774-15.696zm-56.278-.111a3.39 3.39 0 01-3.393 3.387 3.39 3.39 0 01-3.394-3.387c0-1.87 1.52-3.387 3.394-3.387a3.39 3.39 0 013.393 3.387zm-7.776 2.992a2.74 2.74 0 01-2.743 2.738 2.74 2.74 0 01-2.743-2.738 2.74 2.74 0 012.743-2.738 2.74 2.74 0 012.743 2.738zm-6.419 2.314c0 1.153-.936 2.09-2.093 2.09a2.092 2.092 0 01-2.092-2.09c0-1.153.937-2.089 2.092-2.089 1.157 0 2.093.936 2.093 2.09zm-6.419 2.314a1.44 1.44 0 01-1.442 1.44 1.44 1.44 0 111.442-1.44zm26.553-1.693a3.391 3.391 0 01-3.394 3.388 3.39 3.39 0 01-3.393-3.388 3.39 3.39 0 013.393-3.387 3.391 3.391 0 013.394 3.387zm-7.776 2.993a2.74 2.74 0 01-2.743 2.737 2.74 2.74 0 01-2.744-2.737 2.742 2.742 0 012.744-2.738 2.742 2.742 0 012.743 2.738zm-6.42 2.315a2.09 2.09 0 01-2.092 2.087 2.09 2.09 0 110-4.177c1.155 0 2.093.935 2.093 2.09zm20.135.62a3.391 3.391 0 01-3.394 3.387 3.391 3.391 0 01-3.394-3.386 3.39 3.39 0 013.394-3.388 3.39 3.39 0 013.394 3.388zm-7.776 2.992a2.741 2.741 0 01-2.744 2.738 2.74 2.74 0 01-2.743-2.738 2.74 2.74 0 012.743-2.737 2.74 2.74 0 012.744 2.737zm13.714 2.935a3.39 3.39 0 01-3.393 3.387 3.39 3.39 0 01-3.394-3.387 3.39 3.39 0 013.394-3.386 3.391 3.391 0 013.393 3.386zm4.32-24.349a3.397 3.397 0 01-4.7-.957 3.382 3.382 0 01.959-4.694 3.397 3.397 0 014.702.958 3.384 3.384 0 01-.96 4.693zm1.95-9.058a3.396 3.396 0 01-4.702-.957 3.384 3.384 0 01.96-4.695 3.4 3.4 0 014.702.958 3.384 3.384 0 01-.96 4.694zm-8.236 4.614a2.745 2.745 0 01-3.71-1.13 2.736 2.736 0 011.13-3.703 2.746 2.746 0 013.711 1.129 2.736 2.736 0 01-1.13 3.704zm4.34 13.503a3.399 3.399 0 01-4.703-.959 3.385 3.385 0 01.96-4.693 3.396 3.396 0 014.702.958 3.385 3.385 0 01-.96 4.694zM38.9 20.833c-1.337.71-3 .206-3.711-1.13A2.737 2.737 0 0136.319 16c1.337-.71 3-.205 3.71 1.13a2.736 2.736 0 01-1.13 3.704zm-5.066-4.567a2.093 2.093 0 01-2.83-.861 2.086 2.086 0 01.861-2.825 2.093 2.093 0 012.831.86 2.085 2.085 0 01-.862 2.826zm9.905 19.109a3.399 3.399 0 01-4.702-.958 3.383 3.383 0 01.959-4.693 3.398 3.398 0 014.702.957 3.385 3.385 0 01-.96 4.694zm-7.287-6.524c-1.337.711-3 .205-3.71-1.129a2.735 2.735 0 011.13-3.704 2.746 2.746 0 013.71 1.13 2.737 2.737 0 01-1.13 3.703zm-5.066-4.566a2.096 2.096 0 01-2.831-.861 2.087 2.087 0 01.863-2.826 2.095 2.095 0 012.831.861 2.088 2.088 0 01-.863 2.826zm-5.065-4.566a1.444 1.444 0 01-1.951-.594 1.438 1.438 0 01.594-1.947 1.444 1.444 0 011.951.594 1.438 1.438 0 01-.594 1.947z"/></svg></svg>