<svg width="103" height="50" xmlns="http://www.w3.org/2000/svg" xmlns:xlink="http://www.w3.org/1999/xlink" xmlns:svgjs="http://svgjs.com/svgjs" viewBox="0 0.262 103 49.477" fill="#247cc6"><svg xmlns="http://www.w3.org/2000/svg" width="103" height="50" viewBox="1.998 1 102.002 48.997"><path paint-order="stroke fill markers" fill-rule="evenodd" d="M70.85 1H52.307S36.131 3.377 35.774 15.872h-.031v3.818h20.15L35.147 34.564H53.69s16.182-2.376 16.534-14.874h.034v-3.818H50.112L70.85 1zM6.427 48.003c.192.265.338.498.338.845 0 .763-.551 1.15-1.218 1.15H3.427c-.367 0-.686-.072-.976-.325-.261-.225-.453-.591-.453-.948 0-.325.172-.61.51-.61.28 0 .453.244.453.52 0 .303.156.345.427.345h2.093c.077 0 .319.03.319-.122 0-.082-.134-.235-.173-.296l-3.31-4.487c-.204-.275-.32-.478-.32-.833 0-.408.183-.754.512-.978.27-.182.49-.182.8-.182h2.047c.367 0 .677.08.955.334.251.235.455.612.455.968 0 .324-.156.59-.503.59-.288 0-.463-.193-.463-.48 0-.345-.163-.395-.463-.395H3.29c-.105 0-.329-.03-.329.143 0 .09.106.214.147.273l3.32 4.488zm4.078 1.995c-.482 0-.858-.122-1.196-.52-.32-.376-.367-.742-.367-1.21V42.59c0-.326.134-.508.482-.508.347 0 .482.182.482.508v5.678c0 .57.165.712.599.712h1.642c.434 0 .597-.143.597-.712V42.59c0-.326.137-.508.484-.508.345 0 .482.182.482.508v5.678c0 .468-.048.834-.367 1.21-.338.398-.714.52-1.196.52h-1.642zm5.382-7.916h2.702c1.419 0 2.066.914 2.066 2.35 0 .59-.127 1.13-.637 1.607.549.55.637 1.09.637 1.842 0 1.333-.841 2.117-2.066 2.117h-2.702v-7.916zm.964 3.45h1.738c.695 0 1.1-.327 1.1-1.1 0-.855-.223-1.333-1.1-1.333h-1.738v2.432zm0 3.448h1.738c.695 0 1.1-.326 1.1-1.1 0-.853-.223-1.332-1.1-1.332h-1.738v2.432zm10.411-.977c.195.265.338.498.338.845 0 .763-.551 1.15-1.215 1.15h-2.124c-.367 0-.686-.072-.976-.325-.259-.225-.453-.591-.453-.948 0-.325.173-.61.51-.61.281 0 .454.244.454.52 0 .303.156.345.427.345h2.092c.08 0 .32.03.32-.122 0-.082-.135-.235-.173-.296l-3.311-4.487c-.204-.275-.319-.478-.319-.833 0-.408.182-.754.51-.978.272-.182.494-.182.804-.182h2.045c.366 0 .676.08.956.334.25.235.453.612.453.968 0 .324-.155.59-.5.59-.29 0-.466-.193-.466-.48 0-.345-.163-.395-.462-.395h-2.048c-.105 0-.328-.03-.328.143 0 .09.108.214.146.273l3.32 4.488zm3.479-4.904v.367c0 .325-.134.507-.482.507s-.482-.182-.482-.507v-1.384h4.768v1.384c0 .325-.136.507-.484.507-.345 0-.482-.182-.482-.507v-.367h-.935v6.39c0 .325-.136.509-.484.509s-.482-.184-.482-.509V43.1h-.937zm8.848 5.881h1.42c.249 0 .481.143.481.51 0 .364-.232.508-.481.508h-3.805c-.25 0-.482-.144-.482-.509 0-.366.233-.509.482-.509h1.42v-5.881h-1.42c-.25 0-.482-.143-.482-.509s.233-.508.482-.508h3.805c.249 0 .481.142.481.508s-.232.509-.481.509h-1.42v5.881zm5.044-5.881v.367c0 .325-.136.507-.481.507-.35 0-.485-.182-.485-.507v-1.384h4.769v1.384c0 .325-.135.507-.482.507-.348 0-.485-.182-.485-.507v-.367h-.935v6.39c0 .325-.134.509-.481.509-.348 0-.485-.184-.485-.509V43.1h-.935zm7.542 6.899c-.482 0-.858-.122-1.196-.52-.319-.376-.367-.742-.367-1.21V42.59c0-.326.135-.508.482-.508.348 0 .485.182.485.508v5.678c0 .57.162.712.596.712h1.643c.434 0 .596-.143.596-.712V42.59c0-.326.137-.508.485-.508.345 0 .482.182.482.508v5.678c0 .468-.048.834-.367 1.21-.338.398-.715.52-1.196.52h-1.643zm6.349-6.899v.367c0 .325-.137.507-.482.507-.348 0-.485-.182-.485-.507v-1.384h4.769v1.384c0 .325-.135.507-.482.507-.348 0-.485-.182-.485-.507v-.367h-.934v6.39c0 .325-.135.509-.482.509-.348 0-.482-.184-.482-.509V43.1h-.937zM68.79 48.98c.25 0 .482.143.482.51 0 .364-.233.508-.482.508h-4.287v-7.916h4.287c.25 0 .482.142.482.508s-.233.509-.482.509h-3.32v2.432h1.416c.252 0 .485.141.485.508 0 .366-.233.509-.485.509H65.47v2.432h3.32zm13.118-3.55c.396 0 .578.162.578.619 0 .459-.182.621-.578.621H79.65c-.396 0-.58-.162-.58-.621 0-.457.184-.62.58-.62h2.258zm13.243 3.55h1.42c.25 0 .483.143.483.51 0 .364-.232.508-.484.508h-3.802c-.252 0-.482-.144-.482-.509 0-.366.23-.509.482-.509h1.42v-5.881h-1.42c-.252 0-.482-.143-.482-.509s.23-.508.482-.508h3.802c.252 0 .484.142.484.508s-.232.509-.484.509h-1.42v5.881zm5.044-5.881v.367c0 .325-.134.507-.482.507s-.482-.182-.482-.507v-1.384H104v1.384c0 .325-.137.507-.485.507-.345 0-.482-.182-.482-.507v-.367h-.937v6.39c0 .325-.134.509-.482.509-.347 0-.482-.184-.482-.509V43.1h-.937z"/></svg></svg>