<svg width="95" height="49" xmlns="http://www.w3.org/2000/svg" xmlns:xlink="http://www.w3.org/1999/xlink" xmlns:svgjs="http://svgjs.com/svgjs" viewBox="0 0.244 95 48.513" fill="#a6a6a6"><svg xmlns="http://www.w3.org/2000/svg" width="95" height="49" viewBox="1 1.996 93.999 48.001"><path paint-order="stroke fill markers" fill-rule="evenodd" d="M25.813 23.76l-3.943 2.308-1.427-2.66 2.959-1.733V8.555L12.2 1.997 1 8.557v13.119l11.2 6.56 3.845-2.252 1.427 2.66-2.861 1.676v13.118l11.2 6.56 11.202-6.56V30.32l-11.201-6.56zm-13.612.716l-7.993-4.68v-9.363l7.993-4.68 7.993 4.68v9.362l-7.993 4.68zm21.604 17.082l-7.992 4.68-7.993-4.68v-9.362l7.993-4.68 7.992 4.68v9.362zM5.407 11.135L12.2 7.157l6.794 3.978v7.959L12.2 23.071l-6.794-3.977v-7.959zm13.612 21.763l6.794-3.978 6.794 3.978v7.958l-6.794 3.979-6.794-3.979v-7.958zm30.728-12.863h-6.092v5.86h-2.75V11.846h2.75v5.5h6.092v-5.5h2.75v14.049h-2.75v-5.86zm5.24-8.189h9.832v2.59h-7.083v2.95h5.321v2.609h-5.321v3.31h7.162v2.59h-9.912V11.846zm19.461 11.238c-.91-1.345-1.444-2.148-1.463-2.148h-.021c-.019 0-.573.803-1.543 2.168l-1.92 2.79h-3.323l5.224-7.265-4.927-6.783h3.343l1.88 2.69c.852 1.183 1.425 2.026 1.445 2.026h.02c.039 0 .593-.862 1.365-2.046l1.78-2.67h3.304l-4.867 6.803 5.104 7.246h-3.442l-1.959-2.81zm10.322 0l-1.048 2.81h-2.909l5.54-14.048h3.106L95 25.895h-2.948l-1.048-2.81H84.77zm4.115-5.618c-.475-1.204-.95-2.45-.968-2.47h-.06c-.02.02-.495 1.246-.97 2.47l-1.167 3.09h4.313l-1.148-3.09zM47.472 32.17v11.46h-2.75V32.17H40.31v-2.588h11.574v2.588h-4.412zm6.307-2.588h9.832v2.588H56.53v2.951h5.32v2.61h-5.32v3.31h7.162v2.589H53.78V29.582zm24.668 9.954c-1.069 2.708-3.582 4.354-6.569 4.354-4.096 0-7.162-2.93-7.162-7.324 0-4.315 3.066-7.266 7.162-7.266 3.205 0 5.5 1.766 6.41 3.975l-2.73.762c-.633-1.084-1.84-2.108-3.799-2.108-2.552 0-4.273 1.847-4.273 4.657 0 2.87 1.82 4.676 4.253 4.676 1.96 0 3.344-1.044 3.996-2.45l2.712.724zm10.697-1.765h-6.093v5.859h-2.75V29.582h2.75v5.499h6.093v-5.5h2.75V43.63h-2.75v-5.86z"/></svg></svg>