<svg width="87" height="88" viewBox="0 0 87 88" fill="none" xmlns="http://www.w3.org/2000/svg">
<g filter="url(#filter0_d)">
<path d="M73.2939 46.7328C71.8577 49.7281 68.7872 51.8031 65.2222 51.8031V46.7328H21.7778V51.8031C18.2115 51.8031 15.1423 49.7281 13.7061 46.7328H9V74.6194H78V46.7328H73.2939Z" fill="#C7A17A"/>
<path fill-rule="evenodd" clip-rule="evenodd" d="M75.2119 41.4464H79.0268C81.1301 41.4464 82.8417 43.1511 82.8417 45.2459V75.6427C82.8417 77.7374 81.1301 79.4421 79.0268 79.4421H7.81553C5.71225 79.4421 4.00064 77.7374 4.00064 75.6427V45.2471C4.00064 43.1524 5.71225 41.4477 7.81553 41.4477H11.6304V40.1812C11.6304 36.0588 14.2106 32.3581 17.9886 30.8219V26.7426C14.2106 25.2063 11.6304 21.5057 11.6304 17.3833V16.1168C7.4226 16.1168 4.00064 12.7087 4.00064 8.5179C4.00064 4.32711 7.4226 0.919006 11.6304 0.919006H75.2119C79.4197 0.919006 82.8417 4.32711 82.8417 8.5179C82.8417 12.7087 79.4197 16.1168 75.2119 16.1168V17.3833C75.2119 21.5057 72.6318 25.2076 68.8538 26.7426V30.8206C72.6318 32.3569 75.2119 36.0588 75.2119 40.1799V41.4464ZM66.3105 50.2067C69.9143 49.6013 72.6686 46.4718 72.6686 42.7129V40.1799C72.6686 37.4494 71.1554 34.9684 68.8538 33.6284V35.114C68.8538 35.6206 68.7495 36.1031 68.5676 36.5464C69.5366 37.4823 70.1254 38.7792 70.1254 40.1799V42.7129C70.1254 45.0698 68.5015 47.0557 66.3105 47.6192V50.2067ZM24.3467 16.1168V17.3833C24.3467 17.6784 24.2831 17.9646 24.1839 18.2369C23.5291 17.7113 22.7076 17.3833 21.8035 17.3833C20.8993 17.3833 20.0779 17.7113 19.423 18.2369C19.3238 17.9646 19.2602 17.6784 19.2602 17.3833V16.1168H24.3467ZM20.5318 21.1827V35.114C20.5318 35.8118 21.1028 36.3805 21.8035 36.3805C22.5041 36.3805 23.0751 35.8118 23.0751 35.114V21.1827C23.0751 20.4849 22.5041 19.9162 21.8035 19.9162C21.1028 19.9162 20.5318 20.4849 20.5318 21.1827ZM25.5738 20.7407C26.4017 19.8174 26.89 18.632 26.89 17.3833V16.1168H29.4332V17.3833C29.4332 20.1138 27.92 22.5948 25.6183 23.9348V21.1827C25.6183 21.0757 25.6043 20.972 25.5902 20.8682L25.5902 20.8682L25.5902 20.8682L25.5901 20.8681L25.5901 20.8681L25.5901 20.868L25.5901 20.868L25.5901 20.868L25.5901 20.8679C25.5844 20.8256 25.5786 20.7833 25.5738 20.7407ZM19.9965 38.4398C19.5489 38.9021 19.2602 39.5087 19.2602 40.1799V41.4464H24.3467V40.1799C24.3467 39.51 24.0581 38.9021 23.6104 38.4398C23.07 38.7323 22.4609 38.9134 21.8035 38.9134C21.146 38.9134 20.5369 38.7323 19.9965 38.4398ZM25.3322 36.5464C25.5141 36.1044 25.6183 35.6219 25.6183 35.114V33.6284C27.92 34.9696 29.4332 37.4507 29.4332 40.1799V41.4464H26.89V40.1799C26.89 38.7792 26.3012 37.4811 25.3322 36.5464ZM25.6183 26.7426V30.8206C29.3964 32.3569 31.9765 36.0575 31.9765 40.1812V41.4477H54.8658V40.1812C54.8658 36.0588 57.446 32.3569 61.224 30.8219V26.7426C57.446 25.2063 54.8658 21.5044 54.8658 17.3833V16.1168H31.9765V17.3833C31.9765 21.5057 29.3964 25.2063 25.6183 26.7426ZM63.7672 35.114V21.1827C63.7672 20.4849 64.3382 19.9162 65.0389 19.9162C65.7395 19.9162 66.3105 20.4849 66.3105 21.1827V35.114C66.3105 35.8118 65.7395 36.3805 65.0389 36.3805C64.3382 36.3805 63.7672 35.8118 63.7672 35.114ZM67.4194 18.2369C67.5185 17.9646 67.5821 17.6784 67.5821 17.3833V16.1168H62.4956V17.3833C62.4956 17.6784 62.5592 17.9646 62.6584 18.2369C63.3133 17.7113 64.1347 17.3833 65.0389 17.3833C65.943 17.3833 66.7645 17.7113 67.4194 18.2369ZM61.2685 20.7407C61.264 20.7778 61.2589 20.8146 61.2539 20.8514C61.2389 20.9604 61.224 21.0691 61.224 21.1827V23.9348C58.9223 22.5936 57.4091 20.1125 57.4091 17.3833V16.1168H59.9524V17.3833C59.9524 18.6333 60.4407 19.8174 61.2685 20.7407ZM61.224 33.6284C58.9223 34.9684 57.4091 37.4494 57.4091 40.1799V41.4464H59.9524V40.1799C59.9524 38.7792 60.5411 37.4823 61.5101 36.5464C61.3283 36.1031 61.224 35.6206 61.224 35.114V33.6284ZM62.4956 40.1799C62.4956 39.5087 62.7843 38.9021 63.2319 38.4398C63.7723 38.7323 64.3814 38.9134 65.0389 38.9134C65.6963 38.9134 66.3054 38.7323 66.8459 38.4398C67.2935 38.9021 67.5821 39.51 67.5821 40.1799V41.4464H62.4956V40.1799ZM68.8538 23.9348C71.1554 22.5948 72.6686 20.1138 72.6686 17.3833V14.8503C72.6686 11.0914 69.9143 7.96191 66.3105 7.35653V9.94395C68.5015 10.5088 70.1254 12.4946 70.1254 14.8503V17.3833C70.1254 18.6333 69.6371 19.8174 68.8092 20.742C68.8139 20.7834 68.8196 20.8248 68.8252 20.8662L68.8253 20.8666L68.8253 20.8669L68.8254 20.8673C68.8395 20.9711 68.8538 21.0753 68.8538 21.1827V23.9348ZM6.5439 8.5179C6.5439 5.72404 8.8252 3.45197 11.6304 3.45197H75.2119C78.0171 3.45197 80.2984 5.72404 80.2984 8.5179C80.2984 11.3118 78.0171 13.5838 75.2119 13.5838H75.1242C74.4947 8.59388 70.2169 4.71845 65.0389 4.71845H63.7672V12.3173H65.0389C65.9761 12.3173 66.7874 12.8303 67.2286 13.5838H19.6137C20.055 12.8303 20.8663 12.3173 21.8035 12.3173H23.0751V4.71845H21.8035C16.6254 4.71845 12.3476 8.59388 11.7182 13.5838H11.6304C8.8252 13.5838 6.5439 11.3118 6.5439 8.5179ZM14.1737 16.1168V17.3833C14.1737 20.1138 15.6869 22.5948 17.9886 23.9348V21.1827C17.9886 21.0702 18.0034 20.9619 18.0184 20.8532C18.0235 20.8162 18.0286 20.7792 18.0331 20.742C17.2052 19.8174 16.7169 18.632 16.7169 17.3833V14.8503C16.7169 12.4934 18.3408 10.5075 20.5318 9.94395V7.35653C16.928 7.96191 14.1737 11.0914 14.1737 14.8503V16.1168ZM14.1737 40.1799C14.1737 37.4494 15.6869 34.9684 17.9886 33.6284V35.114C17.9886 35.6219 18.0928 36.1031 18.2747 36.5464C17.3057 37.4823 16.7169 38.7792 16.7169 40.1799V42.7129C16.7169 45.0686 18.3408 47.0544 20.5318 47.6192V50.2067C16.928 49.6013 14.1737 46.4718 14.1737 42.7129V41.4464V40.1799ZM79.0268 76.9079C79.7275 76.9079 80.2984 76.3392 80.2984 75.6414V45.2459C80.2984 44.548 79.7275 43.9794 79.0268 43.9794H75.1242C74.4947 48.9693 70.2169 52.8447 65.0389 52.8447H63.7672V45.2459H65.0389C65.9761 45.2459 66.7874 44.7329 67.2286 43.9794H19.6137C20.055 44.7329 20.8663 45.2459 21.8035 45.2459H23.0751V52.8447H21.8035C16.6254 52.8447 12.3476 48.9693 11.7182 43.9794H7.81553C7.11486 43.9794 6.5439 44.548 6.5439 45.2459V75.6414C6.5439 76.3392 7.11486 76.9079 7.81553 76.9079H79.0268Z" fill="#232C38"/>
<path d="M45.4799 51.002V51.006H45.4839L45.4799 51.002Z" fill="#232C38"/>
<path fill-rule="evenodd" clip-rule="evenodd" d="M45.6912 51.2249C45.7381 51.2764 45.7849 51.3278 45.8334 51.3782C50.9874 48.3842 57.0988 48.6742 60.7586 52.2191C62.7003 54.1024 63.7698 56.7265 63.7698 59.6078C63.7698 63.2755 62.076 67.0217 59.1232 69.884C56.079 72.8362 52.1941 74.3597 48.5674 74.3597C45.7063 74.3597 43.0053 73.4111 41 71.4684L41.0051 71.462C40.5244 71.519 40.0412 71.557 39.549 71.557C35.9224 71.557 32.0388 70.0334 28.9932 67.0813C26.0405 64.2178 24.3467 60.4715 24.3467 56.8038C24.3467 53.9225 25.4162 51.2984 27.3579 49.4164C31.9027 45.009 40.0323 45.7208 45.4799 51.002C45.554 51.0743 45.6226 51.1496 45.6912 51.2249ZM43.706 52.8169C41.1449 50.3333 37.9023 49.0402 34.9305 49.0402C33.1807 49.0402 31.539 49.5076 30.1682 50.4232L46.145 65.9123C47.0835 64.623 47.5819 63.0475 47.5819 61.2782C47.5819 58.2894 46.1691 55.2055 43.706 52.8169ZM30.7659 65.2677C28.3015 62.8791 26.89 59.7952 26.89 56.8063C26.89 55.037 27.3872 53.4615 28.3269 52.1735L44.31 67.6689C40.6159 70.1436 34.8364 69.214 30.7659 65.2677ZM44.0849 70.6553C47.7867 72.8995 53.3793 71.9142 57.3468 68.0691C59.8112 65.6805 61.224 62.5967 61.2227 59.6078C61.2227 57.8385 60.7242 56.2617 59.7858 54.9737L57.8542 56.8468L56.079 55.032L57.9419 53.226C55.1494 51.3668 51.1132 51.425 47.4993 53.3741C49.0952 55.6576 50.0031 58.2514 50.0998 60.8286L54.5619 56.5023L56.3371 58.3185L49.483 64.9637C48.9756 66.367 48.1834 67.6309 47.1152 68.6669C46.2276 69.5268 45.1989 70.1816 44.0849 70.6553Z" fill="#232C38"/>
<rect x="28.1616" y="5.98492" width="25.4326" height="2.53296" fill="#232C38"/>
<rect x="56.1375" y="5.98492" width="2.54326" height="2.53296" fill="#232C38"/>
</g>
<defs>
<filter id="filter0_d" x="0.000640869" y="0.919006" width="86.841" height="86.5231" filterUnits="userSpaceOnUse" color-interpolation-filters="sRGB">
<feFlood flood-opacity="0" result="BackgroundImageFix"/>
<feColorMatrix in="SourceAlpha" type="matrix" values="0 0 0 0 0 0 0 0 0 0 0 0 0 0 0 0 0 0 127 0"/>
<feOffset dy="4"/>
<feGaussianBlur stdDeviation="2"/>
<feColorMatrix type="matrix" values="0 0 0 0 0 0 0 0 0 0 0 0 0 0 0 0 0 0 0.25 0"/>
<feBlend mode="normal" in2="BackgroundImageFix" result="effect1_dropShadow"/>
<feBlend mode="normal" in="SourceGraphic" in2="effect1_dropShadow" result="shape"/>
</filter>
</defs>
</svg>
