<svg width="67" height="60" fill="none" xmlns="http://www.w3.org/2000/svg"><g clip-path="url(#clip0)" fill="#F8FAFD" fill-opacity=".1"><path d="M66.427 28.007L46.328-1.823c-.429-.632-1.027-.99-1.661-.99h-13.4c-.88 0-1.679.693-2.04 1.766-.358 1.08-.21 2.339.379 3.21L48.36 30 29.606 57.831c-.59.877-.742 2.136-.38 3.21.362 1.08 1.162 1.772 2.041 1.772h13.4c.634 0 1.232-.364 1.661-.985l20.1-29.83c.763-1.133.763-2.863 0-3.99z"/><path d="M37.395 28.007L17.296-1.823c-.428-.632-1.027-.99-1.661-.99h-13.4c-.88 0-1.679.693-2.04 1.766-.358 1.08-.21 2.339.38 3.21L19.328 30 .574 57.831c-.59.877-.741 2.136-.38 3.21.362 1.08 1.162 1.772 2.042 1.772h13.399c.634 0 1.233-.364 1.662-.985l20.098-29.83c.764-1.133.764-2.863 0-3.99z"/></g><defs><clipPath id="clip0"><path fill="#fff" d="M0 0h67v60H0z"/></clipPath></defs></svg>