<svg width="46" height="46" fill="none" xmlns="http://www.w3.org/2000/svg"><path d="M41.868 39.962l-4.826-6.204a6.986 6.986 0 003.818-2.827c1.136-1.965.623-4.362.125-6.678-.3-1.19-.48-2.407-.537-3.632a18.24 18.24 0 01.537-3.636c.494-2.317 1.011-4.713-.125-6.675-1.177-2.033-3.547-2.786-5.839-3.512a16.983 16.983 0 01-3.297-1.291 16.116 16.116 0 01-2.642-2.142C27.382 1.787 25.454 0 23 0c-2.454 0-4.382 1.787-6.083 3.364a16.115 16.115 0 01-2.641 2.143c-1.051.543-2.156.974-3.296 1.288-2.292.726-4.662 1.479-5.84 3.512-1.136 1.965-.622 4.362-.124 6.678.3 1.19.48 2.409.536 3.636a18.235 18.235 0 01-.537 3.635c-.494 2.318-1.011 4.714.125 6.675a6.986 6.986 0 003.822 2.826l-4.83 6.204a.793.793 0 00.725 1.274l5.67-.708 1.4 4.898a.793.793 0 001.39.269l5.064-6.515A7.334 7.334 0 0023 41.241a7.334 7.334 0 004.62-2.062l5.064 6.512a.793.793 0 001.389-.266l1.4-4.897 5.67.708a.793.793 0 00.725-1.274zm-28.845 3.525l-1.157-4.05a.793.793 0 00-.86-.569l-4.442.556 3.98-5.117.439.14c1.14.313 2.243.745 3.293 1.288a16.11 16.11 0 012.642 2.141l.273.252-4.168 5.359zM23 39.655c-1.832 0-3.373-1.427-5.005-2.94a17.487 17.487 0 00-2.926-2.354 18.389 18.389 0 00-3.611-1.427c-2.096-.666-4.077-1.294-4.946-2.796-.83-1.435-.401-3.434.053-5.552.327-1.298.52-2.627.573-3.965a19.413 19.413 0 00-.572-3.966c-.454-2.117-.883-4.116-.053-5.552.872-1.502 2.85-2.13 4.946-2.795 1.25-.347 2.46-.826 3.61-1.428a17.483 17.483 0 002.925-2.353c1.633-1.513 3.174-2.94 5.006-2.94 1.832 0 3.373 1.427 5.005 2.94a17.484 17.484 0 002.926 2.353c1.15.602 2.36 1.08 3.611 1.428 2.096.665 4.077 1.293 4.946 2.795.83 1.435.401 3.435-.053 5.552a19.423 19.423 0 00-.573 3.966c.053 1.338.245 2.667.572 3.965.454 2.117.883 4.116.053 5.552-.872 1.502-2.85 2.13-4.946 2.796-1.25.347-2.46.825-3.61 1.427a17.487 17.487 0 00-2.925 2.353c-1.633 1.514-3.174 2.941-5.006 2.941zm11.999-.787a.793.793 0 00-.86.57l-1.162 4.049-4.167-5.358.273-.252a16.119 16.119 0 012.641-2.142 16.972 16.972 0 013.296-1.288l.439-.14 3.981 5.117L35 38.868z" fill="#F78E9B"/><path d="M23 6.345c-7.884 0-14.276 6.391-14.276 14.276 0 7.884 6.392 14.276 14.276 14.276 7.884 0 14.276-6.392 14.276-14.276C37.266 12.74 30.88 6.354 23 6.345zm0 26.965c-7.008 0-12.69-5.681-12.69-12.69 0-7.008 5.682-12.69 12.69-12.69 7.008 0 12.69 5.682 12.69 12.69-.009 7.005-5.685 12.682-12.69 12.69z" fill="#F78E9B"/><path d="M32.15 17.308a1.586 1.586 0 00-1.28-.653h-4.856l-1.507-4.621a1.586 1.586 0 00-3.014 0l-1.503 4.621h-4.86a1.586 1.586 0 00-.934 2.869l3.931 2.855L16.626 27a1.586 1.586 0 002.441 1.774L23 25.919l3.931 2.855a1.564 1.564 0 001.866 0c.562-.399.796-1.12.576-1.773L27.87 22.38l3.93-2.855a1.586 1.586 0 00.35-2.216zm-5.678 4.127a.793.793 0 00-.288.888l1.68 5.17-4.398-3.195a.793.793 0 00-.932 0l-4.397 3.194 1.679-5.17a.793.793 0 00-.288-.886l-4.397-3.195h5.435a.793.793 0 00.754-.548l1.68-5.17 1.68 5.17c.106.326.41.547.754.547l5.435.001-4.397 3.194z" fill="#F78E9B"/></svg>