<svg width="58" height="58" fill="none" xmlns="http://www.w3.org/2000/svg"><path fill-rule="evenodd" clip-rule="evenodd" d="M35.239 5.904a.967.967 0 01.511 1.042c-.028.147-2.726 14.776-1.1 22.896.527 2.27.9 4.572 1.117 6.892A6.775 6.775 0 0129 43.501a6.775 6.775 0 01-6.767-6.767v-.114a12.63 12.63 0 01.357-2.964C24.308 25.23 33.543 7.096 33.94 6.328a.967.967 0 011.3-.424zm-11.072 30.83a4.833 4.833 0 009.666 0 48.211 48.211 0 00-1.08-6.512c-1.014-5.07-.466-12.296.164-17.425-2.945 6.163-7.347 15.91-8.433 21.246a10.83 10.83 0 00-.317 2.567v.124zm-12.567 5.8a2.9 2.9 0 115.8 0 2.9 2.9 0 01-5.8 0zm1.933 0a.967.967 0 101.933 0 .967.967 0 00-1.933 0zM5.8 41.568a3.867 3.867 0 100 7.733 3.867 3.867 0 000-7.733zm0 5.8a1.933 1.933 0 110-3.867 1.933 1.933 0 010 3.867zm42.533-1.934a3.867 3.867 0 117.733 0 3.867 3.867 0 01-7.733 0zm1.933 0a1.933 1.933 0 103.867 0 1.933 1.933 0 00-3.867 0zm-6.766-5.8a2.9 2.9 0 100 5.8 2.9 2.9 0 000-5.8zm0 3.867a.967.967 0 110-1.934.967.967 0 010 1.934zm-26.1 5.8a2.9 2.9 0 115.8 0 2.9 2.9 0 01-5.8 0zm1.934 0a.967.967 0 101.933 0 .967.967 0 00-1.933 0zm18.366-2.9a2.9 2.9 0 100 5.8 2.9 2.9 0 000-5.8zm0 3.867a.967.967 0 110-1.934.967.967 0 010 1.934zm0-13.534v-.966H58V37.7H39.59A10.648 10.648 0 0129 47.368 10.648 10.648 0 0118.41 37.7H0v-1.933h20.3v.966a8.7 8.7 0 0017.4 0zM3.204 18.645C4.093 19.75 5.099 21 7.044 21s2.951-1.251 3.838-2.355c.84-1.044 1.564-1.945 3.076-1.945s2.236.901 3.075 1.945c.246.306.616.265.827-.092.21-.356.182-.892-.064-1.198C16.908 16.25 15.902 15 13.957 15s-2.951 1.251-3.839 2.355C9.28 18.4 8.554 19.3 7.043 19.3c-1.512 0-2.236-.901-3.076-1.945-.245-.306-.615-.265-.826.092-.21.356-.182.893.063 1.198zm5.186-5.16c-2.593 0-3.934-1.15-5.117-2.165a.781.781 0 011.017-1.186c1.119.96 2.085 1.788 4.1 1.788 2.016 0 2.982-.828 4.101-1.788 1.183-1.015 2.524-2.165 5.118-2.165 2.594 0 3.935 1.15 5.118 2.165a.781.781 0 01-1.017 1.186c-1.119-.96-2.085-1.789-4.1-1.789-2.016 0-2.982.83-4.101 1.789-1.184 1.015-2.525 2.165-5.119 2.165z" fill="url(#paint0_linear)"/><defs><linearGradient id="paint0_linear" x1="0" y1="29" x2="58" y2="29" gradientUnits="userSpaceOnUse"><stop stop-color="#E86AAD"/><stop offset="1" stop-color="#5CBAFE"/></linearGradient></defs></svg>