<svg width="58" height="58" fill="none" xmlns="http://www.w3.org/2000/svg"><mask id="a" fill="#fff"><path fill-rule="evenodd" clip-rule="evenodd" d="M30.7 1.7v6.91a1.7 1.7 0 01-3.4 0V1.7a1.7 1.7 0 013.4 0zM5.174 5.175a1.7 1.7 0 012.403 0l8.205 8.204a1.7 1.7 0 11-2.403 2.403L5.175 7.58a1.7 1.7 0 010-2.403zM13.707 29c0 8.432 6.86 15.293 15.293 15.293 8.432 0 15.293-6.86 15.293-15.293S37.433 13.707 29 13.707 13.707 20.567 13.707 29zM29 17.105c6.559 0 11.895 5.336 11.895 11.895 0 6.559-5.336 11.895-11.895 11.895-6.559 0-11.895-5.336-11.895-11.895 0-6.559 5.336-11.895 11.895-11.895zm13.217 25.112a1.7 1.7 0 000 2.403l8.205 8.204a1.7 1.7 0 102.403-2.403l-8.205-8.204a1.7 1.7 0 00-2.403 0zM5.175 52.824a1.7 1.7 0 002.403 0l8.205-8.204a1.7 1.7 0 10-2.403-2.403L5.175 50.42a1.7 1.7 0 000 2.403zM50.422 5.176a1.7 1.7 0 012.403 2.403l-8.205 8.204a1.7 1.7 0 11-2.403-2.403l8.205-8.204zm-14.27 41.093a1.7 1.7 0 00-.919 2.22l1.3 3.14a1.7 1.7 0 003.14-1.301l-1.3-3.14a1.7 1.7 0 00-2.22-.92zM21.467 6.37l1.3 3.14a1.7 1.7 0 01-3.14 1.3l-1.3-3.139a1.7 1.7 0 113.14-1.3zM9.51 35.233l-3.14 1.3a1.7 1.7 0 101.301 3.14l3.14-1.3a1.7 1.7 0 00-1.3-3.14zM51.63 21.466l-3.14 1.3a1.7 1.7 0 01-1.3-3.139l3.14-1.3a1.7 1.7 0 011.3 3.14zM19.627 47.188l-1.3 3.14a1.7 1.7 0 103.139 1.3l1.3-3.14a1.7 1.7 0 00-3.14-1.3zM39.674 7.672l-1.3 3.14a1.7 1.7 0 01-3.14-1.3l1.3-3.14a1.7 1.7 0 013.14 1.3zM10.812 19.627l-3.14-1.3a1.7 1.7 0 00-1.3 3.14l3.14 1.3a1.7 1.7 0 001.3-3.14zM48.49 35.233l3.14 1.3a1.7 1.7 0 11-1.301 3.14l-3.14-1.3a1.7 1.7 0 011.3-3.14zM27.3 49.391v6.91a1.7 1.7 0 003.4 0v-6.91a1.7 1.7 0 00-3.4 0zM0 29c0 .938.76 1.7 1.7 1.7h6.91a1.7 1.7 0 000-3.4H1.7A1.7 1.7 0 000 29zm49.39-1.7h6.91a1.7 1.7 0 010 3.4h-6.91a1.7 1.7 0 010-3.4z"/></mask><path fill-rule="evenodd" clip-rule="evenodd" d="M30.7 1.7v6.91a1.7 1.7 0 01-3.4 0V1.7a1.7 1.7 0 013.4 0zM5.174 5.175a1.7 1.7 0 012.403 0l8.205 8.204a1.7 1.7 0 11-2.403 2.403L5.175 7.58a1.7 1.7 0 010-2.403zM13.707 29c0 8.432 6.86 15.293 15.293 15.293 8.432 0 15.293-6.86 15.293-15.293S37.433 13.707 29 13.707 13.707 20.567 13.707 29zM29 17.105c6.559 0 11.895 5.336 11.895 11.895 0 6.559-5.336 11.895-11.895 11.895-6.559 0-11.895-5.336-11.895-11.895 0-6.559 5.336-11.895 11.895-11.895zm13.217 25.112a1.7 1.7 0 000 2.403l8.205 8.204a1.7 1.7 0 102.403-2.403l-8.205-8.204a1.7 1.7 0 00-2.403 0zM5.175 52.824a1.7 1.7 0 002.403 0l8.205-8.204a1.7 1.7 0 10-2.403-2.403L5.175 50.42a1.7 1.7 0 000 2.403zM50.422 5.176a1.7 1.7 0 012.403 2.403l-8.205 8.204a1.7 1.7 0 11-2.403-2.403l8.205-8.204zm-14.27 41.093a1.7 1.7 0 00-.919 2.22l1.3 3.14a1.7 1.7 0 003.14-1.301l-1.3-3.14a1.7 1.7 0 00-2.22-.92zM21.467 6.37l1.3 3.14a1.7 1.7 0 01-3.14 1.3l-1.3-3.139a1.7 1.7 0 113.14-1.3zM9.51 35.233l-3.14 1.3a1.7 1.7 0 101.301 3.14l3.14-1.3a1.7 1.7 0 00-1.3-3.14zM51.63 21.466l-3.14 1.3a1.7 1.7 0 01-1.3-3.139l3.14-1.3a1.7 1.7 0 011.3 3.14zM19.627 47.188l-1.3 3.14a1.7 1.7 0 103.139 1.3l1.3-3.14a1.7 1.7 0 00-3.14-1.3zM39.674 7.672l-1.3 3.14a1.7 1.7 0 01-3.14-1.3l1.3-3.14a1.7 1.7 0 013.14 1.3zM10.812 19.627l-3.14-1.3a1.7 1.7 0 00-1.3 3.14l3.14 1.3a1.7 1.7 0 001.3-3.14zM48.49 35.233l3.14 1.3a1.7 1.7 0 11-1.301 3.14l-3.14-1.3a1.7 1.7 0 011.3-3.14zM27.3 49.391v6.91a1.7 1.7 0 003.4 0v-6.91a1.7 1.7 0 00-3.4 0zM0 29c0 .938.76 1.7 1.7 1.7h6.91a1.7 1.7 0 000-3.4H1.7A1.7 1.7 0 000 29zm49.39-1.7h6.91a1.7 1.7 0 010 3.4h-6.91a1.7 1.7 0 010-3.4z" fill="url(#paint0_linear)"/><path d="M7.578 5.176l-.282.282.282-.282zm-2.403 0l.283.282-.283-.282zm10.608 8.204l-.283.283.283-.283zm0 2.403L15.5 15.5l.283.283zm-2.403 0l.283-.283-.283.283zM5.175 7.58l-.282.283.282-.283zm37.042 37.04l.283-.282-.283.283zm0-2.402l.283.283-.283-.283zm8.205 10.607l.283-.282-.283.282zm2.403 0l-.283-.282.283.282zm0-2.403l.283-.282-.283.282zm-8.205-8.204l-.282.283.282-.283zM7.578 52.824l-.282-.282.282.282zm-2.403 0l.283-.282-.283.282zm10.608-8.204l-.283-.283.283.283zm0-2.403l-.283.283.283-.283zm-2.403 0l.283.283-.283-.283zM5.175 50.42l-.282-.282.282.282zm47.65-45.245l-.283.282.283-.282zm-2.403 0l.283.282-.283-.282zm2.403 2.403l.283.283-.283-.283zm-8.205 8.204l-.282-.283.282.283zm-2.403 0l.283-.283-.283.283zm0-2.403l.283.283-.283-.283zM35.233 48.49l-.37.153.37-.153zm.92-2.22l-.153-.37.153.37zm.38 5.36l-.369.153.37-.153zm2.221.92l-.153-.37.153.37zm.92-2.221l.37-.153-.37.153zm-1.3-3.14l.369-.153-.37.153zM22.765 9.511l.37-.153-.37.153zm-1.3-3.14l.37-.153-.37.154zm.38 5.36l-.152-.37.153.37zm-2.22-.92l-.369.154.37-.153zm-1.3-3.139l-.37.153.37-.153zm.92-2.22l-.153-.37.153.37zM6.372 36.534l.153.37-.153-.37zm3.14-1.3l-.154-.37.153.37zm-4.06 3.52l-.37.153.37-.153zm2.22.92l-.153-.37.153.37zm3.14-1.301l-.153-.37.153.37zm.92-2.22l.37-.153-.37.153zM48.49 22.767l.153.37-.153-.37zm3.14-1.3l-.154-.37.153.37zm-5.36.38L45.9 22l.37-.153zm.919-2.22l.153.37-.153-.37zm3.14-1.3l-.153-.37.153.37zm2.22.92l-.37.152.37-.153zm-34.223 31.08l-.37-.152.37.153zm1.3-3.139l.37.153-.37-.153zm-.38 5.36l-.153.37.153-.37zm2.22-.92l.37.154-.37-.153zm1.3-3.14l.37.154-.37-.153zm-.92-2.22L22 45.9l-.153.37zm16.527-35.456l-.37-.153.37.153zm1.3-3.14l.37.153-.37-.153zm-3.52 4.06L36 12.1l.153-.37zm-.92-2.22l-.37-.154.37.153zm1.3-3.14l-.369-.154.37.154zm2.221-.92l.153-.37-.153.37zM7.672 18.327l.153-.37-.153.37zm3.14 1.3l-.153.37.153-.37zm-5.36-.38l-.37-.154.37.153zm.92 2.22l-.153.369.153-.37zm3.14 1.3l-.154.37.153-.37zm2.22-.92l.37.153-.37-.153zm39.897 14.687l-.153.37.153-.37zm-3.14-1.3l.154-.37-.153.37zm4.06 3.52l.37.153-.37-.153zm-2.22.92l-.153.37.153-.37zm-3.14-1.3l-.153.369.153-.37zm-.92-2.221L45.9 36l.37.153zM31.1 8.609V1.7h-.8v6.91h.8zM29 10.71a2.1 2.1 0 002.1-2.1h-.8a1.3 1.3 0 01-1.3 1.3v.8zm-2.1-2.1c0 1.16.94 2.1 2.1 2.1v-.8a1.3 1.3 0 01-1.3-1.3h-.8zm0-6.91v6.91h.8V1.7h-.8zM29-.4a2.1 2.1 0 00-2.1 2.1h.8A1.3 1.3 0 0129 .4v-.8zm2.1 2.1A2.1 2.1 0 0029-.4v.8a1.3 1.3 0 011.3 1.3h.8zM7.86 4.892a2.1 2.1 0 00-2.968 0l.565.565a1.3 1.3 0 011.838 0l.565-.565zm8.205 8.204L7.86 4.893l-.565.565 8.204 8.205.566-.566zm0 2.969a2.1 2.1 0 000-2.969l-.566.566a1.3 1.3 0 010 1.837l.566.566zm-2.969 0c.82.82 2.149.82 2.969 0L15.5 15.5a1.299 1.299 0 01-1.837 0l-.566.566zM4.893 7.862l8.204 8.204.566-.566-8.205-8.204-.565.566zm0-2.97a2.1 2.1 0 000 2.97l.565-.566a1.3 1.3 0 010-1.838l-.565-.565zM29 43.894c-8.212 0-14.893-6.681-14.893-14.893h-.8c0 8.654 7.04 15.693 15.693 15.693v-.8zM43.893 29c0 8.212-6.681 14.893-14.893 14.893v.8c8.654 0 15.693-7.04 15.693-15.693h-.8zM29 14.107c8.212 0 14.893 6.681 14.893 14.893h.8c0-8.654-7.04-15.693-15.693-15.693v.8zM14.107 29c0-8.212 6.681-14.893 14.893-14.893v-.8c-8.654 0-15.693 7.04-15.693 15.693h.8zm27.188 0c0-6.78-5.515-12.294-12.295-12.294v.8c6.338 0 11.495 5.156 11.495 11.494h.8zM29 41.294c6.78 0 12.294-5.514 12.294-12.294h-.8c0 6.338-5.156 11.495-11.494 11.495v.8zM16.706 29c0 6.78 5.514 12.294 12.294 12.294v-.8c-6.338 0-11.494-5.156-11.494-11.494h-.8zM29 16.706c-6.78 0-12.294 5.514-12.294 12.294h.8c0-6.338 5.156-11.494 11.494-11.494v-.8zm13.5 27.631a1.3 1.3 0 010-1.837l-.565-.566a2.1 2.1 0 000 2.969l.565-.566zm8.205 8.204L42.5 44.337l-.565.566 8.204 8.204.566-.566zm1.837 0a1.3 1.3 0 01-1.837 0l-.566.566c.82.82 2.149.82 2.969 0l-.566-.565zm0-1.837a1.3 1.3 0 010 1.837l.566.566a2.1 2.1 0 000-2.968l-.566.565zM44.338 42.5l8.204 8.204.566-.566-8.205-8.204-.565.566zm-1.838 0a1.299 1.299 0 011.838 0l.565-.566a2.099 2.099 0 00-2.968 0l.565.566zM7.296 52.542a1.299 1.299 0 01-1.838 0l-.565.565c.82.82 2.149.82 2.968 0l-.565-.565zm8.204-8.205l-8.204 8.205.565.565 8.205-8.204-.566-.566zm0-1.837a1.3 1.3 0 010 1.837l.566.566a2.1 2.1 0 000-2.969l-.566.566zm-1.837 0a1.3 1.3 0 011.837 0l.566-.566a2.1 2.1 0 00-2.969 0l.566.566zm-8.205 8.204l8.205-8.204-.566-.566-8.204 8.205.565.565zm0 1.838a1.3 1.3 0 010-1.838l-.565-.566a2.1 2.1 0 000 2.97l.565-.566zm47.65-47.65a2.1 2.1 0 00-2.969 0l.566.566a1.3 1.3 0 011.837 0l.566-.565zm0 2.97a2.1 2.1 0 000-2.97l-.566.566a1.3 1.3 0 010 1.838l.566.566zm-8.205 8.204l8.205-8.204-.566-.566-8.204 8.204.565.566zm-2.968 0c.82.82 2.148.82 2.968 0l-.565-.566a1.299 1.299 0 01-1.838 0l-.565.566zm0-2.969a2.1 2.1 0 000 2.969l.565-.566a1.3 1.3 0 010-1.837l-.565-.566zm8.204-8.204l-8.204 8.204.565.566 8.205-8.205-.566-.565zM35.603 48.336a1.3 1.3 0 01.703-1.698L36 45.9a2.1 2.1 0 00-1.136 2.743l.739-.306zm1.3 3.14l-1.3-3.14-.74.306 1.301 3.14.74-.307zm1.698.703a1.3 1.3 0 01-1.698-.704l-.739.307a2.1 2.1 0 002.743 1.136l-.306-.74zm.703-1.698a1.3 1.3 0 01-.703 1.697l.306.74a2.1 2.1 0 001.136-2.743l-.739.306zm-1.3-3.14l1.3 3.14.74-.306-1.301-3.14-.74.306zm-1.698-.703a1.3 1.3 0 011.698.703l.739-.306A2.1 2.1 0 0036 45.9l.306.74zm-13.17-37.28l-1.3-3.14-.74.307 1.3 3.14.74-.307zM22 12.101a2.1 2.1 0 001.136-2.743l-.74.306a1.3 1.3 0 01-.702 1.698L22 12.1zm-2.743-1.136A2.1 2.1 0 0022 12.1l-.306-.74a1.3 1.3 0 01-1.698-.702l-.739.306zm-1.3-3.14l1.3 3.14.74-.306-1.301-3.14-.74.306zm1.136-2.743a2.1 2.1 0 00-1.137 2.743l.74-.306a1.3 1.3 0 01.703-1.698l-.306-.739zm2.742 1.136a2.1 2.1 0 00-2.742-1.136l.306.74a1.3 1.3 0 011.697.703l.74-.307zM6.525 36.903l3.14-1.3-.307-.74-3.14 1.301.307.74zm-.703 1.698a1.3 1.3 0 01.703-1.698l-.306-.739a2.1 2.1 0 00-1.137 2.743l.74-.306zm1.697.703a1.3 1.3 0 01-1.697-.703l-.74.306a2.1 2.1 0 002.743 1.136l-.306-.74zm3.14-1.3l-3.14 1.3.306.739 3.14-1.3-.306-.74zm.703-1.698a1.3 1.3 0 01-.703 1.698l.306.739A2.1 2.1 0 0012.101 36l-.739.306zm-1.698-.703a1.3 1.3 0 011.698.703l.74-.306a2.1 2.1 0 00-2.744-1.136l.306.739zm38.979-12.467l3.14-1.3-.307-.74-3.14 1.301.307.74zM45.9 22a2.1 2.1 0 002.743 1.136l-.306-.739a1.3 1.3 0 01-1.698-.703l-.74.306zm1.136-2.743A2.1 2.1 0 0045.9 22l.739-.306a1.3 1.3 0 01.703-1.697l-.306-.74zm3.14-1.3l-3.14 1.3.306.74 3.14-1.3-.306-.74zm2.742 1.136a2.1 2.1 0 00-2.742-1.136l.306.74a1.3 1.3 0 011.697.702l.74-.306zm-1.136 2.743a2.1 2.1 0 001.137-2.743l-.74.306a1.3 1.3 0 01-.703 1.698l.306.739zM18.696 50.48l1.3-3.14-.739-.306-1.3 3.14.739.306zm.703 1.698a1.3 1.3 0 01-.703-1.698l-.74-.306a2.1 2.1 0 001.137 2.743l.306-.74zm1.697-.704a1.3 1.3 0 01-1.697.703l-.306.74a2.1 2.1 0 002.742-1.136l-.739-.307zm1.3-3.14l-1.3 3.14.74.307 1.3-3.14-.74-.306zm-.702-1.697a1.3 1.3 0 01.703 1.698l.739.306A2.1 2.1 0 0022 45.899l-.306.74zm-1.698.703a1.3 1.3 0 011.698-.703L22 45.9a2.1 2.1 0 00-2.743 1.136l.74.306zm18.747-36.376l1.3-3.14-.739-.306-1.3 3.14.739.306zM36 12.1a2.1 2.1 0 002.743-1.136l-.74-.306a1.3 1.3 0 01-1.697.703L36 12.1zm-1.136-2.743A2.1 2.1 0 0036 12.101l.306-.74a1.3 1.3 0 01-.703-1.697l-.74-.306zm1.3-3.14l-1.3 3.14.739.306 1.3-3.14-.739-.306zm2.743-1.136a2.1 2.1 0 00-2.743 1.136l.74.307A1.3 1.3 0 0138.6 5.82l.306-.739zm1.136 2.743a2.1 2.1 0 00-1.136-2.743l-.306.74a1.3 1.3 0 01.703 1.697l.74.306zM7.52 18.696l3.14 1.3.306-.739-3.14-1.3-.306.74zm-1.697.703a1.3 1.3 0 011.697-.703l.306-.74a2.1 2.1 0 00-2.742 1.137l.739.306zm.703 1.698a1.3 1.3 0 01-.703-1.698l-.74-.306a2.1 2.1 0 001.137 2.743l.306-.74zm3.14 1.3l-3.14-1.3-.306.739 3.14 1.3.305-.739zm1.697-.703a1.3 1.3 0 01-1.698.703l-.306.74A2.1 2.1 0 0012.101 22l-.739-.306zm-.703-1.697a1.3 1.3 0 01.703 1.697l.74.306a2.1 2.1 0 00-1.137-2.743l-.306.74zm41.123 16.167l-3.14-1.3-.305.739 3.14 1.3.305-.739zm1.137 2.743a2.1 2.1 0 00-1.137-2.743l-.306.74a1.3 1.3 0 01.703 1.697l.74.306zm-2.743 1.136a2.1 2.1 0 002.742-1.136l-.739-.306a1.3 1.3 0 01-1.697.703l-.306.74zm-3.14-1.3l3.14 1.3.306-.739-3.14-1.3-.306.739zM45.9 36a2.1 2.1 0 001.136 2.743l.306-.74a1.3 1.3 0 01-.703-1.697l-.74-.306zm2.743-1.136A2.1 2.1 0 0045.9 36l.739.306a1.3 1.3 0 011.698-.703l.306-.74zM27.7 56.3v-6.91h-.8v6.91h.8zM29 57.6a1.3 1.3 0 01-1.3-1.3h-.8c0 1.16.94 2.1 2.1 2.1v-.8zm1.3-1.3a1.3 1.3 0 01-1.3 1.3v.8a2.1 2.1 0 002.1-2.1h-.8zm0-6.91v6.91h.8v-6.91h-.8zM29 48.092a1.3 1.3 0 011.3 1.3h.8a2.1 2.1 0 00-2.1-2.1v.8zm-1.3 1.3a1.3 1.3 0 011.3-1.3v-.8a2.1 2.1 0 00-2.1 2.1h.8zm-26-19.092A1.3 1.3 0 01.4 29h-.8c0 1.16.94 2.1 2.1 2.1v-.8zm6.91 0H1.7v.8h6.91v-.8zM9.908 29a1.3 1.3 0 01-1.3 1.3v.8a2.1 2.1 0 002.1-2.1h-.8zm-1.3-1.3a1.3 1.3 0 011.3 1.3h.8a2.1 2.1 0 00-2.1-2.1v.8zm-6.91 0h6.91v-.8H1.7v.8zM.4 29a1.3 1.3 0 011.3-1.3v-.8A2.1 2.1 0 00-.4 29h.8zm55.9-2.1h-6.91v.8h6.91v-.8zm2.1 2.1a2.1 2.1 0 00-2.1-2.1v.8a1.3 1.3 0 011.3 1.3h.8zm-2.1 2.1a2.1 2.1 0 002.1-2.1h-.8a1.3 1.3 0 01-1.3 1.3v.8zm-6.91 0h6.91v-.8h-6.91v.8zM47.292 29c0 1.16.94 2.1 2.1 2.1v-.8a1.3 1.3 0 01-1.3-1.3h-.8zm2.1-2.1a2.1 2.1 0 00-2.1 2.1h.8a1.3 1.3 0 011.3-1.3v-.8z" fill="#fff" mask="url(#a)"/><defs><linearGradient id="paint0_linear" x1="0" y1="29" x2="58" y2="29" gradientUnits="userSpaceOnUse"><stop stop-color="#E86AAD"/><stop offset="1" stop-color="#5CBAFE"/></linearGradient></defs></svg>