<svg width="239" height="205" fill="none" xmlns="http://www.w3.org/2000/svg"><path d="M99.258 49.529c-.011-.232.147-.337.323-.428.634.397 1.316.492 2.039.32 1.063.725 1.531 1.91 2.252 2.9.173.324.276.36.954.31-.25 1.469-.23 2.966-.549 4.385-.119.528-.238.954-.124 1.488.077.36-.278.533-.573.67-.23.109-.472.287-.418.522.078.335.404.062.554.118.3.113.693.174.888.609-.605.188-1.171-.082-1.701-.144-1.382-.161-2.499.607-3.756.843-.606.152-1.198.314-1.842.116-.392-.121-.738.024-1.063.358-.377.387-.932.526-1.435.245-.46-.257-.33-.467.154-.507.7-1.31.7-1.31-.322-1.715-.576-.708-1.497-1.108-1.822-2.04.695-.905.658-1.036-.562-1.755.627-.241 1.299-.483.563-1.251.585-.406.073-1.206.555-1.617.507-.432-.571-.582-.13-.96.674-.294 1.308-.648 1.829-1.178.968.178.385-.678.634-.98.322-.01.54.32.868.23.37 1.239 1.838 1.217 2.489 2.157.18.262.555.093.719-.128.332-.447.016-.741-.352-.938-.875-.47-.895-1.003-.172-1.63z" fill="#FAE6EB"/><path d="M39.25 133.981c1.506.375 3.145 1.942 3.156 3.152.01 1.171-.105 2.345-.206 3.514-.018.208-.228.408-.37.596-.354.468-.826.88-1.06 1.401-.49 1.092-1.496 1.394-2.454 1.595-.91.191-1.94.227-2.826-.011-.81-.218-1.641-.659-2.342-1.131-.916-.617-1.703-1.48-1.787-2.735-.013-.197-.317-.357-.01-.586.295-.219.089-.53.052-.78-.243-1.635-.442-1.425.679-3.099.066-.099.125-.202.188-.303.367-.27.435-.788.846-1.021.788.096 1.443.291 1.52 1.292.029.365.459.627.839 1.001.546-1.403 1.84-1.12 2.83-1.06.788.048.787-.149.765-.697-.017-.387-.16-.797.18-1.128z" fill="#FBE9ED"/><path d="M132.52 109.104c.7.567 1.469.982 2.341 1.251.567.175 1.194.39 1.295 1.163.038.29.342.413.55.59.327.149.589-.239.917-.105.359.146.55.354.246.711-.909 1.068-.914 1.562-.004 2.718a.574.574 0 01.124.328c-.257.105-.509.281-.772.301-.676.051-.964.317-.724 1.004.137.394.025.53-.393.382-.322-.114-.377.174-.506.368-.411.621-1.318.695-1.62 1.452-.044.109-.258.14-.303.04-.348-.77-.949.092-1.387-.234-.453-.337-1.114.06-1.568-.37-.659.649-1.11.209-1.511-.315-.183-.239-1.33-1.754-1.532-1.916-.491-.395-.516-1.856-.059-2.425.049-.062-.017-.217-.03-.329-.815-.624-.754-1.197.069-1.775.514-.361 1.107-.681.866-1.528-.063-.22.271-.504.551-.55 1.162-.194 2.159-1.152 3.45-.761z" fill="#FAE6EB"/><path d="M210.546 99.353c-.51-.829-.596-1.761-.596-2.694 0-.687.161-1.336.838-1.731.197-.115.349-.318.498-.5 1.179-1.45 2.77-1.759 4.457-1.385 1.339.297 2.431 1.072 2.852 2.521.132.453.402.852.553 1.312.418 1.276.026 2.239-.965 3.057-.204.168-.304.459-.46.689-.691 1.017-2.255 1.55-3.527 1.204.361-1.591-.076-2.718-1.777-3.171-.486-.13-.559-.753-.889-.969-.613.726-.367 1.618-.503 2.446-.159.186-.376.419-.59.212-.336-.327.051-.659.109-.991zM.397 115.839c.09-.481.949-.474.714-1.223-.094-.299-.137-.276-.394-.349-.618-.175-.693-.607-.33-1.133.543-.786 1.379-1.319 1.842-2.176.08-.148.333-.287.506-.286.89.001 1.839-.707 2.665.194a.626.626 0 00.3.188c.648.144.773.425.71 1.119-.051.558-.521 1.239.29 1.663-.481.791.392 1.285.436 1.995.139 2.218-1.757 3.923-3.91 3.384-.527-.132-1.011.07-1.602.13.062-.704.135-1.427-.795-1.574l-.108-.213c.134-.619-.406-1.11-.324-1.719z" fill="#FBE9ED"/><path d="M132.52 109.104c-.101.122-.186.262-.305.364-.4.344-.92-.6-1.208.032-.301.659-.837.249-1.226.432a1.703 1.703 0 01-.571.134.603.603 0 00-.564.528c-.033.379.482.087.658.46-.622.089-.8.728-1.317.987-.783.392-.969.951-.406 1.679-.304-.029-.56-.183-.91-.144-1.387.153-2.597-.53-3.308-1.53-.805-1.131-1.189-2.583-1.091-4.044.04-.593.6-.899 1.016-1.259.572.248 1.142.23 1.727.024.712-.252 1.431-.487 2.204-.25.4.123.629-.16.933-.356.672-.431 1.412-.74 2.219-.274.34.853.665 1.704 1.406 2.327.291.241.619.491.743.89z" fill="#FBECEF"/><path d="M147.016 69.396c-.06.339-.22.599-.59.64-.677.075-1.248.626-2.006.382-.958-.308-1.9-.36-2.814.241-.424.279-1.315-.416-1.571-1.087-.207-.543-.057-1.07.146-1.507.494-1.066.71-2.207 1.065-3.309.238-.74 1.012-.948 1.533-1.382-.11-.607-.674-.333-.972-.566-.317-.248-.398-.424-.143-.77.258-.35.545-.386.937-.305.363.075.692.07.687.601-.003.293.183.588.284.882 1.688-.702 3.407.671 4.197 2.317-.045.188-.051.433-.331.397-.329-.043-.559-.636-1.001-.095-.51.625-1.067 1.235-1.235 2.025-.098.46.473.558.796.766.358.23 1.033.046 1.018.77z" fill="#FBEBEF"/><path d="M81.762 65.519c-.113-1.436.228-2.702 1.33-3.711.18-.164.323-.421.572-.298.434.216.79.403.992-.259.047-.153.345-.155.41-.04.512.889 1.749.672 2.277 1.516 1.153.473 1.254 1.691 1.823 2.577.037.18-.036.391.194.515.112.06.466.04.126.352a37.796 37.796 0 00-2.332 2.302c-.422.46-.945.647-1.47.542-.963-.193-.59.377-.514.789-.973.273-.788-.777-1.262-1.062-.586-.413-.741-1.396-1.715-1.293-.246-.235-.71-.359-.436-.859.448-.354-.003-.714.005-1.071z" fill="#FAE4E9"/><path d="M45.44 141.086c.7-.251 1.467-.182 2.208-.291.115-.017.237-.022.252.146.02.234-.25.62.25.615.33-.003.363-.375.52-.593.208-.288.595-.322.599.035.009.876.717 1.189 1.199 1.633.587.54.729 1.096.677 1.859-.044.66-.418 1.206-.444 1.875-.015.387-.404.665-.921.816-1.883.549-3.63.417-5.314-.621-.353-.217-.268-.546-.391-.815-.168-.368.3-.978-.437-1.146-.034-.008-.082-.164-.054-.206.64-.974.429-2.368 1.526-3.115.098-.067.205-.121.33-.192z" fill="#FBEBEF"/><path d="M188.666 147.185c.036-.138.029-.29.101-.356.455-.422.622-.827.345-1.483-.251-.594-.077-1.176.552-1.63.681-.492 1.174-1.146 2.034-1.512 1.188-.506 2.185-.213 3.03.377.927.647 1.039 1.84.974 2.921-.032.542-.063.903.54 1.104.292.098.545.347.354.75-.146.308-.134.728-.646.73-.349.001-.705.193-1.036-.068-.275-.217-.539-.095-.772.061-.406.271-.749.762-1.319.303-1.03.684-1.765.106-2.5-.562-.454-.414-1.133-.32-1.657-.635z" fill="#FBE8EC"/><path d="M200.236 152.801c-.617.408-.883-.327-1.342-.412-1.555-.287-1.788-1.538-1.939-2.759-.113-.909-.379-1.921.71-2.574.666-.4 1.366-.778 1.9-1.375.104-.116.267-.196.432-.107.842.454 1.789.307 2.68.478.159.031.372.068.381.233.016.326-.229.146-.393.183-.376.085-.387.35-.082.553.625.417.637 1.124.868 1.727.371.972-.401 1.643-.665 2.448-.048.147-.126.283-.19.425-.711.545-1.264 1.405-2.36 1.18z" fill="#FBE9ED"/><path d="M48.993 97.326c-.107-.347-.027-.883-.66-.865-.078.002-.246-.173-.231-.227.232-.834-.411-1.502-.412-2.282 0-.198.033-.386-.035-.585-.3-.875.105-1.571.985-2.072.48-.273.946-.583 1.446-.821 1.305-.622 2.214-.352 3.003.87 1.156 1.788 1.12 2.65-.198 4.458-.122.168-.254.338-.2.538.113.41.048.52-.344.268-.086-.055-.27-.12-.271.069-.001.223.516.45.064.658-.29.133-.427-.295-.663-.41-.566-.277-.401.694-.998.584-.361-.066-.337-.921-.901-.388-.14.133-.316.249-.585.205z" fill="#FAE6EB"/><path d="M130.372 105.884c-.513.013-1.033.229-1.509.185-.708-.065-.552.897-1.169.809-.505-.072-1.052-.298-1.505-.175-.56.151-1.148.284-1.681.521-.62.277-.978.096-1.219-.483.355-.601 1.107-.736 1.504-1.287.662-.5 1.297-1.005 1.451-1.907.094-.548.486-.777 1.041-.776.509.001 1.019-.044 1.708.34-.323-.647-.548-1.084-.761-1.528-.118-.245-.068-.607.182-.559.933.179 1.713-.514 2.699-.307.798.168 1.373.298 1.647 1.134.175.532.89.845.666 1.552-.187.594.097 1.254-.767 1.742-.625.352-1.23.163-1.79.439-.18.088-.469-.051-.497.3z" fill="#FAE7EB"/><path d="M86.376 73.399c.088.443-.146.99.489 1.069 1.37.168 1.363 1.267 1.732 2.28.49 1.346-.316 1.949-.872 2.89-.525.89-1.212.996-1.864.796-.613-.19-.748.649-1.385.317-.528-.276-.548-1.013-.94-1.063-.966-.124-.774-.827-.92-1.395-.136-.535-.157-1.1-.207-1.631-.045-.487-.007-1.005.693-1.491 1.023-.711 2.323-.781 3.274-1.772zM121.314 78.45c.321.076.549.152.782.179.37.043.552.327.406.572-.354.592-.233 1.305-.572 1.889-.098.169-.167.37-.195.564-.102.712-.53 1.036-1.19 1.276-.423.153-.987.04-1.281.53-.03.05-.166.095-.212.07a10.918 10.918 0 00-2.031-.875c-.363-.115-.405-.647-.588-.995-.806-1.533.155-2.671.822-3.88.156-.281.371-.326.696-.294.884.087 1.818-.306 2.646.327.161.124.381.033.556-.09.192-.132.346-.593.632-.186.297.422-.25.477-.406.706-.02.026-.022.065-.065.208z" fill="#FEF9F5"/><path d="M144.111 112.969c1.245-.271 2.496-.782 3.657.271.49.445.422-.422.753-.398.29.242.233.521.071.758-.221.325-.112.578.051.878.611 1.129.508 1.874-.347 2.743-.362.368-.714.747-1.098 1.092-.619.556-1.817.625-2.522.096-.3-.226-1.117.154-.889-.715-.214-.697-.921-1.148-.961-1.931h-.001c.106-.387-.314-.869.213-1.18a.325.325 0 00.107-.322c.227-.503.103-1.267.966-1.292z" fill="#FAE4E9"/><path d="M223.529 130.699c-.143.371-1.217.388-.424 1.154.087.084-.219.624-.605.525-.482-.123-.84.101-1.251.248-.934.334-2.356-.41-2.651-1.363-.077-.249.016-.529-.471-.467-.26.033-.078-.272.065-.389.957-.785 1.447-1.848 1.883-2.975.45-1.161 1.2-1.437 2.742-1.179.917.154 2.082 1.11 2.017 1.823-.046.504-.408.978-.044 1.497.005.007-.042.067-.071.074-.035.009-.077-.012-.116-.02-.556.159-.486.944-1.074 1.072z" fill="#FBE7EB"/><path d="M125.853 53.956c.563.682.758 1.273.358 1.94-.286.48.129.59.433.769.628.369.889.858.573 1.599-.208.486-.324.886-1.01.974-.725.093-1.312-.131-1.471-.692-.408-1.44-1.796-1.997-2.54-3.105-.389-.58-.729-1.314-.589-1.95.18-.821.571-1.692 1.564-1.944.627-.16 1.16.153 1.677.44.163.09.308.393.472.287.799-.516 1.059.142 1.493.57.232.229.521.303.352.724-.168.417-.445.368-.776.295-.101-.021-.22.035-.536.093z" fill="#FDF6F4"/><path d="M156.863 49.558c-.014-.11-.31-.291-.513-.52-.932-1.053-.779-2.692.353-3.534 1.528-1.137 2.754-1.139 3.904-.009 1.078 1.059.96 3.177-.255 4.059-.44.319-.898.494-1.071 1.16-.14.54-.865.499-1.323.278-.485-.235-.999-.542-1.095-1.434z" fill="#FEF9F6"/><path d="M35.714 89.336c-.673-.967-.171-1.958.183-2.777.534-1.235 1.545-2.092 3.052-2.063.149.003.364-.118.442.009.39.638.968.313 1.573.248-.112.953-.176 1.796.064 2.696.315 1.177-1.074 2.662-2.32 2.754-.702.05-1.391.212-2.08-.185-.29-.167-.702-.026-1.021.174-1.116-.43.185-.556.107-.856z" fill="#FBE9ED"/><path d="M212.535 90.845c-1.146.684-2.355.545-3.189-.317-.055-.057-.174-.143-.165-.16.489-.841-.173-.685-.625-.75-.155-.021-.279-.203-.181-.37.315-.535-.045-1.095.085-1.638.1-.42-.057-1.044.333-1.217.627-.28 1.027-.854 1.654-1.081a.855.855 0 01.588.016c1.404.633 2.681 1.408 3.136 3.03.123.438-.485 1.852-.957 2.143-.236.146-.497.254-.679.344z" fill="#FBECEF"/><path d="M155.716 105.601c-.144.187-.361.325-.677.204-.966-.369-2.289-.241-2.361-1.814-.025-.552-.411-.391-.791-.287-1.521.415-2.401-.381-2.187-1.937.082-.592 1.048-1.465 1.581-1.294.604.194 1.365.056 1.777.77.184.319.537.265.856.118 1.192-.546 2.017.056 2.742.908.68.798.208 1.669.092 2.5-.07.503-.65.529-1.032.832z" fill="#FCF0F3"/><path d="M182.917 119.603c-.277.393-.566.367-.9.078-.293-.254-.69-.131-1.034-.22-1.685-.438-2.281-1.7-1.46-3.243.474-.89 1.048-1.727 2.248-1.627.362.03.51-.316.85-.361.351-.046.729-.423.603.329a.73.73 0 00.023.222c.654-.06.847.661 1.198.798.788.309.429.998.362 1.159-.392.952-.932 1.844-1.449 2.74-.056.096-.293.087-.441.125z" fill="#FAE7EB"/><path d="M93.198 174.248c-.221-.004-.486.103-.44.296.255 1.058-.723 1.233-1.24 1.61-.664.487-1.601.379-2.392.349-.604-.023-1.155-.656-1.312-1.253-.243-.926-.35-1.915.434-2.73.885-.919 1.583-1.122 2.619-.412.545.374 1.479.27 1.634 1.212.035.213.335.113.529.09.3-.035.584.038.666.361.1.402-.212.443-.498.477z" fill="#FCF0F2"/><path d="M62.567 196.558c-.243.553.413.456.519.809.317 1.055-.5 2.352-1.62 2.453-.687.062-1.325.387-2.071.033-1.478-.701-1.83-2.671-.821-3.959.593-.757.954-.938 1.807-.442.386.224 1.02-.011 1.496.362.289.225.508.471.69.744z" fill="#FCF1F3"/><path d="M55.037 65.727c-.461 1.02-1.443 1.209-2.365 1.319-.896.107-1.528-.424-1.91-1.265-.385-.852-.273-1.601.267-2.345.346-.477 1.078-.661 1.022-1.487-.014-.203.64-.634.957-.182.496.707.85.277 1.34-.106.015.74.13 1.315.768 1.774.502.362.345 1.07.136 1.648-.044.225-.047.462-.215.644z" fill="#FBECEF"/><path d="M118.749 166.371c.646 1.207-.113 3.321-1.379 3.838-.515.211-2.236-.504-2.607-1.083-1.03-1.604-.935-2.053.666-3.201.343-.246.568-.764 1.063-.662.617.127 1.212.37 1.812.575.246.084.337.321.445.533z" fill="#FCF2F4"/><path d="M25.314 81.06c.253 1.347-.497 2.066-1.447 2.662-.171.107-.344.203-.373.428-.028.216-.14.42-.353.413-.435-.015-.097-.37-.186-.51-.228-.352-.442-.758-.715-1.03-.912-.91-.762-2.024-.706-3.09.064-1.227.883-1.627 2.035-1.237.46.156.827.413 1.234.633.284.153.45.3.35.643-.124.43.015.603.478.485.244-.062.537-.012.589.255.056.29.295.689.029.89-.49.373-.526-.33-.935-.542z" fill="#FBEBEE"/><path d="M60.308 110.918c-.25.442-.49.142-.79.061-.877-.237-1.526-.932-2.463-1.078-.717-.111-.414-.73-.136-.997.386-.37.586-.733.754-1.256.49-1.53 2.95-1.932 3.959-.735.756.896.159 1.815-.105 2.585-.163.474-.425 1.302-1.22 1.42z" fill="#FBEAEE"/><path d="M112.456 65.74c-.371.409-.585.985-1.335.938-.229-.015-.134.706-.659.675-.074-.005-.144.19-.242.242-.179.092-3.083-.722-3.169-.908-.24-.52-.579-.938-1.061-1.248-.243-.157-.241-.445-.159-.645.203-.494.458-.926.385-1.532-.026-.214.787-.382.769-.956.553.326.965.878 1.775.743.458-.076.664.405.474.855-.193.458-.318.9-.109 1.32.043-.34-.311-.956.181-1.106.552-.17 1.204-.47 1.809-.005.573.439.975 1.016 1.341 1.627z" fill="#FCECEE"/><path d="M99.932 96.022c-.996-.075-1.343.45-1.732 1.017-.647.941-1.478 1.056-2.386.361-.465-.355-.596-.034-.862.352-.132-.618-.111-1.156-.454-1.669-.594-.89.108-2.29 1.162-2.369.587-.044.535-.549.576-.724.184-.789.509-.693 1.089-.408.575.283.823.733.943 1.288.23 1.071.613 1.643 1.664 2.152z" fill="#FCEFF2"/><path d="M183.868 128.504c-.034-.269.132-1.64.272-1.846 1.231-1.811 2.598-1.909 4.107-.29.134.144.212.375.372.457.945.482.151 1.453.059 1.488-.665.249-1.008.927-1.726 1.122-.611.166-1.169.204-1.753.059-.583-.146-.944-.591-1.331-.99z" fill="#FBE9ED"/><path d="M110.515 49.26c1.231-.501 2.358-.386 2.973.302 1.166 1.307.707 3.007-.959 3.557a1.64 1.64 0 00-.856.608c-.197.274-.357.626-.842.472-.486-.154-.82-.524-.782-.938.057-.633-.157-1.145-.34-1.708-.225-.687.326-2.098.806-2.293z" fill="#FEF8F4"/><path d="M130.6 52.65c-.292-.185-.553-.032-.77.123-1.173.831-2.145.122-3.036-.483-.796-.54-.356-3.15.52-3.563 1.166-.55 2.814.113 3.341 1.368.239.569.354 1.208 1.015 1.481.103.04.183.105.239.201.085 1.072-.728.798-1.309.873z" fill="#FEF9F6"/><path d="M22.9 86.506c-.598.4-.984 1.04-1.44 1.62-.707.9-1.974.91-2.698.04-1.027-1.235-1.057-2.174-.226-3.611.222-.384.414.057.566-.091 1.069-1.041 2.182-.367 3.416-.034-.935.432-.331 1.152-.387 1.75-.062.665.597-.197.77.326z" fill="#FBE9ED"/><path d="M39.25 133.981c.037.392.018.799.124 1.172.166.585-.027.993-.456 1.33-.211.064-.288-.082-.394-.198-.232-.255-.24-.258-.79-.02-.181.078-.281-.061-.42-.096-.851-.216-1.23.036-1.402.926-.03.156-.03.327-.207.376-.17.047-.39-.065-.4-.181-.066-.805-1.554-.92-.971-2.021-.441-.136-.858-.319-1.202-.639.288-.5 1.066-.72.858-1.503.458-.733 1.35-.558 1.816-.428 1.115.311 2.413.159 3.333 1.075.038.068.074.137.11.207z" fill="#FAE4E9"/><path d="M89.93 128.858c-.522.865-.893 1.501-1.287 2.122-.5.786-.742.828-1.69.5-.368-.127-.752-.2-1.125-.345-1.014-.395-1.324-.678-1.314-1.677.007-.701.387-1.32.72-1.927.093-.17.263-.172.394-.048.31.295.593.046.875-.035.762-.22 1.36-.073 1.89.575.34.413.71.877 1.538.835zM18.333 135.544c.188-.547-.61-1.032-.192-1.64.559-.815 1.213-1.689 2.217-1.79.705-.071 1.326.635 1.625 1.291.183.401.347.855.486 1.298.237.756.112 1.342-.606 1.688-.5.241-.757.797-1.465.81-1.193.021-1.354-1.058-2.065-1.657z" fill="#FCEEF1"/><path d="M162.79 81.635c-.738.3-1.477.542-2.241.067-.064-.04-.16-.024-.229-.06-.405-.204-.987.4-1.262-.2-.402-.875-.869-1.791-.189-2.748.452-.637.912-1.23 1.858-1.151.879.072 1.337.575 1.624 1.309.074.19.079.412.33.4.739-.032.585.596.753.986l.015.157c-.208.418-.839.613-.659 1.24z" fill="#FEF9F5"/><path d="M192.439 4.035c-.66.335-3.007-.32-2.977-.944.025-.524-.592-.84-.275-1.264.437-.585.896-1.192 1.47-1.626.726-.55 2.534.108 3.023.994.447.81-.212 2.318-1.241 2.84z" fill="#FAE6EB"/><path d="M102.087 201.666c-.506.444-.693.954-.843 1.481-.206.725-.757.998-1.436 1.003-.536.004-1.48-.99-1.52-1.515-.016-.207.022-.414.188-.541.754-.578.518-1.205.167-1.897-.383-.756-.242-1.012.553-1.276.224-.074.482-.117.657-.258.888-.712 1.232.188 1.648.604.445.443.038.839-.308 1.188-.243.245-.535.488-.349.921.251.582.704.082 1.243.29z" fill="#FCF3F5"/><path d="M70.454 122.946c-.787.417-2.01-.181-2.22-1.114-.12-.532-.108-1.075-.767-1.338-.32-.127-.244-.576-.16-.875.108-.38.497-.253.719-.207.6.123 1.114.058 1.52-.421.204-.239.376-.113.619-.066.984.191 1.425 1.106 2.198 1.57.229.137.057.336-.037.513-.32.604-1.307 1.638-1.872 1.938z" fill="#FBEDF0"/><path d="M91.91 151.99c.565.295.84.667.7 1.12-.225.734.16.826.712.849.596.025.855.222.625.9-.163.482.073 1.003.188 1.505.117.512.057.764-.69.795-.827.035-1.588-.035-2.4-.156-.94-.141-.95-.758-.968-1.363-.021-.674-.212-1.641.734-1.764 1.248-.161 1.09-.968 1.099-1.886z" fill="#FCF0F3"/><path d="M163.435 80.238c.376-.417.158-.994.418-1.465.554-1.004 1.6-1.65 2.371-1.371.939.34 1.684 1.579 1.45 2.61-.117.516-.078.997.011 1.504-.959.04-1.854.08-2.749.119-.356-.62-1.102-.822-1.502-1.395l.001-.002z" fill="#FEF9F5"/><path d="M112.456 65.74c-.14.052-.352.165-.389-.04-.126-.695-.828-.894-1.151-1.411-.113-.18-.302-.347-.466-.12-.354.489-.748.15-1.077.008-.284.52.034.88.125 1.234.099.384.01.513-.302.588-.351.085-.381-.154-.384-.415-.007-.581-.102-1.153.22-1.714.229-.398-.044-.858-.44-.65-1.12.588-1.256-.3-1.608-.915.218-.23.467-.438.646-.695.383-.55.866-.472 1.367-.255.535.23.955.716 1.616.674.212-.013.273.218.361.409.266.575.711.864 1.376.96 1.144.166 1.257.537.553 1.402-.221.273-.501.53-.447.94z" fill="#FAE4E9"/><path d="M89.072 71.022c-.446-.868-.155-2.386.774-2.726.51-.188.144-.858.5-.661.688.381 1.538.466 2.087 1.086.566.638.528 2.452-.06 2.991-.2.185-.467.363-.745.328a20.15 20.15 0 01-2.088-.36c-.285-.067-.326-.425-.468-.658z" fill="#FEF9F4"/><path d="M202.05 49.379c-.459.105-1.128.227-1.597-.341-.539-.654-1.046-1.376-.904-2.301.06-.391-.254-.455-.423-.646-.124-.141-.145-.278-.055-.426.1-.163.267-.185.409-.084.45.319.731.137 1.141-.173.508-.383 1.135.031 1.543.303.562.376 1.459.526 1.422 1.534-.036.989-.545 1.618-1.536 2.134z" fill="#FCEFF2"/><path d="M154.978 13.396c-.594-1.296-.155-2.302 1.196-2.785 1.882-.674 1.983-.615 2.386 1.389.158.789-.218 1.756-.91 2.152-.741.425-1.539.28-2.293.035-.315-.104-.165-.583-.379-.791z" fill="#FBE9ED"/><path d="M125.606 33.948c-.964.465-1.471.25-1.809-.755-.102-.303-.284-.55-.5-.796-.565-.642-.579-1.31-.113-2.058.501-.804 1.058-1.055 1.846-.833.634.179 1.203.948 1.245 1.727.009.162.04.276.118.422.47.889.126 1.852-.787 2.293z" fill="#FEF9F5"/><path d="M165.882 135.102c-.627.141-1.433-.02-2.001.598-.027.029-.156-.012-.223-.047-.465-.246-.14-.659-.147-.967-.01-.477-1.014.127-.607-.626.178-.328-.065-.643.058-1.013.318-.953.897-1.488 1.876-1.503a2.592 2.592 0 011.473.423c.381.256.827.52.709 1.223-.133.794-.317 1.465-1.138 1.912z" fill="#FBECF0"/><path d="M230.338 49.836c-.406-.763-.07-2.31.569-2.624.872-.428 2.432.292 3.029 1.398.3.557-.502 2.274-1.22 2.612-.874.412-1.668-.05-2.378-1.386z" fill="#FCF1F4"/><path d="M180.357 37.87c-.519-1.029-.135-2.277.838-2.718.743-.337 2.144.098 2.481.77.526 1.05.255 2.404-.565 2.824-1.022.523-2.244.134-2.754-.876z" fill="#FCF3F5"/><path d="M101.494 83.533c-.298.923-1.379.622-1.511.948-.407 1.005-1.123.222-1.597.421-.025.086-.058.136-.044.16.736 1.31.737 1.31 1.992.216.125.294.171.603-.091.75-1.001.562-1.987 1.194-3.22 1.109-.823-.057-.828-.771-.954-1.288-.128-.526.043-1.078.74-1.109.782-.034 1.16-.33 1.372-1.155.259-1.011.948-1.206 1.928-.765.464.209.906.465 1.385.713z" fill="#FCEFF1"/><path d="M165.242 168.107c.055-.06.117-.187.216-.229.604-.258 1.444-.408 1.773.024.405.531 1.219 1.045.973 1.868-.173.579-.526 1.111-1.253 1.323-1.603.466-1.977.373-2.637-.933-.472-.933-.266-1.516.682-1.931.072-.032.141-.07.246-.122z" fill="#FCF3F5"/><path d="M186.29 102.407c.108.427.243 1.084.57 1.682.109.2-.007.451-.223.454-1.009.017-1.946.568-2.984.374-.595-.112-.804-.655-1.049-1.044-.234-.37-.126-.951.226-1.33.636-.685 1.45-1.032 2.373-1.151.627-.082.815.353 1.087 1.015z" fill="#FBEBEF"/><path d="M190.221 140.638c-.098-.542-.554-1.036-.173-1.644.083-.133.026-.272-.032-.434-.289-.804-.272-.762.647-.794.39-.013.741-.368 1.172-.376 1.461-.028 2.115.852 1.424 2.134-.372.69-.617 1.626-1.651 1.813-.68.124-1.173.055-1.387-.699z" fill="#FBECEF"/><path d="M210.87 99.997c.083-.145.132-.308.03-.447-.336-.463-.37-.882.097-1.288.11-.096.155-.27.223-.412.116-.24-.817-.281-.134-.599.381-.177.845.161.894.406.152.758.929.756 1.28 1.234.23.313.555.339.838.144.556-.383.625-.112.556.373-.116.812-.022 1.665-.46 2.417-.233.15-.497.084-.748.106-.38.533-.769.381-1.162.017-.601-.555-1.106-1.181-1.414-1.951z" fill="#FAE4E9"/><path d="M125.38 75.768c.201-.05.369-.116.543-.233.515-.346 1.204-.583 1.7-.299.876.501 1.088 1.458.831 2.37-.212.752-.535 1.31-1.428 1.353-.374.02-.725.096-.93-.299-.3-.58-1.427-.558-1.14-1.58.028-.1-.258-.13-.399-.194-.516-.233-.444-.562.014-.7.318-.095.594-.184.809-.418z" fill="#FEF9F4"/><path d="M86.525 188.279c-.386-.084-.593-.568-1.204-.286-.568.263-1.59-1.108-1.502-1.82.067-.544.269-1.081.022-1.758.545.207.963.058 1.388.025 1.178-.092 1.797.764 2.393 1.521.125.158.299 1.007-.361 1.321-.447.213-.433.241-.736.997z" fill="#FCF1F4"/><path d="M171.212 60.79c1.11-.541 1.608-.27 1.994.905.246.748-.026 1.43-.16 2.088-.173.847-1.59 1.244-2.374.822-.532-.286-.962-.58-.481-1.264.181-.257.224-.566.172-.91-.168-1.101-.117-1.168.849-1.64z" fill="#FEF9F5"/><path d="M103.872 52.32c-.602-.11-.925-.687-1.107-1.072-.315-.668-.888-1.146-1.145-1.825.585-.313 1.247-.536 1.735-.96.677-.587 1.088-.251 1.628.16.504.383.599.986.944 1.448.223.298-.005.564-.236.82-.527.585-1.16 1.022-1.819 1.43z" fill="#FEF8F5"/><path d="M56.205 133.56c.197.571-.251 1.584-.85 2.039-.735.559-1.552.465-2.25.108-.737-.378-1.396-1.079-1.237-1.97.143-.801.4-1.601 1.413-2.003.88-.35 1.385-.058 1.96.431-.341.448-.933.572-1.213.912.508 1.157 1.329.896 2.177.483z" fill="#FCEEF1"/><path d="M71.596 73.497c-.117.579-.4.974.023 1.504.41.514.026 1.308-.3 1.759-.306.424-.737.74-.888 1.303-.055.203-.398.342-.551.02-.252-.528-.765-.745-1.173-1.085-.688-.575-.736-1.6-.066-2.188.237-.208.5-.378.727-.61.283-.29.555-.685 1.095-.303.377.266.669-.251 1.133-.4z" fill="#FBEDF0"/><path d="M180.852 75.363c.597 1.067.404 1.812-.651 2.393-.308.17-.846.534-.939.381-.363-.599-1.119-.725-1.434-1.326-.341-.65-.292-1.943.074-2.139 1.595-.855 2.159-.723 2.95.691z" fill="#FBEEF1"/><path d="M132.532 53.828c.337-.069.665.296.988-.098.165.647-.253.773-.58.978-.396.249-.593.545-.145.939.086.075.2.186.199.279-.004.401-.568.804.181 1.201.304.161.339.832.484 1.235-1.46 1.1-2.112-.128-2.896-1.009.023-.243.312-.126.441-.239.474-.415.419-.779-.176-1.002-.493-.185-.964-.388-1.254-.844-.19-.299-.404-.639.072-.902.864-.335 1.74-.612 2.686-.538z" fill="#FCF0F3"/><path d="M222.886 110.359c-.61.293-1.99-.02-2.249-.511-.354-.67.268-2.564.94-2.857.763-.333 2.167.024 2.429.617.365.829-.247 2.331-1.12 2.751z" fill="#FBEEF1"/><path d="M195.086 137.131l-.406-.812c.659.159 1.186-.001 1.647-.19.884-.362 1.362.088 1.795.685.372.513.224 1.756-.196 2.246-.337.394-.785.649-1.264.514-.671-.189-1.575.331-2.004-.62.124-.109.16-.424.11-.626-.111-.452.26-.785.318-1.197z" fill="#FBEAED"/><path d="M163.435 80.24c.627.329 1.617.267 1.502 1.395-.213.14-.357.262-.16.558.75 1.13.545 2.065-.537 2.892-.284.217-.481.179-.74.034-.702-.396-1.071-1.343-.746-2.145.189-.466.348-.882.038-1.339l-.49-.98c.478-.024.934.076 1.133-.415z" fill="#FCEEF1"/><path d="M143.885 135.62c-.581.398-1.454-.147-1.943.607-.059.09-.334-.005-.364-.183-.16-.94-.334-1.879-.427-2.826-.037-.379 1.52-1.032 1.854-.779.591.447 1.171.919 1.699 1.437.335.327-.218 1.447-.819 1.744z" fill="#FCF2F4"/><path d="M31.003 116.539c-.846.253-.747 1.084-1.233 1.532-.758.698-1.841.953-2.656.425-.17-.11-.176-.231-.176-.391.003-.963.487-1.874.277-2.872-.04-.192.238-.476.388-.568 1.06.722 1.946 1.629 3.4 1.874z" fill="#FBEDF0"/><path d="M147.016 69.396c-.753-.521-1.83-.461-2.34-1.391.549-.702.76-1.702 1.523-2.371.439-.385.745-.872 1.133.04.121.285.295-.057.435-.142.823 1.655.686 2.363-.751 3.864z" fill="#FDF4F1"/><path d="M202.398 92.693c-.779.396-1.941.09-2.26-.596-.51-1.097-.314-2.141.472-2.524.893-.435 2.045-.069 2.468.783.445.898.148 1.916-.68 2.337z" fill="#FBEDF0"/><path d="M152.573 44.012c-.311-.643.012-1.837.555-2.054.84-.337 2.268.21 2.677 1.025.314.626-.269 2.003-.984 2.322-.624.281-1.819-.407-2.248-1.293z" fill="#FEFAF7"/><path d="M189.454 25.227c-.917-.457-1.825-.27-2.413-1.043-.399-.525-.603-.97-.357-1.613.256-.67.695-1.017 1.407-1.023.079-.001.173-.017.234.019.527.305 1.329-.58 1.6.179.254.71.009 1.553-.405 2.244-.216.36-.547.66-.066 1.237z" fill="#FBECEF"/><path d="M208.066 25.842c1.735-.404 1.895-.594 1.14-1.414.449-.16.919-.185 1.315-.492.429-.333 1.181-.087 1.391.36.349.747.131 1.724-.49 1.827-.589.097-.96.229-1.017.897-.035.405-.241.857-.756.704-.532-.16-1.301-.076-1.425-.85-.054-.34-.277-.667-.158-1.032z" fill="#FCF3F5"/><path d="M183.864 91.08c-.146-.357-.308-.623-.364-.948-.172-1.002-.02-1.363.94-1.444.678-.058 1.509-.078 1.964.57.363.517.449 1.178-.037 1.747-.353.414.316 1.146-.437 1.424-.613.226-.706-.657-1.284-.607-.519.044-.778-.3-.782-.742z" fill="#FBEDF0"/><path d="M53.488 109.713c-.434-.874-.138-1.215.085-1.56-1.243-.528-1.243-.528-1.297-1.493.645.121 1.283.172 1.85.407.51-.396-.825-1.003.166-1.211.86-.181-.005.74.523.895.647-1.501 1.387-.021 2.225-.15-.277.611-.47 1.085-.702 1.54-.43.842-1.332.624-2.012.746-.414.075-.777-.045-.838.826zM188.715 59.697c-.314-.22-.349-.512-.182-.67.464-.438.43-.85.133-1.36-.136-.232.984-2.057 1.222-2.011.3.058.592.225.854.398 1.32.87 1.448 2.095.333 3.065-.213.185-.472.4-.742.202-.701-.514-1.22-.288-1.618.376z" fill="#FCEFF2"/><path d="M76.527 75.25c.354-.515.38-1.084.592-1.587.334-.795.89-.924 1.715-.9.749.02 1.235.395 1.485.89.343.678-.01 1.448-.464 1.972-.332.382-1.04.19-1.435.015-.602-.268-1.191-.317-1.893-.39z" fill="#FEF9F5"/><path d="M148.468 96.675c.351-.45.461-.935.012-1.653.753.351 1.288.58 1.803.847.508.263.636.702.369 1.194-.264.489-.681.856-1.261.562-.486-.246-.861-.495-1.305.083-.116.151-.53.125-.797.095-.223-.025-.606-.156-.619-.273-.115-1.009-1.686-.683-1.651-1.948 1.256.125 2.469.169 3.449 1.093z" fill="#FCEEF1"/><path d="M155.932 178.756c-.346-.735.046-1.766.829-2.059.559-.209 1.269-.112 1.495-.902.055-.191.296-.084.353.053.154.37.627.713.174 1.168-.266.267-.079.502.005.763.262.815.083 1.373-.486 1.588-1.153.436-1.977.223-2.37-.611z" fill="#FDF5F6"/><path d="M93.163 178.977c.56-.314 1.822-.132 1.914.364.112.601.6 1.088.534 1.665-.032.281-.501.54-.777.765-.637.522-2.205.151-2.556-.507-.385-.723.036-1.811.885-2.287z" fill="#FCF2F4"/><path d="M99.258 49.529c-.145.533-.805 1.189.417 1.348.483.063.643.609.7 1.019.051.373-.314.64-.665.69-.43.062-.941.119-1.151-.424-.105-.272-.151-.397-.525-.456-1.122-.176-1.305-.451-1.46-1.64.07-.141.182-.277.2-.424.047-.365.118-.893.507-.785.48.133 1.268-.576 1.467.464.04.206.3.229.51.208z" fill="#FCEDEE"/><path d="M154.189 137.374c-.752.04-1.494.171-2.257-.019-.717-.178-1.078-.559-1.072-1.3.007-.94.374-1.603 1.088-1.693.639-.08 1.28-.094 1.63.721.318.744.657 1.455.611 2.291z" fill="#FCEEF1"/><path d="M110.876 96.327c.451-.282 1.266.382 1.462-.591.044-.218.345-.039.485.085.569.502.842 1.135.807 1.897-.017.366-.243.701-.549.685-1.029-.055-1.923.451-2.897.587-.509.071-.449-.448-.667-.682-.291-.312-.158-.609.009-.866.175-.269.468-.097.63.024.343.257.532.097.806-.12.508-.402-.265-.662-.086-1.019z" fill="#FBECF0"/><path d="M15.942 79.901c1.767-.883 3.327-1.664 4.889-2.442.252-.126.564-.266.74.025.143.233-.086.437-.307.557-.218.119-.394.272-.462.517-.398 1.451-1.71 1.774-2.865 2.165-.626.212-1.224-.342-1.995-.822z" fill="#FBE7EB"/><path d="M150.669 79.097c.559-.316 1.675.104 2.051.772.319.566-.124 1.84-.794 2.284-.443.294-1.532-.246-1.961-.972-.498-.843-.263-1.537.704-2.084z" fill="#FCF1F4"/><path d="M39.14 133.773c-.666-.145-1.282-.563-2.018-.342-.134.04-.322-.012-.458-.077-.563-.269-2.036-.406-2.672-.227.036-.148.137-.32.094-.44-.084-.235-.694.195-.523-.273.124-.339.426-.738.95-.783 1.06-.09 1.059-.11 1.34-1.068.274.68.622 1.061 1.34 1.14 1.164.129 1.709.991 1.947 2.07z" fill="#FBEEF1"/><path d="M112.98 74.561c.41-.401.639-.676.917-.888.872-.666 1.945-.536 2.652.294.483.567.419.954-.281 1.709-.66.712-.995.731-1.68.268-.603-.408-.66-1.302-1.608-1.383z" fill="#FEF9F6"/><path d="M49.675 162.781c-.917-1.004-1.275-2.166-1.346-3.494.72-.153 1.24.557 1.932.475.025-.003.058.05.086.078.315.314.907-.447 1.098.264.115.428-.27.826-.135 1.285.107.362-.203.47-.447.598-.447.234-.934.401-1.188.794z" fill="#FCF1F4"/><path d="M143.584 108.03c.382-.348.456-.865.84-1.224.503-.47.968-.84 1.635-.297.089.072.275.072.311.153.205.456 1.244-.894.923.353-.468 1.818-1.199 2.309-2.227 1.835-.489-.227-.947-.521-1.482-.82z" fill="#FCF2F4"/><path d="M209.652 43.338c-.443-.863-.339-2.028.248-2.254.388-.149.851.005 1.255-.176.129.425.614.547.792.93.442.948.121 1.784-.856 2.232-.495.227-1.106-.084-1.439-.732z" fill="#FCF1F4"/><path d="M125.453 147.986c-.752-.288-1.488.428-2.318-.189-.586-.436-.611-.982-.539-1.441.097-.619.711-.996 1.233-1.342.133-.089.275.099.411.173.857.469 1.372 1.101 1.126 2.149-.023.098.08.221.105.337.015.073-.007.153-.018.313z" fill="#FCF3F5"/><path d="M162.003 116.161c.022.56.308 1.13.135 1.716-.261.888-1.98 1.288-2.638.633-.371-.369-.245-1.712.264-1.935.564-.247 1.18-.378 1.737-.671.158-.082.385.031.502.257zM93.13 85.624c.744-.4 2.102.107 2.359.759.128.324.057.707.338.992.127.129.007.409-.102.375-.79-.246-1.394.66-2.208.305-.477-.208-.947-.511-.917-.98.032-.535.372-1.052.53-1.451z" fill="#FBEDF0"/><path d="M151.332 70.727c.59-.29 1.829-.11 2.069.3.23.394-.36 1.787-.867 2.045-.553.282-1.872.108-2.034-.268-.204-.472.342-1.837.832-2.077z" fill="#FEFAF6"/><path d="M156.672 90.327c-.12.475.785.262.555.92-.281.805-.613 1.507-1.4 1.9a.58.58 0 01-.75-.167c-.315-.4-.655-.283-.902.002-.445.515-.616.22-.838-.186-.209-.38-.285-.775-.041-1.122.297-.422.492-.882.69-1.348.353.02.53.277.736.519.758.89 1.138.838 1.646-.218.07-.144.117-.286.304-.3z" fill="#FCF1F3"/><path d="M209.669 114.978l-2.536 1.961c-.072-1.054-.461-2.261-.907-2.938 2.569-.703 2.247-.617 3.443.977z" fill="#FBEDF1"/><path d="M149.805 42.465c.152.23-.612 1.852-1.033 1.996-.474.162-1.017.166-1.413-.232-.289-.29-.342-2.15-.117-2.305.588-.405 2.158-.074 2.563.54z" fill="#FCF1F3"/><path d="M94.963 61.334l-.221.238c.5.028 1.056.57 1.404-.373.228-.62 1.014-.36 1.45-.237.53.15 1.038.108 1.553.16-.76.234-1.03.915-1.418 1.504-.174.264-.152.792-.655.71-.417-.067-.632-.435-.8-.787-.08-.17-.044-.394-.356-.528-.224.326-.463.665-.985.699-.582.039-.56.12-.438-.556.03-.173-.156-.382-.134-.561.044-.358.285-.431.6-.27z" fill="#FDF5F4"/><path d="M203.225 42.847c-.567.265-1.658-.074-1.856-.577-.083-.21.298-1.918.448-2.008.457-.277 1.878.295 2.14.861.267.577-.093 1.426-.732 1.724z" fill="#FCF2F4"/><path d="M188.761 106.343c-1.076.335-.179 1.296-.694 1.988-.286-.383-.844-.433-.764-1.141.02-.174-.639-.326-1.023-.168-.733.301-.75-.358-.941-.721-.255-.485.196-.595.496-.766.4-.228.944-.12 1.257-.583.12-.178.354-.105.531.03.381.289.028.279-.124.44-.215.227.099.288.251.364.311.157.708.141 1.011.557z" fill="#FCEFF2"/><path d="M186.911 1.596c.306.492.357 1.315.004 1.534-.913.567-2.038.295-2.334-.316-.377-.778-.033-1.568.868-1.994.668-.315 1.009-.141 1.462.776z" fill="#FAE6EB"/><path d="M97.469 112.916c-.748.267-1.61.13-1.743-.277-.194-.59.273-1.936.716-2.066.604-.177 2.039.197 2.195.571.142.344-.685 1.6-1.168 1.772z" fill="#FBEDF0"/><path d="M132.532 53.828c-.385.26-.66.781-1.283.305-.313-.24-.482.182-.683.424-.296.357-.646.491-.72-.192-.011-.337.079-.678.441-.709.992-.088.474-.591.313-1.007.179-.159.244-.5.614-.342.55.236.53-.176.564-.518.487-.563 1.111-.393 1.717-.319.385.57.406 1.074-.38 1.234-.724.149-.769.554-.583 1.124z" fill="#FBE7EB"/><path d="M122.848 64.53c.243.559-.233 1.787-.793 2.043-.432.198-1.387-.203-1.616-.678-.245-.508.02-1.735.402-1.86.702-.226 1.812.047 2.007.495z" fill="#FBEDEF"/><path d="M120.254 103.888c-.367-.765-.252-1.354.32-1.625.74-.351 1.554-.012 1.958.815.243.498-.043 1.312-.567 1.612-.595.342-1.327-.002-1.711-.802z" fill="#FCF2F4"/><path d="M97.819 44.993c-.741.365-1.442.268-1.666-.23-.341-.754-.113-1.888.432-2.148.4-.191 1.803.156 1.835.499.047.494-.19.979-.08 1.506.055.26-.423.127-.521.373z" fill="#FEFBF8"/><path d="M113.236 71.41c-.313-.581-.046-1.454.533-1.744.607-.304 1.35-.172 1.584.28.34.658.065 1.832-.52 2.226-.345.233-1.311-.228-1.597-.761z" fill="#FCF2F4"/><path d="M163.487 9.926c-.256.171-.597.12-.942-.032-.245-.108-.454-.328-.772-.191-.209.09-.49.22-.552-.155-.043-.259-.12-.602.229-.721.304-.104.59-.145.682-.541.113-.484.495-.843.955-.64.458.202 1.141.264 1.212.983.057.585-.232.98-.812 1.297z" fill="#FDF4F6"/><path d="M68.27 57.85c.317.604.122 1.643-.358 1.912-.47.262-1.547-.083-1.792-.575-.32-.64-.072-1.361.585-1.706.799-.418 1.202-.323 1.565.369z" fill="#FBEEF1"/><path d="M120.835 51.771c.437.579.502 1.177-.064 1.68-.295.262-1.973-.398-2.113-.768-.098-.26.557-1.804.814-1.916.352-.156 1.11.403 1.363 1.004z" fill="#FEFAF7"/><path d="M218.562 78.85c-.318-.685-.47-1.415-1.235-1.684-.284-.1-.249-.376-.121-.603.331-.588 1.925-1.013 2.359-.527.339.38.355 1.09.041 1.494-.311.397-.483.908-1.044 1.32z" fill="#FCF2F4"/><path d="M210.87 99.997c.804.372 1.058 1.256 1.675 1.818.357.325.574.283.902.116.036.292-.337.341-.359.57-.076.814-.509.695-.999.393-.654-.403-.649-.412-1.417.026.545-.721.302-1.138-.193-1.578-.536-.477-.464-1.286.067-1.991.079.182.114.356-.002.546-.071.116-.152.295.081.322.072.01.163-.143.245-.222z" fill="#FCEEF1"/><path d="M156.672 90.327c-.258.365.317.98-.507 1.243-.76.242-1.239.314-1.581-.405-.161-.338-.476-.51-.598-.839l.107-.322c.053-.303.378-.448.434-.749l.426-.215c.571-.016 1.009.258 1.395.643l.324.644z" fill="#FAE7EB"/><path d="M85.017 98.136c-.216.268-.506.4-.822.43-.307.029-.351.249-.463.458-.132.247.105.747-.072.699-.428-.115-.765.223-1.154.094-.403-.134-.938-1.186-.802-1.595.208-.626.98-.977 1.583-.61.547.332 1.25.031 1.73.524z" fill="#FBEDF0"/><path d="M121.999 48.346c.269.518-.169 1.608-.782 1.945-.449.247-1.405-.211-1.651-.791-.093-.218.604-1.572.87-1.692.458-.206 1.333.095 1.563.538z" fill="#FEFAF6"/><path d="M157.402 16.63c-.342-.653-.141-1.191.577-1.544.684-.336 1.143-.139 1.604.691.293.527-.048 1.443-.635 1.708-.412.185-1.241-.274-1.546-.855z" fill="#FBECF0"/><path d="M153.099 97.139c.395.823.238 1.36-.503 1.718-.596.288-1.027.072-1.404-.705-.292-.602-.022-1.46.534-1.697.642-.273 1-.095 1.373.684z" fill="#FBEBEF"/><path d="M145.622 59.264c-.539.262-.546 1.08-1.117 1.193-.349.069-.875-.035-1.235-.336-.482-.402-.368-1.217.246-1.784.612-.564 1.001-.401 2.106.927z" fill="#FEFAF7"/><path d="M166.218 44.243c.135.317.317.423.539.533.806.402.933.82.542 1.6-.21.42-1.206.69-1.656.43-.448-.256-.21-.868-.615-1.204-.173-.144.228-.345.368-.515.222-.268.486-.503.822-.844z" fill="#FCF3F5"/><path d="M53.92 113.847c-.56.378-.68-.28-.99-.481-.351-.229-.26-.504.046-.763.565-.48 1.04-.987.485-1.802-.12-.175-.04-.48.295-.51.31-.028.555.011.49.436-.097.649-.003 1.223.629 1.61.26.159.13.421.006.628-.23.38-.558.659-.961.882z" fill="#FCEEF1"/><path d="M137.989 115.76c-.475-.218-1.011-.525-1.073-1.002-.061-.466.147-.964-.021-1.482-.07-.217.3-.314.497-.435.19-.118.522-.186.414-.475-.142-.378-.429-.143-.685-.083-.118.028-.275-.11-.414-.173.418-.122.209-.512.337-.841.555.631 1.365.628 2.153 1.008-.491.332-.838.699-1.42.717-.268.008-.579.108-.587.469-.006.274.259.372.43.534.285.27.899-.025.978.512.075.514-.324.871-.609 1.251z" fill="#FCF3F5"/><path d="M122.479 135.079c.322-.191 1.567.154 1.734.481.2.389-.056 1.29-.43 1.511-.401.238-1.455-.077-1.674-.499-.251-.487-.066-1.234.37-1.493z" fill="#FCF0F3"/><path d="M161.56 73.818c.267.555-.031 1.498-.539 1.629-.442.114-1.025.459-1.387-.188-.37-.662-.044-1.644.663-1.877.537-.176.986.087 1.263.436z" fill="#FEFAF6"/><path d="M157.416 76.936c.002-.276-.574-.54-.314-.634.542-.196.608-.806 1.13-.99.591-.207.7.195.858.544.308.678.078 1.697-.408 1.919-.517.236-.892-.011-1.266-.84z" fill="#FEFAF7"/><path d="M56.205 133.56c-.22.353-.545.564-.92.729-.433.192-.75.12-1.01-.301-.364-.592-.453-.641-1.1-.909.848.026 1.165-1.057 2.066-.915.504.339.975.702.964 1.396z" fill="#FAE5EA"/><path d="M167.817 6.789c.22.47 1.709.152.77 1.3.333.24.419-.128.615-.191.543-.174.815.207 1.009.59.265.526-.091.79-.515 1.015-.415.219-.814.27-.944-.258-.212-.863-1.438-1.272-.935-2.456z" fill="#FCEFF2"/><path d="M81.149 170.006c.564-.213 1.09.205 1.247.866.159.672-.171 1.437-.692 1.603-.357.114-1.377-.514-1.314-.979.075-.548.517-1.045.759-1.49z" fill="#FCEDF0"/><path d="M67.77 105.243c-.711.348-1.381.279-1.565-.16-.202-.482.209-1.558.66-1.733.287-.111 1.293.44 1.466.812.278.596-.091.866-.56 1.081z" fill="#FCEEF1"/><path d="M153.543 127.378c.254.675.311 1.318.551 1.936.19.491-.266.896-.757 1.001-.549.116-1.12-.162-1.27-.63-.095-.297.005-.975.511-1.131.596-.185.944-.47.965-1.176z" fill="#FBEEF1"/><path d="M154.113 86.829c-.526.589-.989.41-1.37-.107-.287-.39-.005-1.388.4-1.588.403-.2 1.261.144 1.496.588.333.628.296 1.068-.526 1.107z" fill="#FCF1F3"/><path d="M193.588 6.498c-.249.365.584.863-.096 1.285-.547.34-1.502.022-1.837-.59-.234-.424.004-1.038.497-1.284.461-.23 1.122.009 1.436.589z" fill="#FBE9ED"/><path d="M124.083 94.982c.247-.03.618.069.833.537.244.53-.005 1.266-.519 1.539-.398.21-1.265-.127-1.53-.596-.23-.405.209-1.011 1.216-1.48z" fill="#FBEBEF"/><path d="M89.166 65.305c-.356-.337-.995-.489-.761-1.209.046-.142-.014-.387-.17-.384-.698.014-.627-.63-.892-.984.52-.095.956.284 1.48.256.217-.012.459.226.182.498-.41.401-.342.727.066 1.09.62.552.602-.425.98-.4.303.138.433.42.452.675.03.413.418.982-.011 1.213-.464.25-.545-.416-.785-.691-.164-.189-.35-.133-.541-.064z" fill="#FBE9ED"/><path d="M35.834 179.055c.557.621 1.37.181 1.687.878a.77.77 0 01.003.686c-.21.46-1.022.938-1.41.777-.44-.184-.961-.4-.703-1.02.16-.383.494-.693.423-1.321z" fill="#FCF2F4"/><path d="M163.593 95.932c.678-.019 1.178.601 1.586-.091.088-.15.274-.102.421-.006.388.252.71.556.575 1.067-.088.331-.085.845-.477.883-.424.04-1.003.112-1.229-.464-.186-.474-.578-.82-.876-1.389z" fill="#FCEEF1"/><path d="M144.456 72.282c.52-.453.864.041 1.178.429.211.26-.214 1.508-.523 1.585-.569.141-1.017-.096-1.295-.597-.279-.499-.043-1.048.64-1.417z" fill="#FCF2F4"/><path d="M68.257 57.053c-.356-.554-.772-.533-1.142-.632-.445-.12-.678-.382-.536-.872.183-.63.623-.886 1.247-.83.467.043.699.31.628.8-.061.424-.11.848-.197 1.534z" fill="#FCEEF1"/><path d="M196.409 27.518c.131-.428-.337-.635-.431-1-.128-.493.207-.95.563-.748.562.318 1.071.787 1.319 1.389.181.439-.061.856-.577.984-.493.123-.717-.187-.874-.625z" fill="#FCF1F3"/><path d="M191.191 104.43c-.684.141-1.633-.158-1.664 1.009-.003.128-.261.131-.412.059-.284-.135-.313-.419-.14-.583.403-.382.614-.759.465-1.345-.078-.305.19-.506.528-.455.391.059.921-.244 1.117.347.094.287.071.613.106.968z" fill="#FCEFF2"/><path d="M92.82 57.579c.535.418.852 1.184 1.75.985-.04.414-.474.787.072 1.054-.357.177-.712.357-1.071.529-.32.154-.62.144-.853-.157a.48.48 0 01-.034-.561c.25-.41.534-.167.813-.023.105.054.22.063.33-.096-.063-.38-.441-.351-.701-.464-.848-.367-.851-.361-.306-1.267z" fill="#FCF0F3"/><path d="M172.315 37.887c-.192-.4-.457-.767-.139-1.055.319-.29.808-.333 1.208-.184.417.155.559.565.399.981-.174.451-.109 1.196-.722 1.208-.364.006-.512-.679-.746-.95z" fill="#FCF4F5"/><path d="M119.503 168.812c.372.157.456.446.422.776-.048.464-.002.991-.214 1.368-.217.387-.756.41-1.16.174-.278-.163-.237-1.464.048-1.506.54-.079.538-.64.904-.812z" fill="#FCF3F5"/><path d="M205.995 53.191c.051.45.112 1.046-.306 1.235-.374.168-.97.542-1.387-.056-.262-.377.091-1.234.615-1.492.421-.209.748.008 1.078.313z" fill="#FCEEF1"/><path d="M116.639 62.319c.495.23 1.093-.356 1.599.159.125.127-.798 1.332-1.116 1.457-.385.15-.752.09-.852-.334-.104-.44-.207-.946.369-1.282z" fill="#FCF0F2"/><path d="M100.912 43.471c-.25.423-.828.424-1.108.843-.194.291-.505.142-.756.031-.326-.144-.202-.444-.082-.598.254-.325-.278-.997.23-.985.58.013 1.489-.345 1.716.709z" fill="#FEFBF8"/><path d="M160.49 52.842c-.541-.473-.292-.711.1-.967.666-.434 1.041.04 1.383.455.347.42-.074.829-.315.982-.564.356-1.065.188-1.168-.47z" fill="#FCF1F4"/><path d="M116.574 65.935c.249.452.198.796-.27 1.108-.728.484-.886-.255-1.2-.551-.373-.352-.113-.753.173-1.031.276-.271 1.054.04 1.297.474z" fill="#FCF2F4"/><path d="M165.256 34.242c-.797.097-1.601.449-1.93-.485-.179-.509.253-.951.752-1.006 1-.109.823.85 1.178 1.491z" fill="#FCF0F3"/><path d="M151.569 33.643c.078.438.215.928-.318 1.126-.439.163-.856-.024-1.099-.456-.252-.45-.019-1.112.44-1.3.639-.263.604.49.977.63z" fill="#FCF1F4"/><path d="M164.892 86.379c.224.432.456.89-.06 1.167-.525.282-.931-.146-1.169-.523-.215-.341-.33-.916.119-1.142.453-.227.928-.022 1.11.498z" fill="#FCEFF1"/><path d="M178.122 102.412c-.465.242-.852.183-1.071-.328-.173-.402-.114-.87.26-1.044.416-.194.947-.212 1.233.331.263.501.042.824-.422 1.041z" fill="#FCEEF1"/><path d="M146.116 59.253c.411.534 1.565.424 1.245 1.556-.226.18-.444.025-.668-.014-1.407-.247-1.407-.245-.577-1.542z" fill="#FEFAF7"/><path d="M26.09 192.48c.239.452.208.842-.297 1.071-.39.177-.831.161-.998-.262-.16-.405-.34-.927.26-1.223.499-.247.818-.045 1.036.414z" fill="#FCF3F5"/><path d="M236.791 71.76c.474-.2 1.099.057 1.267.53.137.39.053.73-.37.842-.544.145-1.037-.026-1.3-.533-.199-.382.042-.667.403-.84z" fill="#FCF2F4"/><path d="M172.044 20.674c-.261-.423-.224-.71.207-.917.478-.23.874-.19 1.076.333.139.36.294.842-.183 1.045-.479.205-.961.115-1.1-.461zM152.042 130.544c.135.418.262.843-.127 1.009-.416.178-1.009.29-1.268-.232-.289-.581.209-.962.62-1.247.666-.463.298.677.775.47z" fill="#FCEFF2"/><path d="M181.926 13.373c-.022-.492-.099-1.05.447-1.244.256-.091.702-.343.968.099.171.283-.143 1.26-.464 1.392-.363.148-.694.064-.951-.247z" fill="#FCEEF2"/><path d="M80.124 144.739c.299.248.598.488.888.74.34.296.107.587-.055.839-.177.275-.46.275-.74.137-.695-.349-.726-.779-.093-1.716z" fill="#FCF2F5"/><path d="M35.714 89.336c.13.306-.748.486-.107.856-.357.325-.403.782-.42 1.345-.626-.391-.675-1.086-1.262-1.361-.292-.137-.028-.457.304-.518.499-.092 1.026-.052 1.485-.322z" fill="#FDF4F6"/><path d="M170.302 3.802c-.103.034-.354.326-.695.122-.163-.097-.375-.17-.396-.405-.017-.187.13-.271.267-.345.209-.113.413-.258.639-.315.368-.093.801-.716 1.083-.18.233.446-.22.868-.898 1.123z" fill="#FBE9ED"/><path d="M144.111 112.969c-.588.231-.377 1.06-.966 1.29-.881-.642-.881-.642-.19-2.015l1.156.725zM184.268 10.265c.457-.731 1.214-.273 1.818-.411.185-.042.467.433.128.744-.671.614-1.31.498-1.946-.333z" fill="#FCF1F3"/><path d="M162.137 14.084c.453-.233.818-.223 1.062.225.233.427.136.774-.309.991-.453.221-.753.037-.978-.378-.212-.391-.178-.683.225-.838z" fill="#FBEDF0"/><path d="M182.843 33.836c-.117.38-.314.688-.662.79-.384.114-.902.373-1.167.007-.248-.341.32-.54.474-.828.304-.572.686-.488 1.117-.194.089.062.16.15.238.225z" fill="#FCF3F5"/><path d="M200.991 8.078c.214-.031.484-.062.751-.111.21-.039.391-.026.483.198.096.233-.025.387-.229.45-.226.07-.41.11-.498.396a.492.492 0 01-.661.316c-.283-.104-.371-.401-.407-.668-.05-.358.285-.415.561-.581z" fill="#FCEFF2"/><path d="M169.241 13.47c.361.172.614.275.85.409.432.246.398.667.267 1.031-.118.328-.483.177-.73.165-.415-.02-.642-.266-.572-.705.041-.265.107-.526.185-.9z" fill="#FCEEF1"/><path d="M161.263 44.02c-.375.181-.659.207-.846-.066-.16-.233-.016-.453.168-.626a.543.543 0 01.197-.132c.376-.118.209-.982.905-.653.139.066.383.128.302.289-.222.439-.512.846-.726 1.188z" fill="#FDF4F6"/><path d="M74.64 169.417c-.331.191-.666.294-.856-.181-.162-.406-.096-.852.28-1.034.377-.181.77.042.99.42.262.451-.06.634-.413.795z" fill="#FBEEF1"/><path d="M200.236 152.801c.929-.109 1.567-.799 2.36-1.18 0 .292-.253.359-.432.502-.262.21-.516.43-.023.7.351.193.121.273-.101.304-.156.022-.31.015-.38.202-.273.721-.629.55-.748-.024-.099-.475-.478-.312-.676-.504z" fill="#FDF4F6"/><path d="M82.192 67.449c.878-.348 1.238-.192 1.5.644.069.217.143.433.215.649-1.108.28-1.32-.63-1.715-1.293z" fill="#FBEBEE"/><path d="M169.32 28.584c.098.219-.031.614-.411.806-.44.223-.815-.155-.956-.47-.155-.346.178-.678.523-.788.252-.08.629-.224.844.452z" fill="#FCF0F2"/><path d="M142.825 115.762c.6.504.91 1.154.961 1.931-.048-.064-.084-.167-.145-.185-1.436-.413-1.436-.412-.816-1.746z" fill="#FCF3F6"/><path d="M186.066 47.758c.376-.023.812-.03.957.428.084.266.136.688-.301.782-.358.077-.763.008-.911-.364-.106-.265-.151-.635.255-.846z" fill="#FDF3F5"/><path d="M109.965 60.945c-.34.093-.503-.122-.623-.385-.186-.408-.103-.81.229-1.066.262-.202.563-.016.666.266.157.427.128.856-.272 1.185z" fill="#FCEFF2"/><path d="M203.215 25.14c-.068-.678.311-1.049.342-1.515.016-.244.27-.367.533-.352.16.009.317.059.39.212.121.251.026.534-.185.602-.489.158-.515.753-1.08 1.053z" fill="#FCF2F4"/><path d="M192.648 69.488c.171.411.018.697-.347.875-.225.111-.551.39-.692.012-.126-.34-.179-.801.224-1.071.314-.21.595-.098.815.184z" fill="#FCF2F5"/><path d="M178.688 2.513c.107-.62-.335-1.22.518-1.36.278-.045.612-.006.631.368.034.712-.535.732-1.149.992z" fill="#FBEEF1"/><path d="M160.489 36.612c-.335.087-.621.008-.746-.342-.124-.344.039-.597.35-.762.374-.198.589-.026.708.319.116.335.025.606-.312.785z" fill="#FCF2F4"/><path d="M95.074 50.818c-.05.482-.75.524-.704 1.13.024.322-.245.116-.38-.013-.27-.264-.501-.026-.744.062-.045-.475-.01-.874.648-.686.116-.83.8-.296 1.18-.493z" fill="#FCF3F5"/><path d="M56.504 66.228c.137-.327.247-.58.348-.836.092-.234.2-.446.506-.382.204.043.362.16.425.372.077.255 0 .473-.192.643-.295.26-.65.267-1.087.203z" fill="#FDF5F7"/><path d="M187.115 33c.322-.112.663-.142.766.255.071.276.141.67-.28.792-.317.092-.679.033-.819-.278-.132-.296-.053-.629.333-.769z" fill="#FCF2F4"/><path d="M.397 115.839c.009.079-.011.2.03.229.85.582.853.58.292 1.489-.093-.575-1.338-.934-.322-1.718z" fill="#FDF5F7"/><path d="M101.62 49.423c-1.111.551-1.111.551-2.04-.32l.164-.272c.543.457 1.293.258 1.876.592z" fill="#FEF8F5"/><path d="M164.135 36.632c-.326.022-.668-.017-.835-.317-.162-.291.014-.555.306-.664.349-.13.636-.001.76.36.083.246.016.47-.231.62z" fill="#FCF2F4"/><path d="M86.185 127.206c-.284-.45-.493-.765-.684-1.091-.081-.138-.108-.305.055-.415a.338.338 0 01.435.052c.353.377.667.782.194 1.454z" fill="#FCF0F2"/><path d="M.829 117.771c.036.071.074.141.106.213.448 1.025.407 1.077-.848.945.242-.418.263-.914.742-1.158z" fill="#FDF5F7"/><path d="M195.086 137.131c.334.457-.488 1.063.191 1.476l-.618.348c-.016-.036-.034-.072-.048-.11-.309-.871-.309-.871.475-1.714z" fill="#FBECEF"/><path d="M223.529 130.699c.065-.65.517-.913 1.073-1.072-.06.14-.189.291-.168.418.144.882.098.921-.905.654z" fill="#FCEFF2"/><path d="M133.494 51.471c-.574.1-1.124.324-1.717.319l-.108-.215c.605-.779.605-.779 1.825-.104z" fill="#FCF0F3"/><path d="M124.793 105.455c-.296.669-.791 1.106-1.504 1.287-.109-.303-.455-.633.201-.782.449-.103.87-.332 1.303-.505z" fill="#FBECEF"/><path d="M52.197 162.229a.355.355 0 01.425-.066c.259.13.678.03.738.451.022.154-.096.295-.25.37-.383.187-.576-.14-.813-.318-.13-.096-.17-.261-.1-.437z" fill="#FCEEF1"/><path d="M33.99 133.126c.499.949-.406 1.097-.858 1.503-.25.356-.351.843-.862.965.197-.546.47-1.007.979-1.361.354-.245.71-.594.74-1.107z" fill="#FBEEF1"/><path d="M184.268 10.265c-.171.25-.369.384-.684.219-.177-.093-.371-.161-.369-.394a.517.517 0 01.281-.48c.279-.144.436.013.558.238.074.137.143.278.214.417z" fill="#FCF1F3"/><path d="M208.61 58.738c.166.329-.004.494-.206.619-.197.122-.431.258-.623.007-.193-.254-.167-.537.094-.718.269-.188.509.048.735.092z" fill="#FCEDF0"/><path d="M56.14 66.432c.09.266.082.486-.15.54-.256.06-.581.158-.768-.118-.123-.183.023-.373.199-.488.28-.183.518-.072.719.066z" fill="#FDF5F7"/><path d="M82.714 128.23c.287.046.618.048.733.409.049.151-.023.357-.177.367-.306.02-.63-.032-.746-.389-.048-.149.024-.295.19-.387z" fill="#FBECEF"/><path d="M196.391 9.464c.142.261-.024.418-.156.545-.231.222-.439.089-.589-.124-.136-.193-.096-.389.11-.504.233-.129.457-.068.635.083z" fill="#FCEEF1"/><path d="M86.195 172.219c.077.367-.078.568-.341.711-.176.096-.393.193-.513-.02-.093-.165-.065-.421.182-.467.228-.041.308-.394.672-.224z" fill="#FCEFF2"/><path d="M79.162 172.283c.25-.117.485-.091.652.107.12.143.034.301-.12.381-.233.121-.471.087-.638-.109-.122-.144-.024-.287.106-.379z" fill="#FBEDF0"/><path d="M20.149 81.436c-.066.225.158.57-.242.677-.154.041-.35-.015-.35-.204 0-.27.038-.567.349-.677.113-.04.204.07.243.204z" fill="#FBE9ED"/><path d="M158.916 179.801c.087.117.062.242-.05.296-.222.107-.481.111-.677-.021-.153-.103-.086-.281.078-.37.235-.127.454-.083.649.095z" fill="#FDF5F6"/><path d="M156.349 89.684c-.465-.214-.93-.43-1.395-.643.765-.437 1.09.083 1.395.643z" fill="#FCF1F3"/><path d="M178.369 79.273c-.521-.574-.217-.938-.107-1.311l.259.012-.152 1.299z" fill="#FBEEF1"/><path d="M83.886 95.969c.19.827-.325.856-.577 1.12l-.198-.179.775-.941z" fill="#FBEDF0"/><path d="M81.762 65.519c.02.032.035.074.064.095.736.519.736.519-.07.977.097-.357-.203-.716.006-1.072z" fill="#FBEBEE"/><path d="M154.528 89.255c.226.465-.122.596-.434.749-.765-.777.159-.575.434-.75z" fill="#FCF1F3"/><path d="M55.037 65.727a.775.775 0 01.215-.644c.02.034.055.066.06.102.04.308.656.065.51.488-.187.551-.523-.022-.785.054z" fill="#FDF5F7"/><path d="M163.199 97.667c.489-.337.766-.269 1.148-.063-.386.332-.674.252-1.148.063z" fill="#FCEEF1"/><path d="M143.038 114.581c-.282.355.162.842-.213 1.18-.051-.101-.092-.21-.156-.303-.341-.49-.284-.807.369-.877z" fill="#FCF3F6"/><path d="M83.407 66.979c-.595-.32-.596-.817-.471-1.325.042-.173 1.65-.502 1.787-.382a.386.386 0 01.112.3c-.04.255-.28.548-.455.429-.94-.637-.707.289-.898.637-.048.089-.047.203-.075.34z" fill="#FBEBEE"/><path d="M222.797 130.932c-.264-.247-.378-.323-.367-.349.175-.441-.575-.416-.414-.826.047-.12.197-.132.302-.065.395.252.549.601.479 1.24z" fill="#FCEFF2"/></svg>