<svg width="58" height="58" fill="none" xmlns="http://www.w3.org/2000/svg"><path fill-rule="evenodd" clip-rule="evenodd" d="M3.164 26.586c2.614 1.347 7.33 3.11 14.095 3.11 3.08 0 6.587-.365 10.512-1.302.228-.054.452-.11.676-.166.197-.05.377-.15.521-.294l4.196-4.151.836 1.664c.264.526.888.762 1.434.543 3.77-1.515 6.896-3.345 9.29-5.439.243-.212.383-.518.387-.84l.025-2.413.532.53a1.133 1.133 0 001.714-.13c2.414-3.29 2.788-6.755 1.124-9.587a79.23 79.23 0 001.598-1.261l5.97-4.837a1.132 1.132 0 10-1.426-1.76l-5.97 4.837c-.52.42-1.045.834-1.573 1.24-2.21-2.244-4.603-3.44-7.303-3.652-3.404-.269-7.277 1.002-11.846 3.882-.763.481-1.189.74-1.944 1.198l-.03.019-.57.346a1.133 1.133 0 00-.076 1.886l.51.368-2.834-.472a1.136 1.136 0 00-.768.146c-6.639 3.972-14.879 8.7-19.2 11.165a3.048 3.048 0 00-1.538 2.715 3.058 3.058 0 001.658 2.655zm43.118-11.347l-1.45-1.45a1.133 1.133 0 00-1.933.79l-.048 4.593c-1.942 1.616-4.392 3.064-7.3 4.315l-1.062-2.115a1.133 1.133 0 00-1.809-.297l-5.084 5.03-.35.085c-3.75.895-7.081 1.243-9.997 1.243-6.288 0-10.639-1.62-13.047-2.861L4.2 24.57a1.133 1.133 0 00.153.003 79.953 79.953 0 0024.267-5.271 79.95 79.95 0 0018.056-9.824c.906 1.712.774 3.69-.394 5.761zm-23.232-3.03l7.182 1.196a1.132 1.132 0 00.85-2.035l-3.036-2.197c.344-.211.675-.417 1.118-.696 4.14-2.61 7.562-3.77 10.46-3.54 2.075.163 3.882 1.047 5.644 2.764-11.572 8.38-25.07 13.357-39.37 14.494 4.476-2.56 11.37-6.533 17.152-9.986zM4.53 49.617c0 .626.507 1.133 1.133 1.133h11.342v1.505a1.133 1.133 0 102.266 0V50.75h19.484v1.505a1.133 1.133 0 002.266 0V50.75h15.845a1.133 1.133 0 000-2.266H5.664c-.626 0-1.133.507-1.133 1.133zm52.336 6.117h-4.984V54.23a1.133 1.133 0 00-2.266 0v1.504H30.133V54.23a1.133 1.133 0 00-2.266 0v1.504H8.383V54.23a1.133 1.133 0 00-2.266 0v1.504H1.133a1.133 1.133 0 000 2.266h55.734a1.133 1.133 0 000-2.266zM1.934 50.418c-.21.21-.503.332-.801.332-.298 0-.59-.121-.801-.332a1.142 1.142 0 01-.332-.8c0-.299.121-.59.332-.802.21-.21.503-.332.8-.332.299 0 .591.122.802.332.21.21.332.503.332.801 0 .298-.122.59-.332.801zm13.216-9.146c0 .626-.508 1.133-1.133 1.133h-.014a1.133 1.133 0 010-2.265h.014c.625 0 1.133.507 1.133 1.132zm-6.121-.261a1.132 1.132 0 101.178-1.936 7.286 7.286 0 01-3.523-6.269 1.133 1.133 0 00-2.266 0 9.537 9.537 0 004.61 8.205zM50.75 26.329c.625 0 1.133.508 1.133 1.133a6.124 6.124 0 01-6.117 6.117 1.133 1.133 0 110-2.266 3.856 3.856 0 003.851-3.851c0-.625.507-1.133 1.133-1.133z" fill="url(#paint0_linear)"/><defs><linearGradient id="paint0_linear" x1="0" y1="29" x2="58" y2="29" gradientUnits="userSpaceOnUse"><stop stop-color="#E86AAD"/><stop offset="1" stop-color="#5CBAFE"/></linearGradient></defs></svg>