<svg width="57" height="58" fill="none" xmlns="http://www.w3.org/2000/svg"><g clip-path="url(#clip0)"><path fill-rule="evenodd" clip-rule="evenodd" d="M10.661 0c.141.033.282.064.424.095.307.069.614.137.918.217 1.552.406 2.707 1.31 3.205 2.9.555 1.772 1.044 3.567 1.528 5.362.16.592-.118 1.04-.6 1.155-.463.11-.872-.206-1.023-.793l-.297-1.162c-.235-.924-.47-1.849-.72-2.77-.062-.232-.154-.457-.245-.681-.065-.159-.13-.317-.184-.479-.47-1.387-1.553-1.878-2.852-2.048-1.863-.245-3.68.081-5.478.52-.879.215-1.75.465-2.62.715-.371.107-.742.213-1.114.317-.066.018-.13.04-.196.062-.093.03-.186.062-.28.083C.61 3.608.18 3.392.042 2.959c-.147-.462.087-.928.62-1.09l.335-.103c1.124-.344 2.25-.688 3.391-.959C5.218.611 6.058.465 6.897.32c.396-.07.791-.138 1.185-.212.084-.016.166-.043.247-.07.039-.013.077-.026.115-.037h2.217zm40.343 45.727c.48 1.77 1.975 2.952 3.986 3.17.096.01.193.016.29.02l.151.01c.587.04.914.343.911.843-.002.493-.353.883-.916.836-.765-.063-1.557-.141-2.275-.397-1.766-.628-3.002-1.878-3.66-3.681-.115-.317-.273-.407-.592-.44-1.688-.172-3.01-1.325-3.409-3.014-.553-2.345-1.072-4.7-1.577-7.057-.105-.491-.287-.685-.802-.644-.509.042-1.045.034-1.539-.085-1.213-.29-1.957-1.41-1.88-2.707.073-1.208.956-2.17 2.166-2.359.148-.023.296-.042.444-.061l.209-.028c-.052-.791-.203-.945-.972-.946-1.651-.002-3.302-.001-4.953 0h-.003c-2.301 0-4.603 0-6.904-.004-1.817-.004-2.742-.971-2.751-2.844v-.72l-.623.001h-.001a60.34 60.34 0 01-1.26-.003c-.978-.017-1.604-.621-1.613-1.623-.019-2.058-.017-4.117.003-6.175.01-1.038.62-1.62 1.65-1.639.408-.007.815-.005 1.21-.003h.001l.516.001a1.4 1.4 0 01.053-.076c.023-.032.036-.05.039-.07.232-1.816.764-2.41 2.552-2.703 1.64-.268 3.287-.503 4.933-.737l.764-.11c.62-.088 1.053.22 1.111.74.057.498-.27.857-.881.948-.727.108-1.453.215-2.18.321-1.246.183-2.492.366-3.737.557-.716.11-.872.327-.873 1.112-.003 3.399-.003 6.798 0 10.196 0 .911.21 1.12 1.129 1.12 2.055.004 4.11.005 6.165.006 1.769 0 3.538.001 5.306.003 1.995.003 2.624.53 3.06 2.499.55 2.474 1.105 4.948 1.673 7.472l.718 3.2c.131-.143.263-.275.39-.403.265-.265.51-.51.684-.8.76-1.263 1.467-2.56 2.172-3.857.086-.158.084-.403.044-.589l-.203-.944v-.001l-.001-.001v-.001c-.32-1.49-.641-2.978-1.007-4.455-.368-1.489-.071-2.74.992-3.837.875-.902 1.729-1.826 2.582-2.75.289-.31.577-.623.866-.934.563-.605.565-.862.019-1.496-1.697-1.97-3.435-3.894-5.408-5.593-1.261-1.086-2.718-1.387-4.28-1.369-.97.012-1.94.058-2.911.103-.432.02-.863.04-1.294.058-.055.002-.11.006-.166.01-.13.008-.26.017-.387.006-.489-.04-.816-.377-.806-.835.01-.49.283-.81.742-.832 1.05-.05 2.102-.083 3.154-.117.737-.024 1.475-.047 2.212-.076 2.727-.108 4.672 1.44 6.455 3.247 1.415 1.435 2.758 2.945 4.088 4.463.957 1.09.901 2.385-.084 3.461a255.807 255.807 0 01-3.67 3.937c-.545.57-.695 1.187-.52 1.96.64 2.814 1.267 5.63 1.893 8.448v.003l.002.004v.003l.72 3.23c.523 2.346.045 3.616-1.917 5.028zm-.377-7.656c-.948 1.742-2.032 3.156-3.408 4.33-.089.075-.084.346-.036.496.343 1.066 1.502 1.712 2.558 1.448 1.189-.298 1.925-1.4 1.693-2.652a51.954 51.954 0 00-.53-2.427c-.09-.386-.184-.782-.277-1.195zM26.896 23.888v-5.965H25.13v5.965h1.765zm16.459 9.776l-.077-.375v-.001l-.143-.684c-.17-.784-.38-.908-1.143-.672-.45.139-.67.455-.634.93.033.45.288.745.725.792.272.03.549.023.846.016a17.4 17.4 0 01.426-.006zM4.8 16.998l.165-.114c-.016.232-.034.459-.052.681-.038.471-.074.926-.083 1.381-.056 3.076.868 5.91 2.124 8.646.316.686.658 1.36 1 2.034.535 1.052 1.07 2.103 1.498 3.197 1.379 3.52 2.08 7.225 2.508 10.985.052.459-.068.813-.33 1.196-1.069 1.564-1.513 3.3-1.202 5.201.31 1.892 1.365 3.052 3.044 3.356l.171.031c.489.09.98.179 1.472.211 2.947.193 5.807.79 8.59 1.807 2.118.774 4.252 1.505 6.386 2.232 1.622.552 3.079-.384 3.259-2.095.105-.998-.39-1.719-1.13-2.315-1.338-1.08-2.674-2.161-4.01-3.244l-.002-.002c-1.992-1.614-3.984-3.228-5.985-4.83-1.421-1.14-2.101-2.595-2.154-4.44-.082-2.848-.182-5.7-.395-8.54a332.03 332.03 0 00-1.055-11.497c-.232-2.11-.544-4.21-.856-6.311-.112-.754-.224-1.506-.332-2.26-.089-.62-.469-.933-.957-.86-.49.074-.759.517-.683 1.107.168 1.322.348 2.643.528 3.963.414 3.034.827 6.067 1.105 9.113.46 5.052.732 10.125.97 15.195.116 2.473.987 4.432 2.893 5.954 2.165 1.73 4.319 3.472 6.474 5.216 1.132.916 2.265 1.832 3.399 2.747.382.308.745.628.44 1.176-.301.542-.763.4-1.219.235-.28-.101-.56-.204-.84-.307-.78-.287-1.558-.574-2.347-.824-.613-.194-1.225-.393-1.837-.591-1.954-.635-3.908-1.27-5.896-1.761-1.196-.296-2.432-.425-3.668-.554a54.983 54.983 0 01-1.812-.21c-1.128-.155-1.656-.67-1.88-1.82-.302-1.552.034-2.987.98-4.21.51-.662.64-1.337.535-2.106-.044-.316-.085-.633-.127-.95-.151-1.14-.302-2.283-.518-3.412-.696-3.639-1.697-7.167-3.457-10.456-.871-1.628-1.58-3.366-2.198-5.116-1.001-2.84-1.214-5.74-.131-8.636.17-.457.22-.9-.214-1.226-.435-.325-.829-.133-1.21.16-.927.709-1.856 1.414-2.786 2.12l-1.214.921-.395.298c-.33.247-.66.494-.978.756-.419.345-.496.815-.235 1.197.272.397.774.481 1.226.147.71-.523 1.411-1.06 2.113-1.595l1.003-.764c.097-.074.197-.143.305-.217zm38.432.444c.032.031.08.067.134.108.146.11.34.257.415.451a120.939 120.939 0 011.59 4.456c.17.5-.078.952-.514 1.092-.427.139-.855-.046-1.03-.524a149.921 149.921 0 01-1.571-4.463c-.206-.623.191-1.14.976-1.12zm-4.51.106c-.054-.04-.102-.077-.134-.108-.804-.016-1.192.522-.971 1.179a147.405 147.405 0 001.567 4.403c.185.498.65.683 1.083.506.407-.167.619-.593.455-1.074a129.93 129.93 0 00-1.587-4.456c-.074-.194-.268-.34-.413-.45z" fill="url(#paint0_linear)"/></g><defs><linearGradient id="paint0_linear" x1="0" y1="29" x2="56.342" y2="29" gradientUnits="userSpaceOnUse"><stop stop-color="#E86AAD"/><stop offset="1" stop-color="#5CBAFE"/></linearGradient><clipPath id="clip0"><path fill="#fff" d="M0 0h56.343v58H0z"/></clipPath></defs></svg>