<svg width="40" height="40" fill="none" xmlns="http://www.w3.org/2000/svg"><path d="M36.667 4h-3.334V2.667a2.667 2.667 0 10-5.333 0V4h-5.333V2.667a2.667 2.667 0 00-5.334 0V4H12V2.667a2.667 2.667 0 00-5.333 0V4H3.333A3.333 3.333 0 000 7.333V34a3.333 3.333 0 003.333 3.333H22A.667.667 0 1022 36H3.333a2.006 2.006 0 01-2-2V13.333h37.334v11.334a.667.667 0 001.333 0V7.333A3.333 3.333 0 0036.667 4zm-7.334-1.333a1.333 1.333 0 012.667 0v4a1.333 1.333 0 01-2.667 0v-4zm-10.666 0a1.333 1.333 0 112.666 0v4a1.333 1.333 0 11-2.666 0v-4zM8 2.667a1.333 1.333 0 012.667 0v4a1.333 1.333 0 01-2.667 0v-4zM38.667 12H1.333V7.333a2.006 2.006 0 012-2h3.334v1.334a2.667 2.667 0 105.333 0V5.333h5.333v1.334a2.667 2.667 0 005.334 0V5.333H28v1.334a2.667 2.667 0 105.333 0V5.333h3.334a2.006 2.006 0 012 2V12z" fill="#F78E9B"/><path d="M18.667 18a1.333 1.333 0 00-1.334-1.333h-2.666A1.333 1.333 0 0013.333 18v2a1.333 1.333 0 001.334 1.333h2.666A1.334 1.334 0 0018.667 20v-2zm-4 2v-2h2.666v2h-2.666zM10.667 18a1.333 1.333 0 00-1.334-1.333H6.667A1.333 1.333 0 005.333 18v2a1.333 1.333 0 001.334 1.333h2.666A1.334 1.334 0 0010.667 20v-2zm-4 2v-2h2.666v2H6.667zM33.333 21.333A1.334 1.334 0 0034.667 20v-2a1.333 1.333 0 00-1.334-1.333h-2.666A1.333 1.333 0 0029.333 18v2a1.333 1.333 0 001.334 1.333h2.666zM30.667 18h2.666v2h-2.666v-2zM18.667 24a1.333 1.333 0 00-1.334-1.333h-2.666A1.333 1.333 0 0013.333 24v2a1.333 1.333 0 001.334 1.333h2.666A1.334 1.334 0 0018.667 26v-2zm-4 2v-2h2.666v2h-2.666zM10.667 24a1.333 1.333 0 00-1.334-1.333H6.667A1.333 1.333 0 005.333 24v2a1.333 1.333 0 001.334 1.333h2.666A1.334 1.334 0 0010.667 26v-2zm-4 2v-2h2.666v2H6.667zM17.333 28.667h-2.666A1.333 1.333 0 0013.333 30v2a1.333 1.333 0 001.334 1.333h2.666A1.334 1.334 0 0018.667 32v-2a1.333 1.333 0 00-1.334-1.333zM14.667 32v-2h2.666v2h-2.666zM22.667 21.333h2.666A1.334 1.334 0 0026.667 20v-2a1.333 1.333 0 00-1.334-1.333h-2.666A1.333 1.333 0 0021.333 18v2a1.333 1.333 0 001.334 1.333zm0-3.333h2.666v2h-2.666v-2zM21.333 26a1.333 1.333 0 001.334 1.333.667.667 0 100-1.333v-2h2.666a.667.667 0 000-1.333h-2.666A1.333 1.333 0 0021.333 24v2zM9.333 28.667H6.667A1.333 1.333 0 005.333 30v2a1.333 1.333 0 001.334 1.333h2.666A1.334 1.334 0 0010.667 32v-2a1.333 1.333 0 00-1.334-1.333zM6.667 32v-2h2.666v2H6.667z" fill="#F78E9B"/><path d="M31.333 22.667A8.667 8.667 0 1040 31.333a8.677 8.677 0 00-8.667-8.666zm0 16a7.333 7.333 0 117.334-7.334 7.342 7.342 0 01-7.334 7.334z" fill="#F78E9B"/><path d="M35.185 28.539L30 33.724l-2.357-2.357a.667.667 0 00-.942.942l2.828 2.829a.667.667 0 00.942 0l5.657-5.657a.667.667 0 00-.943-.942z" fill="#F78E9B"/></svg>