<svg width="40" height="40" fill="none" xmlns="http://www.w3.org/2000/svg"><g clip-path="url(#clip0)"><path fill-rule="evenodd" clip-rule="evenodd" d="M7.334 4.667v-4A.667.667 0 006 .667v4a.667.667 0 101.334 0zM36.666 2H36a.666.666 0 00-.667.667v2a2 2 0 01-4 0v-2A.667.667 0 0030.666 2H9.334a.666.666 0 00-.667.667v2a2 2 0 01-4 0v-2A.666.666 0 004 2h-.666A3.337 3.337 0 000 5.333v25.333a3.337 3.337 0 003.334 3.333h13.25a12.644 12.644 0 0023.393-6.221.644.644 0 00.023-.112V5.333A3.337 3.337 0 0036.666 2zM35.08 17.333a12.606 12.606 0 00-5.08-2.379v-3.62h8.667v5.999H35.08zm-20.124 7.333h-3.621v-6h6.787a12.634 12.634 0 00-3.166 6zm4.378-13.333v6h-8v-6h8zm-9.333 6H1.334v-6H10v6zm-8.666 1.333H10v6H1.334v-6zm19.333-7.333h8v3.405a12.573 12.573 0 00-8 1.845v-5.25zm-17.333-8v1.334a3.333 3.333 0 006.666 0V3.333h20v1.334a3.333 3.333 0 006.666 0V3.333a2.002 2.002 0 012 2V10H1.334V5.333a2.002 2.002 0 012-2zm-2 27.333v-4.667H10v6.667H3.334a2.002 2.002 0 01-2-2zm10 2v-6.667h3.405a12.57 12.57 0 001.122 6.666h-4.527zm16 6C21.073 38.666 16 33.592 16 27.333 16 21.073 21.074 16 27.333 16c6.26 0 11.333 5.074 11.333 11.333-.007 6.256-5.077 11.326-11.333 11.333zm9.211-20h2.121v3.044a12.701 12.701 0 00-2.12-3.044zM34 .666v4a.667.667 0 11-1.334 0v-4a.667.667 0 111.334 0zm-6.667 16.667c-5.523 0-10 4.477-10 10 0 5.522 4.477 10 10 10s10-4.478 10-10c-.006-5.52-4.48-9.994-10-10zm0 18.666A8.666 8.666 0 1136 27.333a8.676 8.676 0 01-8.666 8.666zM23.855 22.35h6.48c.39 0 .51.135.51.51v.525c0 .3-.03.42-.15.72L26.9 32.55c-.165.39-.3.45-.945.45h-.825c-.375 0-.405-.195-.255-.51l3.81-8.385h-4.83c-.375 0-.51-.135-.51-.51v-.735c0-.375.135-.51.51-.51z" fill="#F78E9B"/></g><defs><clipPath id="clip0"><path fill="#fff" d="M0 0h40v40H0z"/></clipPath></defs></svg>