<svg width="46" height="46" fill="none" xmlns="http://www.w3.org/2000/svg"><g clip-path="url(#clip0)" fill="#B487CA"><path d="M33.949 32.971h.551c6.348-.007 11.493-5.151 11.5-11.5a5.374 5.374 0 00-5.367-5.366H38.23c.065-1.019.103-2.041.103-3.067a.767.767 0 00-.766-.767H.767a.767.767 0 00-.767.767A47.399 47.399 0 007.62 38.84l.17.265H.768A.767.767 0 000 39.87a3.838 3.838 0 003.833 3.834H34.5a3.838 3.838 0 003.833-3.834.767.767 0 00-.766-.766h-7.024l.171-.265a47.66 47.66 0 003.235-5.869zm4.156-15.333h2.528a3.838 3.838 0 013.834 3.833 9.975 9.975 0 01-9.839 9.96c.218-.518.426-1.04.626-1.565a8.44 8.44 0 007.68-8.395 2.3 2.3 0 00-2.3-2.3H37.93c.067-.51.125-1.022.175-1.533zm-.4 3.067h2.928c.424 0 .767.343.767.766a6.91 6.91 0 01-5.562 6.768 47.326 47.326 0 001.867-7.534zM36.67 40.638A2.304 2.304 0 0134.5 42.17H3.833a2.304 2.304 0 01-2.169-1.533H36.67zm-7.243-2.63l-.71 1.097H9.617l-.71-1.097A45.86 45.86 0 011.54 13.805h35.255a45.859 45.859 0 01-7.368 24.203zM20.056 6.646a3.038 3.038 0 00-.462-.38 1.5 1.5 0 01-.23-2.308l.345-.345a.767.767 0 10-1.084-1.084l-.345.345a3.033 3.033 0 00.46 4.668 1.5 1.5 0 01.23 2.309l-.345.345a.767.767 0 101.065 1.103l.019-.019.345-.345a3.033 3.033 0 00.002-4.29zM24.656 6.646a3.032 3.032 0 00-.462-.38 1.5 1.5 0 01-.23-2.307l.345-.345a.767.767 0 10-1.084-1.085l-.345.345a3.033 3.033 0 00.46 4.669 1.5 1.5 0 01.23 2.308l-.345.345A.767.767 0 0024.29 11.3l.019-.019.345-.345a3.033 3.033 0 00.002-4.289zM15.456 6.646a3.038 3.038 0 00-.462-.38 1.5 1.5 0 01-.23-2.308l.345-.345a.767.767 0 10-1.084-1.084l-.345.345a3.033 3.033 0 00.46 4.668 1.5 1.5 0 01.23 2.309l-.345.345a.767.767 0 101.065 1.103l.019-.019.345-.345a3.033 3.033 0 00.002-4.29z"/><path d="M7.415 28.86h.002a46.043 46.043 0 01-2.05-6.786.767.767 0 10-1.498.328 47.525 47.525 0 002.116 7.014.767.767 0 001.43-.555zM9.12 32.715a47.067 47.067 0 01-.407-.838.767.767 0 10-1.386.655c.136.29.276.578.42.865a.767.767 0 001.373-.682z"/></g><defs><clipPath id="clip0"><path fill="#fff" d="M0 0h46v46H0z"/></clipPath></defs></svg>