<svg width="16" height="15" fill="none" xmlns="http://www.w3.org/2000/svg"><path d="M14.594 2.06h-2.125V1.046c0-.254-.21-.46-.469-.46a.464.464 0 00-.469.46V2.06H8.47V1.047c0-.254-.21-.46-.469-.46a.464.464 0 00-.469.46V2.06H4.47V1.047c0-.254-.21-.46-.469-.46a.464.464 0 00-.469.46V2.06H1.406C.631 2.06 0 2.68 0 3.44v10.18C0 14.38.63 15 1.406 15h13.188c.775 0 1.406-.62 1.406-1.38V3.44c0-.76-.63-1.38-1.406-1.38zm-13.188.92h2.125V3.99c0 .254.21.46.469.46a.464.464 0 00.469-.46V2.979H7.53v1.012c0 .254.21.46.469.46a.464.464 0 00.469-.46V2.979h3.062v1.012c0 .254.21.46.469.46a.464.464 0 00.469-.46V2.979h2.125c.258 0 .469.206.469.46v2.054H.937V3.44c0-.254.21-.46.47-.46zm13.188 11.1H1.406a.465.465 0 01-.468-.46V6.412h14.124v7.206c0 .254-.21.46-.468.46z" fill="#586E8E"/></svg>