<svg width="46" height="46" fill="none" xmlns="http://www.w3.org/2000/svg"><g clip-path="url(#clip0)"><path d="M45.56 12.776L31.014 7.23a.684.684 0 00-.487 1.277L43.4 13.414l-8.91 3.398-11.207-5.074a.683.683 0 10-.564 1.245l9.972 4.515L23 21.192 2.6 13.414 23 5.637l5.027 1.917a.684.684 0 00.487-1.277l-5.27-2.01a.684.684 0 00-.488 0L.44 12.777a.684.684 0 00-.44.638v3.12c0 .284.175.538.44.639l6.969 2.657v2.367a.683.683 0 101.366 0v-1.846l13.981 5.33a.685.685 0 00.488 0l10.539-4.018v10.812A23.245 23.245 0 0123 35.143 23.246 23.246 0 018.775 30.26v-5.33a.683.683 0 10-1.366 0v5.661c0 .207.094.404.255.533A24.615 24.615 0 0023 36.51c3.746 0 7.442-.87 10.783-2.502v2.765a2.6 2.6 0 00-1.913 2.504 2.599 2.599 0 002.596 2.596 2.6 2.6 0 002.596-2.596 2.6 2.6 0 00-1.913-2.504v-3.487a24.349 24.349 0 003.187-2.16.683.683 0 00.256-.534V19.829l6.968-2.657c.265-.1.44-.354.44-.638v-3.12a.684.684 0 00-.44-.638zm-9.865 26.5c0 .677-.551 1.23-1.23 1.23-.677 0-1.229-.553-1.229-1.23 0-.678.552-1.23 1.23-1.23.678 0 1.23.552 1.23 1.23zM1.366 14.406l20.95 7.988v1.657l-20.95-7.988v-1.657zm22.317 9.645v-1.657l10.1-3.85V20.2l-10.1 3.85zm13.542 6.209c-.666.518-1.36.998-2.076 1.438V21.142l2.076-.792v9.91zM35.15 19.68v-1.658l9.485-3.616v1.657l-9.485 3.617z" fill="#A98DD1"/></g><defs><clipPath id="clip0"><path fill="#fff" d="M0 0h46v46H0z"/></clipPath></defs></svg>