<svg width="20" height="20" fill="none" xmlns="http://www.w3.org/2000/svg"><g clip-path="url(#clip0)"><path d="M19.99.726a.82.82 0 00-.052-.206l-.001-.006-.001-.001a.847.847 0 00-.113-.188l-.033-.04a.85.85 0 00-.16-.144l-.005-.003a.818.818 0 00-.24-.105.83.83 0 00-.218-.033h-5.834a.834.834 0 000 1.667h3.821L12.181 6.64A7.457 7.457 0 007.5 5C3.365 5 0 8.365 0 12.5S3.365 20 7.5 20s7.5-3.365 7.5-7.5c0-1.72-.58-3.353-1.64-4.68l4.973-4.975v3.822a.834.834 0 001.667 0V.833c0-.017-.004-.034-.005-.05a.796.796 0 00-.006-.057zM7.5 18.333A5.84 5.84 0 011.667 12.5 5.84 5.84 0 017.5 6.667a5.81 5.81 0 014.126 1.705 5.812 5.812 0 011.707 4.128A5.84 5.84 0 017.5 18.333z" fill="#5DB9FD"/></g><defs><clipPath id="clip0"><path fill="#fff" d="M0 0h20v20H0z"/></clipPath></defs></svg>