<svg width="20" height="20" fill="none" xmlns="http://www.w3.org/2000/svg"><g clip-path="url(#clip0)"><path d="M14.698 11.335a6.648 6.648 0 000-9.393 6.653 6.653 0 00-9.396 0 6.648 6.648 0 000 9.393 6.612 6.612 0 003.916 1.896v2.224H7.655a.781.781 0 100 1.562h1.563v2.202a.782.782 0 001.564 0v-2.202h1.563a.781.781 0 100-1.562h-1.563V13.23a6.613 6.613 0 003.916-1.896zm-8.29-1.105a5.084 5.084 0 010-7.183 5.087 5.087 0 017.184 0 5.084 5.084 0 010 7.183 5.088 5.088 0 01-7.184 0z" fill="#E56BAE"/></g><defs><clipPath id="clip0"><path fill="#fff" d="M0 0h20v20H0z"/></clipPath></defs></svg>