<svg width="46" height="46" fill="none" xmlns="http://www.w3.org/2000/svg"><g clip-path="url(#clip0)" fill="#F78E9B"><path d="M.279 12.531c.14.342.49.568.858.555.372-.013.7-.26.821-.61a.906.906 0 00-.28-.982.906.906 0 00-1.056-.061.906.906 0 00-.343 1.098z"/><path d="M37.29 19.417a12.86 12.86 0 00.862-5.38c-.13-2.735-1.395-5.365-3.563-7.405-2.08-1.958-4.725-3.081-7.254-3.081-3.768 0-6.713 2.104-8.133 3.357a.277.277 0 01-.366.005c-1.472-1.256-4.481-3.362-8.103-3.362-2.992 0-6.177 1.614-8.312 4.213a.898.898 0 001.388 1.141c1.803-2.194 4.456-3.557 6.924-3.557 3.045 0 5.653 1.837 6.937 2.932a2.086 2.086 0 002.721-.024c1.23-1.086 3.768-2.908 6.944-2.908 4.061 0 8.783 3.753 9.023 8.775a11.097 11.097 0 01-.876 4.976 11.58 11.58 0 00-1.096-.052c-6.404 0-11.614 5.249-11.614 11.7 0 .306.011.608.034.908-.889.724-1.61 1.318-2.214 1.829a2.426 2.426 0 01-3.146 0c-.815-.692-1.875-1.555-2.997-2.47-4.05-3.3-9.598-7.82-10.933-10.09-.878-1.49-1.403-2.842-1.651-4.25a11.005 11.005 0 01-.076-.493.898.898 0 10-1.782.231c.025.19.055.384.088.573.287 1.627.882 3.169 1.872 4.851 1.499 2.547 6.96 6.996 11.347 10.571 1.115.91 2.168 1.768 2.97 2.447a4.22 4.22 0 005.469.001c.403-.341.863-.722 1.392-1.157 1.302 5.029 5.848 8.751 11.24 8.751C40.79 42.449 46 37.199 46 30.748c0-5.442-3.706-10.028-8.71-11.33zm-2.904 21.235c-5.413 0-9.818-4.443-9.818-9.904 0-5.462 4.405-9.905 9.818-9.905 5.413 0 9.817 4.444 9.817 9.905 0 5.461-4.404 9.904-9.817 9.904z"/><path d="M38.69 27.66h-1.235v-1.253a1.997 1.997 0 00-1.99-1.999h-2.158c-1.097 0-1.99.897-1.99 1.999v1.253h-1.234c-1.098 0-1.99.897-1.99 2v2.176c0 1.102.892 1.999 1.99 1.999h1.234v1.253c0 1.102.893 2 1.99 2h2.158c1.097 0 1.99-.898 1.99-2v-1.253h1.234c1.098 0 1.99-.897 1.99-2V29.66a1.997 1.997 0 00-1.99-1.998zm.193 4.176a.198.198 0 01-.194.202h-2.133a.899.899 0 00-.898.898v2.152a.198.198 0 01-.193.202h-2.158a.198.198 0 01-.193-.202v-2.152a.899.899 0 00-.898-.898h-2.133a.198.198 0 01-.193-.202v-2.177c0-.111.086-.202.193-.202h2.133a.898.898 0 00.898-.898v-2.152c0-.111.087-.202.193-.202h2.158c.106 0 .193.09.193.202v2.152c0 .496.402.898.898.898h2.133c.107 0 .194.09.194.202v2.177z"/></g><defs><clipPath id="clip0"><path fill="#fff" d="M0 0h46v46H0z"/></clipPath></defs></svg>