<svg width="42" height="42" fill="none" xmlns="http://www.w3.org/2000/svg"><rect width="42" height="42" rx="3" fill="url(#paint0_linear)"/><path d="M30.951 16.882c-.047-1.063-.219-1.794-.465-2.427a4.88 4.88 0 00-1.157-1.774 4.923 4.923 0 00-1.77-1.153c-.637-.246-1.364-.418-2.427-.465-1.071-.051-1.411-.063-4.127-.063-2.716 0-3.056.012-4.123.059-1.063.047-1.794.219-2.427.465a4.88 4.88 0 00-1.774 1.157 4.923 4.923 0 00-1.153 1.77c-.246.637-.418 1.364-.465 2.427-.051 1.071-.063 1.411-.063 4.127 0 2.716.012 3.056.059 4.123.047 1.063.219 1.794.465 2.427a4.933 4.933 0 001.157 1.774c.5.508 1.106.903 1.77 1.153.637.246 1.364.418 2.427.465 1.067.047 1.407.059 4.123.059s3.056-.012 4.123-.059c1.063-.047 1.794-.219 2.427-.465a5.12 5.12 0 002.927-2.927c.246-.637.418-1.364.465-2.427.047-1.067.059-1.407.059-4.123s-.004-3.057-.051-4.123zm-1.801 8.167c-.043.977-.207 1.504-.344 1.856a3.32 3.32 0 01-1.899 1.899c-.352.137-.883.301-1.856.344-1.055.047-1.372.059-4.041.059-2.669 0-2.989-.012-4.041-.059-.977-.043-1.504-.207-1.856-.344a3.078 3.078 0 01-1.149-.746 3.102 3.102 0 01-.746-1.149c-.137-.352-.301-.883-.344-1.856-.047-1.055-.059-1.372-.059-4.041 0-2.669.012-2.989.059-4.041.043-.977.207-1.504.344-1.856a3.04 3.04 0 01.75-1.149 3.102 3.102 0 011.149-.746c.352-.137.883-.301 1.856-.344 1.055-.047 1.372-.059 4.041-.059 2.673 0 2.989.012 4.041.059.977.043 1.504.207 1.856.344.434.16.828.414 1.149.746.332.324.586.715.746 1.149.137.352.301.883.344 1.856.047 1.055.059 1.372.059 4.041 0 2.669-.012 2.982-.059 4.037zm-8.144-9.184a5.14 5.14 0 00-5.139 5.139 5.14 5.14 0 005.139 5.139 5.14 5.14 0 005.139-5.139 5.14 5.14 0 00-5.139-5.139zm0 8.473a3.334 3.334 0 010-6.666 3.333 3.333 0 010 6.666zm6.542-8.676a1.2 1.2 0 11-2.4 0 1.2 1.2 0 012.4 0z" fill="#fff"/><defs><linearGradient id="paint0_linear" x1="0" y1="51" x2="42" y2="21" gradientUnits="userSpaceOnUse"><stop stop-color="#E86AAD"/><stop offset="1" stop-color="#5CBAFE"/></linearGradient></defs></svg>