<svg width="18" height="18" fill="none" xmlns="http://www.w3.org/2000/svg"><path d="M15.363 2.635a9 9 0 10-12.726 12.73 9 9 0 0012.726-12.73zm-1.733 9.902v.001-.003l-.457.453a2.4 2.4 0 01-2.265.648 7.974 7.974 0 01-2.316-1.038 10.7 10.7 0 01-1.827-1.473A10.781 10.781 0 015.4 9.47a8.399 8.399 0 01-1.026-2.076 2.4 2.4 0 01.6-2.45l.534-.535c.149-.149.39-.15.539-.001l.001.001 1.686 1.686c.15.149.15.39.001.539l-.001.001-.99.99a.807.807 0 00-.084 1.05c.358.492.754.954 1.185 1.383.48.482 1.002.921 1.56 1.311a.813.813 0 001.038-.09l.957-.972c.149-.149.39-.15.539-.001l.001.001 1.689 1.692c.15.149.15.39.001.539z" fill="#F895A1"/></svg>