<svg width="40" height="40" fill="none" xmlns="http://www.w3.org/2000/svg"><path d="M30.589 9.005l1.702-2.96a.588.588 0 00-.217-.803L29.668 3.86a.589.589 0 00-.804.217l-1.7 2.957a17.041 17.041 0 00-4.81-1.283v-1.8h1.195a.589.589 0 00.589-.588V.59a.59.59 0 00-.59-.589H17.21a.589.589 0 00-.589.589v2.774a.589.589 0 00.589.589h1.194v1.797c-1.657.19-3.278.622-4.81 1.283l-1.7-2.957a.588.588 0 00-.803-.217L8.684 5.24a.589.589 0 00-.217.804l1.702 2.961a17.179 17.179 0 1020.42 0zm-.997-3.834l1.384.797-1.361 2.37c-.449-.286-.91-.552-1.384-.798l1.36-2.37zM17.797 1.177h5.162v1.597h-5.162V1.177zm1.782 2.775h1.598v1.7c-.265-.012-.53-.02-.8-.02-.268 0-.533.008-.798.02v-1.7zM9.782 5.968l1.384-.795 1.36 2.367c-.474.245-.935.511-1.383.798l-1.362-2.37zm10.597 32.845A16.001 16.001 0 1136.38 22.81a16.02 16.02 0 01-16.002 16.002z" fill="#F78E9B"/><path d="M31.953 29.434a13.293 13.293 0 00-.036-13.31.549.549 0 00-.027-.058.573.573 0 00-.034-.046 13.434 13.434 0 00-4.744-4.72.519.519 0 00-.05-.036.553.553 0 00-.06-.026 13.292 13.292 0 00-13.308.036.6.6 0 00-.06.027.522.522 0 00-.045.034 13.438 13.438 0 00-4.72 4.745.318.318 0 00-.063.109 13.293 13.293 0 00.036 13.309c.008.02.017.04.027.059.007.013.018.022.026.034a13.435 13.435 0 004.75 4.73.587.587 0 00.052.038c.015.008.031.011.046.019a13.295 13.295 0 0013.338-.038c.014-.007.03-.01.044-.019.014-.008.03-.022.044-.033a13.438 13.438 0 004.73-4.758c.008-.013.02-.023.028-.037a.47.47 0 00.026-.059zm-4.926 3.556l-.756-1.29a.589.589 0 00-1.016.596l.757 1.293a12.077 12.077 0 01-5.045 1.373V33.46a.589.589 0 00-1.177 0v1.502a12.072 12.072 0 01-4.984-1.344l.75-1.296a.588.588 0 00-1.018-.59l-.75 1.295A12.258 12.258 0 0110.2 29.46l1.291-.756a.589.589 0 00-.595-1.016l-1.292.758a12.076 12.076 0 01-1.374-5.046h1.502a.589.589 0 000-1.178H8.23c.083-1.738.541-3.439 1.343-4.984l1.296.75a.589.589 0 00.59-1.019l-1.295-.749a12.257 12.257 0 013.568-3.587l.756 1.29a.589.589 0 001.016-.594l-.758-1.292a12.07 12.07 0 015.046-1.374v1.502a.589.589 0 001.177 0v-1.502c1.74.083 3.44.541 4.985 1.342l-.752 1.297a.586.586 0 00.211.811.587.587 0 00.808-.221l.75-1.296a12.259 12.259 0 013.587 3.569l-1.29.756a.587.587 0 00.148 1.08.59.59 0 00.447-.064l1.293-.758a12.081 12.081 0 011.373 5.046h-1.502a.589.589 0 100 1.177h1.502a12.075 12.075 0 01-1.343 4.983l-1.296-.75a.589.589 0 00-.59 1.02l1.295.748a12.256 12.256 0 01-3.568 3.588z" fill="#F78E9B"/><path d="M29.257 22.812a.588.588 0 00-.589-.59H23a2.695 2.695 0 00-2.033-2.032v-5.668a.589.589 0 10-1.177 0v5.668A2.688 2.688 0 1023 23.4h5.668a.589.589 0 00.589-.588zm-8.878 1.51a1.511 1.511 0 11-.002-3.021 1.511 1.511 0 01.002 3.022z" fill="#F78E9B"/></svg>