<svg width="30" height="30" fill="none" xmlns="http://www.w3.org/2000/svg"><g clip-path="url(#clip0)" fill="#fff"><path d="M15 1.294c8.148 0 15 5.594 15 12.778 0 3.991-2.153 7.696-5.817 10.108l2.402 2.883c.623.747-.09 1.868-1.037 1.603l-7.456-2.088C8.879 28.22 0 22.293 0 14.072 0 6.88 6.863 1.294 15 1.294zm2.948 23.277a1 1 0 01.46.019l4.583 1.283-1.09-1.307a1 1 0 01.286-1.515C25.827 21.04 28 17.684 28 14.072 28 8.13 22.168 3.295 15 3.295S2 8.129 2 14.072c0 6.971 7.858 12.057 15.948 10.499z"/><path d="M14.992 8.118c.657 0 1.17.352 1.17.978 0 1.907-.224 4.649-.224 6.556 0 .497-.433.706-.946.706-.385 0-.93-.209-.93-.706 0-1.907-.224-4.649-.224-6.556 0-.626.529-.978 1.154-.978zM14.976 17.464c.705 0 1.234.561 1.234 1.234 0 .657-.529 1.235-1.234 1.235-.657 0-1.218-.578-1.218-1.235 0-.673.56-1.234 1.218-1.234z"/></g><defs><clipPath id="clip0"><path fill="#fff" transform="matrix(-1 0 0 1 30 0)" d="M0 0h30v30H0z"/></clipPath></defs></svg>