<svg width="42" height="42" fill="none" xmlns="http://www.w3.org/2000/svg"><rect width="42" height="42" rx="3" fill="#D972B5"/><path d="M30.967 25.58a.805.805 0 01-.005.355c-.028.104-.115.2-.26.286-.146.087-.351.13-.614.13l-2.666.041c-.167.035-.361.018-.583-.052a2.54 2.54 0 01-.542-.229l-.208-.125a4.943 4.943 0 01-.729-.666 17.86 17.86 0 01-.713-.806 3.486 3.486 0 00-.635-.604c-.226-.163-.422-.218-.589-.163a.743.743 0 00-.083.037 1.337 1.337 0 00-.401.458 2.14 2.14 0 00-.177.54 3.428 3.428 0 00-.068.808c0 .104-.012.2-.036.285a.67.67 0 01-.078.192l-.041.052c-.125.133-.309.209-.552.23h-1.199c-.493.027-1-.03-1.52-.172a5.77 5.77 0 01-1.369-.552 12.55 12.55 0 01-1.073-.689 5.948 5.948 0 01-.734-.595l-.26-.25a7.072 7.072 0 01-.287-.313 22.98 22.98 0 01-.744-.947 25.5 25.5 0 01-1.104-1.572 31.863 31.863 0 01-1.276-2.198 34.235 34.235 0 01-1.358-2.831.825.825 0 01-.063-.282.35.35 0 01.031-.167l.042-.062c.104-.131.302-.197.594-.197l2.853-.021a1.098 1.098 0 01.406.155l.052.031a.687.687 0 01.25.333c.139.349.298.707.479 1.08.18.37.323.653.427.848l.166.302c.201.416.396.776.583 1.082.188.305.356.543.505.713.149.17.293.304.432.401.139.098.257.146.354.146a.79.79 0 00.281-.051.166.166 0 00.053-.053 1.725 1.725 0 00.266-.718c.031-.2.064-.482.099-.843a8.029 8.029 0 000-1.302 4.796 4.796 0 00-.094-.76c-.049-.23-.097-.388-.146-.48l-.063-.125c-.173-.236-.468-.385-.885-.447-.09-.014-.073-.097.052-.25.118-.132.25-.236.396-.312.368-.18 1.198-.263 2.489-.25.569.008 1.038.053 1.406.136.139.034.255.082.349.14a.55.55 0 01.213.25c.048.109.085.22.109.334.024.114.036.271.036.473 0 .203-.003.393-.01.573l-.026.735c-.01.309-.015.595-.015.858 0 .076-.003.223-.01.438a8.135 8.135 0 00-.005.5c.004.117.016.258.036.422.021.163.061.299.12.405a.686.686 0 00.234.255c.056.015.115.029.177.043.062.014.153-.024.271-.115.118-.09.25-.21.396-.36.146-.149.326-.382.541-.698.215-.316.451-.689.708-1.119.417-.722.788-1.503 1.114-2.343a.715.715 0 01.104-.182.45.45 0 01.115-.109l.041-.03.052-.026.135-.031a.388.388 0 01.208-.006l2.999-.02c.271-.035.493-.026.667.026.174.05.281.107.323.17l.062.103c.16.444-.361 1.465-1.562 3.061-.167.223-.392.517-.677.886-.541.694-.854 1.149-.937 1.364-.118.285-.07.566.146.843.118.146.399.431.843.854h.011l.01.01.01.01.021.021c.979.91 1.642 1.677 1.989 2.302.021.035.044.078.068.13.024.053.048.145.073.277z" fill="#fff"/></svg>