<svg width="81" height="81" fill="none" xmlns="http://www.w3.org/2000/svg"><path d="M37.7 54.502a1.332 1.332 0 001.866-.267l6-8.01a1.337 1.337 0 00-1.066-2.136h-5.334l4.4-5.874a1.337 1.337 0 00-1.255-2.123c-.35.05-.666.238-.878.521l-6 8.01a1.335 1.335 0 001.067 2.136h5.333l-4.4 5.874a1.335 1.335 0 00.267 1.869z" fill="#03BCFC"/><path d="M79.166 45.424a1.333 1.333 0 00-1.333 1.335v2.67c0 1.062-.421 2.08-1.171 2.832a3.997 3.997 0 01-2.829 1.173h-4v-16.02h4c1.061 0 2.078.422 2.829 1.173a4.007 4.007 0 011.171 2.832 1.336 1.336 0 001.333 1.335A1.332 1.332 0 0080.5 41.42a6.692 6.692 0 00-1.505-4.22 6.677 6.677 0 00-3.829-2.321v-.134a34.646 34.646 0 00-9.038-23.373 1.332 1.332 0 00-2.304.84c-.02.35.1.694.332.957A31.99 31.99 0 0172.5 34.744h-2.667c0-7.79-3.09-15.26-8.591-20.767A29.315 29.315 0 0040.5 5.375c-7.78 0-15.24 3.094-20.742 8.602a29.388 29.388 0 00-8.591 20.767H8.5A32.097 32.097 0 0117.883 12.1 32.017 32.017 0 0140.5 2.705a31.634 31.634 0 0119.867 6.928 1.333 1.333 0 101.657-2.092A34.268 34.268 0 0040.5.035a34.684 34.684 0 00-24.502 10.177A34.77 34.77 0 005.833 34.744v.134a6.677 6.677 0 00-3.828 2.32A6.692 6.692 0 00.5 41.42v8.01a6.687 6.687 0 001.955 4.718 6.67 6.67 0 004.712 1.957h4c0 1.416.562 2.774 1.562 3.776a5.33 5.33 0 003.771 1.564h4a1.332 1.332 0 001.333-1.335v-5.34a1.336 1.336 0 00-1.333-1.335 1.333 1.333 0 00-1.333 1.335v4.005H16.5a2.665 2.665 0 01-2.667-2.67v-6.675a1.336 1.336 0 00-1.333-1.335 1.332 1.332 0 00-1.333 1.335v4.005h-4a3.997 3.997 0 01-2.829-1.173 4.008 4.008 0 01-1.171-2.832v-8.01a3.997 3.997 0 014-4.005h4v6.675a1.336 1.336 0 001.333 1.335 1.332 1.332 0 001.333-1.335v-9.345a2.672 2.672 0 012.667-2.67h2.667V49.43a1.336 1.336 0 001.333 1.335 1.332 1.332 0 001.333-1.335v-18.69a1.336 1.336 0 00-1.333-1.335h-4a5.275 5.275 0 00-2.204.491 26.684 26.684 0 019.154-15.67A26.624 26.624 0 0140.5 8.046c6.23 0 12.263 2.185 17.05 6.177a26.684 26.684 0 019.154 15.671 5.275 5.275 0 00-2.204-.49h-4a1.333 1.333 0 00-1.334 1.334v29.37a1.336 1.336 0 001.334 1.335h4a5.33 5.33 0 003.771-1.564 5.343 5.343 0 001.562-3.776h1.334v5.34a12.037 12.037 0 01-3.52 8.492 12.006 12.006 0 01-8.48 3.523H56.31a5.34 5.34 0 00-5.144-4.005h-5.333a5.33 5.33 0 00-3.771 1.564 5.343 5.343 0 000 7.552 5.33 5.33 0 003.771 1.564h5.334a5.329 5.329 0 005.143-4.005h2.856a14.675 14.675 0 0010.366-4.307 14.711 14.711 0 004.301-10.378v-5.34a6.67 6.67 0 004.712-1.957 6.687 6.687 0 001.955-4.718v-2.67a1.336 1.336 0 00-1.334-1.335zm-12 10.68a2.672 2.672 0 01-2.666 2.67h-2.667v-26.7H64.5a2.665 2.665 0 012.666 2.67v21.36zm-16 21.36h-5.333a2.665 2.665 0 01-2.666-2.67 2.672 2.672 0 012.666-2.67h5.334a2.665 2.665 0 012.666 2.67 2.672 2.672 0 01-2.666 2.67z" fill="#03BCFC"/><path d="M56.5 45.424a15.94 15.94 0 00-2.822-9.078 1.336 1.336 0 00-1.384-.57 1.333 1.333 0 00-1.028 1.603c.04.174.113.337.217.481a13.38 13.38 0 01-2.455 17.851 13.338 13.338 0 01-17.979-.82 13.376 13.376 0 01-.825-18 13.337 13.337 0 0117.828-2.465 1.332 1.332 0 002.075-1.338 1.337 1.337 0 00-.56-.859 15.986 15.986 0 00-19.693 1.223 16.037 16.037 0 00-3.534 19.435 16.008 16.008 0 007.605 7.155 15.981 15.981 0 0010.394.938 15.997 15.997 0 008.76-5.677 16.032 16.032 0 003.4-9.879z" fill="#03BCFC"/></svg>