<svg width="156" height="63" fill="none" xmlns="http://www.w3.org/2000/svg"><path d="M3.174 60.55H.54v-6.59l.974-.325c.24-.216.445-.456.614-.72.192-.288.36-.648.505-1.08.144-.433.252-.961.325-1.586.096-.648.168-1.452.216-2.413l.36-9.545h9.598v15.272h1.298v6.988h-2.597v-4.467H3.174v4.467zm7.107-19.737H6.277l-.361 7.131a35.226 35.226 0 01-.325 3.35c-.144.913-.385 1.669-.721 2.27h5.411V40.812zM26.329 53.707c.697 0 1.215-.228 1.551-.684.361-.48.566-1.14.614-1.981l2.922.54c-.096 1.537-.577 2.714-1.443 3.53-.842.816-2.129 1.225-3.86 1.225-.77 0-1.432-.096-1.985-.289a5.252 5.252 0 01-1.407-.792 4.549 4.549 0 01-.938-1.117 5.124 5.124 0 01-.469-1.224 8.377 8.377 0 01-.18-1.08c-.048-.433-.085-.901-.108-1.405l-.073-1.585v-1.477-1.8c.024-.625.06-1.213.109-1.766.048-.552.108-1.056.18-1.513a5.73 5.73 0 01.289-1.188c.336-.937.89-1.681 1.66-2.233.793-.553 1.863-.829 3.21-.829 1.78 0 3.067.493 3.86 1.477.794.985 1.191 2.341 1.191 4.07v4.394h-7.649c0 .793.012 1.573.037 2.342.048.768.132 1.356.252 1.764.337 1.081 1.082 1.621 2.237 1.621zm2.237-8.032v-1.513a7.44 7.44 0 00-.108-1.296 3.044 3.044 0 00-.325-1.117 1.737 1.737 0 00-.722-.72c-.288-.192-.673-.288-1.154-.288-.433 0-.83.108-1.19.324-.362.192-.65.564-.867 1.116-.12.337-.204.793-.252 1.37a39.911 39.911 0 00-.108 2.124h4.726zM38.683 56.084V38.328h2.85v7.708h1.227c.312 0 .637-.024.974-.072.336-.048.65-.156.938-.324.312-.192.589-.456.83-.792.264-.36.468-.829.613-1.405l1.37-5.114h2.743l-1.407 5.15c-.24.864-.566 1.597-.974 2.197-.385.577-.89.96-1.516 1.153.794.192 1.371.6 1.732 1.224.385.625.698 1.381.938 2.27l1.551 5.762h-2.814l-1.226-4.898c-.145-.576-.325-1.044-.541-1.405-.217-.384-.47-.672-.758-.864a2.69 2.69 0 00-.974-.396 5.17 5.17 0 00-1.082-.108h-1.624v7.672h-2.85zM55.82 54.572c.505-.337.914-.66 1.226-.973.337-.312.602-.66.794-1.044.193-.408.325-.9.397-1.477.072-.576.108-1.297.108-2.161V38.29h9.489v17.794h-2.886V40.813h-4.005v8.212c0 1.129-.072 2.101-.217 2.917-.12.793-.336 1.49-.649 2.09a4.692 4.692 0 01-1.19 1.548c-.482.408-1.083.78-1.804 1.117l-1.263-2.125zM82.41 54.536c-.48.648-1.033 1.104-1.659 1.368-.601.264-1.287.397-2.056.397-.746 0-1.371-.145-1.876-.433a3.868 3.868 0 01-1.227-1.188 6.263 6.263 0 01-.65-1.657c-.12-.624-.18-1.26-.18-1.91 0-.671.073-1.344.217-2.016a5.398 5.398 0 01.758-1.837c.36-.552.853-.996 1.479-1.333.625-.36 1.43-.54 2.417-.54h2.814V43.01c0-.697-.168-1.249-.505-1.657-.313-.408-.926-.612-1.84-.612-.481 0-.95.144-1.407.432-.457.288-.746.756-.866 1.405l-2.706-.757c.265-1.176.842-2.1 1.732-2.773.89-.672 2.02-1.009 3.391-1.009 1.612 0 2.862.372 3.752 1.117.89.72 1.335 1.993 1.335 3.818v13.11h-2.886v-1.548h-.036zm.037-6.664h-2.093c-.745 0-1.407.228-1.984.685-.553.432-.83 1.224-.83 2.377 0 .84.18 1.489.542 1.945.36.432.926.648 1.695.648.89 0 1.552-.252 1.984-.756.458-.505.686-1.2.686-2.09v-2.809zM98.91 38.04c.313 0 .698.047 1.155.143.457.072.89.264 1.299.577.433.288.817.72 1.154 1.296.337.577.565 1.357.686 2.342.072.72.108 1.476.108 2.269.024.792.036 1.536.036 2.233 0 1.297-.036 2.521-.108 3.674-.048 1.128-.229 2.113-.541 2.953-.289.84-.746 1.513-1.371 2.017-.626.48-1.504.72-2.634.72-.698 0-1.299-.12-1.804-.36a3.515 3.515 0 01-1.263-1.116h-.072V63h-2.85V38.255h2.85v1.37l.072.035c.385-.528.794-.924 1.227-1.188.433-.289 1.118-.433 2.056-.433zm-.974 2.773c-.794 0-1.395.264-1.804.792-.409.528-.613 1.2-.613 2.017v7.06c0 .84.192 1.512.577 2.017.385.504.998.756 1.84.756.53 0 .95-.096 1.263-.288.337-.216.59-.576.758-1.08.192-.505.324-1.165.396-1.982.073-.84.109-1.872.109-3.097 0-1.105-.024-2.041-.072-2.81-.025-.792-.121-1.44-.289-1.945-.168-.504-.421-.864-.758-1.08-.336-.24-.806-.36-1.407-.36zM117.969 54.536c-.481.648-1.034 1.104-1.66 1.368-.601.264-1.287.397-2.056.397-.746 0-1.371-.145-1.876-.433a3.873 3.873 0 01-1.227-1.188 6.238 6.238 0 01-.649-1.657 10.01 10.01 0 01-.181-1.91c0-.671.072-1.344.217-2.016a5.406 5.406 0 01.757-1.837 3.975 3.975 0 011.48-1.333c.625-.36 1.431-.54 2.417-.54h2.814V43.01c0-.697-.169-1.249-.505-1.657-.313-.408-.926-.612-1.84-.612-.481 0-.95.144-1.407.432-.457.288-.746.756-.866 1.405l-2.706-.757c.265-1.176.842-2.1 1.732-2.773.89-.672 2.02-1.009 3.391-1.009 1.612 0 2.862.372 3.752 1.117.89.72 1.335 1.993 1.335 3.818v13.11h-2.886v-1.548h-.036zm.036-6.664h-2.093c-.745 0-1.407.228-1.984.685-.553.432-.83 1.224-.83 2.377 0 .84.181 1.489.541 1.945.361.432.926.648 1.696.648.89 0 1.551-.252 1.984-.756.457-.505.686-1.2.686-2.09v-2.809zM136.344 56.084v-7.888h-4.69v7.889h-2.922V38.29h2.922v7.492h4.69v-7.492h2.923v17.794h-2.923zM152.211 40.813v15.271h-2.814V40.813h-3.752V38.29h10.354v2.522h-3.788z" fill="#03BCFC"/><path d="M6.35 1.405v23.664H4.762V1.405H0V0h11.112v1.405H6.35zM19.314 16.136c-.53 0-1.022.072-1.48.216a2.891 2.891 0 00-1.19.72c-.337.337-.601.781-.794 1.333-.192.529-.288 1.177-.288 1.945 0 .96.24 1.79.721 2.486.505.672 1.371 1.008 2.598 1.008 1.034 0 1.888-.276 2.561-.828.674-.577 1.01-1.417 1.01-2.522v-4.358h-3.138zm-4.799-5.979a4.328 4.328 0 011.696-2.16c.794-.53 1.816-.793 3.067-.793 1.515 0 2.681.348 3.5 1.044.817.673 1.226 1.885 1.226 3.638v13.183h-1.551v-1.585h-.037c-.577.792-1.238 1.297-1.984 1.513a8.25 8.25 0 01-2.128.288c-.794 0-1.468-.132-2.02-.396a3.913 3.913 0 01-1.3-1.117 4.897 4.897 0 01-.757-1.549 7.987 7.987 0 01-.217-1.873c0-.672.072-1.332.217-1.98a5.15 5.15 0 01.83-1.802c.384-.552.89-.996 1.515-1.332.65-.336 1.455-.505 2.417-.505h3.464v-2.809c0-.48-.049-.912-.145-1.297a2.495 2.495 0 00-.505-1.044c-.24-.288-.577-.516-1.01-.684-.409-.169-.938-.253-1.587-.253a4.13 4.13 0 00-1.985.505 2.41 2.41 0 00-1.226 1.512l-1.48-.504zM40.808 11.13c-.433.936-.866 1.849-1.299 2.737a153.83 153.83 0 00-1.226 2.737l-2.093 4.43h-1.082c-.337-.744-.674-1.476-1.01-2.196l-1.01-2.162-2.562-5.618-.036.036v13.975h-1.552V7.456h1.516l5.231 11.31h.036l5.267-11.31h1.516v17.613h-1.552v-13.94h-.144zM52.274 7.204c1.323 0 2.333.252 3.03.756.698.504 1.18 1.14 1.444 1.909.12.312.204.732.253 1.26.072.505.12 1.07.144 1.694.048.6.072 1.224.072 1.872V17c0 .625-.012 1.261-.036 1.91 0 .648-.036 1.356-.108 2.125-.072.84-.277 1.537-.614 2.089-.312.552-.71.996-1.19 1.332a4.262 4.262 0 01-1.515.649 6.43 6.43 0 01-1.624.216c-1.443 0-2.525-.288-3.247-.865a4.624 4.624 0 01-1.443-2.269 8.36 8.36 0 01-.18-1.08 24.918 24.918 0 01-.109-1.477 35.577 35.577 0 01-.036-1.62v-1.55-1.909c.024-.648.048-1.26.072-1.837.049-.576.109-1.092.18-1.548.073-.48.157-.865.253-1.153a4.11 4.11 0 011.588-2.017c.745-.528 1.767-.792 3.066-.792zm-.036 1.404c-.625 0-1.226.132-1.804.397-.577.24-1.01.72-1.298 1.44-.193.48-.313 1.237-.361 2.27a75.219 75.219 0 00-.072 3.53v.9c0 1.152.012 2.125.036 2.917.048.793.144 1.405.288 1.837.217.648.578 1.153 1.083 1.513.529.336 1.238.504 2.128.504.794 0 1.48-.216 2.057-.648.577-.432.962-1.033 1.154-1.801.096-.408.157-1.057.18-1.945.049-.888.073-1.837.073-2.845 0-.529-.012-1.093-.036-1.693 0-.6-.012-1.177-.036-1.73 0-.551-.025-1.044-.073-1.476-.048-.456-.108-.804-.18-1.045-.216-.72-.613-1.248-1.19-1.584-.554-.36-1.203-.54-1.949-.54zM69.47 25.069v-8.32h-2.237c-.841 0-1.55.18-2.128.54-.577.336-1.022 1.092-1.335 2.269l-1.371 5.51h-1.551l1.479-5.726c.24-.865.541-1.597.902-2.197.36-.625.962-1.033 1.804-1.225a2.76 2.76 0 01-1.588-1.152c-.36-.6-.661-1.333-.902-2.198l-1.335-5.114h1.444l1.443 5.366c.144.553.348.997.613 1.333.264.336.541.6.83.793.312.192.637.324.974.396.337.048.673.072 1.01.072h1.948v-7.96h1.552v7.96h1.948c.313 0 .637-.024.974-.072.36-.072.685-.204.974-.396a3.33 3.33 0 00.866-.793c.264-.336.469-.78.613-1.332l1.443-5.367h1.443L77.95 12.57c-.241.865-.554 1.597-.939 2.197-.36.577-.877.961-1.55 1.153.841.192 1.442.6 1.803 1.225.36.6.661 1.332.902 2.197l1.48 5.727h-1.552l-1.371-5.511c-.313-1.177-.758-1.933-1.335-2.27-.577-.36-1.287-.54-2.129-.54h-2.236v8.32H69.47zM88.259 7.204c1.443 0 2.561.372 3.355 1.116.818.72 1.263 1.765 1.335 3.134.024.264.036.528.036.792v4.25H84.76v1.153c0 .768.012 1.573.037 2.413.048.817.144 1.429.288 1.837.217.624.565 1.117 1.046 1.477.481.36 1.13.54 1.949.54 1.082 0 1.876-.312 2.38-.936.53-.625.83-1.393.903-2.306l1.551.289c-.12 1.416-.613 2.497-1.48 3.241-.865.745-1.984 1.117-3.354 1.117-.722 0-1.36-.084-1.913-.252a4.684 4.684 0 01-1.334-.72 3.658 3.658 0 01-.866-.973 4.53 4.53 0 01-.47-1.189 8.342 8.342 0 01-.18-1.116 25.264 25.264 0 01-.108-1.441c0-.528-.012-1.069-.036-1.62v-1.55-1.945c.024-.648.048-1.26.072-1.837.048-.576.108-1.104.18-1.584.073-.48.157-.865.253-1.153.313-.84.83-1.5 1.551-1.981.722-.504 1.732-.756 3.03-.756zm-3.103 3.313c-.168.409-.276 1.02-.325 1.837-.023.793-.048 1.741-.072 2.846h6.675v-2.197c0-.553-.036-1.093-.108-1.621a3.324 3.324 0 00-.433-1.405 2.372 2.372 0 00-.975-.972c-.432-.24-1.01-.36-1.731-.36-.602 0-1.179.131-1.732.396-.553.264-.986.756-1.299 1.476zM105.93 25.069v-8.357h-6.603v8.357H97.74V7.456h1.588v7.852h6.602V7.456h1.623v17.613h-1.623zM120.734 25.069v-8.357h-6.602v8.357h-1.587V7.456h1.587v7.852h6.602V7.456h1.624v17.613h-1.624zM128.865 23.592h2.633c.818 0 1.492-.096 2.021-.288.553-.216.986-.492 1.298-.829.337-.336.566-.72.686-1.152.12-.456.18-.937.18-1.44 0-1.105-.336-1.946-1.01-2.522-.649-.6-1.72-.9-3.211-.9h-2.597v7.131zm9.993 1.477V7.456h1.588v17.613h-1.588zm-11.509 0V7.456h1.516v7.528h2.705c1.107 0 2.021.132 2.742.396.722.24 1.299.576 1.732 1.008.433.432.734.949.902 1.55.193.575.289 1.2.289 1.872a8.11 8.11 0 01-.253 2.053 4.208 4.208 0 01-.866 1.657c-.409.48-.986.864-1.731 1.152-.722.265-1.636.397-2.742.397h-4.294zM147.303.972a3.333 3.333 0 001.01 1.945c.578.529 1.239.793 1.985.793.769 0 1.431-.24 1.984-.72.577-.505.926-1.177 1.046-2.018h1.299a5.235 5.235 0 01-.361 1.405 4.725 4.725 0 01-.83 1.297c-.36.384-.805.708-1.334.972-.505.24-1.107.36-1.804.36-.722 0-1.347-.12-1.876-.36a4.844 4.844 0 01-1.299-.972 5.025 5.025 0 01-.794-1.333 6.311 6.311 0 01-.325-1.369h1.299zm6.891 24.097V10.3h-.036a699.605 699.605 0 00-3.572 7.384 419.474 419.474 0 01-3.607 7.384h-1.516V7.456h1.552v14.731l7.179-14.731h1.551v17.613h-1.551z" fill="#4F4F4F"/></svg>