<svg width="156" height="64" fill="none" xmlns="http://www.w3.org/2000/svg"><path d="M3.348 61.464H.72v-6.588l.972-.324a3.48 3.48 0 00.612-.72c.192-.288.36-.648.504-1.08.144-.432.252-.96.324-1.584.096-.648.168-1.452.216-2.412l.36-9.54h9.576V54.48h1.296v6.984h-2.592V57h-8.64v4.464zm7.092-19.728H6.444l-.36 7.128a35.267 35.267 0 01-.324 3.348c-.144.912-.384 1.668-.72 2.268h5.4V41.736zM26.453 54.624c.696 0 1.212-.228 1.548-.684.36-.48.564-1.14.612-1.98l2.916.54c-.096 1.536-.576 2.712-1.44 3.528-.84.816-2.124 1.224-3.852 1.224-.768 0-1.428-.096-1.98-.288a5.233 5.233 0 01-1.404-.792 4.544 4.544 0 01-.936-1.116 5.125 5.125 0 01-.468-1.224 8.373 8.373 0 01-.18-1.08c-.048-.432-.084-.9-.108-1.404l-.072-1.584v-1.476-1.8c.024-.624.06-1.212.108-1.764a21.93 21.93 0 01.18-1.512c.072-.48.168-.876.288-1.188.336-.936.888-1.68 1.656-2.232.792-.552 1.86-.828 3.204-.828 1.776 0 3.06.492 3.852 1.476.792.984 1.188 2.34 1.188 4.068V48.9h-7.632c0 .792.012 1.572.036 2.34.048.768.132 1.356.252 1.764.336 1.08 1.08 1.62 2.232 1.62zm2.232-8.028v-1.512c0-.456-.036-.888-.108-1.296a3.047 3.047 0 00-.324-1.116 1.735 1.735 0 00-.72-.72c-.288-.192-.672-.288-1.152-.288-.432 0-.828.108-1.188.324-.36.192-.648.564-.864 1.116-.12.336-.204.792-.252 1.368a40 40 0 00-.108 2.124h4.716zM38.78 57V39.252h2.844v7.704h1.224c.312 0 .636-.024.972-.072.336-.048.648-.156.936-.324.312-.192.588-.456.828-.792.264-.36.468-.828.612-1.404l1.368-5.112H50.3L48.896 44.4c-.24.864-.564 1.596-.972 2.196-.384.576-.888.96-1.512 1.152.792.192 1.368.6 1.728 1.224.384.624.696 1.38.936 2.268L50.624 57h-2.808l-1.224-4.896c-.144-.576-.324-1.044-.54-1.404-.216-.384-.468-.672-.756-.864a2.68 2.68 0 00-.972-.396 5.149 5.149 0 00-1.08-.108h-1.62V57H38.78zM55.88 55.488c.504-.336.912-.66 1.224-.972.336-.312.6-.66.792-1.044.192-.408.324-.9.396-1.476.072-.576.108-1.296.108-2.16v-10.62h9.468V57h-2.88V41.736h-3.996v8.208c0 1.128-.072 2.1-.216 2.916-.12.792-.336 1.488-.648 2.088a4.69 4.69 0 01-1.188 1.548c-.48.408-1.08.78-1.8 1.116l-1.26-2.124zM82.414 55.452c-.48.648-1.032 1.104-1.656 1.368-.6.264-1.284.396-2.052.396-.744 0-1.368-.144-1.872-.432a3.861 3.861 0 01-1.224-1.188 6.264 6.264 0 01-.648-1.656 10.08 10.08 0 01-.18-1.908c0-.672.072-1.344.216-2.016a5.4 5.4 0 01.756-1.836c.36-.552.852-.996 1.476-1.332.624-.36 1.428-.54 2.412-.54h2.808v-2.376c0-.696-.168-1.248-.504-1.656-.312-.408-.924-.612-1.836-.612-.48 0-.948.144-1.404.432-.456.288-.744.756-.864 1.404l-2.7-.756c.264-1.176.84-2.1 1.728-2.772.888-.672 2.016-1.008 3.384-1.008 1.608 0 2.856.372 3.744 1.116.888.72 1.332 1.992 1.332 3.816V57h-2.88v-1.548h-.036zm.036-6.66h-2.088c-.744 0-1.404.228-1.98.684-.552.432-.828 1.224-.828 2.376 0 .84.18 1.488.54 1.944.36.432.924.648 1.692.648.888 0 1.548-.252 1.98-.756.456-.504.684-1.2.684-2.088v-2.808zM98.878 38.964c.312 0 .696.048 1.152.144a2.85 2.85 0 011.296.576c.432.288.816.72 1.152 1.296.336.576.564 1.356.684 2.34.072.72.108 1.476.108 2.268.024.792.036 1.536.036 2.232 0 1.296-.036 2.52-.108 3.672-.048 1.128-.228 2.112-.54 2.952-.288.84-.744 1.512-1.368 2.016-.624.48-1.5.72-2.628.72-.696 0-1.296-.12-1.8-.36a3.51 3.51 0 01-1.26-1.116h-.072v8.208h-2.844V39.18h2.844v1.368l.072.036c.384-.528.792-.924 1.224-1.188.432-.288 1.116-.432 2.052-.432zm-.972 2.772c-.792 0-1.392.264-1.8.792-.408.528-.612 1.2-.612 2.016V51.6c0 .84.192 1.512.576 2.016.384.504.996.756 1.836.756.528 0 .948-.096 1.26-.288.336-.216.588-.576.756-1.08.192-.504.324-1.164.396-1.98.072-.84.108-1.872.108-3.096 0-1.104-.024-2.04-.072-2.808-.024-.792-.12-1.44-.288-1.944-.168-.504-.42-.864-.756-1.08-.336-.24-.804-.36-1.404-.36zM117.895 55.452c-.48.648-1.032 1.104-1.656 1.368-.6.264-1.284.396-2.052.396-.744 0-1.368-.144-1.872-.432a3.861 3.861 0 01-1.224-1.188 6.264 6.264 0 01-.648-1.656 10.08 10.08 0 01-.18-1.908c0-.672.072-1.344.216-2.016a5.4 5.4 0 01.756-1.836c.36-.552.852-.996 1.476-1.332.624-.36 1.428-.54 2.412-.54h2.808v-2.376c0-.696-.168-1.248-.504-1.656-.312-.408-.924-.612-1.836-.612-.48 0-.948.144-1.404.432-.456.288-.744.756-.864 1.404l-2.7-.756c.264-1.176.84-2.1 1.728-2.772.888-.672 2.016-1.008 3.384-1.008 1.608 0 2.856.372 3.744 1.116.888.72 1.332 1.992 1.332 3.816V57h-2.88v-1.548h-.036zm.036-6.66h-2.088c-.744 0-1.404.228-1.98.684-.552.432-.828 1.224-.828 2.376 0 .84.18 1.488.54 1.944.36.432.924.648 1.692.648.888 0 1.548-.252 1.98-.756.456-.504.684-1.2.684-2.088v-2.808zM136.231 57v-7.884h-4.68V57h-2.916V39.216h2.916v7.488h4.68v-7.488h2.916V57h-2.916zM152.063 41.736V57h-2.808V41.736h-3.744v-2.52h10.332v2.52h-3.78z" fill="#03BCFC"/><path d="M6.516 2.348V26H4.932V2.348H.18V.944h11.088v1.404H6.516zM19.452 17.072a4.88 4.88 0 00-1.476.216 2.884 2.884 0 00-1.188.72c-.336.336-.6.78-.792 1.332-.192.528-.288 1.176-.288 1.944 0 .96.24 1.788.72 2.484.504.672 1.368 1.008 2.592 1.008 1.032 0 1.884-.276 2.556-.828.672-.576 1.008-1.416 1.008-2.52v-4.356h-3.132zm-4.788-5.976c.336-.912.9-1.632 1.692-2.16.792-.528 1.812-.792 3.06-.792 1.512 0 2.676.348 3.492 1.044.816.672 1.224 1.884 1.224 3.636V26h-1.548v-1.584h-.036c-.576.792-1.236 1.296-1.98 1.512a8.22 8.22 0 01-2.124.288c-.792 0-1.464-.132-2.016-.396a3.907 3.907 0 01-1.296-1.116 4.895 4.895 0 01-.756-1.548 7.994 7.994 0 01-.216-1.872 9.1 9.1 0 01.216-1.98 5.15 5.15 0 01.828-1.8 4.28 4.28 0 011.512-1.332c.648-.336 1.452-.504 2.412-.504h3.456V12.86c0-.48-.048-.912-.144-1.296a2.496 2.496 0 00-.504-1.044c-.24-.288-.576-.516-1.008-.684-.408-.168-.936-.252-1.584-.252-.696 0-1.356.168-1.98.504A2.408 2.408 0 0016.14 11.6l-1.476-.504zM40.9 12.068c-.432.936-.864 1.848-1.296 2.736-.408.888-.816 1.8-1.224 2.736l-2.088 4.428h-1.08c-.336-.744-.672-1.476-1.008-2.196l-1.008-2.16-2.556-5.616-.036.036V26h-1.548V8.396h1.512l5.22 11.304h.036L41.08 8.396h1.512V26h-1.548V12.068H40.9zM52.341 8.144c1.32 0 2.328.252 3.024.756.696.504 1.176 1.14 1.44 1.908.12.312.204.732.252 1.26.072.504.12 1.068.144 1.692.048.6.072 1.224.072 1.872V17.936c0 .624-.012 1.26-.036 1.908 0 .648-.036 1.356-.108 2.124-.072.84-.276 1.536-.612 2.088a3.994 3.994 0 01-1.188 1.332c-.456.312-.96.528-1.512.648a6.403 6.403 0 01-1.62.216c-1.44 0-2.52-.288-3.24-.864a4.622 4.622 0 01-1.44-2.268 8.373 8.373 0 01-.18-1.08 24.985 24.985 0 01-.108-1.476 35.684 35.684 0 01-.036-1.62v-1.548-1.908c.024-.648.048-1.26.072-1.836.048-.576.108-1.092.18-1.548.072-.48.156-.864.252-1.152.312-.84.84-1.512 1.584-2.016.744-.528 1.764-.792 3.06-.792zm-.036 1.404c-.624 0-1.224.132-1.8.396-.576.24-1.008.72-1.296 1.44-.192.48-.312 1.236-.36 2.268a75.306 75.306 0 00-.072 3.528v.9c0 1.152.012 2.124.036 2.916.048.792.144 1.404.288 1.836.216.648.576 1.152 1.08 1.512.528.336 1.236.504 2.124.504.792 0 1.476-.216 2.052-.648.576-.432.96-1.032 1.152-1.8.096-.408.156-1.056.18-1.944.048-.888.072-1.836.072-2.844 0-.528-.012-1.092-.036-1.692 0-.6-.012-1.176-.036-1.728 0-.552-.024-1.044-.072-1.476-.048-.456-.108-.804-.18-1.044-.216-.72-.612-1.248-1.188-1.584-.552-.36-1.2-.54-1.944-.54zM69.5 26v-8.316h-2.232c-.84 0-1.548.18-2.124.54-.576.336-1.02 1.092-1.332 2.268L62.444 26h-1.548l1.476-5.724c.24-.864.54-1.596.9-2.196.36-.624.96-1.032 1.8-1.224a2.754 2.754 0 01-1.584-1.152c-.36-.6-.66-1.332-.9-2.196l-1.332-5.112h1.44l1.44 5.364c.144.552.348.996.612 1.332.264.336.54.6.828.792.312.192.636.324.972.396.336.048.672.072 1.008.072H69.5V8.396h1.548v7.956h1.944c.312 0 .636-.024.972-.072a2.68 2.68 0 00.972-.396c.312-.192.6-.456.864-.792s.468-.78.612-1.332l1.44-5.364h1.44l-1.332 5.112c-.24.864-.552 1.596-.936 2.196-.36.576-.876.96-1.548 1.152.84.192 1.44.6 1.8 1.224.36.6.66 1.332.9 2.196L79.652 26h-1.548l-1.368-5.508c-.312-1.176-.756-1.932-1.332-2.268-.576-.36-1.284-.54-2.124-.54h-2.232V26H69.5zM88.248 8.144c1.44 0 2.556.372 3.348 1.116.816.72 1.26 1.764 1.332 3.132.024.264.036.528.036.792v4.248h-8.208v1.152c0 .768.012 1.572.036 2.412.048.816.144 1.428.288 1.836.216.624.564 1.116 1.044 1.476.48.36 1.128.54 1.944.54 1.08 0 1.872-.312 2.376-.936.528-.624.828-1.392.9-2.304l1.548.288c-.12 1.416-.612 2.496-1.476 3.24-.864.744-1.98 1.116-3.348 1.116-.72 0-1.356-.084-1.908-.252a4.67 4.67 0 01-1.332-.72 3.654 3.654 0 01-.864-.972 4.534 4.534 0 01-.468-1.188 8.356 8.356 0 01-.18-1.116 25.246 25.246 0 01-.108-1.44c0-.528-.012-1.068-.036-1.62v-1.548-1.944c.024-.648.048-1.26.072-1.836.048-.576.108-1.104.18-1.584s.156-.864.252-1.152c.312-.84.828-1.5 1.548-1.98.72-.504 1.728-.756 3.024-.756zm-3.096 3.312c-.168.408-.276 1.02-.324 1.836-.024.792-.048 1.74-.072 2.844h6.66V13.94c0-.552-.036-1.092-.108-1.62a3.326 3.326 0 00-.432-1.404 2.37 2.37 0 00-.972-.972c-.432-.24-1.008-.36-1.728-.36-.6 0-1.176.132-1.728.396s-.984.756-1.296 1.476zM105.881 26v-8.352h-6.588V26h-1.584V8.396h1.584v7.848h6.588V8.396h1.62V26h-1.62zM120.654 26v-8.352h-6.588V26h-1.584V8.396h1.584v7.848h6.588V8.396h1.62V26h-1.62zM128.766 24.524h2.628c.816 0 1.488-.096 2.016-.288.552-.216.984-.492 1.296-.828.336-.336.564-.72.684-1.152.12-.456.18-.936.18-1.44 0-1.104-.336-1.944-1.008-2.52-.648-.6-1.716-.9-3.204-.9h-2.592v7.128zM138.738 26V8.396h1.584V26h-1.584zm-11.484 0V8.396h1.512v7.524h2.7c1.104 0 2.016.132 2.736.396.72.24 1.296.576 1.728 1.008.432.432.732.948.9 1.548.192.576.288 1.2.288 1.872 0 .72-.084 1.404-.252 2.052a4.215 4.215 0 01-.864 1.656c-.408.48-.984.864-1.728 1.152-.72.264-1.632.396-2.736.396h-4.284zM147.165 1.916c.12.768.456 1.416 1.008 1.944.576.528 1.236.792 1.98.792.768 0 1.428-.24 1.98-.72.576-.504.924-1.176 1.044-2.016h1.296a5.265 5.265 0 01-.36 1.404 4.738 4.738 0 01-.828 1.296c-.36.384-.804.708-1.332.972-.504.24-1.104.36-1.8.36-.72 0-1.344-.12-1.872-.36a4.828 4.828 0 01-1.296-.972 5.015 5.015 0 01-.792-1.332 6.242 6.242 0 01-.324-1.368h1.296zM154.041 26V11.24h-.036a698.592 698.592 0 00-3.564 7.38 418.823 418.823 0 01-3.6 7.38h-1.512V8.396h1.548V23.12l7.164-14.724h1.548V26h-1.548z" fill="#4F4F4F"/></svg>