<svg width="90" height="76" fill="none" xmlns="http://www.w3.org/2000/svg"><path d="M74.795.037c-6.876 0-12.31 5.542-12.31 12.448 0 6.906 5.519 12.363 12.31 12.363 6.792 0 12.395-5.542 12.395-12.448C87.19 5.494 81.672.037 74.795.037zm0 22.083c-5.348 0-9.678-4.349-9.678-9.72 0-5.372 4.415-9.635 9.678-9.635 5.349 0 9.679 4.349 9.679 9.72 0 5.372-4.33 9.635-9.679 9.635z" fill="#03BCFC"/><path d="M78.7 14.36c-.084-.255-.084-.425-.254-.681-.085-.17-.17-.427-.34-.597-.17-.17-.254-.341-.424-.512-.17-.17-.34-.34-.595-.426-.17-.17-.424-.256-.594-.34-.255-.086-.424-.257-.68-.342a5.816 5.816 0 01-.678-.256c-.085 0-.255-.085-.34-.17-.085-.086-.255-.086-.34-.17-.084-.086-.254-.086-.339-.171l-.255-.256c-.085-.085-.17-.17-.17-.341-.084-.085-.084-.256-.084-.341V9.33c0-.085.085-.255.085-.34.084-.086.084-.256.17-.342l.254-.255a.647.647 0 01.424-.171c.17-.085.255-.085.425-.085h.509c.17 0 .255 0 .425.085.17 0 .34.085.424.085.085 0 .255.086.34.086.17 0 .255.085.34.085l.424.17.085-.511.17-1.364v-.341l-.34-.086c-.085 0-.255-.085-.34-.085-.084 0-.17-.085-.34-.085-.084 0-.254-.086-.424-.086-.17 0-.254-.085-.424-.085h-.085v-1.62h-2.037V6.09h-.085c-.255.086-.51.171-.764.342-.255.085-.425.255-.595.426-.17.17-.34.34-.51.597-.169.17-.254.426-.339.682l-.255.767c-.084.256-.084.597-.084.853s0 .426.084.682c.085.256.085.426.255.682.085.17.255.426.34.597.17.17.254.34.424.511.17.17.34.341.595.427.17.17.424.255.594.34.255.086.51.256.68.342.254.085.508.17.678.256.085 0 .255.085.34.17.085.085.255.085.34.17.084.086.17.171.254.171l.255.256c.085.085.085.17.17.341 0 .085.084.256.084.426v.427c0 .085-.084.255-.17.34l-.254.256c-.085.086-.17.171-.34.256-.084.085-.254.085-.34.17-.084 0-.254.086-.424.086h-1.103c-.17 0-.34-.085-.425-.085-.17 0-.34-.085-.51-.17-.169-.086-.339-.086-.509-.171-.085 0-.17-.086-.254-.086-.085 0-.17-.085-.255-.085l-.51-.256-.084.597-.17 1.535v.256l.255.085c.34-.085.509 0 .764.085.17.085.424.17.594.17.17.086.424.086.68.171.254.086.424.086.678.086h.17V20.5h2.038V18.709h.085c.254-.085.509-.17.764-.34.254-.086.424-.256.679-.427.17-.17.34-.341.51-.597.17-.17.254-.426.424-.682l.255-.767c.084-.256.084-.512.084-.853 0-.256 0-.426-.084-.682zM68.853 26.468c-.425-.597-1.359-.682-1.953-.256l-13.754 11-17.743-7.419a1.35 1.35 0 00-1.274.171L15.112 43.606c-.594.426-.764 1.279-.34 1.876.255.426.68.597 1.104.597.255 0 .51-.086.764-.256l18.423-13.216 17.829 7.418c.424.17 1.018.085 1.358-.17l14.348-11.426c.594-.426.679-1.364.255-1.96z" fill="#03BCFC"/><path d="M88.718 73.192h-6.282V33.715c0-.767-.594-1.364-1.358-1.364h-12.48c-.764 0-1.359.597-1.359 1.364v39.477h-4.584V47.357c0-.767-.595-1.364-1.359-1.364H48.731c-.764 0-1.358.597-1.358 1.364v25.835H42.79v-27.88c0-.768-.595-1.365-1.359-1.365H28.95c-.764 0-1.358.597-1.358 1.364v27.88h-4.585V53.327c0-.768-.594-1.364-1.358-1.364H9.084c-.764 0-1.358.596-1.358 1.364v19.866H1.358c-.764 0-1.358.597-1.358 1.364 0 .767.594 1.364 1.358 1.364h87.275c.765 0 1.359-.597 1.359-1.364.085-.767-.51-1.364-1.274-1.364zm-68.512 0h-9.763V54.69h9.763v18.502zm19.866 0h-9.763V46.675h9.763v26.517zm19.781 0H50.09v-24.47h9.763v24.47zm19.866 0h-9.763V35.08h9.763v38.112z" fill="#03BCFC"/></svg>