<svg width="23" height="24" fill="none" xmlns="http://www.w3.org/2000/svg"><path d="M21.465 19.346h0l-3.119 3.122c-.42.422-.976.653-1.563.653h-.031c-1.632-.026-7.294-.458-11.756-4.925C.534 13.728.102 8.057.076 6.424L0 6.426l.075-.002a2.228 2.228 0 01.652-1.598h0l3.117-3.122a1.109 1.109 0 011.522 0L9.965 6.31h0a1.075 1.075 0 010 1.522h0L8.132 9.667l-.032.031.013.043c.253.853.833 2.456 1.852 3.477 1.02 1.02 2.621 1.6 3.472 1.854l.043.013.032-.032 1.833-1.835h0a1.074 1.074 0 011.52 0h0l4.6 4.606h0a1.074 1.074 0 010 1.522zM4.659 4.04l-.053-.053-.053.053-2.306 2.308-.022.023v.032c.023 1.415.4 6.373 4.291 10.27 3.879 3.884 8.814 4.271 10.256 4.295h.032l.022-.022 2.307-2.308.053-.053-.053-.053-2.974-2.978-.053-.053-.053.053-1.487 1.489h0a1.067 1.067 0 01-.98.292h0a12.825 12.825 0 01-1.91-.598c-1.035-.41-2.286-1.052-3.23-1.997-.944-.945-1.585-2.197-1.995-3.233a12.872 12.872 0 01-.596-1.913h0a1.073 1.073 0 01.291-.982h0l1.487-1.489.053-.053-.053-.053L4.659 4.04zm1.434 4.52a1.147 1.147 0 00-.312 1.05c.028.132.703 3.272 2.612 5.183 1.909 1.912 5.045 2.587 5.177 2.615L6.093 8.559zm6.62-8.316c5.804.037 10.174 4.408 10.211 10.212h-2.15c-.036-4.649-3.412-8.023-8.061-8.06V.245z" fill="#BDBDBD" stroke="#fff" stroke-width=".15"/><path d="M12.724 7.003V4.85c1.805.014 3.195.52 4.138 1.464.943.944 1.448 2.336 1.462 4.143h-2.15c-.01-1.181-.271-2.044-.84-2.613-.569-.57-1.43-.83-2.61-.841z" fill="#BDBDBD" stroke="#fff" stroke-width=".15"/></svg>