<svg width="101" height="104" fill="none" xmlns="http://www.w3.org/2000/svg"><path d="M35.974 51.095c1.319.762 1.792 2.411 1.059 3.683-.367.636-.13 1.461.53 1.842.659.381 1.49.174 1.857-.462 1.2-2.099.781-4.774-1.019-6.513l.758-1.315c.367-.636.13-1.46-.53-1.842-.658-.381-1.49-.174-1.857.462l-.758 1.315c-2.66-.767-5.42.513-6.442 2.987-1.022 2.473.014 5.368 2.417 6.753 1.319.762 1.793 2.411 1.059 3.683-.733 1.273-2.397 1.686-3.716.924-1.318-.762-1.792-2.412-1.059-3.684.367-.636.13-1.46-.53-1.841-.659-.382-1.49-.175-1.857.461-1.2 2.1-.78 4.775 1.019 6.513l-.759 1.316c-.367.636-.13 1.46.53 1.842.66.38 1.491.174 1.858-.462l.756-1.312c2.663.777 5.433-.503 6.458-2.982 1.025-2.48-.018-5.38-2.431-6.761-1.319-.763-1.793-2.412-1.06-3.684.734-1.272 2.398-1.685 3.717-.923zM46.359 41.388l-7.171-4.145a1.379 1.379 0 00-1.885.505c-.38.66-.154 1.505.506 1.887l7.17 4.145c.66.382 1.504.155 1.885-.505s.155-1.505-.505-1.887zM27.508 74.079l-7.17-4.146a1.379 1.379 0 00-1.885.505c-.381.661-.155 1.506.505 1.887l7.17 4.145c.66.382 1.505.156 1.886-.505.38-.66.154-1.505-.506-1.886z" fill="#03BCFC"/><path d="M73.701 78.27l.08-39.146a22.422 22.422 0 004.715-1.849c3.716-2.014 5.767-4.78 5.773-7.784.013-5.982-8.147-10.65-18.577-10.63-1.39.012-2.778.112-4.156.3l-.317-1.595a6.728 6.728 0 00-3.223-4.508 6.712 6.712 0 00-5.51-.54l-20.821 7.06a6.774 6.774 0 00-3.694 3.035L7 58.98c-3.305 5.748-1.363 13.077 4.342 16.384l16.088 9.3c5.713 3.294 13.024 1.313 16.342-4.427L64.744 43.87c.64-1.115.95-2.39.892-3.672l.01.005a32.37 32.37 0 005.474-.482l-.076 38.556c-.008 5.156-4.18 9.345-9.318 9.356l-18.6.039a9.173 9.173 0 01-2.414-.33 1.334 1.334 0 00-1.63.944 1.328 1.328 0 00.932 1.633 11.89 11.89 0 003.102.416l18.599-.039c6.605-.01 11.973-5.394 11.986-12.024zm-32.227.64c-2.581 4.464-8.267 6.004-12.71 3.442l-16.088-9.3C8.238 70.481 6.727 64.78 9.298 60.31L30.27 23.94a4.105 4.105 0 012.236-1.838l20.82-7.058a4.057 4.057 0 013.337.325 4.068 4.068 0 011.95 2.73l3.839 19.257a21.856 21.856 0 01-9.25-2.908c.22-.26.42-.535.596-.825 1.837-3.194.757-7.265-2.413-9.102a1.288 1.288 0 00-.411-.138 1.312 1.312 0 00-1.756.161 7.499 7.499 0 00-2.145 5.02 7.21 7.21 0 001.794 4.64 3.946 3.946 0 01-4.057-1.541 3.994 3.994 0 01-.205-4.355 1.333 1.333 0 00-.483-1.82 1.33 1.33 0 00-1.815.492 6.668 6.668 0 00.92 7.925 6.604 6.604 0 007.84 1.31c.425.31.864.598 1.319.862a25.47 25.47 0 0010.576 2.998 4.098 4.098 0 01-.516 2.465L41.474 78.91zM51.5 32.295a4.007 4.007 0 01-.342.476 4.833 4.833 0 01-1.428-3.212c.02-.856.297-1.687.793-2.385a4.001 4.001 0 01.977 5.121zm14.156 5.23c-.154 0-.302-.008-.454-.01l-3.137-15.738c1.2-.154 2.409-.235 3.618-.244 8.643-.02 15.937 3.63 15.923 7.972-.003 1.98-1.556 3.91-4.37 5.435a19.064 19.064 0 01-3.455 1.42v-.027a6.741 6.741 0 00-1.675-4.469l-3.617-4.132a1.324 1.324 0 00-1.85-.086c-.54.479-.605 1.3-.145 1.854l3.622 4.124a4.09 4.09 0 011.014 2.706l-.001.678a29.527 29.527 0 01-5.476.52l.002-.003z" fill="#03BCFC"/><path d="M53.414 69.121a1.318 1.318 0 001.332 1.352l10.789-.138c.484-.002.936-.269 1.184-.697a1.39 1.39 0 00.017-1.375 1.305 1.305 0 00-1.167-.668l-10.789.138c-.745.01-1.356.63-1.366 1.388zM50.859 77.248c.015.736.639 1.346 1.392 1.362l13.64.292c.753.017 1.351-.567 1.335-1.303-.016-.736-.64-1.345-1.393-1.362l-13.64-.292c-.752-.015-1.35.567-1.334 1.303zM59.81 64.047c.205.119.438.18.676.177l5.414-.057a1.384 1.384 0 001.188-.695 1.39 1.39 0 00.014-1.377 1.318 1.318 0 00-1.173-.67l-5.415.056a1.392 1.392 0 00-1.318 1.03 1.354 1.354 0 00.615 1.536z" fill="#03BCFC"/></svg>