<svg width="25" height="27" fill="none" xmlns="http://www.w3.org/2000/svg"><path d="M11.842.22c-2.114.026-6.658.374-9.2 2.71C.75 4.804.09 7.577.013 11.007c-.064 3.417-.141 9.834 6.037 11.58v2.662s-.04 1.065.664 1.283c.866.275 1.359-.545 2.182-1.425l1.535-1.738c4.227.352 7.464-.459 7.837-.58.858-.274 5.69-.892 6.479-7.31.81-6.628-.395-10.804-2.569-12.693h-.013C21.51 2.182 18.872.26 12.982.237c0 0-.437-.03-1.14-.017zm.072 1.864c.6-.004.965.022.965.022 4.986.013 7.366 1.515 7.927 2.021 1.83 1.571 2.774 5.336 2.084 10.87-.657 5.365-4.575 5.704-5.3 5.936-.309.099-3.16.803-6.752.571 0 0-2.675 3.233-3.512 4.065-.132.146-.287.189-.386.167-.141-.034-.184-.21-.176-.45l.026-4.417c-5.24-1.45-4.931-6.924-4.875-9.783.064-2.86.6-5.198 2.195-6.782 2.148-1.944 6.007-2.206 7.803-2.22h.002zm.396 2.859a.326.326 0 00-.33.326c0 .185.15.33.33.33a6.177 6.177 0 014.424 1.748c1.196 1.163 1.779 2.725 1.801 4.768 0 .18.146.33.33.33v-.012a.33.33 0 00.33-.327 7.107 7.107 0 00-1.99-5.232c-1.302-1.275-2.954-1.932-4.895-1.932zm-4.34.755a1.03 1.03 0 00-.673.133H7.28c-.47.276-.894.625-1.256 1.034-.3.348-.463.7-.506 1.039-.026.202-.008.404.052.596l.021.014c.338.995.78 1.953 1.32 2.855a16.792 16.792 0 002.547 3.485l.03.043.047.034.03.035.034.03c1.05 1 2.223 1.86 3.49 2.562 1.449.79 2.328 1.163 2.856 1.318v.008c.154.047.295.069.437.069.45-.033.875-.216 1.209-.52a4.997 4.997 0 001.02-1.261v-.009c.253-.476.168-.927-.197-1.232-.73-.639-1.52-1.207-2.358-1.695-.562-.305-1.132-.12-1.363.189l-.493.622c-.253.309-.712.266-.712.266l-.014.008c-3.425-.876-4.338-4.348-4.338-4.348s-.043-.472.274-.713l.617-.498c.296-.24.501-.81.184-1.374a14.83 14.83 0 00-1.689-2.36.938.938 0 00-.553-.331l.002.001zm4.91.98c-.438 0-.438.66.003.66A4.133 4.133 0 0115.79 8.6a3.841 3.841 0 01.986 2.825.333.333 0 00.33.326l.013.017a.333.333 0 00.33-.33c.03-1.31-.377-2.408-1.174-3.289-.802-.88-1.92-1.374-3.349-1.472h-.047zm.54 1.776c-.45-.013-.468.661-.021.674 1.085.057 1.611.605 1.68 1.735a.328.328 0 00.326.322h.014a.334.334 0 00.316-.352c-.077-1.472-.879-2.301-2.302-2.378h-.013z" fill="#BDBDBD"/></svg>