<svg width="25" height="26" fill="none" xmlns="http://www.w3.org/2000/svg"><path fill-rule="evenodd" clip-rule="evenodd" d="M21.357 3.92A12.365 12.365 0 0012.553.266C5.692.265.107 5.856.104 12.728c0 2.196.573 4.34 1.661 6.23L0 25.417l6.599-1.734a12.441 12.441 0 005.948 1.517h.006c6.86 0 12.444-5.59 12.447-12.463a12.406 12.406 0 00-3.643-8.815zm-8.804 19.176h-.005c-1.853 0-3.672-.5-5.266-1.445l-.377-.225-3.916 1.029 1.045-3.822-.246-.392a10.35 10.35 0 01-1.582-5.513C2.209 7.017 6.85 2.37 12.556 2.37a10.268 10.268 0 017.315 3.038 10.3 10.3 0 013.027 7.328c-.003 5.712-4.644 10.36-10.345 10.36zm5.675-7.76c-.312-.156-1.84-.909-2.126-1.013-.284-.104-.49-.155-.699.156-.208.31-.804 1.012-.985 1.22-.182.208-.364.233-.674.078-.31-.156-1.313-.485-2.502-1.545-.925-.826-1.548-1.845-1.73-2.158-.182-.312-.02-.48.137-.636.14-.138.31-.363.466-.545.155-.182.207-.311.31-.52.105-.208.053-.39-.026-.545-.077-.157-.7-1.69-.96-2.313-.25-.604-.507-.523-.698-.532a13.361 13.361 0 00-.595-.01 1.144 1.144 0 00-.83.388c-.286.312-1.089 1.065-1.089 2.598 0 1.532 1.115 3.014 1.27 3.222.156.208 2.194 3.353 5.314 4.702.743.32 1.322.512 1.773.657.745.237 1.423.202 1.96.123.597-.089 1.84-.752 2.098-1.48.26-.727.26-1.35.182-1.481-.078-.13-.287-.21-.596-.365z" fill="#BDBDBD"/></svg>