<svg width="69" height="79" viewBox="0 0 69 79" fill="none" xmlns="http://www.w3.org/2000/svg">
<g clip-path="url(#clip0)">
<path d="M4.57764e-05 53.0781V70.3594C-0.00117321 70.846 0.0935996 71.3281 0.278931 71.7779C0.464262 72.2278 0.736499 72.6365 1.07999 72.9806C1.42347 73.3247 1.83145 73.5974 2.28047 73.7831C2.72949 73.9688 3.21071 74.0637 3.69647 74.0625H20.9465C24.2409 74.0625 25.8889 70.0662 23.5648 67.7363L17.9893 62.1508L34.5 45.6102L51.0154 62.1662L45.4353 67.7363C43.1112 70.0662 44.7592 74.0625 48.0536 74.0625H65.3036C65.7894 74.0637 66.2706 73.9688 66.7196 73.7831C67.1686 73.5974 67.5766 73.3247 67.9201 72.9806C68.2636 72.6365 68.5358 72.2278 68.7211 71.7779C68.9065 71.3281 69.0012 70.846 69 70.3594V53.0781C69 49.7762 65.0125 48.1252 62.6853 50.4551L57.1114 56.0406L40.5899 39.5L57.1129 22.9439L62.6853 28.5449C65.011 30.8748 69 29.2238 69 25.9219V8.64062C69.0012 8.15398 68.9065 7.67189 68.7211 7.22205C68.5358 6.77222 68.2636 6.3635 67.9201 6.01939C67.5766 5.67528 67.1686 5.40256 66.7196 5.21689C66.2706 5.03123 65.7894 4.93628 65.3036 4.9375H48.0536C44.7592 4.9375 43.1112 8.93379 45.4353 11.2637L51.0107 16.8492L34.5 33.3898L17.9847 16.8338L23.5648 11.2637C25.8889 8.93379 24.2409 4.9375 20.9465 4.9375H3.69647C3.21071 4.93628 2.72949 5.03123 2.28047 5.21689C1.83145 5.40256 1.42347 5.67528 1.07999 6.01939C0.736499 6.3635 0.464262 6.77222 0.278931 7.22205C0.0935996 7.67189 -0.00117321 8.15398 4.57764e-05 8.64062V25.9219C4.57764e-05 29.2238 3.98756 30.8748 6.31477 28.5449L11.8887 22.9594L28.4102 39.5L11.8871 56.0561L6.31477 50.4705C3.9891 48.1252 4.57764e-05 49.7762 4.57764e-05 53.0781Z" fill="#005FA3"/>
</g>
<defs>
<clipPath id="clip0">
<rect width="69" height="79" fill="white" transform="matrix(-1 0 0 1 69 0)"/>
</clipPath>
</defs>
</svg>
