<svg width="103" height="88" viewBox="0 0 103 88" fill="none" xmlns="http://www.w3.org/2000/svg">
<path d="M67.9219 11H54.5C53.25 11 52.0469 11.5076 51.125 12.4214L35.7656 27.6502C35.75 27.6671 35.7344 27.701 35.7187 27.7179C33.125 30.3576 33.1719 34.5709 35.3906 37.1936C37.375 39.5456 41.5469 40.1717 44.1562 37.6505C44.1719 37.6336 44.2031 37.6336 44.2187 37.6166L56.7031 25.2305C57.7187 24.2322 59.3125 24.2999 60.2344 25.3997C61.1719 26.4996 61.0937 28.2086 60.0781 29.2239L56 33.268L78.75 53.2685C79.2031 53.6746 79.6094 54.1146 79.9844 54.5714V21.8294L71.4531 12.5906C70.5312 11.5753 69.25 11 67.9219 11V11ZM85 21.8632V59.7492C85 62.7443 87.2344 65.1639 90 65.1639H100V21.8632H85ZM92.5 59.7492C91.125 59.7492 90 58.5309 90 57.0419C90 55.5529 91.125 54.3345 92.5 54.3345C93.875 54.3345 95 55.5529 95 57.0419C95 58.5309 93.875 59.7492 92.5 59.7492ZM0 65.147H10C12.7656 65.147 15 62.7273 15 59.7323V21.8632H0V65.147ZM7.5 54.3345C8.875 54.3345 10 55.5529 10 57.0419C10 58.5309 8.875 59.7492 7.5 59.7492C6.125 59.7492 5 58.5309 5 57.0419C5 55.5359 6.125 54.3345 7.5 54.3345ZM75.6094 57.4818L52.2812 36.9737L47.5937 41.6269C42.9531 46.2125 35.8437 45.7725 31.7031 40.8824C27.5 35.9076 27.8281 28.2086 32.3906 23.6738L45.1719 11H32.0781C30.75 11 29.4844 11.5753 28.5469 12.5906L20 21.8294V59.7154H22.8594L37 73.5737C41.2812 77.347 47.5781 76.6363 51.0625 72L51.0937 71.9662L53.8906 74.5889C56.375 76.7886 60.0469 76.3656 62.0625 73.6752L66.9687 67.1437L67.8125 67.8882C69.9531 69.7664 73.1094 69.428 74.8437 67.0929L76.3281 65.1132C78.0781 62.7781 77.75 59.377 75.6094 57.4818V57.4818Z" fill="#005FA3"/>
</svg>
