<svg width="85" height="76" viewBox="0 0 85 76" fill="none" xmlns="http://www.w3.org/2000/svg">
<g clip-path="url(#clip0)">
<path d="M40.0002 21.4195L48.0088 23.5422C48.2808 23.6062 48.5241 23.7587 48.7011 23.9761C48.878 24.1936 48.9786 24.4637 48.9871 24.7445C48.9871 25.4273 48.3836 25.9914 47.6413 25.9914H42.3878C41.8217 25.9898 41.2612 25.8789 40.7365 25.6648C39.9633 25.3383 39.072 25.4125 38.4787 25.9617L35.6749 28.5594C35.5452 28.6736 35.4333 28.8066 35.3429 28.9542C35.2271 29.1452 35.1501 29.3574 35.1162 29.5784C35.0823 29.7995 35.0923 30.0252 35.1455 30.2423C35.1988 30.4595 35.2942 30.664 35.4263 30.8439C35.5585 31.0238 35.7247 31.1756 35.9154 31.2906C37.4682 32.228 39.2067 32.8107 41.0081 32.9977V35.625C41.0081 36.9313 42.1635 38 43.5714 38H46.1346C47.5439 38 48.6994 36.9313 48.6994 35.625V33.0125C53.5589 32.4781 57.2348 28.4109 56.5944 23.6609C56.1295 20.2469 53.2799 17.5305 49.7235 16.5805L41.7149 14.4578C41.4429 14.3938 41.1996 14.2413 41.0226 14.0239C40.8457 13.8064 40.7451 13.5363 40.7365 13.2555C40.7365 12.5727 41.3401 12.0086 42.0824 12.0086H47.3358C47.904 12.0095 48.4666 12.1204 48.9931 12.3352C49.7648 12.6617 50.6576 12.5875 51.2509 12.0383L54.0547 9.44062C54.1801 9.32887 54.288 9.19877 54.3749 9.05469C54.4917 8.86376 54.5696 8.65145 54.6043 8.43003C54.639 8.20861 54.6298 7.98247 54.5771 7.76468C54.5244 7.54688 54.4293 7.34174 54.2973 7.16112C54.1654 6.9805 53.9991 6.82797 53.8082 6.71234C52.255 5.77501 50.516 5.19227 48.7141 5.00531V2.375C48.7141 1.06875 47.5602 0 46.1509 0H43.5876C42.1783 0 41.0243 1.06875 41.0243 2.375V4.9875C36.1707 5.52187 32.4874 9.58906 33.1279 14.3391C33.5912 17.7531 36.4496 20.4695 40.0002 21.4195ZM83.4166 48.7023C81.6753 47.1141 78.96 47.218 77.1301 48.7023L63.4947 59.6719C61.8209 61.0226 59.7378 61.756 57.5919 61.75H40.1389C39.5127 61.75 38.9121 61.4998 38.4693 61.0544C38.0265 60.609 37.7778 60.0049 37.7778 59.375C37.7778 58.7451 38.0265 58.141 38.4693 57.6956C38.9121 57.2502 39.5127 57 40.1389 57H51.6921C54.0385 57 56.224 55.382 56.5988 53.0516C56.645 52.7839 56.6677 52.5127 56.6667 52.2411C56.6643 50.9829 56.1658 49.777 55.2804 48.8881C54.3951 47.9992 53.1953 47.5 51.9444 47.5H28.3333C24.3513 47.5011 20.4907 48.8788 17.3984 51.4024L10.5365 57H2.36111C1.73491 57 1.13435 57.2502 0.691553 57.6956C0.248759 58.141 0 58.7451 0 59.375L0 73.625C0 74.2549 0.248759 74.859 0.691553 75.3044C1.13435 75.7498 1.73491 76 2.36111 76H55.0095C57.1546 76.0017 59.2364 75.2688 60.9122 73.9219L83.2292 55.9609C83.766 55.529 84.2026 54.9844 84.5085 54.3652C84.8144 53.746 84.9822 53.067 85.0002 52.3758C85.0182 51.6845 84.8859 50.9977 84.6127 50.3632C84.3394 49.7287 83.9317 49.1619 83.4181 48.7023H83.4166Z" fill="#005FA3"/>
</g>
<defs>
<clipPath id="clip0">
<rect width="85" height="76" fill="white"/>
</clipPath>
</defs>
</svg>
