<?xml version="1.0" encoding="utf-8"?>
<!-- Generator: Adobe Illustrator 14.0.0, SVG Export Plug-In . SVG Version: 6.00 Build 43363)  -->
<!DOCTYPE svg PUBLIC "-//W3C//DTD SVG 1.1//EN" "http://www.w3.org/Graphics/SVG/1.1/DTD/svg11.dtd">
<svg version="1.1" id="vans" xmlns="http://www.w3.org/2000/svg" xmlns:xlink="http://www.w3.org/1999/xlink" x="0px" y="0px"
	 width="400px" height="300px" viewBox="0 0 400 300" enable-background="new 0 0 400 300" xml:space="preserve">
<polygon id="v" fill="#D52027" points="107.589,91.845 88.283,164.521 68.493,91.845 32.777,91.845 70.424,208.33 106.142,208.33 
	137.515,112.72 367.615,112.72 368.583,91.845 "/>
<path id="s" fill="#D52027" d="M328.125,152.558c-8.833-3.227-9.763-5.46-9.763-7.94c0-2.482,3.719-5.459,9.298-5.459
	c5.574,0,11.153,3.227,11.153,7.692h22.771c0-7.94-6.969-27.047-32.533-27.047c-25.56,0-35.318,16.13-34.389,27.047
	c0,9.181,6.508,19.851,35.322,29.032c8.829,3.227,10.688,6.948,10.688,9.431c0,2.479-5.578,6.203-11.152,6.203
	c-5.579,0-13.016-4.717-13.016-9.43h-24.166c0,8.188,6.509,27.791,36.251,27.791c25.562,0,37.179-16.625,36.249-27.543
	C364.838,165.211,340.208,155.535,328.125,152.558z"/>
<path id="a" fill="#D52027" d="M175.218,122.532h-26.954l-27.885,85.855h23.703l2.788-11.662h28.813l3.72,11.662h23.402
	L175.218,122.532z M152.446,178.612l9.295-32.259l9.295,32.259H152.446z"/>
<polygon id="n" fill="#D52027" points="259.523,166.205 232.568,122.532 207.475,122.532 207.475,208.402 231.639,208.388 
	231.639,162.233 259.988,208.388 283.693,208.388 283.693,122.532 259.523,122.532 "/>
</svg>
