<svg width="100" height="80" viewBox="0 0 100 80" fill="none" xmlns="http://www.w3.org/2000/svg">
<path d="M5 5H95C97.7609 5 100 7.23906 100 10V70C100 72.7609 97.7609 75 95 75H5C2.23906 75 0 72.7609 0 70V10C0 7.23906 2.23906 5 5 5ZM72.5 51.2313V53.75C72.5 54.4406 73.0594 55 73.75 55H76.25C76.9406 55 77.5 54.4406 77.5 53.75V51.2047C79.2641 51.1141 80.9797 50.4984 82.4016 49.4312C83.0109 48.9734 83.0422 48.0609 82.4906 47.5344L80.6547 45.7828C80.2219 45.3703 79.5781 45.3516 79.0719 45.6687C78.4672 46.0469 77.7813 46.25 77.0688 46.25H72.6766C71.6609 46.25 70.8328 45.325 70.8328 44.1891C70.8328 43.2594 71.3969 42.4406 72.2031 42.2L79.2344 40.0906C82.1391 39.2187 84.1688 36.4313 84.1688 33.3109C84.1688 29.4797 81.1922 26.3672 77.5016 26.2687V23.75C77.5016 23.0594 76.9422 22.5 76.2516 22.5H73.7516C73.0609 22.5 72.5016 23.0594 72.5016 23.75V26.2953C70.7375 26.3859 69.0219 27 67.6 28.0687C66.9906 28.5266 66.9594 29.4391 67.5109 29.9656L69.3469 31.7172C69.7797 32.1297 70.4234 32.1484 70.9297 31.8313C71.5344 31.4516 72.2203 31.25 72.9328 31.25H77.325C78.3406 31.25 79.1687 32.175 79.1687 33.3109C79.1687 34.2406 78.6047 35.0594 77.7984 35.3L70.7672 37.4094C67.8625 38.2812 65.8328 41.0687 65.8328 44.1891C65.8328 48.0219 68.8094 51.1328 72.5 51.2313V51.2313ZM35 48.75C35 49.4406 35.5594 50 36.25 50H53.75C54.4406 50 55 49.4406 55 48.75V46.25C55 45.5594 54.4406 45 53.75 45H36.25C35.5594 45 35 45.5594 35 46.25V48.75ZM10 48.75C10 49.4406 10.5594 50 11.25 50H23.75C24.4406 50 25 49.4406 25 48.75V46.25C25 45.5594 24.4406 45 23.75 45H11.25C10.5594 45 10 45.5594 10 46.25V48.75ZM10 33.75C10 34.4406 10.5594 35 11.25 35H53.75C54.4406 35 55 34.4406 55 33.75V31.25C55 30.5594 54.4406 30 53.75 30H11.25C10.5594 30 10 30.5594 10 31.25V33.75Z" fill="#005FA3"/>
</svg>
