<svg width="67" height="76" viewBox="0 0 67 76" fill="none" xmlns="http://www.w3.org/2000/svg">
<g clip-path="url(#clip0)">
<path d="M47.8571 52.25H44.4025C40.984 53.8147 37.2644 54.6249 33.5 54.6249C29.7356 54.6249 26.016 53.8147 22.5975 52.25H19.1429C14.0659 52.25 9.1968 54.2518 5.60681 57.815C2.01683 61.3782 0 66.2109 0 71.25C0 72.5098 0.504208 73.718 1.4017 74.6088C2.2992 75.4996 3.51646 76 4.78571 76H62.2143C63.4835 76 64.7008 75.4996 65.5983 74.6088C66.4958 73.718 67 72.5098 67 71.25C67 66.2109 64.9832 61.3782 61.3932 57.815C57.8032 54.2518 52.9341 52.25 47.8571 52.25V52.25ZM7.17857 33.25C7.8132 33.25 8.42183 32.9998 8.87058 32.5544C9.31932 32.109 9.57143 31.5049 9.57143 30.875V28.5C9.57143 15.4048 20.3064 4.75 33.5 4.75C46.6936 4.75 57.4286 15.4048 57.4286 28.5V30.875C57.425 34.0234 56.1633 37.0418 53.9204 39.268C51.6774 41.4942 48.6363 42.7465 45.4643 42.75H40.6786C40.6786 41.4902 40.1744 40.282 39.2769 39.3912C38.3794 38.5004 37.1621 38 35.8929 38H31.1071C29.8379 38 28.6206 38.5004 27.7231 39.3912C26.8256 40.282 26.3214 41.4902 26.3214 42.75C26.3214 44.0098 26.8256 45.218 27.7231 46.1088C28.6206 46.9996 29.8379 47.5 31.1071 47.5H45.4643C49.905 47.4945 54.1622 45.7412 57.3022 42.6246C60.4422 39.508 62.2087 35.2825 62.2143 30.875V28.5C62.2143 12.7849 49.3332 0 33.5 0C17.6668 0 4.78571 12.7849 4.78571 28.5V30.875C4.78571 31.5049 5.03782 32.109 5.48657 32.5544C5.93531 32.9998 6.54395 33.25 7.17857 33.25ZM31.1071 33.25H35.8929C37.5726 33.2504 39.2227 33.6896 40.6772 34.5233C42.1318 35.3571 43.3397 36.5562 44.1796 38H45.4643C47.3676 37.998 49.1923 37.2467 50.5381 35.911C51.8839 34.5752 52.6409 32.7641 52.6429 30.875V28.5C52.6429 23.4609 50.626 18.6282 47.036 15.065C43.4461 11.5018 38.577 9.5 33.5 9.5C28.423 9.5 23.5539 11.5018 19.964 15.065C16.374 18.6282 14.3571 23.4609 14.3571 28.5C14.3571 34.4998 17.2136 39.7813 21.5881 43.2651C21.5791 43.0914 21.5357 42.9266 21.5357 42.75C21.5385 40.2313 22.5478 37.8165 24.3422 36.0355C26.1366 34.2545 28.5695 33.2528 31.1071 33.25Z" fill="#005FA3"/>
</g>
<defs>
<clipPath id="clip0">
<rect width="67" height="76" fill="white"/>
</clipPath>
</defs>
</svg>
