<svg width="66" height="76" viewBox="0 0 66 76" fill="none" xmlns="http://www.w3.org/2000/svg">
<path d="M33 38C43.4156 38 51.8571 29.4945 51.8571 19C51.8571 8.50547 43.4156 0 33 0C22.5844 0 14.1429 8.50547 14.1429 19C14.1429 29.4945 22.5844 38 33 38ZM47.1134 42.8391L40.0714 71.25L35.3571 51.0625L40.0714 42.75H25.9286L30.6429 51.0625L25.9286 71.25L18.8866 42.8391C8.38259 43.3438 0 51.9977 0 62.7V68.875C0 72.8086 3.16741 76 7.07143 76H58.9286C62.8326 76 66 72.8086 66 68.875V62.7C66 51.9977 57.6174 43.3438 47.1134 42.8391V42.8391Z" fill="#005FA3"/>
</svg>
